<?xml version="1.0" encoding="UTF-8"?>
<svg id="Capa_1" xmlns="http://www.w3.org/2000/svg" version="1.1" viewBox="0 0 106.85 39.32">
  <!-- Generator: Adobe Illustrator 30.2.1, SVG Export Plug-In . SVG Version: 2.1.1 Build 1)  -->
  <defs>
    <style>
      .st0 {
        fill: #ddff9d;
      }
    </style>
  </defs>
  <g>
    <path class="st0" d="M48.84,1.6h2.55c2.54,0,3.8,1.66,3.8,3.44v.21c0,1.7-1.26,3.47-3.8,3.47h-2.55V1.59h0ZM50.21,2.87v4.58h1.26c1.46,0,2.33-.95,2.33-2.31s-.87-2.28-2.33-2.28h-1.26,0Z"/>
    <path class="st0" d="M56.55,4.45h-.73v-1h2.07v5.24h-1.34v-4.23h0ZM56.27,2.09c0-.42.24-.72.77-.72s.76.3.76.72-.24.73-.76.73-.77-.31-.77-.73Z"/>
    <path class="st0" d="M59.43,3.45h1.06v1.71c.13-1.17.77-1.77,1.87-1.77h.19v1.17h-.37c-.91,0-1.42.5-1.42,1.41v2.73h-1.34V3.46h0Z"/>
    <path class="st0" d="M63.06,6.16v-.18c0-1.39.91-2.71,2.63-2.71s2.58,1.26,2.58,2.64v.48h-3.94c.09.82.53,1.37,1.42,1.37.65,0,1.08-.3,1.2-.68h1.23c-.23,1.08-1.14,1.79-2.43,1.79-1.8,0-2.69-1.37-2.69-2.71ZM64.36,5.57h2.63c-.11-.75-.54-1.2-1.29-1.2s-1.21.44-1.34,1.2h0Z"/>
    <path class="st0" d="M69.04,6.17v-.18c0-1.4.91-2.72,2.66-2.72,1.37,0,2.36.85,2.45,2.1h-1.3c-.07-.54-.46-.95-1.15-.95-.9,0-1.32.68-1.32,1.65s.4,1.64,1.33,1.64c.69,0,1.12-.41,1.19-.97h1.3c-.08,1.28-1.11,2.13-2.49,2.13-1.8,0-2.67-1.36-2.67-2.7Z"/>
    <path class="st0" d="M74.92,6.17v-.18c0-1.4.91-2.72,2.66-2.72,1.37,0,2.36.85,2.45,2.1h-1.3c-.07-.54-.46-.95-1.15-.95-.9,0-1.32.68-1.32,1.65s.4,1.64,1.33,1.64c.69,0,1.12-.41,1.19-.97h1.3c-.08,1.28-1.11,2.13-2.49,2.13-1.8,0-2.67-1.36-2.67-2.7Z"/>
    <path class="st0" d="M81.4,4.45h-.73v-1h2.07v5.24h-1.34v-4.23h0ZM81.12,2.09c0-.42.24-.72.77-.72s.76.3.76.72-.24.73-.76.73-.77-.31-.77-.73Z"/>
    <path class="st0" d="M83.93,6.18v-.2c0-1.44,1.08-2.71,2.87-2.71s2.86,1.27,2.86,2.71v.2c0,1.39-1.02,2.69-2.86,2.69s-2.87-1.3-2.87-2.69ZM88.31,6.07c0-.95-.57-1.66-1.51-1.66s-1.52.7-1.52,1.66.54,1.65,1.52,1.65,1.51-.7,1.51-1.65ZM86.99.81h1.38l-1.09,1.98h-1.15l.86-1.98h0Z"/>
    <path class="st0" d="M90.82,3.45h1.06v1.29c.22-.96.82-1.46,1.79-1.46h.06c1.24,0,1.9.81,1.9,2.4v3h-1.34v-3.12c0-.65-.4-1.08-1.03-1.08s-1.1.44-1.1,1.12v3.08h-1.34V3.44h0Z"/>
    <path class="st0" d="M48.84,12.6h2.25l2.96,5.9h.13v-5.9h1.29v7.04h-2.26l-2.96-5.9h-.14v5.9h-1.27s0-7.04,0-7.04Z"/>
    <path class="st0" d="M56.67,18.09c0-1.15.9-1.68,2.3-1.68h1.07v-.05c0-.6-.3-.9-.91-.9-.48,0-1.33.03-1.87.07v-1.14c.44-.04,1.11-.07,1.63-.07,1.61,0,2.43.61,2.43,2.06v3.25h-1.06v-1c-.23.74-.8,1.14-1.69,1.14-1.15,0-1.9-.62-1.9-1.69h0ZM60.04,17.7v-.49h-1.09c-.61,0-.95.33-.95.81s.34.8.95.8c.55,0,1.05-.26,1.09-1.12Z"/>
    <path class="st0" d="M62.41,17.12v-.18c0-1.4.91-2.72,2.66-2.72,1.37,0,2.36.85,2.45,2.1h-1.3c-.07-.54-.46-.95-1.15-.95-.9,0-1.32.68-1.32,1.65s.4,1.64,1.33,1.64c.69,0,1.12-.41,1.19-.97h1.3c-.08,1.28-1.11,2.13-2.49,2.13-1.8,0-2.67-1.36-2.67-2.7Z"/>
    <path class="st0" d="M68.89,15.41h-.73v-1h2.07v5.24h-1.34v-4.23h0ZM68.61,13.04c0-.42.24-.72.77-.72s.76.3.76.72-.24.73-.76.73-.77-.31-.77-.73Z"/>
    <path class="st0" d="M71.42,17.13v-.2c0-1.44,1.08-2.71,2.87-2.71s2.86,1.27,2.86,2.71v.2c0,1.39-1.02,2.69-2.86,2.69s-2.87-1.3-2.87-2.69ZM75.8,17.03c0-.95-.57-1.66-1.51-1.66s-1.52.7-1.52,1.66.54,1.65,1.52,1.65,1.51-.7,1.51-1.65Z"/>
    <path class="st0" d="M78.31,14.4h1.06v1.29c.22-.96.82-1.46,1.79-1.46h.06c1.24,0,1.9.81,1.9,2.4v3h-1.34v-3.12c0-.65-.4-1.08-1.03-1.08s-1.1.44-1.1,1.12v3.08h-1.34v-5.24h0Z"/>
    <path class="st0" d="M84.14,18.09c0-1.15.9-1.68,2.3-1.68h1.07v-.05c0-.6-.3-.9-.91-.9-.48,0-1.33.03-1.87.07v-1.14c.44-.04,1.11-.07,1.63-.07,1.61,0,2.43.61,2.43,2.06v3.25h-1.06v-1c-.23.74-.8,1.14-1.69,1.14-1.15,0-1.9-.62-1.9-1.69h0ZM87.51,17.7v-.49h-1.09c-.61,0-.95.33-.95.81s.34.8.95.8c.55,0,1.05-.26,1.09-1.12Z"/>
    <path class="st0" d="M90.29,13.6h-.66v-1h2v7.04h-1.34s0-6.04,0-6.04Z"/>
    <path class="st0" d="M94.9,17.13v-.2c0-1.5.98-2.69,2.48-2.69.75,0,1.37.3,1.75.91v-2.55h1.34v7.04h-1.06v-1.1c-.37.85-1.1,1.27-1.99,1.27-1.48,0-2.52-1.16-2.52-2.68h0ZM99.16,17.18v-.39c0-.92-.69-1.43-1.45-1.43-.87,0-1.48.67-1.48,1.67s.62,1.65,1.48,1.65c.79,0,1.45-.56,1.45-1.5Z"/>
    <path class="st0" d="M101.64,17.11v-.18c0-1.39.91-2.71,2.63-2.71s2.58,1.26,2.58,2.64v.48h-3.94c.09.82.53,1.37,1.42,1.37.65,0,1.08-.3,1.2-.68h1.23c-.23,1.08-1.14,1.79-2.43,1.79-1.8,0-2.69-1.37-2.69-2.71h0ZM102.93,16.52h2.63c-.11-.75-.54-1.2-1.29-1.2s-1.21.44-1.34,1.2Z"/>
    <path class="st0" d="M48.84,23.55h4.26v1.16h-2.92v1.73h2.75v1.16h-2.75v1.84h3v1.16h-4.34v-7.04h0Z"/>
    <path class="st0" d="M54,28.09v-.2c0-1.5.98-2.69,2.48-2.69.75,0,1.37.3,1.75.91v-2.55h1.34v7.04h-1.06v-1.1c-.37.85-1.1,1.27-1.99,1.27-1.48,0-2.52-1.16-2.52-2.68h0ZM58.27,28.13v-.39c0-.92-.68-1.43-1.45-1.43-.87,0-1.48.67-1.48,1.67s.62,1.65,1.48,1.65c.79,0,1.45-.56,1.45-1.5Z"/>
    <path class="st0" d="M60.97,28.39v-3.04h1.34v3.15c0,.65.4,1.05,1,1.05s1.05-.42,1.05-1.11v-3.1h1.34v5.25h-1.06v-1.22c-.22.92-.8,1.38-1.72,1.38h-.06c-1.22,0-1.9-.8-1.9-2.37h.01Z"/>
    <path class="st0" d="M66.9,28.08v-.18c0-1.4.91-2.72,2.66-2.72,1.37,0,2.36.85,2.45,2.1h-1.3c-.07-.54-.46-.95-1.15-.95-.9,0-1.32.68-1.32,1.65s.4,1.64,1.33,1.64c.69,0,1.12-.41,1.19-.97h1.3c-.08,1.28-1.11,2.13-2.49,2.13-1.8,0-2.67-1.36-2.67-2.7Z"/>
    <path class="st0" d="M72.71,29.04c0-1.15.9-1.68,2.3-1.68h1.07v-.05c0-.6-.3-.9-.91-.9-.48,0-1.33.03-1.87.07v-1.14c.44-.04,1.11-.07,1.63-.07,1.61,0,2.43.61,2.43,2.06v3.25h-1.06v-1c-.23.74-.8,1.14-1.69,1.14-1.15,0-1.9-.62-1.9-1.69h0ZM76.08,28.66v-.49h-1.09c-.61,0-.95.33-.95.81s.34.8.95.8c.55,0,1.05-.26,1.09-1.12Z"/>
    <path class="st0" d="M78.45,28.08v-.18c0-1.4.91-2.72,2.66-2.72,1.37,0,2.36.85,2.45,2.1h-1.3c-.07-.54-.46-.95-1.15-.95-.9,0-1.32.68-1.32,1.65s.4,1.64,1.33,1.64c.69,0,1.12-.41,1.19-.97h1.3c-.08,1.28-1.11,2.13-2.49,2.13-1.8,0-2.67-1.36-2.67-2.7Z"/>
    <path class="st0" d="M84.93,26.36h-.73v-1h2.07v5.24h-1.34v-4.23h0ZM84.65,24c0-.42.24-.72.77-.72s.76.3.76.72-.24.73-.76.73-.77-.31-.77-.73Z"/>
    <path class="st0" d="M87.46,28.09v-.2c0-1.44,1.08-2.71,2.87-2.71s2.86,1.27,2.86,2.71v.2c0,1.39-1.02,2.69-2.86,2.69s-2.87-1.3-2.87-2.69ZM91.84,27.98c0-.95-.57-1.66-1.51-1.66s-1.52.7-1.52,1.66.54,1.65,1.52,1.65,1.51-.7,1.51-1.65ZM90.52,22.71h1.38l-1.09,1.98h-1.15l.86-1.98Z"/>
    <path class="st0" d="M94.35,25.36h1.06v1.29c.22-.96.82-1.46,1.79-1.46h.06c1.24,0,1.9.81,1.9,2.4v3h-1.34v-3.12c0-.65-.4-1.08-1.03-1.08s-1.1.44-1.1,1.12v3.08h-1.34v-5.24h0Z"/>
  </g>
  <g>
    <polygon class="st0" points="37.2 4.64 37.2 0 23.26 0 18.62 0 18.62 4.64 18.62 9.3 18.62 13.93 18.62 18.59 18.62 23.23 23.26 23.23 37.2 23.23 37.2 18.59 23.26 18.59 23.26 13.93 37.2 13.93 37.2 9.3 23.26 9.3 23.26 4.64 37.2 4.64"/>
    <path class="st0" d="M7,0C3.13,0,0,3.13,0,7s3.13,7,7,7,7-3.13,7-7S10.87,0,7,0ZM7,9.34c-1.29,0-2.34-1.05-2.34-2.34s1.05-2.34,2.34-2.34,2.34,1.05,2.34,2.34-1.05,2.34-2.34,2.34Z"/>
    <rect class="st0" y="18.6" width="14" height="4.67"/>
    <rect class="st0" y="27.92" width="37.21" height="4.67"/>
  </g>
</svg>