<?xml version="1.0" encoding="UTF-8"?>
<svg id="Capa_1" xmlns="http://www.w3.org/2000/svg" version="1.1" viewBox="0 0 436.89 90.93">
  <!-- Generator: Adobe Illustrator 29.8.6, SVG Export Plug-In . SVG Version: 2.1.1 Build 1)  -->
  <defs>
    <style>
      .st0 {
        fill: #ffd0ef;
      }
    </style>
  </defs>
  <rect class="st0" x="148.22" y="19.93" width=".88" height="32.79"/>
  <g>
    <g>
      <path class="st0" d="M213.93,21.03h2.55c2.54,0,3.8,1.66,3.8,3.44v.21c0,1.7-1.26,3.47-3.8,3.47h-2.55v-7.13h0ZM215.3,22.3v4.58h1.26c1.46,0,2.33-.95,2.33-2.31s-.87-2.28-2.33-2.28h-1.26Z"/>
      <path class="st0" d="M221.64,23.88h-.73v-1h2.07v5.24h-1.34v-4.23h0ZM221.36,21.52c0-.42.24-.72.77-.72s.76.3.76.72-.24.73-.76.73-.77-.31-.77-.73Z"/>
      <path class="st0" d="M224.52,22.88h1.06v1.71c.13-1.17.77-1.77,1.87-1.77h.19v1.17h-.37c-.91,0-1.42.5-1.42,1.41v2.73h-1.34v-5.24h0Z"/>
      <path class="st0" d="M228.16,25.59v-.18c0-1.39.91-2.71,2.63-2.71s2.58,1.26,2.58,2.64v.48h-3.94c.09.82.53,1.37,1.42,1.37.65,0,1.08-.3,1.2-.68h1.23c-.23,1.08-1.14,1.79-2.43,1.79-1.8,0-2.69-1.37-2.69-2.71ZM229.45,25h2.63c-.11-.75-.54-1.2-1.29-1.2s-1.21.44-1.34,1.2h0Z"/>
      <path class="st0" d="M234.13,25.6v-.18c0-1.4.91-2.72,2.66-2.72,1.37,0,2.36.85,2.45,2.1h-1.3c-.07-.54-.46-.95-1.15-.95-.9,0-1.32.68-1.32,1.65s.4,1.64,1.33,1.64c.69,0,1.12-.41,1.19-.97h1.3c-.08,1.28-1.11,2.13-2.49,2.13-1.8,0-2.67-1.36-2.67-2.7Z"/>
      <path class="st0" d="M240.01,25.6v-.18c0-1.4.91-2.72,2.66-2.72,1.37,0,2.36.85,2.45,2.1h-1.3c-.07-.54-.46-.95-1.15-.95-.9,0-1.32.68-1.32,1.65s.4,1.64,1.33,1.64c.69,0,1.12-.41,1.19-.97h1.3c-.08,1.28-1.11,2.13-2.49,2.13-1.8,0-2.67-1.36-2.67-2.7Z"/>
      <path class="st0" d="M246.49,23.88h-.73v-1h2.07v5.24h-1.34v-4.23h0ZM246.21,21.52c0-.42.24-.72.77-.72s.76.3.76.72-.24.73-.76.73-.77-.31-.77-.73Z"/>
      <path class="st0" d="M249.03,25.61v-.2c0-1.44,1.08-2.71,2.87-2.71s2.86,1.27,2.86,2.71v.2c0,1.39-1.02,2.69-2.86,2.69s-2.87-1.3-2.87-2.69ZM253.41,25.5c0-.95-.57-1.66-1.51-1.66s-1.52.7-1.52,1.66.54,1.65,1.52,1.65,1.51-.7,1.51-1.65ZM252.08,20.24h1.38l-1.09,1.98h-1.15l.86-1.98h0Z"/>
      <path class="st0" d="M255.92,22.88h1.06v1.29c.22-.96.82-1.46,1.79-1.46h.06c1.24,0,1.9.81,1.9,2.4v3h-1.34v-3.12c0-.65-.4-1.08-1.03-1.08s-1.1.44-1.1,1.12v3.08h-1.34v-5.24h0Z"/>
      <path class="st0" d="M213.93,32.03h2.25l2.96,5.9h.13v-5.9h1.29v7.04h-2.26l-2.96-5.9h-.14v5.9h-1.27v-7.04Z"/>
      <path class="st0" d="M221.77,37.52c0-1.15.9-1.68,2.3-1.68h1.07v-.05c0-.6-.3-.9-.91-.9-.48,0-1.33.03-1.87.07v-1.14c.44-.04,1.11-.07,1.63-.07,1.61,0,2.43.61,2.43,2.06v3.25h-1.06v-1c-.23.74-.8,1.14-1.69,1.14-1.15,0-1.9-.62-1.9-1.69h0ZM225.13,37.13v-.49h-1.09c-.61,0-.95.33-.95.81s.34.8.95.8c.55,0,1.05-.26,1.09-1.12Z"/>
      <path class="st0" d="M227.5,36.55v-.18c0-1.4.91-2.72,2.66-2.72,1.37,0,2.36.85,2.45,2.1h-1.3c-.07-.54-.46-.95-1.15-.95-.9,0-1.32.68-1.32,1.65s.4,1.64,1.33,1.64c.69,0,1.12-.41,1.19-.97h1.3c-.08,1.28-1.11,2.13-2.49,2.13-1.8,0-2.67-1.36-2.67-2.7Z"/>
      <path class="st0" d="M233.98,34.84h-.73v-1h2.07v5.24h-1.34v-4.23h0ZM233.7,32.47c0-.42.24-.72.77-.72s.76.3.76.72-.24.73-.76.73-.77-.31-.77-.73Z"/>
      <path class="st0" d="M236.51,36.56v-.2c0-1.44,1.08-2.71,2.87-2.71s2.86,1.27,2.86,2.71v.2c0,1.39-1.02,2.69-2.86,2.69s-2.87-1.3-2.87-2.69ZM240.89,36.46c0-.95-.57-1.66-1.51-1.66s-1.52.7-1.52,1.66.54,1.65,1.52,1.65,1.51-.7,1.51-1.65Z"/>
      <path class="st0" d="M243.41,33.83h1.06v1.29c.22-.96.82-1.46,1.79-1.46h.06c1.24,0,1.9.81,1.9,2.4v3h-1.34v-3.12c0-.65-.4-1.08-1.03-1.08s-1.1.44-1.1,1.12v3.08h-1.34v-5.24h0Z"/>
      <path class="st0" d="M249.24,37.52c0-1.15.9-1.68,2.3-1.68h1.07v-.05c0-.6-.3-.9-.91-.9-.48,0-1.33.03-1.87.07v-1.14c.44-.04,1.11-.07,1.63-.07,1.61,0,2.43.61,2.43,2.06v3.25h-1.06v-1c-.23.74-.8,1.14-1.69,1.14-1.15,0-1.9-.62-1.9-1.69h0ZM252.61,37.13v-.49h-1.09c-.61,0-.95.33-.95.81s.34.8.95.8c.55,0,1.05-.26,1.09-1.12Z"/>
      <path class="st0" d="M255.39,33.03h-.66v-1h2v7.04h-1.34v-6.04h0Z"/>
      <path class="st0" d="M260,36.56v-.2c0-1.5.98-2.69,2.48-2.69.75,0,1.37.3,1.75.91v-2.55h1.34v7.04h-1.06v-1.1c-.37.85-1.1,1.27-1.99,1.27-1.48,0-2.52-1.16-2.52-2.68h0ZM264.26,36.61v-.39c0-.92-.69-1.43-1.45-1.43-.87,0-1.48.67-1.48,1.67s.62,1.65,1.48,1.65c.79,0,1.45-.56,1.45-1.5Z"/>
      <path class="st0" d="M266.73,36.54v-.18c0-1.39.91-2.71,2.63-2.71s2.58,1.26,2.58,2.64v.48h-3.94c.09.82.53,1.37,1.42,1.37.65,0,1.08-.3,1.2-.68h1.23c-.23,1.08-1.14,1.79-2.43,1.79-1.8,0-2.69-1.37-2.69-2.71h0ZM268.03,35.95h2.63c-.11-.75-.54-1.2-1.29-1.2s-1.21.44-1.34,1.2Z"/>
      <path class="st0" d="M213.93,42.98h4.26v1.16h-2.92v1.73h2.75v1.16h-2.75v1.84h3v1.16h-4.34v-7.04h0Z"/>
      <path class="st0" d="M219.1,47.52v-.2c0-1.5.98-2.69,2.48-2.69.75,0,1.37.3,1.75.91v-2.55h1.34v7.04h-1.06v-1.1c-.37.85-1.1,1.27-1.99,1.27-1.48,0-2.52-1.16-2.52-2.68h0ZM223.36,47.56v-.39c0-.92-.68-1.43-1.45-1.43-.87,0-1.48.67-1.48,1.67s.62,1.65,1.48,1.65c.79,0,1.45-.56,1.45-1.5Z"/>
      <path class="st0" d="M226.07,47.82v-3.04h1.34v3.15c0,.65.4,1.05,1,1.05s1.05-.42,1.05-1.11v-3.1h1.34v5.25h-1.06v-1.22c-.22.92-.8,1.38-1.72,1.38h-.06c-1.22,0-1.9-.8-1.9-2.37h0Z"/>
      <path class="st0" d="M231.99,47.51v-.18c0-1.4.91-2.72,2.66-2.72,1.37,0,2.36.85,2.45,2.1h-1.3c-.07-.54-.46-.95-1.15-.95-.9,0-1.32.68-1.32,1.65s.4,1.64,1.33,1.64c.69,0,1.12-.41,1.19-.97h1.3c-.08,1.28-1.11,2.13-2.49,2.13-1.8,0-2.67-1.36-2.67-2.7Z"/>
      <path class="st0" d="M237.81,48.47c0-1.15.9-1.68,2.3-1.68h1.07v-.05c0-.6-.3-.9-.91-.9-.48,0-1.33.03-1.87.07v-1.14c.44-.04,1.11-.07,1.63-.07,1.61,0,2.43.61,2.43,2.06v3.25h-1.06v-1c-.23.74-.8,1.14-1.69,1.14-1.15,0-1.9-.62-1.9-1.69h0ZM241.17,48.09v-.49h-1.09c-.61,0-.95.33-.95.81s.34.8.95.8c.55,0,1.05-.26,1.09-1.12Z"/>
      <path class="st0" d="M243.54,47.51v-.18c0-1.4.91-2.72,2.66-2.72,1.37,0,2.36.85,2.45,2.1h-1.3c-.07-.54-.46-.95-1.15-.95-.9,0-1.32.68-1.32,1.65s.4,1.64,1.33,1.64c.69,0,1.12-.41,1.19-.97h1.3c-.08,1.28-1.11,2.13-2.49,2.13-1.8,0-2.67-1.36-2.67-2.7Z"/>
      <path class="st0" d="M250.02,45.79h-.73v-1h2.07v5.24h-1.34v-4.23h0ZM249.74,43.43c0-.42.24-.72.77-.72s.76.3.76.72-.24.73-.76.73-.77-.31-.77-.73Z"/>
      <path class="st0" d="M252.55,47.52v-.2c0-1.44,1.08-2.71,2.87-2.71s2.86,1.27,2.86,2.71v.2c0,1.39-1.02,2.69-2.86,2.69s-2.87-1.3-2.87-2.69ZM256.93,47.41c0-.95-.57-1.66-1.51-1.66s-1.52.7-1.52,1.66.54,1.65,1.52,1.65,1.51-.7,1.51-1.65ZM255.61,42.14h1.38l-1.09,1.98h-1.15l.86-1.98Z"/>
      <path class="st0" d="M259.45,44.79h1.06v1.29c.22-.96.82-1.46,1.79-1.46h.06c1.24,0,1.9.81,1.9,2.4v3h-1.34v-3.12c0-.65-.4-1.08-1.03-1.08s-1.1.44-1.1,1.12v3.08h-1.34v-5.24h0Z"/>
    </g>
    <g>
      <polygon class="st0" points="202.3 24.07 202.3 19.43 188.35 19.43 183.71 19.43 183.71 24.07 183.71 28.73 183.71 33.36 183.71 38.02 183.71 42.66 188.35 42.66 202.3 42.66 202.3 38.02 188.35 38.02 188.35 33.36 202.3 33.36 202.3 28.73 188.35 28.73 188.35 24.07 202.3 24.07"/>
      <path class="st0" d="M172.1,19.43c-3.87,0-7,3.13-7,7s3.13,7,7,7,7-3.13,7-7-3.13-7-7-7ZM172.1,28.77c-1.29,0-2.34-1.05-2.34-2.34s1.05-2.34,2.34-2.34,2.34,1.05,2.34,2.34-1.05,2.34-2.34,2.34Z"/>
      <rect class="st0" x="165.09" y="38.03" width="14" height="4.67"/>
      <rect class="st0" x="165.09" y="47.35" width="37.21" height="4.67"/>
    </g>
  </g>
  <path class="st0" d="M65.19,21.02h2.23l1.65,4.04h.19l1.63-4.04h2.27v7.2h-1.6v-5.55l-1.68,4.09h-1.54l-1.67-4.05v5.51h-1.48v-7.2Z"/>
  <path class="st0" d="M74.93,23.98h-.72v-1.16h2.3v5.41h-1.58v-4.24h0ZM74.67,21.47c0-.48.28-.83.87-.83s.87.35.87.83-.28.82-.87.82-.87-.34-.87-.82Z"/>
  <path class="st0" d="M77.96,22.82h1.25v1.38c.22-1.04.84-1.55,1.83-1.55h.07c1.25,0,1.94.82,1.94,2.49v3.09h-1.58v-3.18c0-.58-.36-.99-.95-.99s-.99.41-.99,1.02v3.15h-1.58v-5.41h0Z"/>
  <path class="st0" d="M84.64,23.98h-.72v-1.16h2.3v5.41h-1.58v-4.24h0ZM84.38,21.47c0-.48.28-.83.87-.83s.87.35.87.83-.28.82-.87.82-.87-.34-.87-.82Z"/>
  <path class="st0" d="M87.23,26.58h1.4c.05.34.4.66,1.12.66.54,0,.96-.19.96-.55,0-.32-.24-.5-.95-.58l-.42-.04c-1.29-.14-1.95-.75-1.95-1.68,0-1.14.94-1.74,2.24-1.74,1.39,0,2.31.63,2.36,1.79h-1.4c-.05-.35-.37-.63-.98-.63-.49,0-.8.2-.8.51s.24.45.8.51l.42.04c1.32.15,2.1.76,2.1,1.75,0,1.08-.94,1.77-2.41,1.77s-2.45-.66-2.5-1.8h.01Z"/>
  <path class="st0" d="M93.32,26.11v-2.14h-.82v-1.15h.82v-1.46h1.47v1.46h1.58v1.15h-1.58v2.2c0,.5.28.79.78.79h.8v1.33h-.76c-1.63,0-2.29-.54-2.29-2.18Z"/>
  <path class="st0" d="M97.07,25.62v-.2c0-1.44.99-2.79,2.75-2.79s2.69,1.31,2.69,2.77v.53h-3.96c.11.73.52,1.19,1.32,1.19.57,0,.96-.24,1.08-.58h1.45c-.24,1.1-1.18,1.86-2.54,1.86-1.84,0-2.81-1.4-2.81-2.79h.02ZM98.58,25.04h2.43c-.1-.72-.5-1.12-1.18-1.12s-1.11.39-1.24,1.12h-.01Z"/>
  <path class="st0" d="M103.56,22.82h1.25v1.83c.13-1.22.77-1.9,1.87-1.9h.21v1.36h-.4c-.88,0-1.36.49-1.36,1.36v2.75h-1.58v-5.41h.01Z"/>
  <path class="st0" d="M107.96,23.98h-.72v-1.16h2.3v5.41h-1.58v-4.24h0ZM107.7,21.47c0-.48.28-.83.87-.83s.87.35.87.83-.28.82-.87.82-.87-.34-.87-.82Z"/>
  <path class="st0" d="M110.66,25.65v-.23c0-1.53,1.13-2.79,2.97-2.79s2.98,1.26,2.98,2.79v.23c0,1.47-1.08,2.76-2.98,2.76s-2.97-1.29-2.97-2.76ZM115.03,25.54c0-.92-.51-1.58-1.4-1.58s-1.39.66-1.39,1.58.48,1.54,1.39,1.54,1.4-.65,1.4-1.54Z"/>
  <path class="st0" d="M64.77,36.85v-.23c0-1.57.99-2.77,2.5-2.77.78,0,1.38.31,1.75.9v-2.54h1.59v7.2h-1.25v-1.13c-.35.85-1.08,1.31-2.02,1.31-1.52,0-2.56-1.17-2.56-2.74h-.01ZM69.06,36.87v-.37c0-.86-.64-1.34-1.34-1.34-.8,0-1.37.64-1.37,1.57s.58,1.54,1.38,1.54c.73,0,1.33-.51,1.33-1.4Z"/>
  <path class="st0" d="M71.69,36.81v-.2c0-1.44.99-2.79,2.75-2.79s2.69,1.31,2.69,2.77v.53h-3.96c.11.73.52,1.19,1.32,1.19.57,0,.96-.24,1.08-.58h1.45c-.24,1.1-1.18,1.86-2.54,1.86-1.84,0-2.81-1.4-2.81-2.79h.02ZM73.2,36.23h2.43c-.1-.72-.5-1.12-1.18-1.12s-1.11.39-1.24,1.12h-.01Z"/>
  <path class="st0" d="M80.33,32.22h4.46v1.34h-2.88v1.53h2.72v1.34h-2.72v1.65h2.95v1.34h-4.53v-7.2Z"/>
  <path class="st0" d="M85.63,36.85v-.23c0-1.57.99-2.77,2.5-2.77.78,0,1.38.31,1.75.9v-2.54h1.59v7.2h-1.25v-1.13c-.35.85-1.08,1.31-2.02,1.31-1.52,0-2.56-1.17-2.56-2.74h-.01ZM89.92,36.87v-.37c0-.86-.64-1.34-1.34-1.34-.8,0-1.37.64-1.37,1.57s.58,1.54,1.38,1.54c.73,0,1.33-.51,1.33-1.4Z"/>
  <path class="st0" d="M92.78,37.15v-3.14h1.58v3.22c0,.58.36.95.91.95s.96-.38.96-.99v-3.18h1.58v5.41h-1.25v-1.26c-.23.97-.82,1.43-1.76,1.43h-.07c-1.24,0-1.94-.8-1.94-2.44,0,0-.01,0-.01,0Z"/>
  <path class="st0" d="M98.91,36.82v-.19c0-1.47.96-2.81,2.75-2.81,1.45,0,2.49.91,2.57,2.22h-1.55c-.05-.48-.39-.87-1.02-.87-.8,0-1.17.63-1.17,1.56s.34,1.52,1.18,1.52c.63,0,.99-.35,1.06-.9h1.54c-.07,1.34-1.14,2.25-2.6,2.25-1.86,0-2.76-1.37-2.76-2.78Z"/>
  <path class="st0" d="M104.86,37.82c0-1.19.99-1.72,2.44-1.72h.98v-.02c0-.55-.26-.83-.83-.83-.44,0-1.38.04-1.98.08v-1.33c.45-.04,1.21-.08,1.78-.08,1.66,0,2.56.68,2.56,2.18v3.31h-1.25v-1.02c-.25.75-.82,1.15-1.73,1.15-1.16,0-1.95-.64-1.95-1.74,0,0-.02.02-.02.02ZM108.27,37.42v-.43h-.99c-.55,0-.86.3-.86.75s.31.73.86.73c.51,0,.95-.24.99-1.05Z"/>
  <path class="st0" d="M110.79,36.82v-.19c0-1.47.96-2.81,2.75-2.81,1.45,0,2.49.91,2.57,2.22h-1.55c-.05-.48-.39-.87-1.02-.87-.8,0-1.17.63-1.17,1.56s.34,1.52,1.18,1.52c.63,0,.99-.35,1.06-.9h1.54c-.07,1.34-1.14,2.25-2.6,2.25-1.86,0-2.76-1.37-2.76-2.78h0Z"/>
  <path class="st0" d="M117.4,35.18h-.72v-1.16h2.3v5.41h-1.58v-4.24h0ZM117.14,32.66c0-.48.28-.83.87-.83s.87.35.87.83-.28.82-.87.82-.87-.34-.87-.82Z"/>
  <path class="st0" d="M120.1,36.84v-.23c0-1.53,1.13-2.79,2.97-2.79s2.98,1.26,2.98,2.79v.23c0,1.47-1.08,2.76-2.98,2.76s-2.97-1.29-2.97-2.76ZM124.47,36.74c0-.92-.51-1.58-1.4-1.58s-1.39.66-1.39,1.58.48,1.54,1.39,1.54,1.4-.65,1.4-1.54ZM123.17,31.32h1.63l-1.13,2.06h-1.38l.89-2.06s-.01,0-.01,0Z"/>
  <path class="st0" d="M127.14,34.01h1.25v1.38c.22-1.04.84-1.55,1.83-1.55h.07c1.25,0,1.94.82,1.94,2.49v3.09h-1.58v-3.18c0-.58-.36-.99-.95-.99s-.99.41-.99,1.02v3.15h-1.58v-5.41h0Z"/>
  <path class="st0" d="M64.43,45.21h1.59l1.19,4.05h.2l.99-4.05h1.5l-1.51,5.84c-.33,1.27-.95,1.71-2.38,1.71h-.97v-1.34h1.13c.5,0,.76-.17.9-.68l.05-.24h-1.03s-1.66-5.29-1.66-5.29Z"/>
  <path class="st0" d="M72.49,47.1v-.22c0-1.79,1.14-3.69,3.64-3.69,1.96,0,3.28,1.16,3.45,2.89h-1.63c-.14-.86-.85-1.38-1.83-1.38-1.28,0-2,.93-2,2.3s.73,2.29,2.05,2.29c1,0,1.75-.51,1.89-1.37h1.62c-.18,1.59-1.45,2.88-3.51,2.88-2.6,0-3.69-2.07-3.69-3.7h.01Z"/>
  <path class="st0" d="M80.55,48.35v-3.14h1.58v3.22c0,.58.36.95.91.95s.96-.38.96-.99v-3.18h1.58v5.41h-1.25v-1.26c-.23.97-.82,1.43-1.76,1.43h-.07c-1.24,0-1.94-.8-1.94-2.44,0,0-.01,0-.01,0Z"/>
  <path class="st0" d="M87.09,44.58h-.64v-1.16h2.23v7.2h-1.59s0-6.04,0-6.04Z"/>
  <path class="st0" d="M90.3,48.5v-2.14h-.82v-1.15h.82v-1.46h1.47v1.46h1.58v1.15h-1.58v2.2c0,.5.28.79.78.79h.8v1.33h-.76c-1.63,0-2.29-.54-2.29-2.18Z"/>
  <path class="st0" d="M94.29,48.35v-3.14h1.58v3.22c0,.58.36.95.91.95s.96-.38.96-.99v-3.18h1.58v5.41h-1.25v-1.26c-.23.97-.82,1.43-1.76,1.43h-.07c-1.24,0-1.94-.8-1.94-2.44,0,0-.01,0-.01,0Z"/>
  <path class="st0" d="M100.76,45.21h1.25v1.83c.13-1.22.77-1.9,1.87-1.9h.21v1.36h-.4c-.88,0-1.36.49-1.36,1.36v2.75h-1.58v-5.41h.01Z"/>
  <path class="st0" d="M104.46,49.02c0-1.19.99-1.72,2.44-1.72h.98v-.02c0-.55-.26-.83-.83-.83-.44,0-1.38.04-1.98.08v-1.33c.45-.04,1.21-.08,1.78-.08,1.66,0,2.56.68,2.56,2.18v3.31h-1.25v-1.02c-.25.75-.82,1.15-1.73,1.15-1.16,0-1.95-.64-1.95-1.74,0,0-.02.02-.02.02ZM107.88,48.61v-.43h-.99c-.55,0-.86.3-.86.75s.31.73.86.73c.51,0,.95-.24.99-1.05Z"/>
  <g>
    <polygon class="st0" points="22.38 31.92 22.38 28.35 21.14 31.92 22.38 31.92"/>
    <path class="st0" d="M19.19,23.77c.23,0,.43-.19.43-.43s-.19-.43-.43-.43-.43.19-.43.43.19.43.43.43Z"/>
    <polygon class="st0" points="22.86 28.35 22.86 31.92 24.1 31.92 22.86 28.35"/>
    <polygon class="st0" points="15.55 28.35 14.31 31.92 15.55 31.92 15.55 28.35"/>
    <polygon class="st0" points="16.03 28.35 16.03 31.92 17.28 31.92 16.03 28.35"/>
    <rect class="st0" x="32.9" y="23.83" width=".18" height=".45"/>
    <rect class="st0" x="33.33" y="23.83" width=".24" height=".45"/>
    <rect class="st0" x="33.81" y="23.83" width=".18" height=".45"/>
    <path class="st0" d="M30.29,30.8c.78,0,2.12-.48,2.93-.48s1.92.48,2.84.48c.78,0,2.12-.48,2.93-.48s1.31.22,1.32.22h.03c-1.36-1.13-4.22-3.4-4.53-3.62-.29-.2-.57-.36-.84-.48v-1.33l.16-.17v-.63c0-.14-.11-.25-.25-.25s-.25.11-.25.25v.51h-.54v-.25h.11v-.15h-1.51v.15h.11v.25h-.56v-.51c0-.14-.11-.25-.25-.25s-.25.11-.25.25v.63l.14.14v1.28c-.32.13-.65.31-.99.54-.41.28-4.41,3.48-4.43,3.49.24-.06.58-.11.99-.11.81,0,1.92.48,2.84.48v.03h0ZM34.72,24.36h.3v.32h-.3v-.32ZM33.03,25.66c0-.22.18-.41.41-.41s.41.18.41.41v.46c-.17-.02-.34-.03-.51-.03h-.31v-.44h0ZM31.85,24.68v-.32h.3v.32h-.3Z"/>
    <path class="st0" d="M33.45,23.02c-.35,0-.64.29-.64.64h1.28c0-.35-.29-.64-.64-.64Z"/>
    <path class="st0" d="M24.7,44.93c-.38.06-.56-.05-.61-.43-.03-.23,0-.48,0-.71,0-.49.05-.97.04-1.46,0-.17-.04-.4-.13-.56-.16-.28-.52-.31-.81-.17-.39.2-.77.39-1.15.59-.06.03-.11.05-.16.04-.27-.22-.62-.35-.99-.35h-.05c-.35,0-.67.12-.96.32-1.05.75-1.69.32-2.04-.87-.44-1.49-2.06-2.22-3.46-1.56-.07.04-.17.04-.25.03-.16-.02-.25-.04-.41-.07-.02.02-.03.18-.05.2.1.07.28.23.28.23v.73c0,.06.02.13.05.16.14.13.16.28.15.46v1.14h.63l.7-1.65.18.1v3.4h-1.37v.42l.35,1.7s.56.45.84.67c.03.02.06.04.11.06v-.79h-.41s-.18-.75-.24-.99c-.06-.25.09-.42.35-.4h1.23c.32.84.64,1.84.95,2.68.02.05,0,.12-.02.17-.09.19-.2.38-.29.57-.08.16-.16.31-.25.49h.77c.07,0,.15.03.18-.08.02-.1.07-.26-.05-.35-.14-.1-.12-.2.04-.28.1-.05.2-.08.31-.13-.08-.26-.48-1.99-.48-1.99v-1.08h1.75s.75.72,1.08,1.03c.13.12.18.28.04.39-.12.09-.57.45-.75.59-.22.18-.38.3-.39.58,0,.31-.07.62-.11.95.25-.15.47-.28.69-.41-.05-.16-.11-.38-.17-.55.15-.13,1.39-.94,1.66-1.17.13-.11.02-.38-.08-.52-.16-.2-.41-.49-.41-.49l.08-.06s.92.46,1.28.73c.54.41.83.95.66,1.64-.09.34-.24.67-.37,1.01-.02.05-.04.09-.07.17h.61c.25,0,.38-.12.39-.36.02-.36-.02-.09-.05-.12-.13-.12-.14-.18-.02-.31.06-.06.19-.13.19-.13,0,0-.35-1.59-.45-2.13-.02-.12-.24-.34-.24-.34l-1.04-.95s-.05-.05.02-.12c.07-.08.14-.15.19-.23.2-.26.32-.59.32-.94,0-.27-.07-.53-.19-.75,0-.03.02-.07.05-.1.2-.21.53-.23.76-.05.16.13.21.3.21.5,0,.45-.04.9-.03,1.34,0,.21.04.45.11.64.09.24.33.33.59.32.33-.02.58-.2.84-.43h-.08l-.05.03h0Z"/>
    <path class="st0" d="M16.99,14.56c.44-.03.98-.07,1.43-.06l-.71.43h0l-.34.21-4.04,2.45s-.06.07-.07.12v.08s.02.03.03.04c0,0,.01.02.02.02.03.03.08.05.12.05l4.7-.39c-1.34.97-2.58,2.18-3.69,3.64-3.08,4.03-4.77,9.39-4.77,15.08s1.69,11.05,4.77,15.08c3.11,4.07,7.25,6.32,11.67,6.32s8.56-2.24,11.67-6.32c3.08-4.03,4.77-9.39,4.77-15.08s-1.69-11.05-4.77-15.08c-1.11-1.45-2.35-2.67-3.69-3.64h.09l4.7.4s.09-.02.13-.05v-.02s.03-.03.03-.04v-.09s-.03-.09-.07-.11l-4.04-2.45-.34-.21h0l-.1-.06c.31-.16.71-.38.98-.53,1.39-.76,2.7-1.47,4.01-.91.08.03.17,0,.21-.06.04-.07.03-.16-.03-.22-1.44-1.3-2.88-1.19-4.28-1.08-.19.01-.38.03-.57.04l.12-.07,4.04-2.45s.06-.07.07-.12v-.08s-.02-.03-.03-.04c0,0,0-.02-.02-.02-.03-.03-.08-.05-.12-.05l-4.7.39-.4.03h0l-2.57.22.78-1.87s.05-.04.08-.05h.02c.05-.05.11-.09.16-.13,0,0,.02-.01.03-.02.05-.04.1-.08.15-.11,0,0,.03-.02.04-.03.05-.04.09-.07.14-.11.02-.01.03-.03.05-.04.04-.03.09-.07.13-.11.02-.02.05-.04.07-.06.04-.03.07-.06.11-.09.06-.05.11-.1.17-.15.88-.75,1.73-1.47,3.01-1.58-1.01.6-1.58,1.79-2.13,2.96-.11.24-.23.48-.35.72h0c-.04.07-.08.15-.11.22h0c-.04.08-.08.15-.12.22h0l.4-.03c.17-.33.33-.66.49-1,.68-1.43,1.32-2.78,2.71-3.09.08-.02.14-.09.13-.18,0-.08-.07-.15-.15-.16-1.93-.2-3.03.74-4.1,1.65-.22.19-.44.38-.67.55l.12-.29,1.83-4.35v-.16s-.02-.03-.03-.05c-.02,0-.04,0-.05-.02h-.03s-.09,0-.13.03l-3.57,3.08-.3.26h0l-1.96,1.69-.4-1.73c.23-.54.37-1.11.51-1.67.27-1.13.53-2.2,1.51-3.05-.47,1.08-.22,2.38.02,3.64.08.41.15.81.2,1.21l.3-.26c-.05-.33-.11-.67-.18-1.01-.29-1.55-.57-3.02.37-4.09.05-.06.06-.16,0-.22-.05-.06-.14-.08-.22-.04-1.68.97-2.02,2.38-2.35,3.74-.1.4-.19.78-.32,1.16l-.05-.21h0l-.09-.39L26.33.12s-.05-.08-.09-.1h-.02S26.19,0,26.17,0,26.14,0,26.12.02h-.03s-.07.06-.08.1l-1.08,4.59-.09.39h0l-.59,2.52-1.13-.97v-.1c0-.07-.03-.14-.05-.2v-.03c-.02-.07-.03-.13-.05-.2v-.03c-.02-.07-.04-.13-.06-.2v-.03c-.02-.06-.04-.13-.07-.19v-.03c-.02-.06-.05-.13-.07-.19v-.03c-.02-.06-.05-.12-.07-.19v-.03c-.05-.13-.11-.27-.16-.4-.44-1.07-.86-2.09-.57-3.35.26,1.15,1.22,2.05,2.15,2.94.06.06.13.12.19.18.04.04.08.08.12.12.02.02.04.04.06.06.05.04.09.09.14.13.02.01.03.03.05.04.05.05.09.09.14.14,0,.01.02.02.04.04,0,0,0,.01.02.02l.09-.39c-.2-.2-.41-.39-.61-.59-1.15-1.09-2.24-2.11-2.1-3.53,0-.08-.05-.16-.13-.18s-.16.02-.2.09c-.79,1.77-.24,3.11.3,4.41.19.45.37.9.5,1.36l-.4-.34h0l-.3-.26-3.57-3.08s-.09-.04-.13-.03h-.02s-.04,0-.05.02-.02.03-.03.05c0,0,0,.02-.02.03-.02.04-.03.09,0,.13l1.83,4.35.15.37h0l1.01,2.39-1.27-.11c-.11-.1-.25-.23-.35-.31h0s-.11-.09-.17-.13h-.02c-.05-.05-.11-.09-.16-.13,0,0-.02-.01-.03-.02-.05-.04-.1-.07-.16-.11,0,0-.03-.02-.04-.03-.05-.03-.1-.07-.15-.1-.02-.01-.03-.02-.05-.03-.05-.03-.09-.06-.14-.09-.02-.01-.04-.03-.07-.04-.04-.03-.09-.05-.13-.08-.06-.04-.13-.08-.19-.12-.99-.61-1.93-1.19-2.43-2.38.89.78,2.19.95,3.47,1.11.28.04.56.07.83.11l-.15-.36c-.21-.03-.42-.06-.63-.08-1.57-.2-3.05-.39-3.78-1.62-.04-.07-.13-.1-.21-.07-.08.03-.12.11-.1.19.4,1.89,1.64,2.65,2.83,3.39.41.25.88.56,1.25.86l-.74-.06h0l-.4-.03-4.7-.39s-.09.02-.13.05c0,0,0,.01-.01.02s-.03.03-.03.04v.09s.03.09.07.11l4.03,2.44c-.16.08-.31.17-.46.25-1.39.76-2.7,1.47-4.01.91-.08-.03-.17,0-.21.06-.04.07-.03.16.03.22,1.44,1.3,2.89,1.19,4.28,1.08,0,0-.13,0-.13,0ZM18.46,14.88l.33,1.03-.34.11-.31-.95s.32-.19.32-.19ZM20.27,15.42l-.34.11-.42-1.29.32-.19.45,1.37h-.01ZM19.96,13.97l.36-.21c.02.53.1,1.05.25,1.54v.03l-.16.05-.46-1.41h0ZM19.77,15.58l-.34.11-.38-1.18.32-.19.41,1.26h-.01ZM19.28,15.74l-.35.11-.34-1.06.32-.19.37,1.14ZM18.01,15.15l.3.91-.35.11-.27-.83s.32-.19.32-.19ZM17.55,15.43l.26.8-.35.11-.23-.72.32-.19ZM17.09,15.7l.22.68-.35.11-.19-.6s.32-.19.32-.19ZM16.64,15.98l.18.56-.34.11-.16-.48s.32-.19.32-.19ZM16.18,16.25l.15.45-.34.11-.12-.37.32-.19h-.01ZM15.73,16.53l.11.33-.34.11-.08-.25.32-.19s-.01,0,0,0h0ZM15.28,16.8l.07.22-.92.3s.85-.52.85-.52ZM14.48,17.47h-.02l6.17-2v.02c.06.16.12.32.19.47-.73.32-1.44.71-2.13,1.16l-4.22.35s.01,0,.01,0ZM13.77,31.99l1.65-4.72c-.19-.12-.31-.33-.31-.57,0-.37.3-.68.68-.68.22,0,.42.11.55.29h2.26c.04-.06.08-.11.13-.15v-1.69c-.46-.18-.77-.63-.77-1.12,0-.67.54-1.21,1.21-1.21s1.21.54,1.21,1.21c0,.5-.3.94-.77,1.12v1.69s.09.09.13.15h2.31c.13-.18.33-.29.55-.29.37,0,.68.3.68.68,0,.23-.12.44-.31.57l1.66,4.75v.12c0,1.12-.91,2.03-2.03,2.03s-2.03-.91-2.03-2.03v-.15l1.66-4.72c-.07-.05-.13-.1-.18-.17h-2.31c-.07.1-.16.18-.27.24v.92c0,.17-.14.31-.31.31s-.31-.14-.31-.31v-.92c-.11-.05-.2-.13-.27-.24h-2.26c-.05.07-.11.13-.18.17l1.66,4.75v.12c0,1.12-.91,2.03-2.03,2.03s-2.03-.91-2.03-2.03v-.15s.03,0,.03,0ZM38.87,46.05c-.03.3-.32.62-.32.62,0,0-.04-.17-.1-.62-.03-.23.03-.3.09-.31v-1.71c-.03.22-.09.43-.19.62l-.07,4.01h-.14c.03.13.05.28-.08.39-.03.03-.08.05-.13.06h-.6c.09-.13.33-.58.33-.98s-.47-1.6-.57-1.31c-.1.29-.09,1.72-.09,1.72h-.13v.22s0,.28-.3.35h-.58c.04-.07.26-.46.38-.75.13-.32.08-.98,0-1.41-.11-.63-.56-1.02-.93-1.25-.41,0-.96.11-1.57.42h0s-.75.47-.83.88c-.14.68-.07,1.26-.03,1.56.02.19.03.43.03.56h-.83c0-.12.03-.28.16-.59s-.02-1.34-.1-1.85h-.09c-.19,0-.38-.02-.55-.07v2.51h-.66c.02-.1.07-.27.13-.45.11-.31,0-1.09-.32-1.87-.07-.16-.11-.3-.14-.41h0c-.36-.44-1.21-2.35-2.24-2.5l-.43.11-.61-.49.52-1.37h-.28l-.18-.37h.33c-.19-.13-.31-.3-.31-.48,0-.12.06-.24.16-.34v.08c0,.24.21.43.53.53.03-.07.08-.16.17-.16h.74c.09,0,.16.06.16.14.24-.07.48-.18.58-.32.06-.09.09-.18.08-.27.16.18.2.4.05.6-.06.09-.15.16-.25.22,0,0,.02,0,.03.02h7.16c.13,0,.45.05.63.12,1.09.41,1.25,1.53,1.25,2.17v1.7s.17.02.14.29v-.02ZM41.58,36.23h-15.46v20.41c-8.51,0-15.44-9.17-15.45-20.41h15.46v-.62c.09-.03.61-.22,1.36-.22.81,0,1.33.22,1.33.22.02,0,.6.26,1.53.26.79,0,2.14-.48,2.96-.48s1.93.48,2.86.48c.79,0,2.14-.48,2.96-.48.7,0,1.63.36,2.47.46v.37h-.02ZM41.56,35.56c-.76-.11-1.67-.45-2.46-.45s-2.14.48-2.96.48-1.93-.48-2.86-.48c-.79,0-2.14.48-2.96.48s-1.33-.22-1.33-.22c-.02,0-.6-.26-1.53-.26-.62,0-1.1.11-1.36.19v-.71c.09-.03.61-.22,1.36-.22.81,0,1.33.22,1.33.22.02,0,.6.26,1.53.26.79,0,2.14-.48,2.96-.48s1.93.48,2.86.48c.79,0,2.14-.48,2.96-.48.69,0,1.61.35,2.43.45,0,.18.02.55.02.73h0ZM41.51,34.53c-.75-.12-1.64-.44-2.4-.44s-2.14.48-2.96.48-1.93-.48-2.86-.48c-.79,0-2.14.48-2.96.48s-1.33-.22-1.33-.22c-.02,0-.6-.26-1.53-.26-.62,0-1.1.11-1.36.19v-.71c.09-.03.61-.22,1.36-.22.81,0,1.33.22,1.33.22.02,0,.6.26,1.53.26.79,0,2.14-.48,2.96-.48s1.93.48,2.86.48c.79,0,2.14-.48,2.96-.48.67,0,1.55.33,2.36.44.02.18.03.55.04.73h0ZM41.42,33.5c-.73-.13-1.58-.43-2.31-.43-.79,0-2.14.48-2.96.48s-1.93-.48-2.86-.48c-.79,0-2.14.48-2.96.48s-1.33-.22-1.33-.22c-.02,0-.6-.26-1.53-.26-.62,0-1.1.11-1.36.19v-.71c.09-.03.61-.22,1.36-.22.81,0,1.33.22,1.33.22.02,0,.6.26,1.53.26.79,0,2.14-.48,2.96-.48s1.93.48,2.86.48c.79,0,2.14-.48,2.96-.48.64,0,1.47.3,2.25.43.02.18.04.56.06.73h0ZM41.28,32.45c-.7-.14-1.49-.4-2.18-.4-.79,0-2.14.48-2.96.48s-1.93-.48-2.86-.48c-.79,0-2.14.48-2.96.48s-1.33-.22-1.33-.22c-.02,0-.6-.26-1.53-.26-.62,0-1.1.11-1.36.19v-.71c.09-.03.61-.22,1.36-.22.81,0,1.33.22,1.33.22.02,0,.6.26,1.53.26.79,0,2.14-.48,2.96-.48s1.93.48,2.86.48c.79,0,2.14-.48,2.96-.48.6,0,1.36.26,2.09.4.03.18.06.56.09.74ZM41.1,31.4c-.65-.14-1.37-.36-2-.36-.79,0-2.14.48-2.96.48s-1.93-.48-2.86-.48c-.79,0-2.14.48-2.96.48s-1.93-.48-2.86-.48c-.62,0-1.1.11-1.36.19v-15.42h0c7.21,0,13.29,6.76,14.99,15.59h.01ZM33.07,16.82c-.11-.06-.21-.12-.32-.19l.24-.73.35.11-.26.81h-.01ZM33.48,16.06l.34.11-.3.94c-.1-.07-.21-.14-.31-.21,0,0,.27-.84.27-.84ZM32.61,16.55c-.11-.06-.22-.12-.32-.18l.21-.64.34.11-.23.7h0ZM32.14,16.31c-.11-.06-.22-.11-.33-.16l.18-.56.34.11-.2.62h.01ZM31.68,16.07c-.06-.03-.12-.05-.19-.08.08-.16.14-.33.2-.51l.16.05-.18.54h.01ZM34.04,17.16l-.37-.03.3-.91.35.11-.27.83h0ZM34.2,17.17l.26-.8.35.11-.23.72-.37-.03h0ZM34.73,17.22l.22-.68.35.11-.19.6-.37-.03h-.01ZM35.63,17.29l-.37-.03.18-.56.34.11-.16.48h0ZM36.16,17.34l-.37-.03.15-.45.34.11s-.12.37-.12.37ZM36.69,17.38l-.37-.03.11-.33.34.11-.08.25ZM36.85,17.4l.07-.22.92.3-1-.08h.01ZM37.89,17.32h.02l-6.16-1.99s0-.04.02-.06c.02-.05.03-.1.04-.15h0c.11-.41.18-.84.2-1.29l.06-.04s5.82,3.53,5.82,3.53ZM34.18,12.12l-.32.19-.33-1.03.34-.11.31.95ZM34.02,11.13l.35-.11.27.83-.32.19-.3-.91ZM33.72,12.4l-.32.19-.37-1.14.35-.11.35,1.06h0ZM33.27,12.67l-.32.19-.41-1.26.34-.11.38,1.18h0ZM32.81,12.95l-.32.19-.45-1.37.34-.11.42,1.29h.01ZM32.36,13.22l-.35.21v-.36c0-.07,0-.13-.02-.19v-.1c0-.05,0-.1-.02-.14,0-.03,0-.06-.02-.09-.02-.08-.03-.17-.05-.25,0-.03,0-.06-.02-.08,0-.05-.02-.1-.04-.15v-.03s-.03-.11-.05-.16h0l.14-.04.46,1.41v-.03s-.03,0-.03,0ZM34.97,12.46h.02c.07,0,.14-.01.21-.02h0c.07,0,.15-.01.22-.02,1.16-.09,2.26-.17,3.36.49-1.17-.11-2.33.53-3.46,1.14l-.21.12h-.02c-.07.05-.14.09-.21.12h-.02c-.07.05-.14.08-.21.12h-.02c-.07.04-.14.07-.21.11h0s-.16.08-.26.13l-1.77-1.07,1.84-1.12h.51c.07,0,.14,0,.21-.01h.03-.01ZM34.77,11.77l-.26-.8.35-.11.23.72-.32.19ZM35.22,11.49l-.22-.68.35-.11.19.6s-.32.19-.32.19ZM35.68,11.21l-.18-.56.34-.11.16.48s-.32.19-.32.19ZM36.13,10.94l-.15-.45.34-.11.12.37-.32.19h.01ZM36.59,10.66l-.11-.33.34-.11.08.25-.32.19h0ZM37.04,10.39l-.07-.22.92-.3s-.85.52-.85.52ZM37.84,9.72h.02l-6.15,1.99s0-.03-.02-.05c-.02-.04-.03-.09-.05-.13h0c-.04-.1-.08-.21-.13-.31,0-.02-.02-.04-.03-.06-.04-.09-.08-.18-.13-.27,0-.01,0-.03-.02-.04-.09-.18-.2-.35-.31-.52l.02-.06,6.78-.57s.02.02.02.02ZM29.85,8.65l.21-.29,1.1.8-.14.34-1.17-.85ZM30.96,9.65l-.15.36s-.03-.04-.04-.06c-.31-.39-.67-.75-1.07-1.05h0l.08-.11,1.2.87h-.02ZM31.23,9.01l-1.07-.78.21-.29,1,.73-.14.34ZM31.43,8.52l-.97-.71.21-.29.9.66-.14.34ZM31.64,8.03l-.87-.63.21-.29.8.58s-.14.34-.14.34ZM31.84,7.55l-.78-.56.21-.3.71.51-.15.35s.01,0,.01,0ZM32.05,7.05l-.68-.49.21-.29.61.44-.15.35h.01ZM32.25,6.56l-.58-.42.21-.29.51.37-.14.34ZM32.46,6.07l-.48-.35.21-.29.41.3s-.14.34-.14.34ZM32.67,5.58l-.38-.28.21-.29.31.23-.14.34ZM32.87,5.09l-.28-.21.21-.29.21.16-.14.34ZM33.08,4.6l-.18-.13.57-.79-.39.92ZM33.33,3.59l.02-.02-3.79,5.22s-.02-.02-.03-.02c-.41-.29-.86-.53-1.34-.7v-.03l5.15-4.45h0ZM27.8,7.92l-.03.02h-.02c-.47-.13-.96-.21-1.47-.22h-.05v-.13h1.48l.08.33h.01ZM27.56,6.91h-1.32v-.36h1.24l.09.36h-.01ZM26.24,1.28l.23.97h-.23v-.97ZM26.24,2.41h.26l.09.36h-.35s0-.36,0-.36ZM26.24,2.93h.39l.08.36h-.47s0-.36,0-.36ZM26.24,3.44h.51l.09.36h-.59v-.36h-.01ZM26.24,3.96h.63l.09.36h-.71v-.36h-.01ZM26.24,4.48h.75l.09.36h-.84v-.36ZM26.24,5h.87l.09.37h-.96s0-.37,0-.37ZM26.24,5.51h.99l.08.36h-1.08v-.36h.01ZM26.24,6.03h1.12l.09.36h-1.2v-.36h-.01ZM26.24,7.07h1.36l.08.36h-1.44v-.36ZM26.08,1.29v-.02,6.45h-.06c-.11,0-.22,0-.33.02h-.04c-.25.02-.5.06-.74.11h0c-.12.03-.24.06-.35.09l-.03-.03,1.56-6.62h0ZM26.16,8.03c3.05,0,5.54,2.48,5.54,5.54,0,.82-.18,1.6-.5,2.3-1.62-.68-3.33-1.04-5.08-1.04s-3.41.35-5,1.01c-.31-.69-.49-1.46-.49-2.26,0-3.05,2.48-5.54,5.54-5.54h-.01ZM24.14,8.06v.02c-.4.15-.79.34-1.14.57h0c-.08.05-.15.1-.23.16l-.08-.12,1.2-.87.25.25h0ZM23.77,7.71l-1.17.85-.21-.29,1.1-.8s.28.24.28.24ZM23.08,7.12l.28.24-1.07.78-.21-.29s1-.73,1-.73ZM22.68,6.77l.28.24-.97.71-.21-.29s.9-.66.9-.66ZM22.28,6.42l.28.24-.87.63-.21-.29.8-.58ZM22.16,6.32l-.78.56-.21-.3.71-.51s.28.25.28.25ZM21.76,5.97l-.68.49-.21-.29.61-.44s.28.24.28.24ZM21.35,5.63l-.58.42-.21-.29.51-.37s.28.24.28.24ZM20.95,5.28l-.48.35-.21-.29.41-.3s.28.24.28.24ZM20.55,4.93l-.38.28-.21-.29.31-.23s.28.24.28.24ZM20.15,4.58l-.28.21-.21-.29.21-.16.28.24ZM19.74,4.24l-.18.13-.57-.79.76.65h-.01ZM18.86,3.68v-.02l3.78,5.23s-.03.02-.04.03c-.39.3-.74.65-1.04,1.03v.02h-.05l-2.64-6.28h-.01ZM21.32,10.29c-.28.41-.51.86-.68,1.34,0,.03-.02.05-.03.08l-.15-.05.46-1.41.39.03h.01ZM20.76,10.24l-.45,1.37-.34-.11.42-1.29.37.03ZM19.86,10.16l.37.03-.41,1.26-.34-.11.38-1.18ZM19.33,10.12l.37.03-.37,1.14-.35-.11s.35-1.06.35-1.06ZM19.17,10.1l-.33,1.03-.34-.11.31-.95.37.03h-.01ZM18.28,10.03l.37.03-.3.91-.35-.11.27-.83h0ZM18.12,10.02l-.26.8-.35-.11.23-.72.37.03h.01ZM17.59,9.97l-.22.68-.35-.11.19-.6.37.03s.01,0,0,0h0ZM16.69,9.9l.37.03-.18.56-.34-.11.16-.48s-.01,0-.01,0ZM16.16,9.85l.37.03-.15.45-.34-.11s.12-.37.12-.37ZM15.63,9.81l.37.03-.11.33-.34-.11.08-.25ZM15.47,9.79l-.07.22-.92-.3,1,.08h-.01ZM14.43,9.87h-.02l6.15,1.99v.04c0,.05-.03.09-.04.14,0,.04-.02.08-.03.12,0,.05-.02.1-.03.15,0,.04-.02.07-.02.11-.02.08-.03.16-.04.24,0,.04,0,.09-.02.13,0,.04,0,.09-.02.13v.53l-5.88-3.56-.03-.02s-.02,0-.02,0ZM17.06,12.59c.07-.04.15-.08.22-.12h0c.07-.04.14-.08.21-.11,0,0,.02,0,.02-.01.06-.03.11-.06.17-.09h0l2.21,1.34-1.01.61c-.21-.02-.48-.03-.66-.04h-.22c-.14,0-.28,0-.42.01h0c-.07,0-.13,0-.2.01h-.03c-.06,0-.13,0-.19.01h-.02c-.06,0-.13,0-.19.01-1.16.09-2.26.17-3.36-.49,1.17.11,2.33-.52,3.46-1.14h.01Z"/>
    <path class="st0" d="M22.37,11.38s.69-.58,1.39-.58c.97,0,1.69.74,1.69.74v-.39s-.58-.65-1.69-.65c-.82,0-1.53.72-1.53.72l.14.17h0Z"/>
    <path class="st0" d="M30.14,11.38l.14-.19s-.71-.7-1.53-.7c-1.11,0-1.69.65-1.69.65v.39s.72-.74,1.69-.74c.7,0,1.39.58,1.39.58h0Z"/>
    <path class="st0" d="M25.2,14.15l-.02-.02-.12.12.02.02c.15.16.39.19.56.08.17.15.38.23.6.23s.44-.08.61-.23c.18.11.42.08.56-.08l.02-.02-.12-.12-.02.02c-.05.06-.13.09-.2.09s-.14-.03-.19-.09l-.06-.05-.12.11c-.13.13-.32.21-.5.21h-.02c-.18,0-.33-.08-.44-.2-.04-.05-.08-.09-.08-.09l-.02-.02-.02.02s-.24.22-.45.02h.01Z"/>
    <path class="st0" d="M25.23,12.22s.02-.08-.07-.21c-.06-.08-.51-.63-1.5-.38-.76.19-.95.54-.95.54,0,0,.15.18.54.3.03,0,.04-.02,0-.03h-.02c-.12-.06-.18-.2-.02-.37.16-.16.42-.21.42-.21,0,0-.04.14,0,.32.05.19.17.31.27.36.08,0,.32-.03.42-.03.05-.02.32-.29.19-.71.17.04.31.09.41.21s.09.18.07.23-.06.12-.12.16c0,0-.15.11.02.05.17-.06.25-.1.33-.21v-.02s.01,0,.01,0Z"/>
    <path class="st0" d="M28.85,11.63c-.99-.24-1.44.31-1.5.39-.09.13-.07.21-.07.21.09.1.16.15.34.2.17.06.02-.05.02-.05-.05-.04-.1-.1-.12-.16-.02-.05-.03-.12.07-.23.1-.12.21-.17.38-.21-.14.42.15.68.19.7.1,0,.34.03.42.03.09-.05.21-.17.26-.36.05-.18,0-.32,0-.32,0,0,.29.05.45.21s.11.3,0,.37h-.02s-.02.04,0,.03c.4-.13.54-.3.54-.3,0,0-.19-.35-.95-.53v.02s-.01,0-.01,0Z"/>
    <g>
      <path class="st0" d="M6.76,44.88c.16-.08.15-.13.14-.15-.01-.06-.1-.08-.17-.09h-.17c-.07,0-.15.1-.15.16h0v.03s.03.05.04.06c.04.03.11.04.16.03.07-.02.11-.04.14-.05h.01Z"/>
      <path class="st0" d="M4.41,35.2s.07-.03.12-.06c.05-.04.08-.13.06-.16l-.02-.02s-.04-.02-.06-.02c-.03,0-.07,0-.1.03-.05.04-.08.07-.09.09-.04.05-.08.12-.05.16.02.02.06.02.14,0,0,0,0-.02,0-.02Z"/>
      <path class="st0" d="M5.67,39.91s-.09-.02-.13,0c-.01,0-.03,0-.04.03v.02h-.01s.04.13.09.16c.06.03.1.04.13.04.07,0,.14.02.16-.03.02-.03-.01-.08-.08-.14-.03-.03-.06-.06-.12-.09h0Z"/>
      <path class="st0" d="M11.59,55.17c-.08-.02-.22.03-.25.1v.04c-.03.09.08.2.18.22.09.02.14.02.18.02.22,0,.23-.08.24-.1.02-.09-.07-.16-.15-.2-.04-.03-.09-.05-.19-.08h-.01Z"/>
      <path class="st0" d="M6.67,51.81s.1-.02.17-.06c.08-.04.15-.17.11-.23l-.02-.04s-.08-.05-.14-.05c-.04,0-.08,0-.1.02-.08.04-.12.08-.14.11-.07.07-.13.15-.09.22.01.02.04.07.21.03Z"/>
      <path class="st0" d="M6.4,45.53h-.04c-.06.02-.11.15-.08.24.02.08.05.13.06.16.1.18.16.16.17.16.02,0,.07-.02.08-.21v-.19c-.02-.08-.11-.17-.19-.17h0Z"/>
      <path class="st0" d="M6.5,26.08s.12.08.15.06l.02-.02s.03-.12,0-.17c-.04-.05-.07-.07-.09-.09-.05-.04-.09-.07-.12-.07h-.02s-.02.11,0,.15c.01.04.03.07.06.13h0Z"/>
      <path class="st0" d="M6.44,32.38v-.03c.04-.1.04-.16,0-.19-.03-.02-.09,0-.16.07-.03.03-.07.06-.11.12-.04.07-.04.19,0,.21l.02.02h0s.15-.02.19-.08c.04-.05.04-.09.05-.12,0,0,.01,0,0,0h0Z"/>
      <path class="st0" d="M7.53,27.52s.12.08.16.05c.03-.03.01-.1-.01-.16-.01-.04-.03-.08-.07-.13-.03-.03-.08-.06-.12-.07h-.04l-.02.02h0s-.02.14.01.19c.04.06.08.08.1.1h0Z"/>
      <path class="st0" d="M7.86,26.99c.06.05.1.06.12.08.15.07.18.03.19.02.03-.03.01-.09-.05-.18l-.02-.03s-.03-.06-.08-.1-.16-.06-.2-.02h0l-.02.02s0,.15.06.21Z"/>
      <path class="st0" d="M5.85,38.89s-.09,0-.16.08c-.03.03-.06.06-.1.13s-.03.19.01.21h.02s.15-.02.18-.08.04-.1.04-.13v-.03c.03-.1.03-.16,0-.18h0Z"/>
      <path class="st0" d="M42.74,53.4l.04-.02c.08-.04.14-.19.09-.37-.03-.11-.09-.2-.17-.24-.02,0-.05-.03-.09-.03h-.04c-.12.03-.18.21-.14.38.05.19.19.29.29.27h.02,0Z"/>
      <path class="st0" d="M6.2,33.16s-.09-.03-.13-.02c-.01,0-.03,0-.04.02v.02h-.02s.03.14.08.17c.06.04.1.05.12.05.07.02.14.03.16-.02.02-.03,0-.08-.07-.14-.03-.03-.05-.06-.11-.09h.01Z"/>
      <path class="st0" d="M8.29,51.11c.05.09.09.13.12.16.17.18.24.14.26.13s.09-.05.04-.28v-.04s-.01-.1-.06-.18c-.05-.1-.2-.17-.28-.14h-.02l-.03.02c-.08.05-.09.23-.03.33Z"/>
      <path class="st0" d="M44.36,23.27h.04c.08,0,.21-.09.25-.26s0-.34-.12-.37c-.05,0-.1,0-.13.02-.08.04-.14.13-.16.23-.05.19.03.34.12.38Z"/>
      <path class="st0" d="M46.46,43.33h0l.05-.04c.11-.09.12-.33.02-.53-.07-.13-.18-.23-.29-.26h-.08s-.07,0-.1.03c-.15.08-.18.35-.07.56.11.21.33.33.49.26h-.02v-.02Z"/>
      <path class="st0" d="M47.99,36.51c.14.08.35,0,.48-.18s.14-.43,0-.53c-.06-.04-.13-.04-.17-.04-.11.02-.23.09-.31.2-.12.17-.15.39-.05.5l.04.04h0Z"/>
      <path class="st0" d="M47.26,31.06c.1.06.28-.02.4-.16.13-.16.14-.38.03-.47-.05-.04-.12-.04-.16-.04-.1,0-.2.07-.28.17-.12.16-.14.37-.04.47h0l.04.02h0Z"/>
      <path class="st0" d="M48.12,41.03c-.16.1-.24.29-.18.42h0l.03.04c.08.09.26.07.41-.02.16-.11.24-.3.17-.41-.03-.06-.09-.08-.13-.09-.09-.02-.21,0-.3.07h0Z"/>
      <path class="st0" d="M47.8,39.73l-.05.1c.35-.14,1.43-.64,2.34-1.74,2.13-2.57,2.35-4.81,2.07-5.22-.04-.06-.08-.08-.14-.09h-.02c-.27,0-.69.44-.95.7l-.07.08c-.29.29-2.05,2.74-2.58,4.52-.29.98-.49,1.44-.6,1.65Z"/>
      <path class="st0" d="M46.18,26.74c-.06,0-.12.05-.16.11-.07.11-.06.23,0,.28h.03s.15,0,.22-.1.07-.23,0-.27c-.03-.02-.06-.02-.08,0h0v-.02h0Z"/>
      <path class="st0" d="M42.62,28.43c.09.19.4.77.98,1.51.56.72,1.17,1.14,1.7,1.52.15.1.28.2.41.29.4.3.74.58.91.74l-.05-.1c-.21-.47-.79-1.68-1.63-2.62-.94-1.05-2.04-1.28-2.33-1.33h0Z"/>
      <path class="st0" d="M46.16,32.85s-.09,0-.13.05c-.1.1-.07.31.06.46.13.14.33.19.44.11h0l.03-.04c.07-.1.03-.29-.1-.43-.08-.09-.19-.14-.29-.15h0Z"/>
      <path class="st0" d="M46.84,38.78l.02-.04c.05-.08.02-.24-.12-.37-.08-.07-.17-.12-.26-.12h0s-.08,0-.12.05c-.08.09-.04.28.09.4.14.13.31.14.39.07h0Z"/>
      <path class="st0" d="M45.59,29.13l.02-.04c.04-.1-.03-.25-.16-.34-.07-.05-.15-.07-.22-.07h-.05s-.08.02-.11.07c-.07.1,0,.28.14.38.14.1.31.1.39,0h0Z"/>
      <path class="st0" d="M44.89,26.69v-.03c.03-.07-.02-.19-.14-.26-.05-.03-.11-.05-.16-.05h-.06s-.06.02-.08.06c-.04.07,0,.21.14.29.13.07.26.05.31-.02h0Z"/>
      <path class="st0" d="M42.66,22.67v-.03c-.02-.06-.11-.12-.23-.12s-.22.07-.22.15c0,.07.09.15.22.15s.22-.08.23-.15Z"/>
      <path class="st0" d="M44.45,53.36h0l.03.06c.07.13.3.18.5.11.23-.08.38-.28.32-.45-.03-.08-.09-.13-.14-.15-.11-.05-.25-.06-.38-.02-.22.07-.37.28-.34.45h.01Z"/>
      <polygon class="st0" points="6.69 23.79 6.78 24.13 7.24 24.83 7.27 25.1 7.38 25.54 7.38 25.23 7.33 24.88 7.48 24.54 7.74 24.17 8.05 23.49 8.14 23.01 8.16 22.5 8.14 21.99 8.09 21.58 7.99 21.09 7.88 20.62 7.74 20.15 7.48 19.53 7.38 19.71 7.12 20.29 7 20.62 6.74 21.53 6.63 22.03 6.55 22.95 6.6 23.35 6.69 23.79"/>
      <path class="st0" d="M7.12,52.03c-.08.02-.15.15-.15.25,0,.08.03.13.04.17,0,0,.01.03.01.04.06.2.14.2.15.19.02,0,.09,0,.13-.21.01-.06.03-.11.02-.21,0-.07-.04-.15-.09-.2-.02-.02-.04-.03-.07-.03h-.05.01Z"/>
      <path class="st0" d="M40.98,49.46s-.05-.02-.07-.02-.05,0-.07.02c-.39.16-1.3,1.91-1.07,4.89.09,1.23.55,2.1.74,2.43l.04.06.06-.33c.06-.31.17-.75.34-1.29.48-1.57.45-4.27.39-4.63v-.09c-.06-.32-.15-.91-.35-1.02v-.02h-.01Z"/>
      <path class="st0" d="M39.37,57.33c.04-.25-.07-.48-.23-.5h-.03c-.06,0-.12.03-.16.06-.1.07-.17.2-.2.35-.04.24.07.47.23.52h.06c.14,0,.29-.19.33-.41,0,0,0-.02,0-.02Z"/>
      <path class="st0" d="M10.6,57.42c-.03.11-.02.17-.02.21,0,.26.09.28.11.29.1.02.18-.08.23-.17.03-.05.06-.11.09-.22s-.03-.27-.11-.31l-.05-.02h-.02s-.06,0-.08.02c-.07.04-.13.12-.15.2Z"/>
      <path class="st0" d="M46.41,48.4l-.38.61c.17-.07.73-.3,1.44-.72,1.02-.6,2.12-1.31,3.16-2.38.96-.99,1.26-1.77,1.32-1.95-.29,0-1.65.11-3.15,1.47-1.05.95-1.89,2.14-2.4,2.97h.01Z"/>
      <path class="st0" d="M49.53,49.26h-.08c-.32.05-2.49,1.16-3.63,2-.36.26-.65.46-.89.6l-.28.17.07.02c.25.06.64.14,1.14.14.34,0,.68-.04,1-.11,2.62-.58,3.62-2.28,3.63-2.66,0-.05,0-.09-.04-.12-.15-.14-.65-.07-.92-.04Z"/>
      <polygon class="st0" points="18.38 59.43 18.4 58.82 18.37 58.3 18.25 57.87 18.02 57.12 17.73 56.52 17.07 55.73 15.94 54.83 15.82 55.9 15.77 56.81 15.79 57.69 16.05 59.01 16.93 60.37 17.36 60.72 17.87 61.36 17.86 60.97 18.33 59.91 18.38 59.43"/>
      <path class="st0" d="M9.68,57.21h.04s.1.03.2.03c.11,0,.27-.11.29-.23v-.02h0v-.04s-.04-.09-.06-.11c-.06-.06-.16-.09-.23-.09h-.01c-.12,0-.18.03-.22.04-.27.09-.26.18-.26.22s0,.13.26.19c0,0-.01,0,0,0h0Z"/>
      <path class="st0" d="M36.82,61.09v.04c.03.1.16.18.31.18.17,0,.3-.1.3-.21s-.14-.22-.3-.22-.3.09-.31.21Z"/>
      <path class="st0" d="M42,56.82c-.18.03-.32.16-.31.3h0l.02.05c.04.11.2.17.37.14.18-.03.32-.16.31-.29,0-.06-.05-.11-.09-.13-.07-.05-.18-.08-.29-.06h0Z"/>
      <path class="st0" d="M43.11,21.53c.06.14.11.27.15.4.07.2.13.39.18.55l.1.33c.07-.41.21-1.53.05-2.6-.17-1.15-.79-1.81-.99-1.99-.02.19-.06.71,0,1.47.07.76.29,1.34.5,1.85h.01Z"/>
      <polygon class="st0" points="2.52 52.12 2.52 52.12 2.52 52.12 2.52 52.12"/>
      <path class="st0" d="M46.73,30.22l-.07.23c.32-.41,1.04-1.44,1.44-2.77.47-1.58.37-3.15.32-3.82v-.22c0-.25-.04-.32-.07-.33h0s-.12.06-.19.12l-.02.02c-.19.15-.89,1.52-1.24,2.74-.24.82-.17,2.12-.12,2.99.02.37.04.65.02.79,0,.09-.03.18-.05.26h-.02Z"/>
      <path class="st0" d="M45.48,26.22v.32c.2-.5.56-1.62.72-3.03.09-.83-.02-2.4-.71-3.12-.4,1.7-.47,3.67-.18,4.8.1.37.15.72.17,1.03Z"/>
      <path class="st0" d="M46.13,49.92c.08.09.27.08.43-.02.17-.11.25-.31.17-.43-.04-.06-.1-.08-.14-.09-.1-.02-.21,0-.31.07-.16.11-.25.3-.18.44h0l.03.04h0Z"/>
      <path class="st0" d="M46.59,53.76c-1.15.22-1.99.73-2.73,1.18-.2.12-.39.24-.57.34-.23.13-.48.26-.73.38l-.38.19.26-.34c.45-.59.89-1.24,1.31-1.92l.07-.12c.28-.46.54-.93.78-1.38l.04-.07h0l.15-.29c.23-.46.45-.93.65-1.38h0l.1-.23c.16-.37.29-.71.42-1.05l.03-.05.24-.71c.41-1.2.73-2.41.95-3.61v-.05l.05-.02c.79-.44,2.29-1.38,3.47-2.65,1.45-1.56,1.62-3.29,1.64-3.63-.21.12-1.01.63-2.06,1.62-.96.91-1.49,1.85-1.96,2.68v.02c-.14.22-.25.42-.37.62-.16.27-.32.51-.46.73l-.25.38.07-.45c.08-.55.15-1.09.18-1.59.02-.21.03-.42.04-.63v-.09c.04-.58.07-1.15.08-1.69v-.27c.02-.88,0-1.76-.03-2.6v-.25c-.04-.48-.08-.94-.12-1.39v-.05l.03-.03c.5-.48,1.74-1.8,2.5-3.58.89-2.08.48-4.2.39-4.59-.16.2-.78,1-1.46,2.35-.63,1.24-.83,2.37-1,3.35-.05.28-.09.53-.14.76-.06.31-.14.62-.22.93l-.13.52-.07-.53c-.12-.96-.28-1.92-.48-2.87h0l-.05-.24c-.07-.3-.14-.6-.21-.89v-.05h0l-.08-.29c-.23-.89-.5-1.79-.81-2.7l-.02-.06c-.08-.24-.17-.49-.26-.73v-.03h0l-.16-.42c-.05-.13-.1-.26-.15-.39-.26-.68-.58-1.35-.96-1.98l-.03-.04h0l-.02-.04c-.17-.29-.37-.58-.57-.86l-.02-.03h0l-.26-.34c-.5-.64-1.05-1.19-1.62-1.65l-.02-.03c-.17-.29-.38-.55-.63-.78-1.32-1.21-2.33-1.29-2.49-1.21-.03.01-.03.03-.03.04-.02.12.21.35.33.48l.04.04c.14.15,1.29,1.08,2.16,1.42.49.19.71.3.81.36.47.44.87.86,1.23,1.32l.14.17h0c.43.56.81,1.15,1.15,1.8l.2.38-.35-.26c-.12-.09-.26-.19-.4-.31-.1-.08-.2-.17-.31-.26-.4-.34-.85-.73-1.51-1.01-.72-.31-1.22-.42-1.36-.44.1.2.61,1.18,1.67,1.72.92.47,1.85.56,2.21.58h.06l.03.06c.24.5.45,1.01.66,1.56l.11.3c.14.38.26.77.38,1.14l.17.53-.34-.44c-.3-.39-.81-.98-1.49-1.57-.53-.46-1.67-1.12-2.5-.96,1,1.1,2.33,2.08,3.25,2.4.55.19.87.4,1.05.54l.02.02v.03c.08.25.16.51.23.76l.08.3h0c.23.89.44,1.8.6,2.71l.15.81-.02-.03c.04.23.07.45.1.67l.05.37h0c.11.86.19,1.73.23,2.58l.02.46-.21-.41c-.14-.28-.28-.56-.41-.83-.08-.18-.16-.38-.25-.58-.33-.79-.7-1.67-1.44-2.57-.79-.96-1.44-1.5-1.62-1.64-.02.32-.03,1.83,1.06,3.33.96,1.33,2.3,2.37,2.83,2.76l.04.03v.05c.02.58.02,1.16,0,1.73v.08h0v.16h0c-.02.66-.06,1.31-.11,1.95l-.04.45-.15-.42c-.09-.25-.19-.57-.3-.93-.43-1.44-1.79-3.48-2.01-3.73l-.06-.06c-.2-.23-.54-.62-.74-.6-.04,0-.07.02-.09.06-.2.32,0,2.11,1.64,4.26.61.8,1.29,1.24,1.64,1.42l.06.03v.07c-.06.5-.12.99-.2,1.46-.03.16-.05.32-.08.49l-.03.18v.02l-.02.11h0c-.21,1.16-.5,2.3-.84,3.4l-.1.32-.09-.33c-.11-.41-.16-.91-.14-1.47.04-1.49-.72-3.85-1.87-5.77-.77,1.13-.41,3.09,0,4.07.71,1.67,1.59,2.88,2.06,3.46l.03.04-.02.05c-.49,1.48-1.12,2.91-1.86,4.25l-.17.31-.02-.35c0-.33-.02-.65-.02-.96v-.72c.03-.93.06-1.99-.27-3.24-.37-1.39-.79-2.25-.89-2.44-.14.25-.9,1.78-.48,3.87.33,1.66,1.09,3.22,1.52,4l.03.05-.03.05c-.22.37-.46.75-.7,1.11l-.12.18h0c-.63.92-1.32,1.8-2.07,2.62l-.24.26h0l-.05.05c-.45.48-1.61,1.56-1.64,1.58l-.02.02h0c-.26.23-.52.45-.78.65-.21.17-.93.71-.93.71l.07-.28c.08-.3.17-.6.25-.88.07-.21.14-.43.22-.66.3-.86.63-1.84.7-3.12.08-1.54-.07-2.51-.09-2.61-.04.05-1.3,1.2-1.56,3.49-.18,1.63.03,3.3.17,4.16l-.04.1c-.98.69-3.21,1.9-3.21,1.9l.13-.26c.12-.25.3-.57.54-.95.8-1.29,1.24-3.77,1.25-4.12v-.09c0-.32.02-.85-.17-1.03-.04-.04-.1-.06-.16-.06-.44.03-1.72,1.35-2.01,4.14-.11,1.03.14,1.9.3,2.32l.03.09s-.39.18-.54.24c-.87.37-1.83.74-2.84,1.07l-.08-.18c.56-.3,1.05-.6,1.45-.91,1.19-.92,1.13-1.77.93-2.41l-1.29-1.22s-.06-.06-.09-.09c-.19-.2-.39-.4-.93-.24-1.79.52-2.94,1.53-3.42,3.02-.24.74-.31,1.62-.33,2.07v.1h-.2l-.02-.1c-.02-.45-.09-1.33-.33-2.07-.48-1.49-1.63-2.5-3.42-3.02-.54-.16-.74.05-.93.24-.03.03-.06.06-.09.09l-1.29,1.22c-.2.64-.26,1.49.93,2.41.8.62,1.78,1.12,2.47,1.44l-.07.19c-1.81-.56-3.7-1.38-5.47-2.35h0l-.46-.25c-1.14-.66-2.19-1.36-3.11-2.09-.05-.04-.1-.08-.15-.12l-.12-.1.02-.49.13-.27.22-.67.07-.35.05-.47v-.33c.01-.35,0-.57-.02-.61-.03-.09-.07-.58-.07-.67l-.15-.78-.31-.72-.65-.99-.89-.84v.44l-.07.37-.19.78-.15,1,.04.81.21.69.37.84.22.38.23.34.18.32.35.38.3.35v.42l-.17-.13c-1.19-1-2.29-2.11-3.26-3.32l-.58-.76.22-.68.2-.22.39-.59.17-.32.18-.44.08-.32c.11-.35.16-.56.15-.6,0-.09.08-.54.11-.68l.06-.8-.11-.79-.37-1.15-.45-.75-.48.47-.38.7-.42.93-.17.8.03.73.14.93.11.43.14.4.09.36.24.47.2.43-.19.63-.12-.17c-.71-.99-1.35-2.05-1.91-3.16l-.08-.17h0c-.09-.18-.17-.35-.26-.53l-.02-.04v-.02l-.03-.06c-.11-.23-.21-.47-.31-.7l-.02-.04.27-.59.87-.73.27-.43.3-.57.22-.51.1-.47.16-.84.04-.71v-1.35l-.03-.51-.12-.91-.08-.31-.63.78-.38.58-.33.59-.34.65-.22.54-.24.69-.16.71-.07.68.16,1.07.19.57.08.55-.14.33-.09-.22c-.51-1.29-.93-2.65-1.24-4.04l-.31-1.61.42-.53.93-.49.33-.34.4-.46.31-.43.2-.42.34-.75.21-.66.12-.44.05-.84-.11-.62-.56.24-.81.54-.55.7-.68,1.2-.34,1.66.03.57-.06.53-.25.34-.04-.24c-.16-1.09-.27-2.22-.31-3.36v-.26h0c0-.24-.02-.78-.02-.78l.04-.03.54-.73.31-.39.25-.12.53-.38.25-.22.29-.32.18-.25c.21-.26.32-.42.33-.46.03-.09.27-.47.32-.55l.32-.67.16-.71.06-1.12-.2-1.11-.24.3-.25.25-.57.48-.66.66-.41.63-.22.64-.13.55-.06.3-.05.41v.39l-.05.35.06.48.04.44-.56.73-.28.22v-.21c0-1.81.5-5.7.5-5.7.07-.41.15-.84.24-1.27v-.04l.54-.37.22-.04.5-.17.25-.12.3-.18.19-.15c.26-.18.35-.27.36-.29.04-.07.3-.3.38-.37l.4-.45.29-.53.29-.87.09-.92-.24.18-.25.14-.56.25-.67.37-.47.4-.32.45-.33.63-.13.31-.1.3-.11.27-.13.76-.47.29s.76-3.02,1.23-4.35c0,0,.32-.85.44-1.11v-.03l.58-.26.81.05.33-.09.42-.15.34-.16.74-.55.57-.58.19-.41.23-.56-.44-.06-.72.04-.6.25-.84.52-.76.95-.16.38-.21.33-.4.18.12-.24c.51-1.06,1.15-2.09,1.9-3.07l.02-.03.58-.11.23-.11.32-.11.29-.13.2-.11.39-.23.42-.32.37-.47.34-.68.22-.54.12-.25.18-.26-.87.1-.82.3-.49.3-.43.41s-.26.32-.31.36c-.04.02-.12.11-.28.37l-.16.22-.17.3-.11.25-.16.51-.03.19-.02.02c-.77.96-1.46,2.03-1.93,3.02l-.2.43c-.03.06-.31.77-.31.77-.4,1.02-.74,2.05-1.03,3.06l-.1.35-.21-.78.08-.46.2-.51.14-1.53-.3-1.23-.58-1.05-.34-.39-.56-.44-.18.81-.19.96v.64l.19,1.14.17.46.24.51.22.38.75.7.12.3.19.79v.02s-.02.02-.02.03c-.32,1.23-.55,2.44-.72,3.71l-.03.25-.58-.82.05-.42.08-.48-.03-.31v-.41l-.02-.4-.04-.28-.1-.55-.18-.62-.37-.63-.62-.67-.51-.47-.23-.24-.23-.33-.24,1.09v1.08l.14.7.28.67s.25.44.27.51c0,.04.08.18.29.47l.18.27.27.32.23.22.5.39.25.15.6.82-.06.58c-.14,1.34-.2,2.7-.19,4.16v.29l-.38-.49-.06-.56.05-.67-.11-1.12-.25-.68-.35-.68-.42-.62-.37-.49-.5-.56-.49-.51-.54-.49-.82-.61v.35l.11.95.1.52.21.89.13.48.23.73.6,1.25.36.46.45.49.38.36,1.1.53.58.72s.07,1.86.14,2.81c.04.54.11,1.11.2,1.69l.04.26-.56-.47-.15-.53-.05-.66-.28-1.08-.36-.61-.46-.59-.52-.52-.46-.4-.6-.43-.58-.39-.63-.36L0,38.07l.07,1.2.12.54.27.63.21.44.35.66.8,1.09.44.38.54.38.44.27,1.22.28.3.25.51.45v.03c.38,2.05,1.05,4.16,1.95,6.12l.14.31-1.03-.67-.13-.51-.13-.58-.17-.35-.17-.47-.21-.44-.18-.31-.36-.58-.49-.62-.71-.54-1.01-.48-.8-.3-.37-.17-.41-.27.21,1.36.49,1.24.46.74.62.63s.49.39.54.46c.03.05.23.2.55.4l.32.23.45.24.37.15.75.21.35.05.45.29.64.4.05.1h0l.07.14c.09.19.19.38.29.57.65,1.25,1.4,2.43,2.22,3.51l.19.24-.66-.2-.36-.42-.32-.56-.71-.85-.58-.41-.66-.35-.68-.27-.57-.18-.71-.16-.68-.13-.71-.09-1.01-.02.2.29.62.71.37.37.66.6.37.31.59.46,1.17.67.55.17.64.14.5.07,1.17-.21.98.29.06.04c.13.16.26.32.4.48l.16.19c1.11,1.28,2.32,2.38,3.61,3.28l.44.31-1.33.09-.43-.37-.48-.44-.38-.2-.45-.3-.47-.25-.35-.16-.69-.28-.83-.23h-.99l-1.2.25-.9.27-.44.09-.56.04,1.07,1.09,1.23.78.89.35.96.15h0s.69.02.78.05c.01,0,.05.02.21.02.19,0,.44-.02.54-.03h.43l.56-.11.42-.11.36-.14.44-.18.34-.19.59-.04.81-.08.03.02c1.52,1.05,2.81,1.83,4.04,2.45l.3.15-.57.06-.6-.09-.29-.19-.73-.34-.39-.13-.52-.12-.37-.04c-.47-.08-.66-.08-.69-.06-.1.03-.66,0-.77,0l-.89.07-.85.27-1.2.65-1.07.95.5.07.41.11.86.32,1.11.31.92.05.8-.17.65-.21.34-.13.46-.21.41-.24.38-.17.47-.37.43-.32,1.11.15.34-.1h.03l.02.02c1.21.58,2.46,1.05,3.93,1.5l.43.13-.45.06c-.65.09-1.4.28-2.23.55l-.08.03-.04-.08c-.06-.12-.11-.21-.14-.26-.35.1-1.75.51-2.22.75,0,.14-.02.33-.05.56v.05l-.17.08c-.57.31-.56.39-.56.42,0,.17-.09.37-.15.53-.08.2-.12.29-.07.33.05.05.18-.02.25-.06.11-.06.23-.13.38-.2l.17-.09-.03.19c-.16.99-.37,2.12-.59,3.14.9-.79,1.24-.94,1.25-.95l.07-.03.92,1.08c0-.35.05-1.04.15-1.99l.06-.61.13.6c.23.79.48.79.9.79.39,0,1.33-.12,1.48-.14.38-.25,1.8-1.87,2.4-3.18l.03-.08.08.02c.24.06.62.11,1.05.03h.07l.04.05c.7,1.2,1.96,2.77,2.29,3h1.74c.07,0,.13-.01.19-.03l.12-.05v.13c.07.6.11,1.03.13,1.26l1.01-1.05.07.03s.34.18,1.19,1.02c-.18-1.01-.47-1.99-.7-2.79l-.16-.56.2.09c.19.09.33.16.4.21.13.09.24.17.3.12.05-.03.04-.09,0-.27-.03-.15-.06-.35-.06-.6v-.03c-.06-.05-.26-.19-1.03-.49l-.05-.02v-.06c-.03-.12-.04-.22-.04-.31-.36-.2-1.43-.58-1.76-.7-.02.07-.05.16-.1.3l-.03.09-.09-.03c-.89-.29-1.8-.57-2.56-.77l-.34-.09.34-.1c1.75-.51,3.48-1.14,4.98-1.82h.08c.88.36,2.71,1.01,5.06,1.29.22.03.49.04.77.04.44,0,1.12-.03,1.86-.19.8-.17,1.88-.54,2.52-1.32-2.81-.72-6.07-.82-7.93-.24-.62.19-1.2.31-1.71.34l-.49.03s2.16-1.13,3.12-1.74c0,0,1.06-.7,1.63-1.09l.09-.06.05.02c.4.16,1.24.43,2.34.43.17,0,.35,0,.52-.02,3.47-.27,5.36-1.66,5.5-2.14.02-.06,0-.12-.03-.17-.16-.22-.85-.21-1.23-.21h-.11c-.43,0-3.56.45-5.29,1.29-.35.17-.66.31-.92.43l-.71.31.61-.48c.82-.64,2.44-2.26,2.44-2.26.3-.33.9-1.05.9-1.05h.05c.33.05.85.09,1.47.09.92,0,1.75-.1,2.48-.3,1.89-.52,2.81-2.05,2.92-2.26-.16,0-1.03-.08-2.35.17l.05.02h0ZM24.69,65.72c-.68.8-1.58,1.81-2.01,2.08l-.1.07-.04-.12c-.14-.39-.26-.7-.36-.92-.08-.17-.16-.34-.24-.5l-.05-.1.1-.04c.5-.18,1.19-.41,1.6-.47.33-.06.67-.12,1.01-.19l.12-.02v.12l.02.04-.04.05s-.01,0-.01,0ZM25.5,63.49c-.14.04-.25.1-.34.19-.07.06-.13.14-.18.24l-.06.1-.09-.07c-.51-.39-1.77-1.38-2.26-2.09h0c-.62-.89-.75-1.25-.76-1.54v-.16l.14.06c.93.39,1.71.86,2.2,1.33.64.63,1.16,1.4,1.42,1.8l.07.11-.12.04h-.02,0ZM28.08,65.73c.49.12,1.24.35,2.12.65l.1.04-.05.1c-.11.23-.24.57-.39,1.02l-.04.12-.11-.07c-.39-.25-1.16-1.06-1.74-1.69l-.22-.24.32.08h.01,0ZM27.71,63.87l-.09.06-.05-.1c-.03-.06-.06-.11-.1-.14-.1-.11-.22-.18-.37-.22l-.13-.04.07-.11c.24-.39.75-1.15,1.4-1.78.48-.47,1.26-.94,2.2-1.33l.15-.06v.16c-.02.29-.15.65-.77,1.54-.5.72-1.78,1.65-2.31,2.01h0Z"/>
    </g>
  </g>
  <rect class="st0" x="287.93" y="19.93" width=".88" height="32.79"/>
  <path class="st0" d="M313.54,33.1c-1.1,1.73.15,3.98,2.19,3.98,1.43,0,2.58-1.17,2.58-2.6,0-2.58-3.38-3.56-4.77-1.38ZM308.76,41.59c-1.98,0-3.59-1.59-3.6-3.57,0-.71.21-1.41.6-2l8.54-12.78c.99-1.48,2.65-2.38,4.44-2.38,2.96-.01,5.37,2.38,5.38,5.34l.03,9.18c0,.88.72,1.59,1.6,1.59.88,0,1.6.71,1.6,1.59v1.52c0,.88-.7,1.6-1.58,1.6s-1.59.72-1.59,1.6v.75c0,1.3-1.04,2.35-2.34,2.36h-1.19c-1.33,0-2.42-1.07-2.43-2.4s-1.09-2.41-2.43-2.41l-7.05.02Z"/>
  <path class="st0" d="M337.8,34.2c-1.53,0-2.77,1.25-2.76,2.78,0,1.53,1.25,2.77,2.78,2.76,1.53,0,2.77-1.25,2.76-2.78,0-1.53-1.25-2.77-2.78-2.76ZM337.76,24.34c6.98-.02,12.65,5.61,12.68,12.59.02,6.98-5.61,12.65-12.59,12.68-6.98.02-12.65-5.61-12.68-12.59-.02-6.98,5.61-12.65,12.59-12.68Z"/>
  <path class="st0" d="M379.77,22.17c.06-.19.09-.38.08-.58-.09-1.49-.86-2.74-3.06-2.37-3.59.61-6.93,2.26-9.53,4.75-3.33,3.2-5.19,7.52-5.18,12.02.02,4.5,1.91,8.81,5.26,11.98,2.62,2.48,5.97,4.1,9.56,4.69,2.4.39,2.99-.89,3.04-2.39,0-.2-.02-.39-.08-.58-.48-1.5-2.7-8.75-2.72-13.76s2.15-12.28,2.62-13.78Z"/>
  <path class="st0" d="M364.64,24.32c.06-.19.1-.39.08-.6-.1-1.25-.78-2.27-2.7-1.96-3.17.52-6.12,1.92-8.42,4.05-2.94,2.72-4.59,6.41-4.58,10.24.01,3.83,1.69,7.51,4.65,10.21,2.32,2.11,5.27,3.49,8.45,3.99,2.09.33,2.62-.73,2.69-1.98.01-.2-.03-.4-.09-.6-.46-1.39-2.37-7.45-2.38-11.67-.01-4.22,1.85-10.3,2.3-11.68Z"/>
  <path class="st0" d="M428.49,50.29c-.48,0-.9-.08-1.25-.23-.35-.15-.62-.34-.81-.56-.19-.22-.28-.43-.29-.64,0-.16.06-.31.17-.44.11-.14.28-.22.51-.22.17,0,.3.03.4.1.1.06.17.13.22.18.18.2.36.35.55.45.19.09.39.14.61.14.24,0,.41-.05.52-.14.11-.09.16-.21.16-.34,0-.11-.04-.21-.13-.29-.09-.09-.21-.16-.37-.23-.16-.07-.35-.14-.58-.22-.24-.08-.47-.16-.7-.25-.22-.09-.42-.2-.6-.33-.17-.14-.31-.3-.41-.49-.1-.19-.15-.43-.15-.7,0-.33.09-.63.26-.88.18-.27.43-.47.74-.63.32-.15.68-.23,1.09-.23s.75.07,1.05.2c.3.13.54.3.71.51.17.2.26.42.26.65,0,.17-.05.32-.14.43-.09.11-.24.17-.43.17-.17,0-.31-.04-.42-.11-.11-.07-.19-.14-.26-.22-.05-.06-.11-.13-.18-.19-.06-.06-.15-.12-.25-.16-.09-.05-.22-.08-.38-.08-.22,0-.37.04-.47.13s-.15.19-.15.31c0,.13.05.23.14.31.1.08.25.15.44.23.2.06.45.15.75.26.25.09.47.18.67.29.2.1.37.22.51.34.14.13.25.28.32.44.08.17.12.36.12.58,0,.34-.09.66-.27.94-.17.27-.42.49-.75.65-.33.16-.73.24-1.2.24ZM423.09,48.94c.4,0,.7-.14.92-.41.22-.28.33-.69.33-1.23s-.11-.92-.33-1.2c-.22-.28-.52-.42-.92-.42s-.7.14-.92.42c-.22.28-.32.68-.32,1.2s.11.95.32,1.23c.22.27.52.41.92.41ZM423.09,50.26c-.54,0-1.01-.13-1.42-.38-.41-.26-.73-.61-.96-1.06-.22-.45-.33-.96-.33-1.52s.11-1.05.33-1.49c.23-.44.55-.79.96-1.05.41-.26.88-.39,1.42-.39s1.02.13,1.43.39.73.61.95,1.05c.23.44.34.93.34,1.49s-.11,1.07-.34,1.52c-.22.45-.54.8-.95,1.06-.41.25-.89.38-1.43.38ZM415.85,43.65c-.18,0-.33-.06-.44-.18-.11-.13-.16-.29-.15-.49,0-.19.07-.35.18-.5.12-.15.28-.27.47-.37.2-.09.42-.14.66-.14.19,0,.34.03.47.09.14.05.25.11.34.18.09.06.18.12.25.17.07.05.14.08.22.08s.13-.01.16-.04c.04-.03.07-.07.11-.13.05-.07.11-.13.18-.17.07-.05.17-.08.29-.08.17,0,.31.06.42.19.11.12.17.28.16.47,0,.19-.07.36-.18.51-.11.14-.27.26-.46.36-.19.09-.41.13-.66.13-.19,0-.35-.03-.49-.08-.13-.05-.24-.11-.33-.17-.09-.07-.18-.13-.26-.18-.07-.06-.14-.09-.22-.09-.06,0-.12.03-.16.05-.04.03-.07.08-.11.14-.05.06-.11.11-.18.16-.07.05-.17.08-.28.08ZM415.42,50.21c-.2,0-.37-.07-.51-.2-.14-.14-.2-.31-.2-.52v-4.33c0-.2.07-.37.2-.51.14-.14.31-.2.51-.2s.37.07.51.22c.14.14.22.3.22.5v.66l-.29-.13c.23-.44.5-.76.81-.97.31-.22.68-.32,1.1-.32.39,0,.73.09,1.03.26.31.17.55.41.72.74s.26.73.26,1.21v2.89c0,.21-.07.38-.2.52-.14.14-.31.2-.51.2s-.38-.07-.52-.2c-.14-.14-.2-.31-.2-.52v-2.64c0-.34-.09-.61-.27-.81-.18-.21-.43-.31-.77-.31-.24,0-.45.05-.63.16-.17.1-.31.24-.4.42s-.14.38-.14.59v2.59c0,.21-.07.38-.2.52-.14.14-.31.2-.52.2ZM410.96,49.04c.23,0,.44-.05.63-.14.19-.09.33-.23.44-.4.11-.17.17-.38.17-.61v-.38s0-.03-.02-.03c0,0-.02,0-.04.02-.09.06-.19.1-.31.13-.12.03-.25.05-.39.08-.13.01-.26.04-.4.08-.33.06-.56.15-.69.26-.12.11-.18.24-.18.41,0,.18.06.32.19.43.14.11.34.16.6.16ZM410.65,50.26c-.33,0-.64-.06-.94-.19-.29-.13-.52-.32-.71-.56-.18-.25-.27-.56-.27-.93,0-.52.17-.93.51-1.23.34-.3.9-.51,1.66-.63.24-.04.46-.07.66-.1.19-.04.35-.09.46-.15.12-.07.18-.18.18-.33,0-.11-.03-.2-.1-.29-.06-.09-.14-.15-.26-.19-.11-.05-.26-.08-.43-.08-.22,0-.41.04-.55.13s-.26.19-.36.3c-.09.1-.2.18-.31.25-.11.06-.25.09-.4.09-.2,0-.36-.05-.49-.15-.11-.11-.17-.25-.17-.43s.06-.35.17-.51c.11-.17.27-.31.47-.44.21-.13.45-.23.72-.3.27-.08.57-.12.88-.12.49,0,.9.09,1.23.27.33.17.58.42.74.73.17.32.26.68.26,1.09v2.13c0,.09.01.16.03.19.02.03.06.05.13.08.11.04.22.11.32.22.1.1.15.24.15.41,0,.19-.07.36-.22.5-.14.14-.34.2-.6.19-.29,0-.52-.08-.69-.22-.16-.14-.26-.33-.3-.56v-.08h-.04c-.19.29-.42.52-.69.68-.27.15-.62.23-1.07.23ZM402.82,48.92c.35,0,.65-.1.91-.3.26-.21.45-.51.58-.89.14-.39.2-.85.2-1.39s-.07-1-.2-1.39c-.13-.4-.32-.7-.58-.91-.25-.21-.55-.31-.91-.31s-.66.1-.92.31c-.25.21-.45.51-.58.91-.14.39-.2.85-.2,1.39s.07,1,.2,1.39.33.69.58.89c.26.2.56.3.92.3ZM402.82,50.26c-.6,0-1.13-.17-1.61-.5-.47-.33-.84-.79-1.11-1.38-.27-.59-.41-1.27-.41-2.05s.14-1.46.41-2.05c.27-.6.65-1.06,1.12-1.39.47-.34,1.01-.51,1.6-.51s1.12.17,1.6.51c.47.33.85.79,1.12,1.39.27.59.41,1.27.41,2.05s-.14,1.46-.41,2.05c-.27.59-.65,1.05-1.12,1.38-.47.33-1,.5-1.6.5ZM397.5,50.21c-.19,0-.36-.07-.51-.2-.14-.14-.21-.31-.2-.51l.15-6.19.95.04-3.59,4.21-.64-.74,5-.05c.19,0,.36.05.5.18.14.12.22.28.22.47s-.07.36-.22.51c-.14.14-.31.2-.51.2h-4.74c-.22,0-.41-.08-.57-.23-.17-.16-.25-.35-.25-.57,0-.11.02-.23.06-.36.05-.12.11-.23.18-.31l3.21-3.84c.14-.17.27-.27.4-.32.14-.05.27-.08.4-.08.32,0,.55.08.68.24s.19.33.19.52v6.31c0,.19-.07.36-.2.51-.14.14-.31.2-.52.2ZM433.59,38.26c.23,0,.44-.05.63-.14.19-.09.33-.23.44-.4.11-.17.17-.38.17-.61v-.38s0-.03-.02-.03c0,0-.02,0-.04.02-.09.06-.19.1-.31.13-.12.03-.25.05-.39.08-.13.01-.26.04-.4.08-.33.06-.56.15-.69.26-.12.11-.18.24-.18.41,0,.18.06.32.19.43.14.11.34.16.6.16ZM433.28,39.48c-.33,0-.64-.06-.94-.19-.29-.13-.52-.32-.71-.56-.18-.25-.27-.56-.27-.93,0-.52.17-.93.51-1.23.34-.3.9-.51,1.66-.63.24-.04.46-.07.66-.1.19-.04.35-.09.46-.15.12-.07.18-.18.18-.33,0-.11-.03-.2-.1-.29-.06-.09-.14-.15-.26-.19-.11-.05-.26-.08-.43-.08-.22,0-.41.04-.55.13s-.26.19-.36.3c-.09.1-.2.18-.31.25-.11.06-.25.09-.4.09-.2,0-.36-.05-.49-.15-.11-.11-.17-.25-.17-.43s.06-.35.17-.51c.11-.17.27-.31.47-.44.21-.13.45-.23.72-.3.27-.08.57-.12.88-.12.49,0,.9.09,1.23.27.33.17.58.42.74.73.17.32.26.68.26,1.09v2.13c0,.09.01.16.03.19.02.03.06.05.13.08.11.04.22.11.32.22s.15.24.15.41c0,.19-.07.36-.22.5-.14.14-.34.2-.6.19-.29,0-.52-.08-.69-.22-.16-.14-.26-.33-.3-.56v-.08h-.04c-.19.29-.42.52-.69.68-.27.15-.62.23-1.07.23ZM428.85,39.48c-.52,0-.99-.13-1.39-.39-.4-.26-.71-.61-.94-1.06-.22-.45-.33-.95-.33-1.5s.11-1.05.33-1.49c.22-.45.54-.8.94-1.06.41-.26.88-.39,1.42-.39.37,0,.7.06.98.18.29.11.51.27.68.46.17.19.25.4.25.63,0,.2-.05.36-.18.46-.13.11-.29.16-.47.16-.11,0-.22-.02-.3-.05-.08-.04-.15-.09-.2-.15-.06-.09-.15-.17-.27-.26-.11-.09-.28-.14-.51-.14-.24,0-.46.06-.64.19-.18.13-.32.32-.41.56s-.14.54-.14.88c0,.52.11.93.32,1.21.22.28.52.42.91.42.27,0,.48-.06.61-.18.14-.13.25-.27.33-.41.07-.12.15-.23.23-.31s.19-.13.34-.13c.19,0,.36.07.49.22.13.14.19.31.19.52,0,.17-.06.36-.17.55-.11.19-.26.36-.46.53-.19.16-.43.29-.7.39-.27.1-.57.15-.91.15ZM424.82,33.11c-.22,0-.41-.07-.55-.22-.14-.14-.22-.35-.22-.61s.07-.46.22-.6c.14-.15.33-.23.55-.23.24,0,.43.08.57.23.14.14.22.34.22.6s-.07.47-.22.61c-.14.14-.33.22-.57.22ZM424.83,39.43c-.2,0-.37-.07-.52-.22-.14-.14-.2-.31-.2-.51v-4.33c0-.19.07-.36.2-.5.14-.14.32-.22.52-.22s.36.07.5.22c.14.14.22.3.22.5v4.33c0,.19-.07.36-.22.51-.14.14-.3.22-.5.22ZM420.27,35.02c-.18,0-.33-.06-.45-.18-.12-.12-.18-.27-.18-.44s.06-.32.18-.44c.12-.12.27-.18.45-.18h2.61c.18,0,.33.06.45.18.12.12.18.27.18.44s-.06.32-.18.44c-.12.12-.27.18-.45.18h-2.61ZM421.32,39.43c-.19,0-.36-.07-.51-.2-.14-.14-.22-.31-.22-.51v-5.67c0-.31.06-.59.18-.83.12-.25.3-.45.54-.59.24-.15.54-.23.88-.23.22,0,.43.03.64.1.21.06.38.17.52.3.14.14.22.31.22.53,0,.19-.06.36-.18.49-.12.12-.28.18-.49.18-.11,0-.2-.02-.29-.05-.08-.04-.15-.07-.2-.1-.06-.04-.12-.05-.18-.05-.08,0-.13.04-.16.11-.02.07-.03.17-.03.3v5.52c0,.19-.07.36-.22.51-.14.14-.3.2-.5.2ZM418.11,33.15c-.14,0-.27-.05-.4-.16-.13-.11-.19-.27-.19-.45,0-.14.04-.27.11-.39l.5-.86c.09-.14.2-.24.31-.3.11-.07.23-.11.36-.11.19,0,.35.07.49.2.14.13.2.29.2.49,0,.09-.02.19-.05.28-.03.09-.09.18-.17.27l-.6.77c-.07.09-.15.15-.25.2-.09.04-.19.06-.29.06ZM418.51,39.43c-.2,0-.37-.07-.52-.22-.14-.14-.2-.31-.2-.51v-4.33c0-.19.07-.36.2-.5.14-.14.32-.22.52-.22s.36.07.5.22c.14.14.22.3.22.5v4.33c0,.19-.07.36-.22.51-.14.14-.3.22-.5.22ZM413.92,35.02c-.18,0-.33-.06-.45-.18-.12-.12-.18-.27-.18-.44s.06-.32.18-.44c.12-.12.27-.18.45-.18h2.6c.17,0,.32.06.44.18.12.12.18.27.18.44s-.06.32-.18.44c-.12.12-.27.18-.44.18h-2.6ZM415.68,39.43c-.34,0-.64-.07-.87-.22-.24-.15-.42-.35-.54-.59-.11-.24-.17-.51-.17-.79v-4.54c0-.19.07-.36.2-.5.14-.14.31-.22.51-.22s.36.07.5.22c.14.14.22.3.22.5v4.44c0,.09.01.16.04.22.03.05.08.08.14.08s.12-.02.17-.05c.06-.04.12-.08.19-.11.07-.04.16-.05.26-.05.2,0,.37.07.51.2.14.14.2.31.2.52,0,.19-.07.36-.2.5-.14.14-.31.24-.52.3-.21.06-.42.1-.64.1ZM408.44,39.43c-.2,0-.37-.07-.51-.2-.14-.14-.2-.31-.2-.52v-4.33c0-.2.07-.37.2-.51.14-.14.31-.2.51-.2s.37.07.51.22c.14.14.22.3.22.5v.66l-.29-.13c.23-.44.5-.76.81-.97.31-.22.68-.32,1.1-.32.39,0,.73.09,1.03.26.31.17.55.41.72.74.17.33.26.73.26,1.21v2.89c0,.21-.07.38-.2.52-.14.14-.31.2-.51.2s-.38-.07-.52-.2c-.14-.14-.2-.31-.2-.52v-2.64c0-.34-.09-.61-.27-.81-.18-.21-.43-.31-.77-.31-.24,0-.45.05-.63.16-.17.1-.31.24-.4.42s-.14.38-.14.59v2.59c0,.21-.07.38-.2.52-.14.14-.31.2-.52.2ZM403.37,35.97h2.27c-.05-.36-.18-.63-.38-.81-.19-.19-.45-.28-.75-.28s-.55.09-.75.27c-.2.17-.33.45-.39.82ZM404.58,39.48c-.52,0-.98-.12-1.39-.36-.4-.24-.72-.58-.96-1.01-.23-.44-.34-.95-.34-1.54,0-.55.1-1.05.31-1.5.22-.45.52-.81.91-1.07.4-.27.86-.4,1.4-.4.4,0,.76.08,1.08.23.32.15.6.35.82.59.22.24.39.51.51.8.11.29.17.57.17.85s-.07.49-.2.65c-.13.16-.34.24-.65.24h-2.86c.05.29.14.52.27.71.13.18.28.31.46.4.19.09.39.13.61.13.24,0,.43-.05.57-.14.14-.09.27-.2.39-.33.07-.07.15-.14.24-.19.09-.06.21-.1.36-.1.19,0,.34.06.46.18.12.11.18.28.18.49,0,.17-.06.34-.18.51-.11.16-.28.31-.5.44-.21.13-.45.23-.73.31-.28.08-.59.12-.93.12ZM400.51,33.11c-.22,0-.41-.07-.55-.22-.14-.14-.22-.35-.22-.61s.07-.46.22-.6c.14-.15.33-.23.55-.23.24,0,.43.08.57.23.14.14.22.34.22.6s-.07.47-.22.61c-.14.14-.33.22-.57.22ZM400.52,39.43c-.2,0-.37-.07-.52-.22-.14-.14-.2-.31-.2-.51v-4.33c0-.19.07-.36.2-.5.14-.14.32-.22.52-.22s.36.07.5.22c.14.14.22.3.22.5v4.33c0,.19-.07.36-.22.51-.14.14-.3.22-.5.22ZM396.53,39.48c-.51,0-.96-.1-1.36-.31-.39-.22-.72-.51-.98-.87-.27-.37-.47-.78-.6-1.25-.14-.47-.2-.97-.2-1.5,0-.77.14-1.45.41-2.04s.65-1.05,1.12-1.39c.48-.34,1.03-.51,1.64-.51.3,0,.6.04.88.13.29.08.56.19.8.34.24.15.44.33.58.53.14.2.22.42.23.67,0,.19-.06.36-.17.5-.11.14-.27.2-.49.2-.17,0-.31-.04-.41-.13s-.19-.18-.26-.28c-.08-.16-.19-.3-.34-.43-.14-.14-.37-.2-.69-.2-.37,0-.69.11-.96.33-.27.22-.47.52-.63.92-.14.39-.22.85-.22,1.38s.07.99.22,1.38c.15.38.36.68.61.88.27.21.57.31.93.31.29,0,.54-.08.72-.23s.32-.37.41-.67c.05-.16.14-.28.26-.38.12-.1.27-.15.43-.15.19,0,.36.07.5.2.14.14.2.33.2.57,0,.25-.08.5-.22.73-.13.24-.31.45-.55.64-.24.19-.51.34-.83.45-.32.11-.66.16-1.03.16ZM423.67,27.48c.23,0,.44-.05.63-.14.19-.09.33-.23.44-.4.11-.17.17-.38.17-.61v-.38s0-.03-.02-.03c0,0-.02,0-.04.02-.09.06-.19.1-.31.13s-.25.05-.39.08c-.13.01-.26.04-.4.08-.33.06-.56.15-.69.26-.12.11-.18.24-.18.41,0,.18.06.32.19.43.14.11.34.16.6.16ZM423.36,28.7c-.33,0-.64-.06-.94-.19-.29-.13-.52-.32-.71-.56-.18-.25-.27-.56-.27-.93,0-.52.17-.93.51-1.23.34-.3.9-.51,1.66-.63.24-.04.46-.07.66-.1.19-.04.35-.09.46-.15.12-.07.18-.18.18-.33,0-.11-.03-.2-.1-.29-.06-.09-.14-.15-.26-.19-.11-.05-.26-.08-.43-.08-.22,0-.41.04-.55.13-.14.09-.26.19-.36.3-.09.1-.2.18-.31.25-.11.06-.25.09-.4.09-.2,0-.36-.05-.49-.15-.11-.11-.17-.25-.17-.43s.06-.35.17-.51c.11-.17.27-.31.47-.44.21-.13.45-.23.72-.3.27-.08.57-.12.88-.12.49,0,.9.09,1.23.27.33.17.58.42.74.73.17.32.26.68.26,1.09v2.13c0,.09.01.16.03.19.02.03.06.05.13.08.11.04.22.11.32.22.1.1.15.24.15.41,0,.19-.07.36-.22.5-.14.14-.34.2-.6.19-.29,0-.52-.08-.69-.22-.16-.14-.26-.33-.3-.56v-.08h-.04c-.19.29-.42.52-.69.68-.27.15-.62.23-1.07.23ZM418.97,28.65c-.19,0-.36-.07-.51-.2-.14-.14-.2-.32-.2-.52v-4.33c0-.19.07-.36.22-.5.14-.14.32-.22.53-.22s.38.07.51.22c.12.14.18.31.18.51v.5l-.2-.12c.08-.17.18-.35.31-.53.13-.18.29-.33.47-.44.19-.12.39-.18.61-.18s.41.06.55.19c.14.12.22.29.22.52,0,.19-.08.36-.23.51-.14.14-.33.2-.56.2-.27,0-.5.05-.67.15-.17.1-.3.24-.39.42-.08.17-.12.38-.12.61v2.49c0,.2-.07.37-.22.52-.14.14-.31.2-.51.2ZM414.23,28.65c-.45,0-.83-.08-1.13-.25-.29-.17-.52-.42-.67-.73-.14-.32-.22-.7-.22-1.15v-2.98c0-.19.07-.36.2-.5.14-.14.31-.22.51-.22s.37.07.51.22c.14.14.2.3.2.5v2.74c0,.4.1.66.29.81s.45.22.75.22c.24,0,.45-.05.63-.16.17-.11.31-.25.4-.42.09-.18.14-.37.14-.58v-2.6c0-.19.07-.36.2-.5.14-.14.32-.22.52-.22s.37.07.51.22c.14.14.2.3.2.5v4.39c0,.19-.07.36-.2.51-.14.14-.31.2-.51.2s-.37-.07-.52-.2c-.14-.14-.2-.31-.2-.51v-.71l.29.14c-.23.43-.5.75-.81.97-.3.22-.67.32-1.1.32ZM408.4,24.24c-.18,0-.33-.06-.45-.18s-.18-.27-.18-.44.06-.32.18-.44.27-.18.45-.18h2.6c.17,0,.32.06.44.18s.18.27.18.44-.06.32-.18.44-.27.18-.44.18h-2.6ZM410.17,28.65c-.34,0-.64-.07-.87-.22-.24-.15-.42-.35-.54-.59-.11-.24-.17-.51-.17-.79v-4.54c0-.19.07-.36.2-.5.14-.14.31-.22.51-.22s.36.07.5.22c.14.14.22.3.22.5v4.44c0,.09.01.16.04.22.03.05.08.08.14.08s.12-.02.17-.05c.06-.04.12-.08.19-.11.07-.04.16-.05.26-.05.2,0,.37.07.51.2s.2.31.2.52c0,.19-.07.36-.2.5s-.31.24-.52.3c-.21.06-.42.1-.64.1ZM406.5,28.65c-.2,0-.37-.07-.51-.2-.14-.14-.2-.32-.2-.53v-6.53c0-.2.07-.37.2-.51s.31-.2.51-.2.38.07.52.2.2.31.2.51v6.53c0,.21-.07.38-.2.53-.14.14-.31.2-.52.2ZM401.76,28.65c-.45,0-.83-.08-1.13-.25-.29-.17-.52-.42-.67-.73-.14-.32-.22-.7-.22-1.15v-2.98c0-.19.07-.36.2-.5.14-.14.31-.22.51-.22s.37.07.51.22c.14.14.2.3.2.5v2.74c0,.4.1.66.29.81s.45.22.75.22c.24,0,.45-.05.63-.16.17-.11.31-.25.4-.42.09-.18.14-.37.14-.58v-2.6c0-.19.07-.36.2-.5.14-.14.32-.22.52-.22s.37.07.51.22c.14.14.2.3.2.5v4.39c0,.19-.07.36-.2.51-.14.14-.31.2-.51.2s-.37-.07-.52-.2c-.14-.14-.2-.31-.2-.51v-.71l.29.14c-.23.43-.5.75-.81.97-.3.22-.67.32-1.1.32ZM396.53,28.7c-.51,0-.96-.1-1.36-.31-.39-.22-.72-.51-.98-.87-.27-.37-.47-.78-.6-1.25-.14-.47-.2-.97-.2-1.5,0-.77.14-1.45.41-2.04.27-.59.65-1.05,1.12-1.39.48-.34,1.03-.51,1.64-.51.3,0,.6.04.88.13.29.08.56.19.8.34.24.15.44.33.58.53s.22.42.23.67c0,.19-.06.36-.17.5-.11.14-.27.2-.49.2-.17,0-.31-.04-.41-.13-.1-.09-.19-.18-.26-.28-.08-.16-.19-.3-.34-.43-.14-.14-.37-.2-.69-.2-.37,0-.69.11-.96.33-.27.22-.47.52-.63.92-.14.39-.22.85-.22,1.38s.07.99.22,1.38c.15.38.36.68.61.88.27.21.57.31.93.31.29,0,.54-.08.72-.23.19-.15.32-.37.41-.67.05-.16.14-.28.26-.38.12-.1.27-.15.43-.15.19,0,.36.07.5.2.14.14.2.33.2.57,0,.25-.08.5-.22.73-.13.24-.31.45-.55.64-.24.19-.51.34-.83.45-.32.11-.66.16-1.03.16Z"/>
</svg>