<?xml version="1.0" encoding="UTF-8"?>
<svg id="Capa_1" xmlns="http://www.w3.org/2000/svg" version="1.1" viewBox="0 0 53.84 90.93">
  <!-- Generator: Adobe Illustrator 30.2.1, SVG Export Plug-In . SVG Version: 2.1.1 Build 1)  -->
  <defs>
    <style>
      .st0 {
        fill: #ddff9d;
      }
    </style>
  </defs>
  <polygon class="st0" points="45.57 24.06 45.57 19.42 31.62 19.42 26.98 19.42 26.98 24.06 26.98 28.72 26.98 33.36 26.98 38.02 26.98 42.66 31.62 42.66 45.57 42.66 45.57 38.02 31.62 38.02 31.62 33.36 45.57 33.36 45.57 28.72 31.62 28.72 31.62 24.06 45.57 24.06"/>
  <path class="st0" d="M15.36,19.42c-3.87,0-7,3.13-7,7s3.13,7,7,7,7-3.13,7-7-3.13-7-7-7ZM15.36,28.76c-1.29,0-2.34-1.05-2.34-2.34s1.05-2.34,2.34-2.34,2.34,1.05,2.34,2.34-1.05,2.34-2.34,2.34Z"/>
  <rect class="st0" x="8.36" y="38.02" width="14" height="4.67"/>
  <rect class="st0" x="8.36" y="47.35" width="37.21" height="4.67"/>
</svg>