<?xml version="1.0" encoding="UTF-8"?>
<svg id="Capa_1" xmlns="http://www.w3.org/2000/svg" version="1.1" viewBox="0 0 555.05 90.93">
  <!-- Generator: Adobe Illustrator 30.2.1, SVG Export Plug-In . SVG Version: 2.1.1 Build 1)  -->
  <defs>
    <style>
      .st0 {
        fill: #c0ffca;
      }
    </style>
  </defs>
  <g>
    <g>
      <path class="st0" d="M481.24,27.18l.91.12c-.35,1.1-1.3,1.8-2.49,1.8-1.56,0-2.71-1.16-2.71-2.89s1.15-2.89,2.71-2.89c1.2,0,2.15.7,2.49,1.81l-.91.12c-.25-.67-.84-1.09-1.59-1.09-1.07,0-1.8.8-1.8,2.05s.73,2.05,1.8,2.05c.74,0,1.34-.39,1.59-1.07h0Z"/>
      <path class="st0" d="M482.73,26.96c0-1.2.9-2.13,2.1-2.13s2.1.93,2.1,2.13-.9,2.13-2.1,2.13-2.1-.93-2.1-2.13ZM486.06,26.96c0-.77-.51-1.36-1.24-1.36s-1.24.59-1.24,1.36.51,1.36,1.24,1.36,1.24-.58,1.24-1.36Z"/>
      <path class="st0" d="M488.56,24.9v.52h.02c.23-.34.7-.6,1.2-.6.78,0,1.42.52,1.42,1.67v2.53h-.83v-2.4c0-.73-.31-1.03-.79-1.03-.61,0-1.02.46-1.02,1.09v2.34h-.83v-4.12h.83,0Z"/>
      <path class="st0" d="M493.74,29.1c-1.02,0-1.68-.48-1.76-1.33h.92c.07.43.37.63.81.63.41,0,.74-.16.74-.46,0-.36-.39-.46-.99-.6-.66-.16-1.42-.37-1.42-1.25,0-.71.67-1.26,1.55-1.26s1.59.5,1.67,1.31h-.89c-.04-.34-.31-.59-.78-.59-.4,0-.7.2-.7.48,0,.41.51.47,1.1.62.63.15,1.31.35,1.31,1.22,0,.74-.66,1.24-1.58,1.24h.02Z"/>
      <path class="st0" d="M498.93,27.71l.87.12c-.32.88-1,1.27-1.86,1.27-1.2,0-2.05-.88-2.05-2.13s.85-2.14,1.99-2.14,2.03.84,2.03,2.41h-3.13c.07.68.53,1.13,1.17,1.13.5,0,.84-.28.99-.64v-.02s-.01,0-.01,0ZM496.79,26.57h2.2c-.09-.52-.51-1-1.1-1s-1.01.48-1.09,1h-.01Z"/>
      <path class="st0" d="M501.69,24.9v4.29c0,1.09-.63,1.47-1.41,1.47-.2,0-.39-.05-.5-.09v-.76c.15.07.27.09.41.09.33,0,.66-.12.66-.63v-4.38h.84ZM501.85,23.8c0,.32-.25.57-.57.57s-.57-.25-.57-.57.25-.57.57-.57.57.26.57.57Z"/>
      <path class="st0" d="M502.51,26.96c0-1.2.9-2.13,2.1-2.13s2.1.93,2.1,2.13-.9,2.13-2.1,2.13-2.1-.93-2.1-2.13ZM505.84,26.96c0-.77-.51-1.36-1.24-1.36s-1.24.59-1.24,1.36.51,1.36,1.24,1.36,1.24-.58,1.24-1.36Z"/>
      <path class="st0" d="M513.4,27.18l.91.12c-.35,1.1-1.3,1.8-2.49,1.8-1.56,0-2.71-1.16-2.71-2.89s1.15-2.89,2.71-2.89c1.2,0,2.15.7,2.49,1.81l-.91.12c-.25-.67-.84-1.09-1.59-1.09-1.07,0-1.8.8-1.8,2.05s.73,2.05,1.8,2.05c.74,0,1.34-.39,1.59-1.07h0Z"/>
      <path class="st0" d="M514.89,26.96c0-1.2.9-2.13,2.1-2.13s2.1.93,2.1,2.13-.9,2.13-2.1,2.13-2.1-.93-2.1-2.13ZM518.22,26.96c0-.77-.51-1.36-1.24-1.36s-1.24.59-1.24,1.36.51,1.36,1.24,1.36,1.24-.58,1.24-1.36Z"/>
      <path class="st0" d="M519.73,26.96c0-1.2.9-2.13,2.1-2.13s2.1.93,2.1,2.13-.9,2.13-2.1,2.13-2.1-.93-2.1-2.13ZM523.06,26.96c0-.77-.51-1.36-1.24-1.36s-1.24.59-1.24,1.36.51,1.36,1.24,1.36,1.24-.58,1.24-1.36Z"/>
      <path class="st0" d="M525.57,24.9v.51h.02c.2-.3.55-.54,1.07-.54.09,0,.21,0,.3.04v.82c-.11-.02-.24-.04-.34-.04-.74,0-1.04.36-1.04,1.06v2.28h-.83v-4.12h.83-.01Z"/>
      <path class="st0" d="M531.36,29.02h-.83v-.52h-.02c-.28.34-.73.6-1.32.6-1.09,0-1.9-.85-1.9-2.13s.81-2.14,1.9-2.14c.59,0,1.04.27,1.32.6h.02v-2.19h.83v5.79h0ZM528.16,26.96c0,.81.51,1.36,1.2,1.36s1.2-.58,1.2-1.36-.48-1.36-1.2-1.36-1.2.55-1.2,1.36Z"/>
      <path class="st0" d="M532.33,23.8c0-.31.25-.57.57-.57s.57.26.57.57-.25.57-.57.57-.57-.25-.57-.57ZM533.32,24.9v4.12h-.83v-4.12s.83,0,.83,0Z"/>
      <path class="st0" d="M535.27,24.9v.52h.02c.23-.34.7-.6,1.2-.6.78,0,1.42.52,1.42,1.67v2.53h-.83v-2.4c0-.73-.31-1.03-.79-1.03-.61,0-1.02.46-1.02,1.09v2.34h-.83v-4.12s.83,0,.83,0Z"/>
      <path class="st0" d="M542.29,29.02h-.81c-.02-.16-.03-.41-.03-.55h-.02c-.38.48-.85.63-1.31.63-.84,0-1.43-.51-1.43-1.28,0-.66.45-1.19,1.48-1.24.5-.02,1.26-.03,1.26-.03v-.23c0-.53-.42-.81-.91-.81s-.85.28-.89.67h-.86c.05-.85.74-1.36,1.76-1.36s1.74.64,1.74,1.6v1.48c0,.59,0,.9.04,1.12h-.02,0ZM540.39,27.21c-.59.04-.84.26-.84.6,0,.38.3.58.73.58.6,0,1.14-.38,1.14-1.07v-.16s-.59.02-1.04.05h.01Z"/>
      <path class="st0" d="M547.1,29.02h-.83v-.52h-.02c-.28.34-.73.6-1.32.6-1.09,0-1.9-.85-1.9-2.13s.81-2.14,1.9-2.14c.59,0,1.04.27,1.32.6h.02v-2.19h.83v5.79h0ZM543.89,26.96c0,.81.51,1.36,1.2,1.36s1.2-.58,1.2-1.36-.48-1.36-1.2-1.36-1.2.55-1.2,1.36Z"/>
      <path class="st0" d="M547.83,26.96c0-1.2.9-2.13,2.1-2.13s2.1.93,2.1,2.13-.9,2.13-2.1,2.13-2.1-.93-2.1-2.13ZM551.16,26.96c0-.77-.51-1.36-1.24-1.36s-1.24.59-1.24,1.36.51,1.36,1.24,1.36,1.24-.58,1.24-1.36Z"/>
      <path class="st0" d="M553.66,24.9v.51h.02c.2-.3.55-.54,1.07-.54.09,0,.21,0,.3.04v.82c-.11-.02-.24-.04-.34-.04-.74,0-1.04.36-1.04,1.06v2.28h-.83v-4.12h.83-.01Z"/>
      <path class="st0" d="M481.02,38.4h-.83v-.52h-.02c-.28.34-.73.6-1.32.6-1.09,0-1.9-.85-1.9-2.13s.81-2.14,1.9-2.14c.59,0,1.04.27,1.32.6h.02v-2.19h.83v5.79h0ZM477.81,36.35c0,.81.51,1.36,1.2,1.36s1.2-.58,1.2-1.36-.48-1.36-1.2-1.36-1.2.55-1.2,1.36Z"/>
      <path class="st0" d="M484.79,37.1l.87.12c-.32.88-1,1.27-1.86,1.27-1.2,0-2.05-.88-2.05-2.13s.85-2.14,1.99-2.14,2.03.84,2.03,2.41h-3.13c.07.68.53,1.13,1.17,1.13.5,0,.84-.28.99-.64v-.02h-.01ZM482.65,35.96h2.2c-.09-.52-.51-1-1.1-1s-1.01.48-1.09,1h-.01Z"/>
      <path class="st0" d="M489.24,32.62v5.79h-.83v-5.79h.83Z"/>
      <path class="st0" d="M493.66,38.4h-.81c-.02-.16-.03-.41-.03-.55h-.02c-.38.48-.85.63-1.31.63-.84,0-1.43-.51-1.43-1.28,0-.66.45-1.19,1.48-1.24.5-.02,1.26-.03,1.26-.03v-.23c0-.53-.42-.81-.91-.81s-.85.28-.89.67h-.86c.05-.85.74-1.36,1.76-1.36s1.74.64,1.74,1.6v1.48c0,.59,0,.9.04,1.12h-.02ZM491.75,36.6c-.59.04-.84.26-.84.6,0,.38.3.58.73.58.6,0,1.14-.38,1.14-1.07v-.16s-.59.02-1.04.05h0Z"/>
      <path class="st0" d="M497.34,35.17h2.2v.83h-2.2v1.57h2.67v.83h-3.54v-5.63h3.54v.83h-2.67v1.57h0Z"/>
      <path class="st0" d="M504.46,38.4h-.83v-.52h-.02c-.28.34-.73.6-1.32.6-1.09,0-1.9-.85-1.9-2.13s.81-2.14,1.9-2.14c.59,0,1.04.27,1.32.6h.02v-2.19h.83v5.79h0ZM501.25,36.35c0,.81.51,1.36,1.2,1.36s1.2-.58,1.2-1.36-.48-1.36-1.2-1.36-1.2.55-1.2,1.36Z"/>
      <path class="st0" d="M505.31,36.88v-2.6h.83v2.44c0,.66.29,1,.77,1,.59,0,.99-.47.99-1.1v-2.34h.83v4.12h-.83v-.49h-.02c-.27.33-.66.57-1.24.57-.81,0-1.35-.56-1.35-1.6h.02Z"/>
      <path class="st0" d="M512.53,36.89l.86.12c-.24.93-.95,1.47-1.88,1.47-1.21,0-2.04-.88-2.04-2.13s.83-2.14,2.04-2.14c.92,0,1.63.54,1.88,1.47l-.86.12c-.16-.56-.57-.82-1.04-.82-.7,0-1.16.57-1.16,1.38s.45,1.38,1.16,1.38c.47,0,.88-.27,1.04-.83v-.02Z"/>
      <path class="st0" d="M517.57,38.4h-.81c-.02-.16-.03-.41-.03-.55h-.02c-.38.48-.85.63-1.31.63-.84,0-1.43-.51-1.43-1.28,0-.66.45-1.19,1.48-1.24.5-.02,1.26-.03,1.26-.03v-.23c0-.53-.42-.81-.91-.81s-.85.28-.89.67h-.86c.05-.85.74-1.36,1.76-1.36s1.74.64,1.74,1.6v1.48c0,.59,0,.9.04,1.12h-.02,0ZM515.66,36.6c-.59.04-.84.26-.84.6,0,.38.3.58.73.58.6,0,1.14-.38,1.14-1.07v-.16s-.59.02-1.04.05h.01Z"/>
      <path class="st0" d="M521.36,36.89l.86.12c-.24.93-.95,1.47-1.88,1.47-1.21,0-2.04-.88-2.04-2.13s.83-2.14,2.04-2.14c.92,0,1.63.54,1.88,1.47l-.86.12c-.16-.56-.57-.82-1.04-.82-.7,0-1.16.57-1.16,1.38s.45,1.38,1.16,1.38c.47,0,.88-.27,1.04-.83v-.02Z"/>
      <path class="st0" d="M522.95,33.19c0-.31.25-.57.57-.57s.57.26.57.57-.25.57-.57.57-.57-.25-.57-.57ZM523.93,34.28v4.12h-.83v-4.12h.83Z"/>
      <path class="st0" d="M524.75,36.35c0-1.2.9-2.13,2.1-2.13s2.1.93,2.1,2.13-.9,2.13-2.1,2.13-2.1-.93-2.1-2.13ZM528.08,36.35c0-.77-.51-1.36-1.24-1.36s-1.24.59-1.24,1.36.51,1.36,1.24,1.36,1.24-.58,1.24-1.36ZM528.22,32.77l-1.02,1.11h-.72l.69-1.11h1.05Z"/>
      <path class="st0" d="M530.58,34.28v.52h.02c.23-.34.7-.6,1.2-.6.78,0,1.42.52,1.42,1.67v2.53h-.83v-2.4c0-.73-.31-1.03-.79-1.03-.61,0-1.02.46-1.02,1.09v2.34h-.83v-4.12h.83Z"/>
      <path class="st0" d="M479.99,46.48l.87.12c-.32.88-1,1.27-1.86,1.27-1.2,0-2.05-.88-2.05-2.13s.85-2.14,1.99-2.14,2.03.84,2.03,2.41h-3.13c.07.68.53,1.13,1.17,1.13.5,0,.84-.28.99-.64v-.02h-.01ZM477.85,45.34h2.2c-.09-.52-.51-1-1.1-1s-1.01.48-1.09,1h-.01Z"/>
      <path class="st0" d="M482.61,43.67v.52h.02c.23-.34.7-.6,1.2-.6.78,0,1.42.52,1.42,1.67v2.53h-.83v-2.4c0-.73-.31-1.03-.79-1.03-.61,0-1.02.46-1.02,1.09v2.34h-.83v-4.12h.83,0Z"/>
      <path class="st0" d="M488.92,42v5.79h-.83v-5.79h.83Z"/>
      <path class="st0" d="M493.34,47.79h-.81c-.02-.16-.03-.41-.03-.55h-.02c-.38.48-.85.63-1.31.63-.84,0-1.43-.51-1.43-1.28,0-.66.45-1.19,1.48-1.24.5-.02,1.26-.03,1.26-.03v-.23c0-.53-.42-.81-.91-.81s-.85.28-.89.67h-.86c.05-.85.74-1.36,1.76-1.36s1.74.64,1.74,1.6v1.48c0,.59,0,.9.04,1.12h-.02ZM491.43,45.98c-.59.04-.84.26-.84.6,0,.38.3.58.73.58.6,0,1.14-.38,1.14-1.07v-.16s-.59.02-1.04.05h0Z"/>
      <path class="st0" d="M499.92,43.78c0,1.02-.75,1.63-1.81,1.63h-1.1v2.38h-.88v-5.63h1.98c1.08,0,1.81.63,1.81,1.63h0ZM499.02,43.78c0-.52-.36-.8-.92-.8h-1.09v1.6h1.09c.57,0,.92-.3.92-.8Z"/>
      <path class="st0" d="M501.45,43.67v.51h.02c.2-.3.55-.54,1.07-.54.09,0,.21,0,.3.04v.82c-.11-.02-.24-.04-.34-.04-.74,0-1.04.36-1.04,1.06v2.28h-.83v-4.12h.83-.01,0Z"/>
      <path class="st0" d="M503.49,42.57c0-.31.25-.57.57-.57s.57.26.57.57-.25.57-.57.57-.57-.25-.57-.57ZM504.48,43.67v4.12h-.83v-4.12h.83Z"/>
      <path class="st0" d="M511.4,45.11v2.68h-.83v-2.6c0-.53-.29-.82-.73-.82-.55,0-.92.46-.92,1.13v2.3h-.83v-2.6c0-.53-.29-.82-.73-.82-.56,0-.92.47-.92,1.13v2.29h-.83v-4.12h.83v.52h.02c.27-.41.67-.59,1.11-.59.5,0,.88.24,1.11.69.3-.41.77-.69,1.42-.69.79,0,1.31.61,1.31,1.5h-.01,0Z"/>
      <path class="st0" d="M515.29,46.48l.87.12c-.32.88-1,1.27-1.86,1.27-1.2,0-2.05-.88-2.05-2.13s.85-2.14,1.99-2.14,2.03.84,2.03,2.41h-3.13c.07.68.53,1.13,1.17,1.13.5,0,.84-.28.99-.64v-.02h-.01ZM513.15,45.34h2.2c-.09-.52-.51-1-1.1-1s-1.01.48-1.09,1h-.01Z"/>
      <path class="st0" d="M517.91,43.67v.51h.02c.2-.3.55-.54,1.07-.54.09,0,.21,0,.3.04v.82c-.11-.02-.24-.04-.34-.04-.74,0-1.04.36-1.04,1.06v2.28h-.83v-4.12h.83-.01Z"/>
      <path class="st0" d="M523.28,47.79h-.81c-.02-.16-.03-.41-.03-.55h-.02c-.38.48-.85.63-1.31.63-.84,0-1.43-.51-1.43-1.28,0-.66.45-1.19,1.48-1.24.5-.02,1.26-.03,1.26-.03v-.23c0-.53-.42-.81-.91-.81s-.85.28-.89.67h-.86c.05-.85.74-1.36,1.76-1.36s1.74.64,1.74,1.6v1.48c0,.59,0,.9.04,1.12h-.02,0ZM521.38,45.98c-.59.04-.84.26-.84.6,0,.38.3.58.73.58.6,0,1.14-.38,1.14-1.07v-.16s-.59.02-1.04.05h.01Z"/>
      <path class="st0" d="M526.96,42.16v5.63h-.88v-5.63h.88Z"/>
      <path class="st0" d="M528.84,43.67v.52h.02c.23-.34.7-.6,1.2-.6.78,0,1.42.52,1.42,1.67v2.53h-.83v-2.4c0-.73-.31-1.03-.79-1.03-.61,0-1.02.46-1.02,1.09v2.34h-.83v-4.12h.83Z"/>
      <path class="st0" d="M532.1,43.67h.73v-.26c0-1.1.63-1.49,1.41-1.49.2,0,.39.05.5.09v.76c-.15-.07-.27-.09-.41-.09-.32,0-.66.13-.66.64v.34h1.09v.75h-1.09v3.37h-.83v-3.37h-.73v-.75h-.01Z"/>
      <path class="st0" d="M538.61,47.79h-.81c-.02-.16-.03-.41-.03-.55h-.02c-.38.48-.85.63-1.31.63-.84,0-1.43-.51-1.43-1.28,0-.66.45-1.19,1.48-1.24.5-.02,1.26-.03,1.26-.03v-.23c0-.53-.42-.81-.91-.81s-.85.28-.89.67h-.86c.05-.85.74-1.36,1.76-1.36s1.74.64,1.74,1.6v1.48c0,.59,0,.9.04,1.12h-.02,0ZM536.7,45.98c-.59.04-.84.26-.84.6,0,.38.3.58.73.58.6,0,1.14-.38,1.14-1.07v-.16s-.59.02-1.04.05h.01Z"/>
      <path class="st0" d="M540.41,43.67v.52h.02c.23-.34.7-.6,1.2-.6.78,0,1.42.52,1.42,1.67v2.53h-.83v-2.4c0-.73-.31-1.03-.79-1.03-.61,0-1.02.46-1.02,1.09v2.34h-.83v-4.12h.83Z"/>
      <path class="st0" d="M546.96,46.28l.86.12c-.24.93-.95,1.47-1.88,1.47-1.21,0-2.04-.88-2.04-2.13s.83-2.14,2.04-2.14c.92,0,1.63.54,1.88,1.47l-.86.12c-.16-.56-.57-.82-1.04-.82-.7,0-1.16.57-1.16,1.38s.45,1.38,1.16,1.38c.47,0,.88-.27,1.04-.83v-.02Z"/>
      <path class="st0" d="M548.55,42.57c0-.31.25-.57.57-.57s.57.26.57.57-.25.57-.57.57-.57-.25-.57-.57ZM549.54,43.67v4.12h-.83v-4.12h.83Z"/>
      <path class="st0" d="M554.03,47.79h-.81c-.02-.16-.03-.41-.03-.55h-.02c-.38.48-.85.63-1.31.63-.84,0-1.43-.51-1.43-1.28,0-.66.45-1.19,1.48-1.24.5-.02,1.26-.03,1.26-.03v-.23c0-.53-.42-.81-.91-.81s-.85.28-.89.67h-.86c.05-.85.74-1.36,1.76-1.36s1.74.64,1.74,1.6v1.48c0,.59,0,.9.04,1.12h-.02,0ZM552.12,45.98c-.59.04-.84.26-.84.6,0,.38.3.58.73.58.6,0,1.14-.38,1.14-1.07v-.16s-.59.02-1.04.05h.01Z"/>
    </g>
    <g>
      <rect class="st0" x="461.35" y="21.14" width="5.96" height="5.96" rx="2.57" ry="2.57"/>
      <path class="st0" d="M445.79,21.56c-7.65,0-13.85,6.2-13.85,13.85s6.2,13.85,13.85,13.85,13.85-6.2,13.85-13.85-6.2-13.85-13.85-13.85ZM445.79,43.35c-4.38,0-7.94-3.55-7.94-7.94s3.55-7.94,7.94-7.94,7.94,3.55,7.94,7.94-3.55,7.94-7.94,7.94Z"/>
      <rect class="st0" x="461.35" y="28.93" width="5.96" height="20.34" rx="2.57" ry="2.57"/>
      <rect class="st0" x="431.94" y="33.34" width="5.91" height="21.38" rx="2.55" ry="2.55"/>
      <path class="st0" d="M397.06,42.16c-1.97,1.07-4.44,1.32-6.96.33-1.91-.75-3.42-2.29-4.16-4.21-2.17-5.68,1.96-11.05,7.35-11.05,1.42,0,2.75.37,3.9,1.02s2.59.42,3.52-.51h0c1.37-1.37,1.07-3.68-.62-4.64-3.13-1.77-7.03-2.36-11.07-1.15-4.22,1.26-7.57,4.55-8.89,8.76-2.98,9.54,4.06,18.3,13.15,18.3,2.42,0,4.7-.62,6.68-1.72,1.69-.94,2-3.25.65-4.63h0c-.93-.96-2.38-1.15-3.56-.51h.01Z"/>
      <path class="st0" d="M374.01,42.39c-1.33.72-2.89,1.08-4.55.92-3.92-.37-7.01-3.64-7.16-7.58-.18-4.53,3.44-8.27,7.93-8.27,1.42,0,2.75.37,3.9,1.02s2.59.42,3.52-.51h0c1.37-1.37,1.07-3.68-.62-4.64-2.19-1.24-4.74-1.9-7.46-1.77-6.91.32-12.58,5.77-13.15,12.67-.67,8.17,5.77,15.01,13.8,15.01,2.43,0,4.71-.63,6.69-1.72,1.69-.93,2-3.24.65-4.61l-.02-.02c-.93-.95-2.37-1.15-3.54-.51h.01Z"/>
      <path class="st0" d="M416.44,21.56c-7.89,0-14.25,6.61-13.83,14.59.38,7.19,6.31,12.94,13.51,13.1,2.56.06,4.96-.58,7.03-1.73,1.69-.94,2.02-3.24.67-4.63h0c-.92-.95-2.37-1.19-3.53-.54-1.14.64-2.46,1-3.86,1-3.35,0-6.22-2.08-7.38-5.02.14.02.28.03.43.03h17.87c1.62,0,2.93-1.31,2.93-2.93v-.03c0-7.65-6.2-13.85-13.85-13.85h0ZM409.06,32.49c1.16-2.94,4.03-5.02,7.38-5.02s6.19,2.06,7.37,4.98h-14.32c-.15,0-.29,0-.43.03h0Z"/>
    </g>
  </g>
  <g>
    <rect class="st0" x="148.4" y="19.93" width=".88" height="32.79"/>
    <path class="st0" d="M214.1,21.03h2.55c2.54,0,3.8,1.66,3.8,3.44v.21c0,1.7-1.26,3.47-3.8,3.47h-2.55v-7.13h0ZM215.47,22.3v4.58h1.26c1.46,0,2.33-.95,2.33-2.31s-.87-2.28-2.33-2.28h-1.26Z"/>
    <path class="st0" d="M221.82,23.88h-.73v-1h2.07v5.24h-1.34v-4.23h0ZM221.54,21.52c0-.42.24-.72.77-.72s.76.3.76.72-.24.73-.76.73-.77-.31-.77-.73Z"/>
    <path class="st0" d="M224.7,22.88h1.06v1.71c.13-1.17.77-1.77,1.87-1.77h.19v1.17h-.37c-.91,0-1.42.5-1.42,1.41v2.73h-1.34v-5.24h0Z"/>
    <path class="st0" d="M228.33,25.59v-.18c0-1.39.91-2.71,2.63-2.71s2.58,1.26,2.58,2.64v.48h-3.94c.09.82.53,1.37,1.42,1.37.65,0,1.08-.3,1.2-.68h1.23c-.23,1.08-1.14,1.79-2.43,1.79-1.8,0-2.69-1.37-2.69-2.71ZM229.62,25h2.63c-.11-.75-.54-1.2-1.29-1.2s-1.21.44-1.34,1.2h0Z"/>
    <path class="st0" d="M234.31,25.6v-.18c0-1.4.91-2.72,2.66-2.72,1.37,0,2.36.85,2.45,2.1h-1.3c-.07-.54-.46-.95-1.15-.95-.9,0-1.32.68-1.32,1.65s.4,1.64,1.33,1.64c.69,0,1.12-.41,1.19-.97h1.3c-.08,1.28-1.11,2.13-2.49,2.13-1.8,0-2.67-1.36-2.67-2.7Z"/>
    <path class="st0" d="M240.19,25.6v-.18c0-1.4.91-2.72,2.66-2.72,1.37,0,2.36.85,2.45,2.1h-1.3c-.07-.54-.46-.95-1.15-.95-.9,0-1.32.68-1.32,1.65s.4,1.64,1.33,1.64c.69,0,1.12-.41,1.19-.97h1.3c-.08,1.28-1.11,2.13-2.49,2.13-1.8,0-2.67-1.36-2.67-2.7h0Z"/>
    <path class="st0" d="M246.67,23.88h-.73v-1h2.07v5.24h-1.34v-4.23h0ZM246.39,21.52c0-.42.24-.72.77-.72s.76.3.76.72-.24.73-.76.73-.77-.31-.77-.73Z"/>
    <path class="st0" d="M249.2,25.61v-.2c0-1.44,1.08-2.71,2.87-2.71s2.86,1.27,2.86,2.71v.2c0,1.39-1.02,2.69-2.86,2.69s-2.87-1.3-2.87-2.69ZM253.58,25.5c0-.95-.57-1.66-1.51-1.66s-1.52.7-1.52,1.66.54,1.65,1.52,1.65,1.51-.7,1.51-1.65ZM252.26,20.24h1.38l-1.09,1.98h-1.15l.86-1.98h0Z"/>
    <path class="st0" d="M256.09,22.88h1.06v1.29c.22-.96.82-1.46,1.79-1.46h.06c1.24,0,1.9.81,1.9,2.4v3h-1.34v-3.12c0-.65-.4-1.08-1.03-1.08s-1.1.44-1.1,1.12v3.08h-1.34v-5.24h0Z"/>
    <path class="st0" d="M214.1,32.03h2.25l2.96,5.9h.13v-5.9h1.29v7.04h-2.26l-2.96-5.9h-.14v5.9h-1.27v-7.04Z"/>
    <path class="st0" d="M221.94,37.52c0-1.15.9-1.68,2.3-1.68h1.07v-.05c0-.6-.3-.9-.91-.9-.48,0-1.33.03-1.87.07v-1.14c.44-.04,1.11-.07,1.63-.07,1.61,0,2.43.61,2.43,2.06v3.25h-1.06v-1c-.23.74-.8,1.14-1.69,1.14-1.15,0-1.9-.62-1.9-1.69h0ZM225.31,37.13v-.49h-1.09c-.61,0-.95.33-.95.81s.34.8.95.8c.55,0,1.05-.26,1.09-1.12Z"/>
    <path class="st0" d="M227.68,36.55v-.18c0-1.4.91-2.72,2.66-2.72,1.37,0,2.36.85,2.45,2.1h-1.3c-.07-.54-.46-.95-1.15-.95-.9,0-1.32.68-1.32,1.65s.4,1.64,1.33,1.64c.69,0,1.12-.41,1.19-.97h1.3c-.08,1.28-1.11,2.13-2.49,2.13-1.8,0-2.67-1.36-2.67-2.7Z"/>
    <path class="st0" d="M234.15,34.84h-.73v-1h2.07v5.24h-1.34v-4.23h0ZM233.87,32.47c0-.42.24-.72.77-.72s.76.3.76.72-.24.73-.76.73-.77-.31-.77-.73Z"/>
    <path class="st0" d="M236.69,36.56v-.2c0-1.44,1.08-2.71,2.87-2.71s2.86,1.27,2.86,2.71v.2c0,1.39-1.02,2.69-2.86,2.69s-2.87-1.3-2.87-2.69h0ZM241.07,36.46c0-.95-.57-1.66-1.51-1.66s-1.52.7-1.52,1.66.54,1.65,1.52,1.65,1.51-.7,1.51-1.65Z"/>
    <path class="st0" d="M243.58,33.83h1.06v1.29c.22-.96.82-1.46,1.79-1.46h.06c1.24,0,1.9.81,1.9,2.4v3h-1.34v-3.12c0-.65-.4-1.08-1.03-1.08s-1.1.44-1.1,1.12v3.08h-1.34v-5.24h0Z"/>
    <path class="st0" d="M249.41,37.52c0-1.15.9-1.68,2.3-1.68h1.07v-.05c0-.6-.3-.9-.91-.9-.48,0-1.33.03-1.87.07v-1.14c.44-.04,1.11-.07,1.63-.07,1.61,0,2.43.61,2.43,2.06v3.25h-1.06v-1c-.23.74-.8,1.14-1.69,1.14-1.15,0-1.9-.62-1.9-1.69h0ZM252.78,37.13v-.49h-1.09c-.61,0-.95.33-.95.81s.34.8.95.8c.55,0,1.05-.26,1.09-1.12Z"/>
    <path class="st0" d="M255.56,33.03h-.66v-1h2v7.04h-1.34v-6.04Z"/>
    <path class="st0" d="M260.17,36.56v-.2c0-1.5.98-2.69,2.48-2.69.75,0,1.37.3,1.75.91v-2.55h1.34v7.04h-1.06v-1.1c-.37.85-1.1,1.27-1.99,1.27-1.48,0-2.52-1.16-2.52-2.68h0ZM264.43,36.61v-.39c0-.92-.69-1.43-1.45-1.43-.87,0-1.48.67-1.48,1.67s.62,1.65,1.48,1.65c.79,0,1.45-.56,1.45-1.5Z"/>
    <path class="st0" d="M266.91,36.54v-.18c0-1.39.91-2.71,2.63-2.71s2.58,1.26,2.58,2.64v.48h-3.94c.09.82.53,1.37,1.42,1.37.65,0,1.08-.3,1.2-.68h1.23c-.23,1.08-1.14,1.79-2.43,1.79-1.8,0-2.69-1.37-2.69-2.71h0ZM268.2,35.95h2.63c-.11-.75-.54-1.2-1.29-1.2s-1.21.44-1.34,1.2Z"/>
    <path class="st0" d="M214.1,42.98h4.26v1.16h-2.92v1.73h2.75v1.16h-2.75v1.84h3v1.16h-4.34v-7.04h0Z"/>
    <path class="st0" d="M219.27,47.52v-.2c0-1.5.98-2.69,2.48-2.69.75,0,1.37.3,1.75.91v-2.55h1.34v7.04h-1.06v-1.1c-.37.85-1.1,1.27-1.99,1.27-1.48,0-2.52-1.16-2.52-2.68h0ZM223.53,47.56v-.39c0-.92-.68-1.43-1.45-1.43-.87,0-1.48.67-1.48,1.67s.62,1.65,1.48,1.65c.79,0,1.45-.56,1.45-1.5Z"/>
    <path class="st0" d="M226.24,47.82v-3.04h1.34v3.15c0,.65.4,1.05,1,1.05s1.05-.42,1.05-1.11v-3.1h1.34v5.25h-1.06v-1.22c-.22.92-.8,1.38-1.72,1.38h-.06c-1.22,0-1.9-.8-1.9-2.37h0Z"/>
    <path class="st0" d="M232.17,47.51v-.18c0-1.4.91-2.72,2.66-2.72,1.37,0,2.36.85,2.45,2.1h-1.3c-.07-.54-.46-.95-1.15-.95-.9,0-1.32.68-1.32,1.65s.4,1.64,1.33,1.64c.69,0,1.12-.41,1.19-.97h1.3c-.08,1.28-1.11,2.13-2.49,2.13-1.8,0-2.67-1.36-2.67-2.7Z"/>
    <path class="st0" d="M237.98,48.47c0-1.15.9-1.68,2.3-1.68h1.07v-.05c0-.6-.3-.9-.91-.9-.48,0-1.33.03-1.87.07v-1.14c.44-.04,1.11-.07,1.63-.07,1.61,0,2.43.61,2.43,2.06v3.25h-1.06v-1c-.23.74-.8,1.14-1.69,1.14-1.15,0-1.9-.62-1.9-1.69h0ZM241.35,48.09v-.49h-1.09c-.61,0-.95.33-.95.81s.34.8.95.8c.55,0,1.05-.26,1.09-1.12Z"/>
    <path class="st0" d="M243.72,47.51v-.18c0-1.4.91-2.72,2.66-2.72,1.37,0,2.36.85,2.45,2.1h-1.3c-.07-.54-.46-.95-1.15-.95-.9,0-1.32.68-1.32,1.65s.4,1.64,1.33,1.64c.69,0,1.12-.41,1.19-.97h1.3c-.08,1.28-1.11,2.13-2.49,2.13-1.8,0-2.67-1.36-2.67-2.7Z"/>
    <path class="st0" d="M250.19,45.79h-.73v-1h2.07v5.24h-1.34v-4.23h0ZM249.91,43.43c0-.42.24-.72.77-.72s.76.3.76.72-.24.73-.76.73-.77-.31-.77-.73Z"/>
    <path class="st0" d="M252.73,47.52v-.2c0-1.44,1.08-2.71,2.87-2.71s2.86,1.27,2.86,2.71v.2c0,1.39-1.02,2.69-2.86,2.69s-2.87-1.3-2.87-2.69ZM257.11,47.41c0-.95-.57-1.66-1.51-1.66s-1.52.7-1.52,1.66.54,1.65,1.52,1.65,1.51-.7,1.51-1.65ZM255.79,42.14h1.38l-1.09,1.98h-1.15l.86-1.98Z"/>
    <path class="st0" d="M259.62,44.79h1.06v1.29c.22-.96.82-1.46,1.79-1.46h.06c1.24,0,1.9.81,1.9,2.4v3h-1.34v-3.12c0-.65-.4-1.08-1.03-1.08s-1.1.44-1.1,1.12v3.08h-1.34v-5.24h0Z"/>
    <polygon class="st0" points="202.47 24.07 202.47 19.43 188.52 19.43 183.89 19.43 183.89 24.07 183.89 28.73 183.89 33.36 183.89 38.02 183.89 42.66 188.52 42.66 202.47 42.66 202.47 38.02 188.52 38.02 188.52 33.36 202.47 33.36 202.47 28.73 188.52 28.73 188.52 24.07 202.47 24.07"/>
    <path class="st0" d="M172.27,19.43c-3.87,0-7,3.13-7,7s3.13,7,7,7,7-3.13,7-7-3.13-7-7-7ZM172.27,28.77c-1.29,0-2.34-1.05-2.34-2.34s1.05-2.34,2.34-2.34,2.34,1.05,2.34,2.34-1.05,2.34-2.34,2.34Z"/>
    <rect class="st0" x="165.27" y="38.03" width="14" height="4.67"/>
    <rect class="st0" x="165.27" y="47.35" width="37.21" height="4.67"/>
    <path class="st0" d="M65.36,21.02h2.23l1.65,4.04h.19l1.63-4.04h2.27v7.2h-1.6v-5.55l-1.68,4.09h-1.54l-1.67-4.05v5.51h-1.48v-7.2Z"/>
    <path class="st0" d="M75.1,23.98h-.72v-1.16h2.3v5.41h-1.58v-4.24h0ZM74.84,21.47c0-.48.28-.83.87-.83s.87.35.87.83-.28.82-.87.82-.87-.34-.87-.82Z"/>
    <path class="st0" d="M78.13,22.82h1.25v1.38c.22-1.04.84-1.55,1.83-1.55h.07c1.25,0,1.94.82,1.94,2.49v3.09h-1.58v-3.18c0-.58-.36-.99-.95-.99s-.99.41-.99,1.02v3.15h-1.58v-5.41h0Z"/>
    <path class="st0" d="M84.81,23.98h-.72v-1.16h2.3v5.41h-1.58v-4.24h0ZM84.56,21.47c0-.48.28-.83.87-.83s.87.35.87.83-.28.82-.87.82-.87-.34-.87-.82Z"/>
    <path class="st0" d="M87.4,26.58h1.4c.05.34.4.66,1.12.66.54,0,.96-.19.96-.55,0-.32-.24-.5-.95-.58l-.42-.04c-1.29-.14-1.95-.75-1.95-1.68,0-1.14.94-1.74,2.24-1.74,1.39,0,2.31.63,2.36,1.79h-1.4c-.05-.35-.37-.63-.98-.63-.49,0-.8.2-.8.51s.24.45.8.51l.42.04c1.32.15,2.1.76,2.1,1.75,0,1.08-.94,1.77-2.41,1.77s-2.45-.66-2.5-1.8h.01Z"/>
    <path class="st0" d="M93.49,26.11v-2.14h-.82v-1.15h.82v-1.46h1.47v1.46h1.58v1.15h-1.58v2.2c0,.5.28.79.78.79h.8v1.33h-.76c-1.63,0-2.29-.54-2.29-2.18Z"/>
    <path class="st0" d="M97.25,25.62v-.2c0-1.44.99-2.79,2.75-2.79s2.69,1.31,2.69,2.77v.53h-3.96c.11.73.52,1.19,1.32,1.19.57,0,.96-.24,1.08-.58h1.45c-.24,1.1-1.18,1.86-2.54,1.86-1.84,0-2.81-1.4-2.81-2.79h.02ZM98.75,25.04h2.43c-.1-.72-.5-1.12-1.18-1.12s-1.11.39-1.24,1.12h-.01Z"/>
    <path class="st0" d="M103.73,22.82h1.25v1.83c.13-1.22.77-1.9,1.87-1.9h.21v1.36h-.4c-.88,0-1.36.49-1.36,1.36v2.75h-1.58v-5.41h.01Z"/>
    <path class="st0" d="M108.13,23.98h-.72v-1.16h2.3v5.41h-1.58v-4.24h0ZM107.88,21.47c0-.48.28-.83.87-.83s.87.35.87.83-.28.82-.87.82-.87-.34-.87-.82Z"/>
    <path class="st0" d="M110.83,25.65v-.23c0-1.53,1.13-2.79,2.97-2.79s2.98,1.26,2.98,2.79v.23c0,1.47-1.08,2.76-2.98,2.76s-2.97-1.29-2.97-2.76ZM115.2,25.54c0-.92-.51-1.58-1.4-1.58s-1.39.66-1.39,1.58.48,1.54,1.39,1.54,1.4-.65,1.4-1.54Z"/>
    <path class="st0" d="M64.94,36.85v-.23c0-1.57.99-2.77,2.5-2.77.78,0,1.38.31,1.75.9v-2.54h1.59v7.2h-1.25v-1.13c-.35.85-1.08,1.31-2.02,1.31-1.52,0-2.56-1.17-2.56-2.74h-.01ZM69.23,36.87v-.37c0-.86-.64-1.34-1.34-1.34-.8,0-1.37.64-1.37,1.57s.58,1.54,1.38,1.54c.73,0,1.33-.51,1.33-1.4Z"/>
    <path class="st0" d="M71.87,36.81v-.2c0-1.44.99-2.79,2.75-2.79s2.69,1.31,2.69,2.77v.53h-3.96c.11.73.52,1.19,1.32,1.19.57,0,.96-.24,1.08-.58h1.45c-.24,1.1-1.18,1.86-2.54,1.86-1.84,0-2.81-1.4-2.81-2.79h.02ZM73.38,36.23h2.43c-.1-.72-.5-1.12-1.18-1.12s-1.11.39-1.24,1.12h-.01Z"/>
    <path class="st0" d="M80.51,32.22h4.46v1.34h-2.88v1.53h2.72v1.34h-2.72v1.65h2.95v1.34h-4.53v-7.2Z"/>
    <path class="st0" d="M85.81,36.85v-.23c0-1.57.99-2.77,2.5-2.77.78,0,1.38.31,1.75.9v-2.54h1.59v7.2h-1.25v-1.13c-.35.85-1.08,1.31-2.02,1.31-1.52,0-2.56-1.17-2.56-2.74h-.01ZM90.1,36.87v-.37c0-.86-.64-1.34-1.34-1.34-.8,0-1.37.64-1.37,1.57s.58,1.54,1.38,1.54c.73,0,1.33-.51,1.33-1.4Z"/>
    <path class="st0" d="M92.95,37.15v-3.14h1.58v3.22c0,.58.36.95.91.95s.96-.38.96-.99v-3.18h1.58v5.41h-1.25v-1.26c-.23.97-.82,1.43-1.76,1.43h-.07c-1.24,0-1.94-.8-1.94-2.44,0,0-.01,0-.01,0Z"/>
    <path class="st0" d="M99.09,36.82v-.19c0-1.47.96-2.81,2.75-2.81,1.45,0,2.49.91,2.57,2.22h-1.55c-.05-.48-.39-.87-1.02-.87-.8,0-1.17.63-1.17,1.56s.34,1.52,1.18,1.52c.63,0,.99-.35,1.06-.9h1.54c-.07,1.34-1.14,2.25-2.6,2.25-1.86,0-2.76-1.37-2.76-2.78Z"/>
    <path class="st0" d="M105.03,37.82c0-1.19.99-1.72,2.44-1.72h.98v-.02c0-.55-.26-.83-.83-.83-.44,0-1.38.04-1.98.08v-1.33c.45-.04,1.21-.08,1.78-.08,1.66,0,2.56.68,2.56,2.18v3.31h-1.25v-1.02c-.25.75-.82,1.15-1.73,1.15-1.16,0-1.95-.64-1.95-1.74,0,0-.02.02-.02.02ZM108.44,37.42v-.43h-.99c-.55,0-.86.3-.86.75s.31.73.86.73c.51,0,.95-.24.99-1.05Z"/>
    <path class="st0" d="M110.96,36.82v-.19c0-1.47.96-2.81,2.75-2.81,1.45,0,2.49.91,2.57,2.22h-1.55c-.05-.48-.39-.87-1.02-.87-.8,0-1.17.63-1.17,1.56s.34,1.52,1.18,1.52c.63,0,.99-.35,1.06-.9h1.54c-.07,1.34-1.14,2.25-2.6,2.25-1.86,0-2.76-1.37-2.76-2.78h0Z"/>
    <path class="st0" d="M117.57,35.18h-.72v-1.16h2.3v5.41h-1.58v-4.24h0ZM117.32,32.66c0-.48.28-.83.87-.83s.87.35.87.83-.28.82-.87.82-.87-.34-.87-.82Z"/>
    <path class="st0" d="M120.27,36.84v-.23c0-1.53,1.13-2.79,2.97-2.79s2.98,1.26,2.98,2.79v.23c0,1.47-1.08,2.76-2.98,2.76s-2.97-1.29-2.97-2.76ZM124.64,36.74c0-.92-.51-1.58-1.4-1.58s-1.39.66-1.39,1.58.48,1.54,1.39,1.54,1.4-.65,1.4-1.54ZM123.35,31.32h1.63l-1.13,2.06h-1.38l.89-2.06s-.01,0-.01,0Z"/>
    <path class="st0" d="M127.32,34.01h1.25v1.38c.22-1.04.84-1.55,1.83-1.55h.07c1.25,0,1.94.82,1.94,2.49v3.09h-1.58v-3.18c0-.58-.36-.99-.95-.99s-.99.41-.99,1.02v3.15h-1.58v-5.41h0Z"/>
    <path class="st0" d="M64.6,45.21h1.59l1.19,4.05h.2l.99-4.05h1.5l-1.51,5.84c-.33,1.27-.95,1.71-2.38,1.71h-.97v-1.34h1.13c.5,0,.76-.17.9-.68l.05-.24h-1.03s-1.66-5.29-1.66-5.29Z"/>
    <path class="st0" d="M72.66,47.1v-.22c0-1.79,1.14-3.69,3.64-3.69,1.96,0,3.28,1.16,3.45,2.89h-1.63c-.14-.86-.85-1.38-1.83-1.38-1.28,0-2,.93-2,2.3s.73,2.29,2.05,2.29c1,0,1.75-.51,1.89-1.37h1.62c-.18,1.59-1.45,2.88-3.51,2.88-2.6,0-3.69-2.07-3.69-3.7h.01Z"/>
    <path class="st0" d="M80.72,48.35v-3.14h1.58v3.22c0,.58.36.95.91.95s.96-.38.96-.99v-3.18h1.58v5.41h-1.25v-1.26c-.23.97-.82,1.43-1.76,1.43h-.07c-1.24,0-1.94-.8-1.94-2.44,0,0-.01,0-.01,0Z"/>
    <path class="st0" d="M87.27,44.58h-.64v-1.16h2.23v7.2h-1.59s0-6.04,0-6.04Z"/>
    <path class="st0" d="M90.47,48.5v-2.14h-.82v-1.15h.82v-1.46h1.47v1.46h1.58v1.15h-1.58v2.2c0,.5.28.79.78.79h.8v1.33h-.76c-1.63,0-2.29-.54-2.29-2.18Z"/>
    <path class="st0" d="M94.46,48.35v-3.14h1.58v3.22c0,.58.36.95.91.95s.96-.38.96-.99v-3.18h1.58v5.41h-1.25v-1.26c-.23.97-.82,1.43-1.76,1.43h-.07c-1.24,0-1.94-.8-1.94-2.44,0,0-.01,0-.01,0Z"/>
    <path class="st0" d="M100.93,45.21h1.25v1.83c.13-1.22.77-1.9,1.87-1.9h.21v1.36h-.4c-.88,0-1.36.49-1.36,1.36v2.75h-1.58v-5.41h.01Z"/>
    <path class="st0" d="M104.64,49.02c0-1.19.99-1.72,2.44-1.72h.98v-.02c0-.55-.26-.83-.83-.83-.44,0-1.38.04-1.98.08v-1.33c.45-.04,1.21-.08,1.78-.08,1.66,0,2.56.68,2.56,2.18v3.31h-1.25v-1.02c-.25.75-.82,1.15-1.73,1.15-1.16,0-1.95-.64-1.95-1.74,0,0-.02.02-.02.02ZM108.05,48.61v-.43h-.99c-.55,0-.86.3-.86.75s.31.73.86.73c.51,0,.95-.24.99-1.05Z"/>
    <path class="st0" d="M22.55,11.39s.69-.58,1.39-.58c.97,0,1.69.74,1.69.74v-.4s-.58-.65-1.69-.65c-.83,0-1.53.72-1.53.72,0,0,.14.17.14.17Z"/>
    <path class="st0" d="M30.33,11.39l.14-.19s-.71-.7-1.53-.7c-1.11,0-1.69.65-1.69.65v.39s.72-.74,1.69-.74c.7,0,1.39.58,1.39.58h0Z"/>
    <path class="st0" d="M25.39,14.16l-.02-.02-.12.12.02.02c.15.16.39.19.57.08.17.15.38.23.6.23s.44-.08.61-.23c.18.11.42.08.57-.08l.02-.02-.12-.12-.02.02c-.05.06-.13.09-.2.09s-.14-.03-.19-.09l-.06-.05-.12.11c-.13.13-.32.21-.51.21h-.02c-.18,0-.33-.08-.44-.2-.04-.05-.08-.09-.08-.09l-.02-.02-.02.02s-.24.22-.45.02Z"/>
    <path class="st0" d="M25.41,12.23s.02-.08-.07-.21c-.06-.08-.51-.63-1.5-.38-.77.19-.95.54-.95.54,0,0,.15.18.54.3.03,0,.04-.02,0-.03h-.02c-.12-.06-.18-.2-.02-.37.16-.16.42-.21.42-.21,0,0-.04.14,0,.32.05.19.17.31.27.36.08,0,.32-.03.42-.03.05-.02.33-.29.19-.71.17.04.31.09.41.21s.09.18.07.23-.06.12-.12.16c0,0-.15.11.02.05.17-.06.25-.1.33-.21v-.02s.01,0,.01,0Z"/>
    <path class="st0" d="M29.04,11.64c-.99-.24-1.44.31-1.5.39-.09.13-.07.21-.07.21.09.1.16.15.34.21.17.06.02-.05.02-.05-.05-.04-.1-.1-.12-.16-.02-.05-.03-.12.07-.23.1-.12.21-.17.38-.21-.14.42.15.68.19.7.1,0,.34.03.42.03.09-.05.21-.17.26-.36.05-.18,0-.32,0-.32,0,0,.29.05.45.21s.11.3,0,.37h-.02s-.02.04,0,.03c.4-.13.54-.3.54-.3,0,0-.19-.35-.96-.53h0Z"/>
    <path class="st0" d="M38,21.18c-1.13-1.49-2.41-2.73-3.78-3.7l4.85.4h0c.07,0,.14-.05.16-.12.02-.07,0-.16-.07-.2l-4.44-2.68c.32-.16.64-.33.95-.5,1.39-.76,2.7-1.48,4.01-.91.08.03.17,0,.21-.06.04-.07.03-.16-.03-.22-1.44-1.3-2.89-1.19-4.29-1.08-.21.02-.42.03-.62.04l4.2-2.54c.07-.04.1-.12.07-.2-.02-.07-.1-.12-.18-.12l-5.04.42c.17-.33.33-.67.49-1,.68-1.43,1.32-2.78,2.71-3.1.08-.02.14-.09.13-.18,0-.08-.07-.15-.15-.16-1.93-.2-3.03.74-4.1,1.65-.23.2-.46.39-.69.57l1.96-4.67c.03-.07,0-.16-.06-.2-.06-.05-.15-.04-.21,0l-3.7,3.18c-.05-.34-.11-.67-.18-1.01-.29-1.56-.57-3.03.37-4.1.05-.06.06-.16,0-.22-.05-.06-.14-.08-.22-.04-1.68.97-2.02,2.38-2.35,3.74-.1.4-.19.79-.32,1.16L26.47.13c-.02-.08-.09-.13-.17-.13s-.15.05-.17.13l-1.08,4.6c-.2-.2-.41-.39-.61-.59-1.15-1.09-2.24-2.11-2.11-3.53,0-.08-.05-.16-.13-.18s-.16.02-.2.1c-.79,1.77-.24,3.11.3,4.41.19.47.38.92.51,1.39l-4.32-3.7c-.06-.05-.15-.05-.21,0s-.09.13-.06.2l1.81,4.27c-.21-.03-.42-.06-.63-.08-1.57-.2-3.05-.39-3.78-1.62-.04-.07-.13-.1-.21-.07-.08.03-.12.11-.1.19.4,1.9,1.64,2.66,2.84,3.39.44.27.87.53,1.25.85l-5.83-.48c-.08,0-.15.04-.18.12-.02.07,0,.16.07.2l4.03,2.44c-.16.09-.32.17-.48.26-1.39.76-2.7,1.48-4.01.91-.08-.03-.17,0-.21.06-.04.07-.03.16.03.22,1.44,1.3,2.89,1.19,4.29,1.08.47-.04.93-.07,1.38-.06l-5.03,3.04c-.07.04-.1.12-.07.2.02.07.09.12.16.12h.01l4.85-.4c-1.37.98-2.64,2.21-3.77,3.7-3.07,4.03-4.76,9.37-4.76,15.06s1.69,11.03,4.76,15.06c3.1,4.07,7.24,6.31,11.65,6.31s8.55-2.24,11.65-6.31c3.07-4.03,4.76-9.37,4.76-15.06s-1.69-11.03-4.76-15.06h.06ZM41.77,35.37c-.76-.11-1.67-.45-2.45-.45s-2.13.48-2.95.48-1.93-.48-2.86-.48c-.79,0-2.13.48-2.95.48s-1.32-.22-1.33-.22c-.02,0-.6-.26-1.53-.26-.62,0-1.1.11-1.36.19v-.5c.09-.03.61-.22,1.36-.22.81,0,1.32.22,1.33.22.02,0,.6.26,1.53.26.79,0,2.13-.48,2.95-.48s1.93.48,2.86.48c.79,0,2.13-.48,2.95-.48.69,0,1.6.35,2.43.45,0,.18.02.35.02.53ZM41.72,34.34c-.75-.12-1.64-.44-2.4-.44s-2.13.48-2.95.48-1.93-.48-2.86-.48c-.79,0-2.13.48-2.95.48s-1.32-.22-1.33-.22c-.02,0-.6-.26-1.53-.26-.62,0-1.1.11-1.36.19v-.5c.09-.03.61-.22,1.36-.22.81,0,1.32.22,1.33.22.02,0,.6.26,1.53.26.79,0,2.13-.48,2.95-.48s1.93.48,2.86.48c.79,0,2.13-.48,2.95-.48.67,0,1.55.33,2.36.44.02.18.03.35.04.53ZM41.63,33.31c-.73-.13-1.58-.43-2.31-.43-.79,0-2.13.48-2.95.48s-1.93-.48-2.86-.48c-.79,0-2.13.48-2.95.48s-1.32-.22-1.33-.22c-.02,0-.6-.26-1.53-.26-.62,0-1.1.11-1.36.19v-.5c.09-.03.61-.22,1.36-.22.81,0,1.32.22,1.33.22.02,0,.6.26,1.53.26.79,0,2.13-.48,2.95-.48s1.93.48,2.86.48c.79,0,2.13-.48,2.95-.48.64,0,1.47.3,2.24.43.02.18.04.35.06.53h0ZM41.49,32.27c-.69-.14-1.49-.4-2.17-.4-.79,0-2.13.48-2.95.48s-1.93-.48-2.86-.48c-.79,0-2.13.48-2.95.48s-1.32-.22-1.33-.22c-.02,0-.6-.26-1.53-.26-.62,0-1.1.11-1.36.19v-.5c.09-.03.61-.22,1.36-.22.81,0,1.32.22,1.33.22.02,0,.6.26,1.53.26.79,0,2.13-.48,2.95-.48s1.93.48,2.86.48c.79,0,2.13-.48,2.95-.48.6,0,1.36.26,2.09.4.03.18.06.36.09.53h0ZM41.31,31.21c-.65-.14-1.36-.36-1.99-.36-.79,0-2.13.48-2.95.48s-1.93-.48-2.86-.48c-.79,0-2.13.48-2.95.48s-1.93-.48-2.86-.48c-.62,0-1.1.11-1.36.19v-15.19h0c7.2,0,13.26,6.54,14.96,15.36h.01ZM34.33,12.14l-.27.16-.32-1,.29-.1.3.93h0ZM34.23,11.14l.29-.1.26.81-.27.16-.29-.88h.01ZM33.88,12.41l-.24.14-.03.02-.36-1.11.29-.1.34,1.04h0ZM33.42,12.69l-.27.16-.4-1.23.29-.1.38,1.16h0ZM32.97,12.96l-.27.16-.43-1.33v-.02l.3-.1.41,1.28h0ZM32.52,13.24l-.25.15-.06.03v-.33c0-.07,0-.13-.02-.19v-.1c0-.05,0-.1-.02-.14,0-.03,0-.06-.02-.09-.02-.08-.03-.17-.05-.25,0-.03,0-.06-.02-.08,0-.05-.02-.1-.04-.15v-.03s-.03-.11-.05-.16l.11-.04v.02l.44,1.37h-.02,0ZM32.94,16.66h0l.24-.75.29.1-.26.82c-.09-.06-.18-.11-.28-.16h0ZM32.76,16.55c-.09-.05-.19-.1-.28-.15l.21-.66.29.1-.23.71h0ZM32.38,16.36c-.12-.06-.25-.13-.37-.19l.19-.58.3.1-.2.63s.06.03.09.05h0ZM31.82,16.08s-.09-.04-.14-.06c.08-.17.15-.35.21-.53l.11.03-.18.56ZM33.4,16.92l.28-.86.29.1-.3.93h-.02c-.08-.06-.16-.11-.25-.17ZM34.17,16.22l.29.1-.26.81h-.16l-.16-.03s.29-.88.29-.88ZM34.67,17.17l-.26-.02.25-.77.29.1-.23.7h-.06,0ZM35.25,17.22h-.05l-.27-.03.21-.65.29.1-.19.58h0ZM35.78,17.26h-.03l-.29-.03.17-.54.29.1-.15.47h.01ZM36.31,17.31h-.09l-.23-.03.14-.42.29.1-.11.35ZM36.84,17.35h-.1l-.22-.03.1-.31.29.1-.08.24h.01ZM37.39,17.39l-.34-.03.06-.19.81.26s-.53-.04-.53-.04ZM38,17.24l-.92-.3h0l-.48-.16h0l-.48-.16h0l-.48-.15h0l-.48-.15h0l-.48-.16h0l-.48-.15h0l-.48-.15h0l-.48-.15h0l-.48-.15h0l-.69-.22s.03-.1.04-.15h0c.12-.42.19-.85.2-1.3v-.25.23l.06-.03,1.75,1.06h0l.35.21,3.63,2.19-.1-.06h0ZM35.17,12.47h.02c.07,0,.14,0,.21-.01h0c.07,0,.15-.01.22-.02,1.16-.09,2.26-.17,3.37.49-1.17-.11-2.33.53-3.46,1.14l-.21.12h-.02c-.07.05-.14.09-.21.12h-.02c-.07.05-.14.08-.21.12h-.02c-.07.04-.14.07-.21.11h0c-.08.04-.15.07-.23.11l-1.8-1.09,1.79-1.08h.56c.07,0,.14,0,.21-.01h.02s0,0-.01,0ZM35.21,11.61l-.24.14-.25-.77.29-.1.23.7-.03.02h0ZM35.42,11.48l-.21-.65.29-.1.19.58-.27.16h0ZM36.04,11.1l-.17.1-.17-.54.29-.1.15.47-.11.06h0ZM36.49,10.83l-.16.1-.14-.42.29-.1.11.35-.11.07h0ZM37.04,10.5l-.26.16-.1-.31.29-.1.08.24h-.01ZM37.64,10.13l-.41.25-.06-.19.81-.26-.34.21h0ZM37.93,9.73l-.92.3h0l-.48.16h0l-.48.16h0l-.48.16h0l-.48.16h0l-.48.16h0l-.48.16h0l-.48.16h0l-.48.16h0l-.48.16h0l-.69.22s-.03-.09-.05-.13h0c-.04-.1-.08-.21-.13-.31,0-.02-.02-.04-.03-.06-.04-.09-.08-.18-.13-.27,0-.01,0-.03-.02-.04-.11-.21-.23-.41-.36-.6l6.74-.56h-.09ZM30.08,8.66h0l.18-.25,1.08.79-.05.12-.07.18-1.13-.82v-.02h-.01ZM31.13,9.68l-.12.28h-.06c-.31-.39-.67-.75-1.07-1.05l.07-.1h0l1.17.85v.02h.01ZM32.16,7.23l-.12.29-.75-.55.18-.25.69.5h0ZM31.59,6.56l.18-.25.59.43-.11.25-.02.04-.65-.47h.01ZM31.95,7.72l-.12.29-.85-.62.18-.25.79.57h0ZM31.75,8.21l-.02.04-.11.25-.95-.69.18-.25.89.65h.01ZM31.54,8.7l-.07.17-.05.12-1.04-.76.18-.25.99.72h-.01ZM32.45,7.9s.02-.01.03-.02c.05-.04.1-.08.15-.11,0,0,.03-.02.04-.03.05-.04.09-.07.14-.11.02-.01.03-.03.05-.04.04-.04.09-.07.13-.11.02-.02.05-.04.07-.06.04-.03.07-.06.11-.09.06-.05.11-.1.17-.15.88-.75,1.73-1.47,3.02-1.58-1.01.6-1.58,1.8-2.13,2.96-.12.24-.23.48-.35.72h0c-.04.08-.08.15-.11.22h0c-.04.08-.08.15-.12.23h0l-2.23.19.77-1.83s.07-.05.1-.07h.02c.05-.05.11-.09.16-.13h-.02ZM32.45,6.55l-.55-.4.18-.25.5.36-.12.29h-.01ZM32.75,5.84l-.09.22-.46-.33.18-.25.4.29s-.03.07-.03.07ZM32.86,5.57l-.36-.26.18-.25.3.22-.12.29ZM33.07,5.08l-.26-.19.18-.25.2.15s-.12.29-.12.29ZM33.27,4.59l-.16-.12.5-.69-.34.81ZM30.47,6.22l2.98-2.57-.57.78h0l-.3.41h0l-.3.41h0l-.3.41h0l-.3.41h0l-.3.41h0l-.3.41h0l-.3.41h0l-.3.41h0l-.3.41h0l-.43.59c-.42-.3-.89-.54-1.39-.72l.04-.03,1.8-1.55.31-.27s-.04.08-.04.08ZM28.38,4.28c.27-1.13.53-2.2,1.51-3.05-.47,1.08-.22,2.38.02,3.65.08.41.15.81.2,1.21l-1.84,1.58-.4-1.71c.23-.54.37-1.11.51-1.67h0ZM26.45,1.39l.2.85h-.2v-.85ZM26.45,2.45h.25l.06.25v.06h-.31v-.31ZM26.45,2.96h.37l.03.14.04.17h-.44s0-.31,0-.31ZM26.45,3.48h.49l.07.31h-.56v-.31ZM26.45,4h.61l.02.08.05.23h-.69v-.31h.01ZM26.45,4.51h.73l.07.31h-.81v-.31h.01ZM26.45,5.03h.86l.02.1.05.21h-.93v-.31ZM26.45,5.55h.98l.03.11.05.2h-1.05v-.31h-.01ZM26.45,6.06h1.1l.07.31h-1.17v-.31ZM26.45,6.58h1.22v.05l.07.26h-1.29v-.31ZM26.45,7.1h1.34l.08.33h-1.42v-.33ZM26.45,7.64h1.47l.07.28-.04.03c-.47-.13-.96-.21-1.47-.22h-.02v-.09h0ZM26.35,8.04c3.06,0,5.55,2.49,5.55,5.55,0,.82-.18,1.61-.51,2.31-1.61-.67-3.3-1.02-5.04-1.02s-3.43.35-5.04,1.02c-.32-.7-.51-1.49-.51-2.31,0-3.06,2.49-5.55,5.55-5.55ZM19.26,14.5l.27-.16.4,1.24-.29.1-.38-1.18ZM19.44,15.74l-.29.1-.34-1.06.07-.04.2-.12.37,1.13h-.01ZM19.71,14.22l.27-.16.44,1.36-.29.1-.42-1.29h0ZM20.17,13.95l.27-.16.06-.04h0c.02.54.1,1.06.26,1.56l-.13.04-.46-1.41h0ZM20.62,10.22l.32.03-.43,1.33-.29-.1.41-1.27h0ZM20.02,11.42l-.29-.1.37-1.15.32.03-.39,1.22h-.01ZM21.15,10.26l.36.03c-.28.42-.52.87-.69,1.35v.03l-.11-.03.45-1.38h-.01ZM23.66,7.49l.23.2-1.15.84-.18-.24,1.09-.8h.01ZM22.45,8.12l-.18-.25,1-.73.24.21-1.06.77ZM24.06,7.82l.3.25c-.41.15-.8.35-1.17.58h0c-.08.05-.16.1-.23.16l-.09-.12s1.19-.87,1.19-.87ZM26.25,1.38v.96h0v.5h0v.5h0v.5h0v.5h0v.5h0v.5h0v.5h0v.5h0v.5h0v.53h0v.19h-.03c-.11,0-.22,0-.33.02h-.04c-.25.02-.5.06-.74.11h0c-.12.03-.24.06-.35.09h0l-.03-.02,1.54-6.56s-.02.18-.02.18ZM22.85,5.27v-.04c-.05-.13-.11-.27-.16-.4-.44-1.07-.86-2.1-.57-3.36.26,1.15,1.22,2.06,2.16,2.94.06.06.13.12.19.18.04.04.08.08.12.12.02.02.04.04.06.06.05.04.09.09.14.13.02.01.03.03.05.04.05.05.09.09.14.14,0,.01.02.02.04.04,0,0,0,.01.02.02l-.59,2.53-1.12-.96s0-.06-.02-.09v-.03c0-.07-.03-.14-.05-.2v-.03c-.02-.07-.03-.13-.05-.2v-.03c-.02-.07-.04-.13-.06-.2v-.03c-.02-.06-.04-.13-.07-.19v-.03c-.02-.06-.05-.13-.07-.19v-.04c-.02-.06-.05-.12-.07-.19h-.09ZM22.96,6.88l.14.12-.96.7-.18-.25.9-.66.1.09ZM22.7,6.66l-.86.63-.18-.25.8-.59s.24.21.24.21ZM22.07,6.12l.22.19-.76.56-.18-.25.7-.52h.02v.02ZM21.89,5.97l-.66.49-.18-.25.61-.44.24.21h-.01ZM21.38,5.53l.11.09-.57.41-.18-.25.51-.37.14.12h-.01ZM21.09,5.28l-.47.34-.18-.25.41-.3.24.21ZM20.68,4.93l-.37.27-.18-.25.31-.23s.24.21.24.21ZM20.28,4.59l-.27.2-.18-.25.21-.16s.24.21.24.21ZM19.88,4.24l-.17.13-.55-.74.72.62h0ZM19.08,3.88l.51.69h0l.3.41h0l.3.41h0l.3.41h0l.3.41h0l.3.41h0l.3.41h0l.3.41h0l.3.41h0l.3.41h0l.44.61c-.39.3-.74.65-1.04,1.03h-.08l-2.58-6.09s.05.07.05.07ZM19.33,9.26s-.02-.01-.03-.02c-.05-.04-.1-.07-.16-.11,0,0-.03-.02-.04-.03-.05-.03-.1-.07-.15-.1-.02-.01-.03-.02-.05-.03-.05-.03-.09-.06-.14-.09-.02-.01-.04-.03-.07-.04-.04-.03-.09-.05-.13-.08-.06-.04-.13-.08-.19-.12-.99-.61-1.93-1.19-2.43-2.38.89.78,2.2.95,3.47,1.11.28.04.56.07.83.11l1.04,2.44-1.27-.1c-.11-.1-.22-.2-.33-.29h0s-.11-.09-.17-.13c0,0,0-.01-.02-.01-.05-.04-.11-.08-.16-.12h0ZM19.57,10.13l.32.03-.36,1.1-.29-.1s.33-1.03.33-1.03ZM19.35,10.11l-.32.99-.29-.1.3-.92.32.03h0ZM18.83,10.07l-.28.87-.29-.1.26-.8.32.03h0ZM18.3,10.03l-.24.76-.29-.1.22-.69.32.03h0ZM17.45,9.96l.32.03-.21.64-.29-.1.19-.57h-.01ZM16.92,9.91l.32.03-.17.53-.29-.1.15-.46h0ZM16.39,9.87l.32.03-.13.41-.29-.1.11-.34s-.01,0-.01,0ZM15.87,9.83l.32.03-.1.3-.29-.1.07-.23ZM15.65,9.81l-.06.18-.77-.25.83.07ZM14.65,9.9l.97.31h0l.48.15h0l.48.15h0l.48.15h0l.48.15h0l.48.15h0l.48.15h0l.48.15h0l.48.15h0l.48.15h0l.69.22v.04c0,.05-.03.09-.04.14,0,.04-.02.08-.03.12,0,.05-.02.1-.03.15,0,.04-.02.07-.02.11-.02.08-.03.16-.04.24,0,.04,0,.09-.02.13,0,.04,0,.09-.02.13v.43l-.06.04-5.78-3.49.08.08s-.02,0-.02,0ZM18.43,14.19h-.23c-.14,0-.28,0-.42.01h0c-.07,0-.13,0-.2.01h-.02c-.06,0-.13,0-.19.01h-.02c-.06,0-.13,0-.19.01-1.16.09-2.26.17-3.37-.49,1.17.11,2.33-.53,3.46-1.14.07-.04.15-.08.22-.12h0l.21-.12s.02,0,.02-.01c.06-.03.12-.06.18-.1l2.21,1.33-1.05.64c-.21-.03-.41-.04-.62-.04h.01ZM18.51,14.95l.12-.07.33,1.01-.29.1-.31-.94.16-.09h-.01ZM18.15,15.17h.02l.29.88-.29.1-.27-.83.25-.15ZM17.58,15.52l.14-.09.25.78-.29.1-.23-.71s.13-.08.13-.08ZM17.09,15.81l.17-.1.22.67-.29.1-.19-.6.1-.06h-.01,0ZM16.81,15.98l.18.55-.29.1-.16-.48.27-.16h0ZM16.21,16.34l.14-.09.14.44-.29.1-.12-.37s.13-.08.13-.08ZM15.66,16.68l.25-.15.1.32-.29.1-.08-.25.03-.02h-.01ZM15.45,16.8l.07.21-.88.28.81-.49ZM14.85,17.44l.82-.26h0l.48-.16h0l.48-.16h0l.48-.16h0l.48-.15h0l.48-.15h0l.48-.15h0l.48-.15h0l.48-.16h0l.48-.16h0l.71-.23c.06.18.13.35.21.51-.67.3-1.33.66-1.97,1.07l-4.2.35s.11-.04.11-.04ZM13.48,31.84l1.68-4.79c-.19-.09-.33-.29-.33-.52,0-.32.26-.58.58-.58.21,0,.4.12.5.29h2.37c.04-.08.1-.15.18-.2v-1.81c-.44-.15-.76-.56-.76-1.05,0-.61.5-1.11,1.11-1.11s1.11.5,1.11,1.11c0,.49-.32.91-.76,1.05v1.81c.07.05.13.12.18.2h2.41c.1-.17.28-.29.5-.29.32,0,.58.26.58.58,0,.23-.13.43-.33.52l1.68,4.79v.12c0,1.06-.86,1.93-1.93,1.93s-1.93-.86-1.93-1.93v-.12l1.68-4.79c-.1-.05-.19-.13-.25-.23h-2.41c-.07.12-.18.22-.31.27v.98c0,.11-.09.21-.21.21s-.21-.09-.21-.21v-.98c-.13-.05-.25-.15-.31-.27h-2.37c-.06.1-.14.18-.25.23l1.68,4.79v.12c0,1.06-.86,1.93-1.93,1.93s-1.93-.86-1.93-1.93v-.12s-.02,0-.02,0ZM38.41,46.77s-.04-.17-.09-.59c-.03-.22.02-.28.08-.3v-1.63c-.03.21-.09.41-.18.59l-.07,3.82h-.13c.03.13.05.26-.08.37-.03.03-.08.04-.12.06h-.57c.08-.12.32-.55.32-.93s-.45-1.53-.55-1.25c-.1.27-.08,1.64-.08,1.64h-.13v.21s0,.27-.28.33h-.55c.04-.07.25-.44.36-.72.13-.31.07-.93,0-1.35-.1-.6-.53-.98-.89-1.19-.39,0-.92.1-1.5.4h0s-.71.45-.79.84c-.13.65-.06,1.2-.03,1.49.02.18.03.41.03.53h-.79c0-.11.03-.27.15-.56.12-.29-.02-1.28-.1-1.77h-.09c-.18,0-.36-.02-.53-.06v2.39h-.63c.02-.1.06-.26.13-.43.11-.3,0-1.04-.31-1.78-.06-.15-.11-.28-.14-.39h0c-.34-.42-1.15-2.24-2.14-2.38l-.41.11-.58-.47.5-1.3h-.26l-.17-.35h.32c-.18-.12-.3-.29-.3-.46,0-.12.06-.23.15-.32v.08c0,.23.2.41.51.51.03-.07.08-.15.17-.15h.71c.08,0,.15.06.15.14.23-.06.46-.17.55-.3.06-.08.08-.17.07-.26.16.17.19.38.05.57-.06.08-.14.15-.24.21,0,0,.02,0,.03.02h6.58c.08,0,.16,0,.24.02.11,0,.39.03.56.1,1.04.39,1.2,1.46,1.2,2.07v1.62s.16.02.14.28c-.03.28-.24.59-.24.59,0,0-.03-.05-.03-.05ZM26.35,36.25h0v20.37c-8.5,0-15.42-9.15-15.42-20.37h15.43v-.62c.09-.03.61-.22,1.36-.22.81,0,1.32.22,1.33.22.02,0,.6.26,1.53.26.79,0,2.13-.48,2.95-.48s1.93.48,2.86.48c.79,0,2.13-.48,2.95-.48.7,0,1.63.36,2.46.46v.37h-15.45Z"/>
    <polygon class="st0" points="15.27 27.58 13.79 31.84 15.27 31.84 15.27 27.58"/>
    <polygon class="st0" points="15.55 27.58 15.55 31.84 17.03 31.84 15.55 27.58"/>
    <path class="st0" d="M19.32,23.18c0-.29-.24-.52-.53-.52s-.53.24-.53.52.24.53.53.53.53-.24.53-.53Z"/>
    <polygon class="st0" points="22.36 27.58 22.36 31.84 23.84 31.84 22.36 27.58"/>
    <polygon class="st0" points="22.08 31.84 22.08 27.58 20.6 31.84 22.08 31.84"/>
    <rect class="st0" x="33.12" y="23.86" width=".18" height=".45"/>
    <rect class="st0" x="33.58" y="23.86" width=".18" height=".45"/>
    <rect class="st0" x="34.04" y="23.86" width=".18" height=".45"/>
    <path class="st0" d="M30.52,30.81c.78,0,2.11-.48,2.92-.48s1.91.48,2.83.48c.78,0,2.11-.48,2.92-.48s1.31.22,1.32.22h.03c-1.36-1.13-4.21-3.39-4.52-3.61-.29-.2-.57-.36-.84-.48v-1.33l.16-.16v-.63c0-.14-.11-.25-.25-.25s-.25.11-.25.25v.51h-.54v-.24h.11v-.15h-1.51v.15h.11v.24h-.56v-.51c0-.14-.11-.25-.25-.25s-.25.11-.25.25v.63l.14.14v1.28c-.32.13-.65.31-.99.54-.41.28-4.4,3.47-4.42,3.49.24-.06.58-.11.99-.11.81,0,1.91.48,2.83.48h.02v.02ZM35.01,24.46h.18v.19h-.18v-.19ZM33.31,25.75c0-.2.16-.35.35-.35s.35.16.35.35v.4c-.15-.02-.3-.03-.44-.03h-.27v-.39.02h.01ZM32.14,24.46h.18v.19h-.18v-.19Z"/>
    <path class="st0" d="M33.67,23.06c-.35,0-.64.29-.64.64h1.28c0-.35-.29-.64-.64-.64Z"/>
    <path class="st0" d="M24.94,44.93c-.38.06-.56-.05-.61-.43-.03-.23,0-.47,0-.71,0-.49.05-.97.04-1.46,0-.17-.04-.4-.13-.56-.16-.28-.52-.31-.8-.17-.38.2-.77.39-1.15.59-.06.03-.11.05-.16.04-.27-.22-.61-.35-.99-.35h-.05c-.35,0-.67.12-.96.32-1.04.75-1.69.32-2.04-.87-.44-1.49-2.06-2.22-3.46-1.55-.07.04-.17.04-.25.03-.16-.02-.25-.04-.41-.07-.02.02-.03.18-.05.2.1.07.28.23.28.23v.73s.02.13.05.16c.14.13.16.28.15.46v1.14h.63l.7-1.64.18.1v3.4h-1.37v.42l.35,1.7s.56.45.84.67c.03.02.06.04.11.06v-.79h-.41s-.18-.75-.24-.99c-.06-.25.09-.42.35-.4h1.23c.32.84.64,1.84.95,2.68.02.05,0,.12-.02.17-.09.19-.2.38-.29.57-.08.16-.16.31-.25.48h.77c.07,0,.15.03.18-.08.02-.1.07-.26-.05-.35-.14-.1-.12-.2.04-.28.1-.05.2-.08.31-.12-.08-.26-.48-1.99-.48-1.99v-1.07h1.75s.75.72,1.07,1.02c.13.12.18.28.04.39-.12.09-.57.44-.74.59-.22.18-.38.3-.39.58,0,.31-.07.62-.11.95.25-.15.47-.28.69-.41-.05-.15-.11-.38-.17-.55.15-.13,1.39-.94,1.66-1.16.13-.11.02-.38-.08-.52-.16-.2-.41-.48-.41-.48l.08-.05s.92.46,1.28.73c.54.4.83.95.65,1.64-.09.34-.24.67-.37,1-.02.05-.04.09-.07.17h.61c.25,0,.38-.12.39-.36.02-.36-.02-.09-.05-.12-.13-.12-.14-.18-.02-.31.06-.06.19-.13.19-.13,0,0-.35-1.59-.45-2.13-.02-.12-.24-.34-.24-.34l-1.04-.95s-.05-.05.02-.12c.07-.08.14-.15.19-.23.2-.26.32-.59.32-.94,0-.27-.07-.53-.19-.75,0-.03.02-.07.05-.1.2-.21.53-.23.76-.05.16.13.21.3.21.5,0,.45-.04.89-.03,1.34,0,.21.04.45.11.64.09.24.33.33.59.32.33-.02.58-.2.84-.43h-.13Z"/>
    <path class="st0" d="M51.99,43.65c-.06,0-1.57-.03-3.26,1.49-1.09.98-1.95,2.23-2.41,2.99.41-1.2.73-2.41.95-3.61.72-.41,2.28-1.36,3.49-2.67,1.63-1.76,1.66-3.73,1.66-3.75s0-.05-.03-.06h-.07s-.91.51-2.12,1.66c-.97.92-1.5,1.86-1.97,2.69-.13.22-.25.44-.37.63-.16.26-.32.51-.46.72.08-.54.14-1.07.18-1.59.02-.21.03-.42.04-.63.03-.02.05-.03.07-.05.14-.09.2-.14.2-.14.11.12.35.12.54,0,.21-.14.3-.38.2-.55-.1-.16-.37-.19-.57-.05-.21.14-.29.38-.21.55,0,0-.04.04-.22.15h0c.04-.57.06-1.14.07-1.69.24-.09,1.45-.58,2.45-1.8,2.19-2.65,2.37-4.88,2.07-5.33-.05-.08-.13-.12-.21-.13-.31-.03-.76.43-1.05.73l-.07.08c-.29.29-2.06,2.76-2.6,4.55-.29.98-.48,1.43-.59,1.63.02-.92,0-1.81-.04-2.7.02-.04.05-.09.09-.14.13-.2.18-.24.18-.24.18.11.45.03.62-.2s.16-.54,0-.67c-.17-.13-.45-.04-.62.19-.15.21-.17.48-.05.62,0,0-.06.07-.17.22-.02.02-.03.04-.05.07-.03-.47-.06-.93-.11-1.4.54-.53,1.76-1.83,2.52-3.61,1-2.33.39-4.69.38-4.71,0-.02-.03-.04-.05-.05-.02,0-.05,0-.07.02,0,0-.72.84-1.51,2.41-.63,1.26-.83,2.38-1.01,3.38-.05.27-.09.52-.14.76-.07.34-.15.65-.21.93-.12-.96-.28-1.92-.48-2.87,0-.08,0-.19.05-.29.06-.15.19-.24.19-.24.15.08.38,0,.52-.19.16-.2.17-.48.02-.6-.15-.13-.42-.06-.58.14s-.16.47-.03.6c0,0-.12.08-.2.26,0,.02-.02.04-.02.06-.07-.3-.14-.6-.21-.89.33-.43,1.07-1.47,1.47-2.83.47-1.6.37-3.17.33-3.85v-.22c0-.27-.05-.38-.13-.42-.09-.04-.18.03-.3.13l-.02.02c-.23.18-.93,1.6-1.27,2.78-.24.83-.17,2.15-.12,3.02.02.36.04.64.02.78,0,.08-.03.17-.05.24-.23-.89-.5-1.79-.81-2.7.02-.03.05-.07.07-.1.06-.1.09-.14.09-.14.1.05.25-.02.34-.15.1-.15.09-.33-.02-.41s-.28-.02-.38.12-.09.32,0,.41c0,0,0,.04-.1.16,0,.02-.03.04-.04.05-.08-.24-.17-.49-.26-.73.19-.49.58-1.64.75-3.16.1-.86-.03-2.51-.77-3.23-.02-.02-.04-.02-.07-.02-.02,0-.04.03-.05.05-.41,1.72-.49,3.73-.19,4.89.11.42.15.75.16,1.01-.05-.13-.1-.26-.15-.39-.27-.7-.59-1.37-.96-1.99.02-.06.06-.15.08-.24.04-.15.05-.22.05-.22.15,0,.3-.14.36-.34.06-.22-.03-.45-.19-.49s-.36.1-.41.33c-.06.22.03.44.18.5,0,0,0,.05-.06.24-.02.06-.04.11-.06.15-.18-.3-.38-.59-.58-.87.07-.4.23-1.57.06-2.69-.21-1.39-1.05-2.08-1.08-2.11-.02-.01-.04-.02-.05,0-.02,0-.03.02-.04.04,0,.02-.09.61,0,1.58.07.77.3,1.36.5,1.87.05.14.11.27.15.39.07.2.13.38.18.54-.5-.63-1.05-1.2-1.63-1.67-.14-.23-.34-.52-.64-.8-1.29-1.18-2.37-1.35-2.6-1.22-.05.03-.08.07-.08.12-.02.15.15.35.35.56l.04.04c.15.16,1.31,1.1,2.19,1.44.49.19.7.3.79.35.44.41.84.84,1.2,1.29h-.21c-.02-.12-.16-.2-.32-.2-.17,0-.32.11-.32.25s.15.25.32.25.31-.11.32-.24h.25c.46.58.87,1.21,1.23,1.89-.12-.09-.26-.19-.4-.31-.1-.08-.2-.17-.31-.26-.4-.34-.86-.73-1.53-1.02-.85-.36-1.4-.45-1.42-.45-.03,0-.06,0-.07.03-.02.02-.02.05,0,.08.02.05.54,1.19,1.73,1.8.92.47,1.86.57,2.25.59.23.48.45,1,.65,1.55.02.07.05.13.07.2,0,0-.02,0-.04-.02-.11-.06-.16-.09-.16-.09.04-.12-.05-.29-.2-.37-.17-.1-.36-.07-.44.06-.07.13,0,.32.17.42s.36.07.44-.05c0,0,.04,0,.18.1.03.02.06.04.08.06.13.37.26.75.38,1.13-.33-.42-.83-1-1.5-1.59-.56-.48-1.77-1.18-2.63-.97-.02,0-.04.02-.05.05s0,.05,0,.07c1.01,1.12,2.38,2.14,3.32,2.47.53.19.84.38,1.02.52.07.25.15.5.22.76-.03-.03-.07-.06-.11-.08-.12-.08-.19-.13-.19-.13.06-.14-.02-.34-.2-.46-.19-.13-.42-.12-.52.02s-.02.38.16.52c.19.13.42.12.52,0,0,0,.05.02.2.13.09.07.14.12.17.16.25.94.46,1.89.64,2.85-.23-.52-.81-1.7-1.65-2.64-1.11-1.25-2.45-1.37-2.46-1.37-.02,0-.04,0-.05.03v.06s.3.67,1.02,1.59c.57.73,1.18,1.16,1.72,1.53.14.1.28.2.41.29.59.44,1.03.84,1.03.84,0,0,.03.02.04.02h0c.06.36.12.73.17,1.09-.03-.04-.06-.08-.09-.11-.11-.12-.17-.18-.17-.18.1-.14.06-.38-.1-.55-.17-.19-.43-.24-.57-.1-.14.14-.12.41.05.6s.42.23.57.12c0,0,.05.03.18.2.11.13.15.22.16.25.12.91.2,1.82.24,2.72-.12-.24-.26-.52-.4-.83-.09-.19-.17-.38-.26-.59-.33-.78-.7-1.66-1.45-2.57-.94-1.14-1.68-1.68-1.68-1.69-.02,0-.04-.02-.07,0-.02,0-.04.03-.04.05s-.18,1.74,1.07,3.46c.97,1.33,2.3,2.38,2.85,2.78.02.58.02,1.15,0,1.72-.03-.03-.06-.07-.09-.1-.11-.1-.17-.16-.17-.16.08-.13.02-.34-.13-.49-.17-.16-.41-.19-.52-.06-.12.13-.08.38.09.54.17.16.4.19.53.07,0,0,.04.03.18.17.06.06.09.11.12.14-.02.7-.05,1.39-.11,2.08-.08-.21-.18-.51-.3-.92-.43-1.46-1.8-3.51-2.02-3.76l-.06-.06c-.3-.34-.59-.65-.82-.63-.07,0-.13.04-.17.11-.21.35-.03,2.15,1.65,4.37.62.82,1.31,1.26,1.67,1.45-.05.49-.11.97-.19,1.46-.02.16-.05.32-.08.48-.02-.04-.04-.07-.06-.11-.09-.17-.14-.26-.14-.26.15-.13.17-.41.04-.66-.14-.27-.42-.4-.62-.29s-.25.43-.11.69c.14.27.41.39.61.31,0,0,.04.05.15.28.04.09.07.16.09.22-.21,1.21-.5,2.38-.86,3.52-.09-.32-.16-.79-.14-1.44.04-1.51-.74-3.92-1.9-5.85,0-.02-.03-.03-.06-.03-.02,0-.05,0-.06.03-.83,1.15-.46,3.19-.03,4.2.72,1.69,1.61,2.92,2.07,3.47-.49,1.48-1.11,2.89-1.85,4.22,0-.28-.02-.6-.02-.95v-.72c.03-.93.06-1.99-.27-3.26-.42-1.59-.91-2.49-.92-2.5,0-.02-.04-.04-.07-.04s-.05,0-.07.04c0,.02-.98,1.65-.51,3.97.34,1.7,1.13,3.29,1.52,4.02-.22.38-.45.75-.7,1.11v-.03c-.04-.15-.06-.22-.06-.22.14-.07.2-.28.15-.49-.06-.23-.24-.38-.41-.33s-.26.28-.21.5c.06.23.24.37.41.34,0,0,.02.05.07.24v.07c-.64.95-1.35,1.86-2.12,2.71.05-.24.14-.64.34-1.28.48-1.58.45-4.3.39-4.66v-.09c-.09-.48-.18-.97-.4-1.09-.07-.04-.15-.04-.23,0-.42.18-1.36,1.92-1.13,4.98.09,1.24.55,2.13.75,2.46-.45.48-.93.94-1.42,1.39v-.08c.03-.2.04-.29.04-.29.2,0,.38-.22.42-.49.05-.3-.09-.58-.32-.62-.22-.04-.45.18-.5.48s.09.57.3.63c0,0,0,.07-.04.32,0,.07-.03.12-.04.17-.29.25-.58.5-.88.74-.19.15-.43.34-.69.53.07-.26.15-.56.25-.88.07-.21.14-.43.22-.66.3-.86.63-1.84.7-3.13.09-1.62-.09-2.62-.09-2.63,0-.03-.03-.06-.06-.07-.03,0-.07,0-.09.02-.05.05-1.34,1.22-1.61,3.54-.19,1.64.03,3.33.17,4.18-.79.56-1.8,1.2-2.93,1.76.1-.21.27-.51.53-.94.8-1.3,1.25-3.81,1.26-4.16v-.09c0-.36.02-.9-.2-1.1-.06-.06-.14-.09-.23-.08-.48.03-1.8,1.34-2.1,4.22-.11,1.05.14,1.93.3,2.37-.15.07-.3.14-.45.2-.92.4-1.88.75-2.83,1.07.5-.27,1.01-.58,1.46-.92,1.22-.94,1.19-1.81.96-2.54-.63-.6-1.08-1.02-1.31-1.23s-.43-.55-1.11-.35-2.75.83-3.48,3.08c-.25.77-.32,1.68-.34,2.09h0c-.02-.42-.09-1.33-.34-2.09-.73-2.25-2.8-2.88-3.48-3.08s-.89.14-1.11.35c-.23.21-.67.64-1.31,1.23-.23.73-.26,1.6.96,2.54.77.59,1.7,1.09,2.48,1.45-1.82-.57-3.73-1.39-5.49-2.37v-.02l-.02-.35.46-1.04v-.02l.05-.49.02-.62-.03-.53v-.02l-.12-.43-.23-.75h0l-.29-.61v-.02l-.66-.79h-.01l-1.17-.94s-.05-.02-.08,0c-.03,0-.04.04-.05.06l-.12,1.1-.05.91.02.89h0l.26,1.34v.03l.88,1.36.02.02.44.36.28.34c-1.11-.64-2.16-1.34-3.09-2.08-.08-.06-.15-.12-.22-.18v-.4l.15-.27.12-.37.1-.32.08-.36.05-.48v-.34c0-.17.02-.57-.02-.65-.02-.05-.04-.35-.06-.64l-.15-.79v-.02l-.31-.72h0l-.65-1h-.01l-.92-.89s-.06-.03-.08-.02c-.03,0-.05.04-.05.07v.49l-.07.36-.19.77-.15,1.01v.02l.04.81v.02l.21.69.24.56.14.29.22.39.24.35.17.31v.02l.36.38.28.32v.18c-1.2-1-2.28-2.1-3.24-3.3.18-.04.42-.08.5-.05h0c-.03.15.12.3.26.34.12.03.19.02.22.02.17,0,.28-.05.31-.18.03-.12-.05-.23-.2-.31-.03-.02-.09-.06-.21-.09-.13-.03-.31.03-.37.16-.14-.04-.47.03-.57.06-.17-.22-.34-.43-.5-.66l.04-.13.14-.47.2-.22.22-.32.18-.28.17-.33.18-.45.09-.33c.05-.16.17-.55.15-.64,0-.05.05-.36.11-.64l.07-.81v-.02l-.11-.79h0l-.37-1.16h0l-.47-.8s-.03-.03-.05-.04c-.02,0-.04,0-.06.02l-.5.49v.02l-.4.7-.42.94h0l-.18.82v.02l.02.74.08.61.06.33.11.44.14.41.09.36v.02l.24.47.19.39-.12.4c-.87-1.21-1.62-2.51-2.26-3.89.02-.03.13-.13.29-.05.19.1.27.28.27.29h.03-.03c-.14.08-.14.32-.07.46.07.12.13.17.15.2.13.13.25.19.37.13.12-.07.13-.21.08-.39,0-.04,0-.12-.07-.24-.07-.13-.26-.24-.4-.19,0,0-.09-.2-.3-.32-.17-.09-.3,0-.35.04-.11-.23-.21-.46-.31-.7l.08-.16.15-.35.87-.73s.01,0,.01-.02l.27-.43.3-.57.22-.52h0l.1-.48.16-.84.04-.73v-1.36l-.03-.51-.12-.92-.1-.37s-.03-.05-.06-.05-.05,0-.07.03l-.66.82-.38.59-.33.59-.34.65-.23.55-.24.69-.17.72-.07.69v.02l.16,1.07h0l.19.59.07.5-.04.08c-.52-1.31-.94-2.68-1.25-4.11.02,0,.14-.08.25.03.13.13.16.29.16.29h.03-.03c-.13.04-.19.23-.15.36.03.12.07.17.08.2.08.14.17.21.27.19s.15-.14.15-.3c0-.03.02-.1,0-.22-.03-.12-.17-.25-.29-.24,0,0-.03-.19-.18-.33-.06-.06-.13-.08-.19-.07.11-.08.23-.16.29-.16h0c.02.13.2.19.32.17.1-.02.15-.05.18-.07.13-.07.2-.14.18-.25-.02-.1-.12-.16-.26-.17h-.19c-.11.02-.23.14-.23.25-.12.02-.32.17-.4.24-.1-.46-.19-.93-.27-1.4l.14-.18.22-.29.93-.49h.02l.34-.34.4-.47.32-.43h0l.2-.43.34-.75.21-.67.12-.44v-.02l.05-.85v-.02l-.11-.66s-.02-.04-.04-.05-.04,0-.06,0l-.59.26h-.01l-.82.55s-.01,0-.02.02l-.56.71-.69,1.21v.02l-.34,1.66v.02l.03.58-.06.48-.09.12c-.16-1.1-.27-2.21-.31-3.34.04.04.09.08.12.1-.03.1.05.23.14.27.08.04.14.05.16.06.12.03.22,0,.26-.08s0-.17-.1-.26c-.02-.02-.05-.06-.14-.1-.1-.05-.26-.04-.31.06h0s-.09-.06-.15-.13v-.07s.07,0,.11-.03c.16-.08.22-.23.23-.24.1.04.25-.04.31-.14.05-.09.05-.15.06-.18.04-.14.03-.24-.06-.29s-.18,0-.28.09c-.02.02-.07.06-.12.15-.06.1-.06.29.05.35h.02-.02s-.06.14-.21.21c-.03.02-.06.02-.09.02,0-.26-.01-.53-.02-.79h.01l.54-.74.28-.35.25-.12.29-.2.25-.18.26-.23.3-.32.18-.26c.1-.12.33-.41.34-.5.01-.04.16-.29.3-.52l.32-.67h0l.17-.73h0l.06-1.13h0l-.21-1.2s-.02-.05-.05-.05-.05,0-.07.02l-.28.36-.24.24-.56.47-.67.67h0l-.41.64h0l-.22.65-.13.56-.06.3-.05.42v.4l-.05.34v.02l.06.49.03.4-.53.7-.1.08c0-1.8.16-3.62.46-5.43.06.09.16.22.23.26-.03.1.04.23.12.28s.14.06.16.07c.12.03.22,0,.26-.07s0-.17-.08-.26c-.02-.02-.05-.06-.13-.11-.09-.06-.26-.05-.31.04h0s-.13-.12-.2-.22c.05.02.11.03.18,0,.16-.07.24-.21.24-.22.1.05.25-.02.31-.12.06-.09.06-.15.07-.18.04-.14.04-.24-.04-.3-.08-.06-.18-.02-.28.07-.02.02-.07.05-.13.14-.06.1-.07.28.02.35l.02.02h-.02s-.07.12-.22.19c-.09.04-.16,0-.2-.03.08-.47.17-.95.27-1.42l.16-.11.3-.21.22-.04.28-.09.24-.09.26-.12.31-.19.2-.16c.13-.09.36-.26.39-.32.02-.03.19-.19.35-.34l.41-.46h0l.29-.54h0l.3-.89h0l.1-1.01s-.01-.05-.03-.06h-.07l-.3.22-.24.13-.56.24-.68.37h-.01l-.47.4h-.01l-.32.47-.23.41-.11.23-.13.32-.1.31-.11.26v.02l-.07.4-.06.32-.24.14c.31-1.39.7-2.77,1.18-4.11.02.1.06.21.11.27-.06.08-.05.23.01.31s.1.11.13.12c.1.08.2.1.27.04s.07-.15.02-.27c-.01-.03-.02-.08-.08-.15-.07-.09-.22-.15-.3-.08h0s-.08-.19-.11-.32c.02-.07.05-.13.07-.2.03-.02.07-.03.12-.03.16.02.26.13.26.13l.02-.02-.02.02c-.08.09-.02.27.07.34.08.07.13.09.16.1.13.06.23.07.29,0s.04-.18-.04-.3c-.02-.02-.04-.08-.12-.15s-.25-.09-.33-.02c0,0-.12-.12-.29-.14h-.11c.09-.25.2-.5.31-.75l.27-.13.23-.1.78.04h.02l.34-.09.42-.15.35-.16h.01l.27-.2.47-.36.36-.35.22-.24v-.02l.2-.42.24-.6v-.06s-.03-.03-.05-.03l-.48-.06h-.01l-.73.04h-.02l-.61.25-.85.53s-.01,0-.02.02l-.76.95v.02l-.16.39-.19.29-.13.06c.5-1.05,1.15-2.09,1.89-3.04l.16-.03.38-.07h.02l.24-.11.31-.11.3-.13.21-.11.39-.23.43-.32h.01l.38-.48h0l.35-.7.22-.55.12-.24.21-.31s.02-.05,0-.07c-.01-.02-.04-.04-.06-.03l-.94.11h-.02l-.83.3h-.01l-.5.3h-.01l-.44.42c-.13.16-.28.33-.3.35-.07.04-.22.26-.3.39l-.16.21-.17.31-.11.26-.08.24-.09.29-.03.18c-.86,1.07-1.51,2.14-1.94,3.03h0l-.04-.33.14-.32.24-.35h0l.32-.7v-.02l.09-.49.03-.52-.03-.51-.05-.42-.1-.5-.11-.47-.15-.48-.28-.68s-.03-.04-.06-.04-.05.01-.06.03l-.14.24-.26.59-.12.34-.18.59-.09.32-.11.5-.06.6-.02.34h0l.05.41.09.45.1.34v.02l.44.67.04.27.12.52c-.03.07-.06.14-.09.21-.08.18-.15.37-.22.55-.11-.06-.23-.14-.25-.19h0c.08-.07.07-.23,0-.31-.05-.08-.1-.1-.12-.12-.1-.08-.18-.11-.25-.05s-.08.15-.04.27c0,.02.02.08.08.15.06.08.19.13.28.09.05.07.18.16.28.21-.4,1.02-.74,2.04-1.03,3.06l-.11-.41.08-.43.19-.5v-.02l.15-1.54v-.02l-.3-1.24v-.02l-.58-1.06h0l-.35-.4h0l-.59-.47s-.05-.02-.07,0c-.02,0-.04.03-.05.05l-.19.84-.19.96v.66l.12.74.07.42h0l.18.48.25.51.22.38v.02l.74.67.12.3.17.74h0c-.32,1.23-.56,2.47-.73,3.75l-.41-.58.05-.38.07-.47v-.02l-.03-.32v-.4l-.02-.4-.04-.29-.1-.55-.18-.63v-.02l-.37-.63h0l-.62-.69-.52-.47-.22-.24-.26-.37s-.05-.04-.07-.03c-.03,0-.05.03-.06.06l-.25,1.14v1.11h0l.13.71v.02l.29.67c.12.21.25.46.26.5,0,.09.22.39.31.5l.17.27.28.33.24.23.23.18.28.21.23.12.25.35.32.44c-.02.16-.04.33-.06.49-.1.02-.23.06-.29.11-.07-.07-.21-.05-.29,0-.07.06-.1.1-.12.12-.07.1-.09.19-.04.26s.14.07.26.02c.02,0,.07-.02.14-.08.08-.06.14-.21.08-.3h0s.15-.07.25-.1c-.14,1.34-.2,2.72-.19,4.17l-.18-.23-.06-.53.05-.65-.11-1.13v-.02l-.25-.69-.36-.69-.42-.63-.37-.49-.51-.56-.49-.51-.55-.5-.88-.65s-.05-.02-.07,0c-.02,0-.04.03-.04.06v.41l.11.96.1.53.22.89.14.48.24.73.38.81.22.45h0l.36.48.46.5.38.36h.02l1.07.51.56.7c.02.9.07,1.82.14,2.78.04.56.11,1.12.2,1.69l-.33-.28-.14-.5-.04-.64h0l-.28-1.1v-.02l-.36-.62-.47-.6-.53-.53-.46-.4-.61-.44-.58-.39-.64-.37-.63-.25h-.03s-.03.04-.03.06l.04.7.04.54.12.56H.2l.27.65.21.44.35.67.51.71.3.39h0l.44.39.55.39.45.27h.02l1.19.26.3.25.48.43c.38,2.06,1.04,4.15,1.94,6.13l-.7-.46-.12-.47-.12-.58v-.02l-.17-.36-.17-.46-.21-.45-.18-.31-.36-.58-.49-.63h-.01l-.71-.56h0l-1.01-.48-.81-.3-.36-.17-.46-.3h-.07s-.03.04-.03.07l.22,1.43h0l.49,1.25h0l.46.75h0l.63.65c.24.19.5.41.53.45.06.1.46.35.57.43l.32.22.46.24.38.15.34.1.42.11.32.04.45.29.62.38s.03.05.04.08c-.13,0-.3.03-.38.08-.08-.1-.26-.11-.37-.05-.1.06-.15.11-.17.13-.11.11-.15.23-.1.33.05.1.17.11.32.08.03,0,.09,0,.2-.07.12-.06.22-.24.15-.36h0s.16-.06.28-.07c-.05.02-.1.06-.14.13-.11.19-.08.39-.08.4-.13.03-.23.21-.23.35,0,.13.05.19.06.23.05.17.13.27.25.26s.19-.12.23-.29c0-.04.03-.1.02-.23,0-.15-.13-.33-.28-.33h-.03.03s-.03-.18.07-.36c.06-.11.15-.12.2-.12l.3.6c.66,1.26,1.41,2.44,2.23,3.52l-.34-.1-.34-.39-.31-.55h0l-.71-.87h-.01l-.59-.42-.67-.35-.69-.27-.58-.19-.72-.16-.68-.13-.72-.09-1.07-.02s-.05,0-.07.04v.08l.22.34.62.72.37.37.67.6.38.31.59.46.75.44.43.24h.01l.55.17.65.14.51.07h.02l1.15-.21.37.11.56.18h.03c.15.19.31.37.46.56,0,.06-.04.12-.11.18-.19.14-.41.13-.41.13v.04-.04c0-.18-.24-.31-.41-.3-.15,0-.23.04-.27.06-.19.07-.31.16-.31.31s.14.23.33.28c.04,0,.12.05.27.05.16,0,.36-.15.38-.32.01,0,.24,0,.45-.14.05-.03.08-.07.1-.11.02.14.03.27,0,.33h0c-.16-.04-.32.14-.36.29-.03.14-.02.22-.02.26,0,.19.06.32.19.36.13.03.25-.05.34-.22.02-.03.06-.1.1-.24.03-.14-.03-.36-.17-.42.03-.09.02-.24,0-.37,1.11,1.27,2.32,2.38,3.62,3.29.07.05.14.1.21.14l-1,.07-.4-.34-.48-.43h-.01l-.38-.21-.44-.29-.48-.26-.36-.16-.69-.28-.84-.23h-1.02l-1.21.25-.91.27-.43.09-.6.05s-.05.02-.06.05,0,.06.02.08l1.11,1.13h.01l1.23.79h.01l.89.35h.02l.97.15c.34,0,.71.03.76.05.04.02.13.03.24.03.19,0,.42-.02.54-.03h.42l.57-.11.43-.12.37-.14.44-.18.31-.18.59-.04.78-.07c1.46,1,2.75,1.8,4.04,2.46l-.23.02-.53-.08-.28-.19-.4-.19-.35-.16-.4-.14-.53-.12-.38-.04c-.19-.03-.63-.1-.74-.06h-.73l-.9.07h-.02l-.85.27h-.01l-1.2.65h-.01l-1.11.98s-.03.05-.02.08c0,.03.03.05.06.05l.55.08.4.11.85.32,1.11.31h.02l.92.05h.02l.81-.17.66-.21.35-.13.46-.21.42-.24.38-.17h.02l.47-.37.4-.29,1.07.15h.03l.31-.09h0c1.23.58,2.49,1.06,3.94,1.5-.76.11-1.55.33-2.24.56-.11-.21-.18-.34-.18-.34,0,0-1.88.53-2.37.81,0,.15-.02.36-.05.61-.04.02-.08.04-.11.06-.57.31-.62.42-.61.52,0,.14-.08.33-.15.49-.09.2-.15.35-.04.44.03.03.07.04.12.04.09,0,.19-.06.25-.09.1-.06.23-.12.37-.2-.16,1.01-.39,2.25-.66,3.43,1.07-.97,1.45-1.13,1.45-1.13l1.04,1.22s0-.82.16-2.24h0c.25.87.56.87.99.87s1.51-.14,1.51-.14c.36-.21,1.82-1.86,2.45-3.23.33.08.72.1,1.09.03.7,1.21,2.01,2.85,2.34,3.04h1.77c.09,0,.16-.01.23-.04.1.98.13,1.48.13,1.48l1.11-1.15s.37.19,1.38,1.22c-.2-1.27-.58-2.49-.86-3.45.18.08.31.15.39.2.13.09.23.15.32.15.03,0,.06,0,.09-.03.11-.07.09-.2.05-.37-.03-.14-.06-.34-.05-.58,0-.04,0-.08-.04-.1-.11-.11-.51-.29-1.06-.51-.02-.14-.03-.25-.03-.35-.37-.23-1.92-.77-1.92-.77,0,0-.03.13-.12.39-.86-.28-1.78-.56-2.56-.77,1.74-.51,3.45-1.13,4.99-1.82.84.35,2.7,1.02,5.08,1.29.21.02.48.04.78.04.55,0,1.21-.05,1.88-.2.81-.18,1.92-.55,2.57-1.35.02-.03.03-.06.02-.09s-.04-.06-.07-.06c-2.82-.73-6.1-.83-7.97-.25-.71.22-1.26.31-1.68.33.95-.46,1.86-1,2.69-1.53.06,0,.14.02.22,0h.22c.03.15.2.26.4.26.22,0,.4-.14.4-.31s-.18-.32-.4-.32-.39.14-.41.3h-.33c.55-.35,1.06-.7,1.52-1.02,0,0,.03-.02.04-.03.39.16,1.24.44,2.38.44.17,0,.35,0,.53-.02,3.56-.28,5.43-1.69,5.58-2.21.03-.09,0-.18-.04-.26-.18-.23-.74-.25-1.31-.25h-.11c-.44,0-3.57.45-5.33,1.3-.37.18-.67.32-.92.42.83-.65,1.62-1.38,2.37-2.18.07,0,.17,0,.27-.03.16-.03.23-.04.23-.04.05.15.26.24.48.21.24-.04.41-.22.39-.41-.03-.19-.25-.31-.49-.27s-.4.22-.4.4c0,0-.05.02-.25.05h-.15c.3-.33.59-.66.87-1.01.33.04.85.09,1.48.09.75,0,1.65-.07,2.51-.3,2.07-.57,2.99-2.32,2.99-2.33v-.08s-.04-.04-.06-.04c-.04,0-.94-.11-2.41.17-1.17.22-2.01.74-2.75,1.19-.2.12-.39.24-.57.34-.26.14-.5.27-.72.38.46-.61.9-1.25,1.31-1.92.08-.02.18-.04.28-.08.18-.07.27-.1.27-.1.09.18.36.24.62.16.28-.09.46-.35.39-.57s-.37-.33-.65-.23c-.28.09-.45.35-.4.56,0,0-.06.03-.29.11-.06.02-.1.03-.15.04.27-.45.54-.91.79-1.39.23.06.64.15,1.16.15.31,0,.65-.03,1.02-.11,2.67-.59,3.69-2.35,3.71-2.75,0-.08-.02-.15-.08-.2-.19-.17-.67-.1-1-.06h-.08c-.37.06-2.56,1.2-3.67,2.01-.41.3-.69.48-.88.6.25-.49.48-.98.7-1.49.06-.03.17-.09.27-.15.14-.1.21-.14.21-.14.12.13.36.12.55,0,.21-.14.31-.4.2-.57s-.38-.19-.59-.05-.3.39-.22.56c0,0-.04.04-.22.15-.06.04-.11.06-.15.08.15-.35.29-.7.42-1.05.16-.06.73-.29,1.47-.73,1.03-.6,2.12-1.31,3.18-2.4,1.11-1.14,1.35-2,1.36-2.04v-.06s-.03-.03-.05-.03v-.16h-.01ZM28.55,61.37c.5-.49,1.32-.95,2.16-1.3,0,.27-.14.61-.74,1.49-.48.7-1.73,1.6-2.28,1.98-.03-.06-.07-.12-.11-.16-.12-.13-.26-.2-.41-.25.23-.36.74-1.13,1.39-1.76h0ZM22.69,61.56c-.6-.87-.73-1.22-.74-1.49.84.35,1.66.81,2.16,1.3.64.62,1.16,1.4,1.4,1.78-.13.04-.26.1-.38.21-.08.07-.15.16-.2.26-.53-.4-1.75-1.37-2.24-2.07h0ZM22.67,67.45c-.13-.35-.25-.68-.36-.92-.08-.17-.16-.34-.24-.5.66-.23,1.24-.41,1.58-.47.33-.06.67-.12,1.01-.19v.02h0c-.59.7-1.55,1.78-1.98,2.05h-.01ZM28.09,65.58c.52.12,1.3.37,2.1.64-.12.26-.26.63-.39,1.02-.39-.24-1.15-1.04-1.72-1.67h.01,0Z"/>
  </g>
</svg>