<?xml version="1.0" encoding="UTF-8"?>
<svg id="Capa_1" xmlns="http://www.w3.org/2000/svg" version="1.1" viewBox="0 0 436.89 90.93">
  <!-- Generator: Adobe Illustrator 29.8.6, SVG Export Plug-In . SVG Version: 2.1.1 Build 1)  -->
  <defs>
    <style>
      .st0 {
        fill: #ffe10e;
      }

      .st1 {
        fill: #29438f;
      }

      .st2 {
        fill: #0f632d;
      }

      .st3 {
        fill: #587800;
      }

      .st4 {
        fill: #93c804;
      }

      .st5 {
        fill: #fff;
      }

      .st6, .st7 {
        fill: #010202;
      }

      .st8 {
        fill: #dea906;
      }

      .st9 {
        fill: #109038;
      }

      .st10 {
        fill: #3d3d3b;
      }

      .st11 {
        fill: #0198b6;
      }

      .st12 {
        fill: #1986c8;
      }

      .st7 {
        fill-rule: evenodd;
      }

      .st13 {
        fill: #c79806;
      }
    </style>
  </defs>
  <rect class="st1" x="148.53" y="19.92" width=".88" height="32.79"/>
  <g>
    <g>
      <path class="st10" d="M214.24,21.02h2.55c2.54,0,3.8,1.66,3.8,3.44v.21c0,1.7-1.26,3.47-3.8,3.47h-2.55v-7.13h0ZM215.61,22.29v4.58h1.26c1.46,0,2.33-.95,2.33-2.31s-.87-2.28-2.33-2.28h-1.26Z"/>
      <path class="st10" d="M221.95,23.87h-.73v-1h2.07v5.24h-1.34v-4.23h0ZM221.67,21.51c0-.42.24-.72.77-.72s.76.3.76.72-.24.73-.76.73-.77-.31-.77-.73Z"/>
      <path class="st10" d="M224.83,22.87h1.06v1.71c.13-1.17.77-1.77,1.87-1.77h.19v1.17h-.37c-.91,0-1.42.5-1.42,1.41v2.73h-1.34v-5.24h0Z"/>
      <path class="st10" d="M228.46,25.58v-.18c0-1.39.91-2.71,2.63-2.71s2.58,1.26,2.58,2.64v.48h-3.94c.09.82.53,1.37,1.42,1.37.65,0,1.08-.3,1.2-.68h1.23c-.23,1.08-1.14,1.79-2.43,1.79-1.8,0-2.69-1.37-2.69-2.71ZM229.76,24.99h2.63c-.11-.75-.54-1.2-1.29-1.2s-1.21.44-1.34,1.2h0Z"/>
      <path class="st10" d="M234.44,25.59v-.18c0-1.4.91-2.72,2.66-2.72,1.37,0,2.36.85,2.45,2.1h-1.3c-.07-.54-.46-.95-1.15-.95-.9,0-1.32.68-1.32,1.65s.4,1.64,1.33,1.64c.69,0,1.12-.41,1.19-.97h1.3c-.08,1.28-1.11,2.13-2.49,2.13-1.8,0-2.67-1.36-2.67-2.7Z"/>
      <path class="st10" d="M240.32,25.59v-.18c0-1.4.91-2.72,2.66-2.72,1.37,0,2.36.85,2.45,2.1h-1.3c-.07-.54-.46-.95-1.15-.95-.9,0-1.32.68-1.32,1.65s.4,1.64,1.33,1.64c.69,0,1.12-.41,1.19-.97h1.3c-.08,1.28-1.11,2.13-2.49,2.13-1.8,0-2.67-1.36-2.67-2.7Z"/>
      <path class="st10" d="M246.8,23.87h-.73v-1h2.07v5.24h-1.34v-4.23h0ZM246.52,21.51c0-.42.24-.72.77-.72s.76.3.76.72-.24.73-.76.73-.77-.31-.77-.73Z"/>
      <path class="st10" d="M249.33,25.6v-.2c0-1.44,1.08-2.71,2.87-2.71s2.86,1.27,2.86,2.71v.2c0,1.39-1.02,2.69-2.86,2.69s-2.87-1.3-2.87-2.69ZM253.71,25.49c0-.95-.57-1.66-1.51-1.66s-1.52.7-1.52,1.66.54,1.65,1.52,1.65,1.51-.7,1.51-1.65ZM252.39,20.23h1.38l-1.09,1.98h-1.15l.86-1.98h0Z"/>
      <path class="st10" d="M256.22,22.87h1.06v1.29c.22-.96.82-1.46,1.79-1.46h.06c1.24,0,1.9.81,1.9,2.4v3h-1.34v-3.12c0-.65-.4-1.08-1.03-1.08s-1.1.44-1.1,1.12v3.08h-1.34v-5.24h0Z"/>
      <path class="st10" d="M214.24,32.02h2.25l2.96,5.9h.13v-5.9h1.29v7.04h-2.26l-2.96-5.9h-.14v5.9h-1.27v-7.04Z"/>
      <path class="st10" d="M222.07,37.51c0-1.15.9-1.68,2.3-1.68h1.07v-.05c0-.6-.3-.9-.91-.9-.48,0-1.33.03-1.87.07v-1.14c.44-.04,1.11-.07,1.63-.07,1.61,0,2.43.61,2.43,2.06v3.25h-1.06v-1c-.23.74-.8,1.14-1.69,1.14-1.15,0-1.9-.62-1.9-1.69h0ZM225.44,37.12v-.49h-1.09c-.61,0-.95.33-.95.81s.34.8.95.8c.55,0,1.05-.26,1.09-1.12Z"/>
      <path class="st10" d="M227.81,36.54v-.18c0-1.4.91-2.72,2.66-2.72,1.37,0,2.36.85,2.45,2.1h-1.3c-.07-.54-.46-.95-1.15-.95-.9,0-1.32.68-1.32,1.65s.4,1.64,1.33,1.64c.69,0,1.12-.41,1.19-.97h1.3c-.08,1.28-1.11,2.13-2.49,2.13-1.8,0-2.67-1.36-2.67-2.7Z"/>
      <path class="st10" d="M234.29,34.83h-.73v-1h2.07v5.24h-1.34v-4.23h0ZM234.01,32.46c0-.42.24-.72.77-.72s.76.3.76.72-.24.73-.76.73-.77-.31-.77-.73Z"/>
      <path class="st10" d="M236.82,36.55v-.2c0-1.44,1.08-2.71,2.87-2.71s2.86,1.27,2.86,2.71v.2c0,1.39-1.02,2.69-2.86,2.69s-2.87-1.3-2.87-2.69ZM241.2,36.45c0-.95-.57-1.66-1.51-1.66s-1.52.7-1.52,1.66.54,1.65,1.52,1.65,1.51-.7,1.51-1.65Z"/>
      <path class="st10" d="M243.71,33.82h1.06v1.29c.22-.96.82-1.46,1.79-1.46h.06c1.24,0,1.9.81,1.9,2.4v3h-1.34v-3.12c0-.65-.4-1.08-1.03-1.08s-1.1.44-1.1,1.12v3.08h-1.34v-5.24h0Z"/>
      <path class="st10" d="M249.54,37.51c0-1.15.9-1.68,2.3-1.68h1.07v-.05c0-.6-.3-.9-.91-.9-.48,0-1.33.03-1.87.07v-1.14c.44-.04,1.11-.07,1.63-.07,1.61,0,2.43.61,2.43,2.06v3.25h-1.06v-1c-.23.74-.8,1.14-1.69,1.14-1.15,0-1.9-.62-1.9-1.69h0ZM252.91,37.12v-.49h-1.09c-.61,0-.95.33-.95.81s.34.8.95.8c.55,0,1.05-.26,1.09-1.12Z"/>
      <path class="st10" d="M255.69,33.02h-.66v-1h2v7.04h-1.34v-6.04Z"/>
      <path class="st10" d="M260.3,36.55v-.2c0-1.5.98-2.69,2.48-2.69.75,0,1.37.3,1.75.91v-2.55h1.34v7.04h-1.06v-1.1c-.37.85-1.1,1.27-1.99,1.27-1.48,0-2.52-1.16-2.52-2.68h0ZM264.56,36.6v-.39c0-.92-.69-1.43-1.45-1.43-.87,0-1.48.67-1.48,1.67s.62,1.65,1.48,1.65c.79,0,1.45-.56,1.45-1.5Z"/>
      <path class="st10" d="M267.04,36.53v-.18c0-1.39.91-2.71,2.63-2.71s2.58,1.26,2.58,2.64v.48h-3.94c.09.82.53,1.37,1.42,1.37.65,0,1.08-.3,1.2-.68h1.23c-.23,1.08-1.14,1.79-2.43,1.79-1.8,0-2.69-1.37-2.69-2.71h0ZM268.33,35.94h2.63c-.11-.75-.54-1.2-1.29-1.2s-1.21.44-1.34,1.2Z"/>
      <path class="st10" d="M214.24,42.97h4.26v1.16h-2.92v1.73h2.75v1.16h-2.75v1.84h3v1.16h-4.34v-7.04h0Z"/>
      <path class="st10" d="M219.4,47.51v-.2c0-1.5.98-2.69,2.48-2.69.75,0,1.37.3,1.75.91v-2.55h1.34v7.04h-1.06v-1.1c-.37.85-1.1,1.27-1.99,1.27-1.48,0-2.52-1.16-2.52-2.68h0ZM223.67,47.55v-.39c0-.92-.68-1.43-1.45-1.43-.87,0-1.48.67-1.48,1.67s.62,1.65,1.48,1.65c.79,0,1.45-.56,1.45-1.5Z"/>
      <path class="st10" d="M226.37,47.81v-3.04h1.34v3.15c0,.65.4,1.05,1,1.05s1.05-.42,1.05-1.11v-3.1h1.34v5.25h-1.06v-1.22c-.22.92-.8,1.38-1.72,1.38h-.06c-1.22,0-1.9-.8-1.9-2.37h0Z"/>
      <path class="st10" d="M232.3,47.5v-.18c0-1.4.91-2.72,2.66-2.72,1.37,0,2.36.85,2.45,2.1h-1.3c-.07-.54-.46-.95-1.15-.95-.9,0-1.32.68-1.32,1.65s.4,1.64,1.33,1.64c.69,0,1.12-.41,1.19-.97h1.3c-.08,1.28-1.11,2.13-2.49,2.13-1.8,0-2.67-1.36-2.67-2.7Z"/>
      <path class="st10" d="M238.11,48.46c0-1.15.9-1.68,2.3-1.68h1.07v-.05c0-.6-.3-.9-.91-.9-.48,0-1.33.03-1.87.07v-1.14c.44-.04,1.11-.07,1.63-.07,1.61,0,2.43.61,2.43,2.06v3.25h-1.06v-1c-.23.74-.8,1.14-1.69,1.14-1.15,0-1.9-.62-1.9-1.69h0ZM241.48,48.08v-.49h-1.09c-.61,0-.95.33-.95.81s.34.8.95.8c.55,0,1.05-.26,1.09-1.12Z"/>
      <path class="st10" d="M243.85,47.5v-.18c0-1.4.91-2.72,2.66-2.72,1.37,0,2.36.85,2.45,2.1h-1.3c-.07-.54-.46-.95-1.15-.95-.9,0-1.32.68-1.32,1.65s.4,1.64,1.33,1.64c.69,0,1.12-.41,1.19-.97h1.3c-.08,1.28-1.11,2.13-2.49,2.13-1.8,0-2.67-1.36-2.67-2.7Z"/>
      <path class="st10" d="M250.33,45.78h-.73v-1h2.07v5.24h-1.34v-4.23h0ZM250.05,43.42c0-.42.24-.72.77-.72s.76.3.76.72-.24.73-.76.73-.77-.31-.77-.73Z"/>
      <path class="st10" d="M252.86,47.51v-.2c0-1.44,1.08-2.71,2.87-2.71s2.86,1.27,2.86,2.71v.2c0,1.39-1.02,2.69-2.86,2.69s-2.87-1.3-2.87-2.69ZM257.24,47.4c0-.95-.57-1.66-1.51-1.66s-1.52.7-1.52,1.66.54,1.65,1.52,1.65,1.51-.7,1.51-1.65ZM255.92,42.13h1.38l-1.09,1.98h-1.15l.86-1.98Z"/>
      <path class="st10" d="M259.75,44.78h1.06v1.29c.22-.96.82-1.46,1.79-1.46h.06c1.24,0,1.9.81,1.9,2.4v3h-1.34v-3.12c0-.65-.4-1.08-1.03-1.08s-1.1.44-1.1,1.12v3.08h-1.34v-5.24h0Z"/>
    </g>
    <g>
      <polygon class="st11" points="202.6 24.06 202.6 19.42 188.66 19.42 184.02 19.42 184.02 24.06 184.02 28.72 184.02 33.35 184.02 38.01 184.02 42.65 188.66 42.65 202.6 42.65 202.6 38.01 188.66 38.01 188.66 33.35 202.6 33.35 202.6 28.72 188.66 28.72 188.66 24.06 202.6 24.06"/>
      <path class="st8" d="M172.4,19.42c-3.87,0-7,3.13-7,7s3.13,7,7,7,7-3.13,7-7-3.13-7-7-7ZM172.4,28.76c-1.29,0-2.34-1.05-2.34-2.34s1.05-2.34,2.34-2.34,2.34,1.05,2.34,2.34-1.05,2.34-2.34,2.34Z"/>
      <rect class="st11" x="165.4" y="38.02" width="14" height="4.67"/>
      <rect class="st11" x="165.4" y="47.34" width="37.21" height="4.67"/>
    </g>
  </g>
  <g>
    <path class="st1" d="M65.5,21.01h2.23l1.65,4.04h.19l1.63-4.04h2.27v7.2h-1.6v-5.55l-1.68,4.09h-1.54l-1.67-4.05v5.51h-1.48v-7.2Z"/>
    <path class="st1" d="M75.23,23.97h-.72v-1.16h2.3v5.41h-1.58v-4.24h0ZM74.97,21.46c0-.48.28-.83.87-.83s.87.35.87.83-.28.82-.87.82-.87-.34-.87-.82Z"/>
    <path class="st1" d="M78.26,22.81h1.25v1.38c.22-1.04.84-1.55,1.83-1.55h.07c1.25,0,1.94.82,1.94,2.49v3.09h-1.58v-3.18c0-.58-.36-.99-.95-.99s-.99.41-.99,1.02v3.15h-1.58v-5.41h0Z"/>
    <path class="st1" d="M84.94,23.97h-.72v-1.16h2.3v5.41h-1.58v-4.24h0ZM84.69,21.46c0-.48.28-.83.87-.83s.87.35.87.83-.28.82-.87.82-.87-.34-.87-.82Z"/>
    <path class="st1" d="M87.53,26.57h1.4c.05.34.4.66,1.12.66.54,0,.96-.19.96-.55,0-.32-.24-.5-.95-.58l-.42-.04c-1.29-.14-1.95-.75-1.95-1.68,0-1.14.94-1.74,2.24-1.74,1.39,0,2.31.63,2.36,1.79h-1.4c-.05-.35-.37-.63-.98-.63-.49,0-.8.2-.8.51s.24.45.8.51l.42.04c1.32.15,2.1.76,2.1,1.75,0,1.08-.94,1.77-2.41,1.77s-2.45-.66-2.5-1.8h.01Z"/>
    <path class="st1" d="M93.62,26.1v-2.14h-.82v-1.15h.82v-1.46h1.47v1.46h1.58v1.15h-1.58v2.2c0,.5.28.79.78.79h.8v1.33h-.76c-1.63,0-2.29-.54-2.29-2.18Z"/>
    <path class="st1" d="M97.38,25.61v-.2c0-1.44.99-2.79,2.75-2.79s2.69,1.31,2.69,2.77v.53h-3.96c.11.73.52,1.19,1.32,1.19.57,0,.96-.24,1.08-.58h1.45c-.24,1.1-1.18,1.86-2.54,1.86-1.84,0-2.81-1.4-2.81-2.79h.02ZM98.89,25.03h2.43c-.1-.72-.5-1.12-1.18-1.12s-1.11.39-1.24,1.12h-.01Z"/>
    <path class="st1" d="M103.86,22.81h1.25v1.83c.13-1.22.77-1.9,1.87-1.9h.21v1.36h-.4c-.88,0-1.36.49-1.36,1.36v2.75h-1.58v-5.41h.01Z"/>
    <path class="st1" d="M108.26,23.97h-.72v-1.16h2.3v5.41h-1.58v-4.24h0ZM108.01,21.46c0-.48.28-.83.87-.83s.87.35.87.83-.28.82-.87.82-.87-.34-.87-.82Z"/>
    <path class="st1" d="M110.96,25.64v-.23c0-1.53,1.13-2.79,2.97-2.79s2.98,1.26,2.98,2.79v.23c0,1.47-1.08,2.76-2.98,2.76s-2.97-1.29-2.97-2.76ZM115.33,25.53c0-.92-.51-1.58-1.4-1.58s-1.39.66-1.39,1.58.48,1.54,1.39,1.54,1.4-.65,1.4-1.54Z"/>
    <path class="st1" d="M65.07,36.84v-.23c0-1.57.99-2.77,2.5-2.77.78,0,1.38.31,1.75.9v-2.54h1.59v7.2h-1.25v-1.13c-.35.85-1.08,1.31-2.02,1.31-1.52,0-2.56-1.17-2.56-2.74h-.01ZM69.36,36.86v-.37c0-.86-.64-1.34-1.34-1.34-.8,0-1.37.64-1.37,1.57s.58,1.54,1.38,1.54c.73,0,1.33-.51,1.33-1.4Z"/>
    <path class="st1" d="M72,36.8v-.2c0-1.44.99-2.79,2.75-2.79s2.69,1.31,2.69,2.77v.53h-3.96c.11.73.52,1.19,1.32,1.19.57,0,.96-.24,1.08-.58h1.45c-.24,1.1-1.18,1.86-2.54,1.86-1.84,0-2.81-1.4-2.81-2.79h.02ZM73.51,36.22h2.43c-.1-.72-.5-1.12-1.18-1.12s-1.11.39-1.24,1.12h-.01Z"/>
    <path class="st1" d="M80.64,32.21h4.46v1.34h-2.88v1.53h2.72v1.34h-2.72v1.65h2.95v1.34h-4.53v-7.2Z"/>
    <path class="st1" d="M85.94,36.84v-.23c0-1.57.99-2.77,2.5-2.77.78,0,1.38.31,1.75.9v-2.54h1.59v7.2h-1.25v-1.13c-.35.85-1.08,1.31-2.02,1.31-1.52,0-2.56-1.17-2.56-2.74h-.01ZM90.23,36.86v-.37c0-.86-.64-1.34-1.34-1.34-.8,0-1.37.64-1.37,1.57s.58,1.54,1.38,1.54c.73,0,1.33-.51,1.33-1.4Z"/>
    <path class="st1" d="M93.08,37.14v-3.14h1.58v3.22c0,.58.36.95.91.95s.96-.38.96-.99v-3.18h1.58v5.41h-1.25v-1.26c-.23.97-.82,1.43-1.76,1.43h-.07c-1.24,0-1.94-.8-1.94-2.44,0,0-.01,0-.01,0Z"/>
    <path class="st1" d="M99.22,36.81v-.19c0-1.47.96-2.81,2.75-2.81,1.45,0,2.49.91,2.57,2.22h-1.55c-.05-.48-.39-.87-1.02-.87-.8,0-1.17.63-1.17,1.56s.34,1.52,1.18,1.52c.63,0,.99-.35,1.06-.9h1.54c-.07,1.34-1.14,2.25-2.6,2.25-1.86,0-2.76-1.37-2.76-2.78Z"/>
    <path class="st1" d="M105.16,37.81c0-1.19.99-1.72,2.44-1.72h.98v-.02c0-.55-.26-.83-.83-.83-.44,0-1.38.04-1.98.08v-1.33c.45-.04,1.21-.08,1.78-.08,1.66,0,2.56.68,2.56,2.18v3.31h-1.25v-1.02c-.25.75-.82,1.15-1.73,1.15-1.16,0-1.95-.64-1.95-1.74,0,0-.02.02-.02.02ZM108.57,37.41v-.43h-.99c-.55,0-.86.3-.86.75s.31.73.86.73c.51,0,.95-.24.99-1.05Z"/>
    <path class="st1" d="M111.09,36.81v-.19c0-1.47.96-2.81,2.75-2.81,1.45,0,2.49.91,2.57,2.22h-1.55c-.05-.48-.39-.87-1.02-.87-.8,0-1.17.63-1.17,1.56s.34,1.52,1.18,1.52c.63,0,.99-.35,1.06-.9h1.54c-.07,1.34-1.14,2.25-2.6,2.25-1.86,0-2.76-1.37-2.76-2.78h0Z"/>
    <path class="st1" d="M117.7,35.17h-.72v-1.16h2.3v5.41h-1.58v-4.24h0ZM117.45,32.65c0-.48.28-.83.87-.83s.87.35.87.83-.28.82-.87.82-.87-.34-.87-.82Z"/>
    <path class="st1" d="M120.4,36.83v-.23c0-1.53,1.13-2.79,2.97-2.79s2.98,1.26,2.98,2.79v.23c0,1.47-1.08,2.76-2.98,2.76s-2.97-1.29-2.97-2.76ZM124.77,36.73c0-.92-.51-1.58-1.4-1.58s-1.39.66-1.39,1.58.48,1.54,1.39,1.54,1.4-.65,1.4-1.54ZM123.48,31.31h1.63l-1.13,2.06h-1.38l.89-2.06h-.01Z"/>
    <path class="st1" d="M127.45,34h1.25v1.38c.22-1.04.84-1.55,1.83-1.55h.07c1.25,0,1.94.82,1.94,2.49v3.09h-1.58v-3.18c0-.58-.36-.99-.95-.99s-.99.41-.99,1.02v3.15h-1.58v-5.41h0Z"/>
    <path class="st1" d="M64.74,45.2h1.59l1.19,4.05h.2l.99-4.05h1.5l-1.51,5.84c-.33,1.27-.95,1.71-2.38,1.71h-.97v-1.34h1.13c.5,0,.76-.17.9-.68l.05-.24h-1.03s-1.66-5.29-1.66-5.29Z"/>
    <path class="st1" d="M72.8,47.09v-.22c0-1.79,1.14-3.69,3.64-3.69,1.96,0,3.28,1.16,3.45,2.89h-1.63c-.14-.86-.85-1.38-1.83-1.38-1.28,0-2,.93-2,2.3s.73,2.29,2.05,2.29c1,0,1.75-.51,1.89-1.37h1.62c-.18,1.59-1.45,2.88-3.51,2.88-2.6,0-3.69-2.07-3.69-3.7h.01Z"/>
    <path class="st1" d="M80.86,48.34v-3.14h1.58v3.22c0,.58.36.95.91.95s.96-.38.96-.99v-3.18h1.58v5.41h-1.25v-1.26c-.23.97-.82,1.43-1.76,1.43h-.07c-1.24,0-1.94-.8-1.94-2.44,0,0-.01,0-.01,0Z"/>
    <path class="st1" d="M87.4,44.57h-.64v-1.16h2.23v7.2h-1.59s0-6.04,0-6.04Z"/>
    <path class="st1" d="M90.6,48.49v-2.14h-.82v-1.15h.82v-1.46h1.47v1.46h1.58v1.15h-1.58v2.2c0,.5.28.79.78.79h.8v1.33h-.76c-1.63,0-2.29-.54-2.29-2.18Z"/>
    <path class="st1" d="M94.59,48.34v-3.14h1.58v3.22c0,.58.36.95.91.95s.96-.38.96-.99v-3.18h1.58v5.41h-1.25v-1.26c-.23.97-.82,1.43-1.76,1.43h-.07c-1.24,0-1.94-.8-1.94-2.44,0,0-.01,0-.01,0Z"/>
    <path class="st1" d="M101.06,45.2h1.25v1.83c.13-1.22.77-1.9,1.87-1.9h.21v1.36h-.4c-.88,0-1.36.49-1.36,1.36v2.75h-1.58v-5.41h.01Z"/>
    <path class="st1" d="M104.77,49.01c0-1.19.99-1.72,2.44-1.72h.98v-.02c0-.55-.26-.83-.83-.83-.44,0-1.38.04-1.98.08v-1.33c.45-.04,1.21-.08,1.78-.08,1.66,0,2.56.68,2.56,2.18v3.31h-1.25v-1.02c-.25.75-.82,1.15-1.73,1.15-1.16,0-1.95-.64-1.95-1.74,0,0-.02.02-.02.02ZM108.18,48.6v-.43h-.99c-.55,0-.86.3-.86.75s.31.73.86.73c.51,0,.95-.24.99-1.05Z"/>
    <g>
      <path class="st1" d="M30.34,66.2c-.12.26-.26.64-.39,1.03-.32.93-.61,1.98-.61,1.98h1.78c.09,0,.16-.01.23-.04-.1-.97-.25-2.4-.5-4.27,0,0-.1.42-.5,1.3h-.01Z"/>
      <path class="st1" d="M22.42,66.51c-.4-.88-.91-1.83-.91-1.83-.3,1.58-.49,2.93-.6,3.96h0c.25.87.56.87.99.87s1.52-.15,1.52-.15c0,0-.31-1.03-.64-1.94-.13-.35-.25-.68-.37-.93v.02h.01Z"/>
      <path class="st0" d="M39.64,12.94c-1.63-1.45-4.59-.81-5.12-.81.28-.27,4.32-2.38,4.18-2.61s-1.85.05-4.94.27c.78-1.74,1.48-3.74,3.39-4.42-2.06-.59-4.58,2.11-4.98,2.41.08-.31,1.98-4.98,1.98-4.98,0,0-3.31,2.83-3.75,3.32-.44-1.55-.89-5.13.28-5.42-2.13.53-2.22,3.39-2.79,5.05,0,0-1.43-5.31-1.44-5.24l-1.05,4.55c-1.41-1.22-3.53-3.11-2.9-4.39-1.03,2.12.35,4.21.82,6.02l-4.45-3.86c-.13-.11-.33.04-.26.19l2.05,4.23c-1.82-.13-4.56-.66-4.81-1.79.5,2.26,2.85,3.26,4.29,4.47l-6.1-.59c-.17-.02-.12.16.03.24l4.11,2.43c-1.53.97-4,2.03-4.9,1.24,1.64,1.46,4.02.94,5.85,1.02-4.58,3-7.18,3.7.91,2.68,6.65-.84,11.87,0,18.63.52.72.06-4.35-2.7-4.19-2.76,1.54-.76,3.49-2.34,5.06-1.64.17.08.25,0,.11-.12h-.01Z"/>
      <path class="st13" d="M21,15.3c.06.17.13.34.2.51.04.09.24-.02.32-.06.02,0-.02-.04-.03-.07-.32-.69-.5-1.47-.5-2.28,0-3.02,2.46-5.47,5.47-5.47s5.47,2.45,5.47,5.47c0,.81-.18,1.59-.5,2.28.1.04.19.08.29.12.08-.17.15-.35.21-.53l.11.03-.18.55c.06.03.12.06.19.09l.19-.58.29.09-.2.62c.06.03.12.06.18.1l.21-.65.29.09-.23.7c.06.03.12.07.18.1l.24-.74.29.09-.26.81c.06.04.12.07.18.11l.28-.85.29.09-.3.92h-.02c.19.12.38.25.56.38l4.8.39h0c.07,0,.14-.05.16-.12.02-.07,0-.15-.07-.19l-4.38-2.64c.32-.16.63-.33.94-.5,1.37-.75,2.67-1.46,3.96-.9.08.03.16,0,.21-.06.04-.07.03-.16-.03-.21-1.42-1.28-2.85-1.17-4.23-1.06-.21.02-.41.03-.62.04l4.14-2.51c.07-.04.1-.12.07-.19-.02-.07-.1-.12-.17-.12l-4.98.41c.17-.32.33-.66.49-.99.67-1.41,1.3-2.75,2.67-3.06.08-.02.14-.09.13-.17,0-.08-.07-.15-.15-.16-1.9-.2-2.99.73-4.05,1.63-.23.19-.45.38-.68.56l1.94-4.61c.03-.07,0-.15-.06-.2s-.15-.04-.21,0l-3.65,3.14c-.05-.33-.11-.66-.17-.99-.29-1.54-.56-2.99.37-4.04.05-.06.06-.15,0-.22-.05-.06-.14-.08-.21-.04-1.66.96-1.99,2.35-2.32,3.7-.09.39-.19.78-.31,1.15L26.62.13C26.6.05,26.53,0,26.46,0s-.15.05-.16.13l-1.07,4.54c-.2-.2-.4-.39-.61-.58-1.14-1.07-2.21-2.09-2.08-3.49,0-.08-.05-.16-.12-.18-.08-.02-.16.02-.2.09-.78,1.75-.23,3.07.3,4.35.19.46.37.91.5,1.37l-4.26-3.65c-.06-.05-.14-.05-.21,0-.06.05-.09.13-.06.2l1.79,4.21c-.21-.03-.42-.06-.62-.08-1.55-.2-3.01-.39-3.73-1.6-.04-.07-.13-.1-.2-.07-.08.03-.12.11-.1.19.4,1.87,1.62,2.62,2.8,3.35.43.27.86.53,1.24.84l-5.76-.47c-.08,0-.15.04-.17.12-.02.07,0,.15.07.19l3.98,2.4c-.16.08-.32.17-.47.26-1.37.75-2.67,1.46-3.96.9-.08-.03-.16,0-.21.06-.04.07-.03.16.03.21,1.42,1.28,2.85,1.17,4.23,1.06.46-.04.92-.07,1.36-.06l-4.96,3c-.07.04-.1.12-.07.19.02.07.09.12.16.12h.01l4.79-.4c.19-.13.37-.26.56-.38l-4.15.34,5.88-1.91v.05h.01ZM32.78,11.46l.29-.09.37,1.14h0l-.27.16-.39-1.21ZM33,12.78l-.27.16-.42-1.31v-.02l.29-.1.41,1.26h-.01ZM33.27,11.3l.29-.09.33,1.03-.27.16-.36-1.1h0ZM33.75,11.15l.29-.09.3.92-.27.16-.32-.99ZM34.24,10.99l.29-.09.26.8-.27.16-.28-.87ZM34.97,11.59l-.25-.76.29-.09.22.69-.27.16h0ZM35.42,11.32l-.21-.64.29-.09.19.58-.27.16h0ZM35.86,11.05h0l-.17-.53.29-.09.15.46s-.27.16-.27.16ZM36.31,10.78l-.13-.42.29-.09.11.35-.27.16ZM36.76,10.5l-.1-.3.29-.09.08.23s-.27.16-.27.16ZM37.21,10.23l-.06-.19.8-.26s-.74.45-.74.45ZM33.35,7.08c.87-.74,1.7-1.45,2.98-1.56-1,.59-1.56,1.77-2.1,2.92-.11.24-.54,1.09-.58,1.16h0l-2.2.18.76-1.81s1.09-.85,1.15-.9h0ZM32.2,7.13l-.12.29-.74-.54.18-.25.68.5ZM31.64,6.47l.18-.25.59.43-.12.29-.64-.47h-.01ZM32,7.61l-.12.29-.84-.61.18-.25.78.57ZM31.79,8.09l-.12.29-.93-.68.18-.25.88.64s-.01,0,0,0ZM31.59,8.57l-.12.29-1.03-.75.18-.25s.97.71.97.71ZM31.39,9.06l-.12.29-1.12-.81h0l.18-.25,1.07.78h0ZM32.48,6.45l-.55-.4.18-.25.49.36s-.12.29-.12.29ZM32.69,5.97l-.45-.33.18-.25.39.29-.12.29ZM32.89,5.49l-.35-.26.18-.25.3.22-.12.29s0,0-.01,0ZM33.09,5l-.26-.19.18-.25.2.14-.12.29h0ZM33.29,4.52l-.16-.12.5-.68-.34.8ZM28.47,4.21c.27-1.11.53-2.18,1.49-3.01-.46,1.07-.22,2.35.02,3.6.08.41.15.8.2,1.19l-1.81,1.56-.4-1.69c.23-.54.37-1.1.5-1.65ZM23.32,6.07c-.06-.3-.43-1.18-.48-1.31-.44-1.06-.85-2.07-.56-3.31.26,1.13,1.2,2.03,2.13,2.9.06.06.74.72.75.72h0l-.59,2.5-1.11-.95s-.07-.25-.13-.55h-.01ZM23.81,7.38l.23.2-1.14.83-.17-.24,1.08-.79ZM22.61,8l-.18-.25.98-.72.24.2-1.04.76h0ZM23.12,6.78l.14.12-.94.69-.18-.25.89-.65.1.08h0ZM22.86,6.56l-.85.62-.18-.25.79-.58.24.2h0ZM22.24,6.03l.22.19-.75.55-.18-.25.69-.51h.02v.02ZM22.07,5.88l-.66.48-.18-.25.6-.44.24.2h0ZM21.56,5.45l.1.09-.56.41-.18-.25.5-.37.13.11h.01ZM21.27,5.2l-.46.34-.18-.25.4-.3.24.2h0ZM20.87,4.86l-.37.27-.18-.25.31-.23.24.2h0ZM20.47,4.52l-.27.2-.18-.25.21-.15s.24.2.24.2ZM19.37,3.57l.71.61-.17.13-.54-.74h0ZM18.6,8.52c-1.02-.67-1.91-1.17-2.4-2.35.87.77,2.17.93,3.43,1.1.28.04.55.07.82.11h0l1.02,2.41-1.26-.1c-.1-.1-.59-.5-1.61-1.17ZM20.81,10.07l.31.03-.43,1.33-.29-.09.41-1.26h0ZM20.21,11.27l-.29-.09.37-1.15.31.03-.39,1.22h0ZM19.77,9.99l.31.03-.36,1.1-.29-.09.33-1.03h.01ZM19.56,9.97l-.32.99-.29-.09.3-.92.31.03h0ZM19.04,9.93l-.28.87-.29-.09.26-.81s.31.03.31.03ZM18.52,9.88l-.25.76-.29-.09.22-.69.31.03h.01ZM17.68,9.82l.31.03-.21.65-.29-.09.19-.58h0ZM17.16,9.77l.31.03-.17.53-.29-.09.15-.46h0ZM16.64,9.73l.31.03-.14.42-.29-.09.11-.35h.01ZM16.12,9.69l.31.03-.1.3-.29-.09s.08-.24.08-.24ZM15.91,9.67l-.06.19-.81-.26s.87.07.87.07ZM18.02,14s-.57.04-.64.04c-1.14.09-2.23.17-3.32-.49,1.16.11,2.3-.52,3.42-1.13.07-.04.59-.32.65-.35h0l2.18,1.32-1.04.63c-.2-.02-1.11-.03-1.25-.03h0ZM14.91,17.06l.8-.48.07.2s-.87.28-.87.28ZM15.97,16.71l-.08-.25.27-.16.1.32-.29.09ZM16.45,16.56l-.12-.36.27-.16.14.43s-.29.09-.29.09ZM16.94,16.4l-.15-.48.27-.16.18.55-.29.09h-.01ZM17.42,16.24l-.19-.59.27-.16h0l.21.66s-.29.09-.29.09ZM17.9,16.08l-.23-.7.27-.16.25.77-.29.09ZM18.39,15.93l-.27-.82.27-.16.29.89s-.29.09-.29.09ZM18.87,15.77l-.3-.93.27-.16.32,1-.29.09ZM19.36,15.61l-.34-1.05.27-.16.36,1.11-.29.09h0ZM19.84,15.46l-.38-1.16.27-.16h0l.4,1.23s-.29.09-.29.09ZM20.33,15.3l-.41-1.27.27-.16.43,1.34s-.29.09-.29.09ZM20.69,13.56c.02.53.1,1.05.25,1.54l-.12.04-.45-1.39.32-.19M20.69,13.24c-.15-.09-5.72-3.45-5.72-3.45l5.96,1.93s-.24.83-.24,1.53h0ZM21,11.52l-.11-.03.44-1.37.35.03c-.28.41-.69,1.36-.69,1.38h.01ZM22.95,8.81c-.38.3-.73.64-1.03,1.02h-.08l-2.62-6.17s3.73,5.15,3.73,5.15ZM23.35,8.53h0c-.08.05-.15.1-.23.16l-.09-.12,1.17-.86.29.25c-.41.15-.79.34-1.15.57,0,0,.01,0,0,0ZM29.78,8.66c-.42-.29-.88-.54-1.37-.71l5.06-4.36h0l-3.69,5.07ZM29.95,8.78l.07-.09,1.16.85-.12.28h-.06c-.31-.39-.66-.74-1.06-1.04h.01ZM31.94,11.52s-.23-.58-.34-.79-.22-.4-.35-.59l6.65-.55s-5.96,1.93-5.96,1.93ZM34.21,16.9l-.31-.03.28-.87.29.09-.26.8h0ZM34.42,16.91l.24-.76.29.09-.22.69-.31-.03h0ZM35.25,16.98l-.31-.03.21-.64.29.09-.19.58ZM35.77,17.03l-.31-.03.17-.53.29.09-.15.46h0ZM36.29,17.07l-.31-.03.13-.42.29.09-.11.35h0ZM36.82,17.11l-.31-.03.1-.3.29.09-.08.23h0ZM37.02,17.13l.06-.19.8.26-.86-.07ZM32.23,12.9c0-.06-.03-.26-.03-.3,0-.05-.03-.2-.04-.23,0-.08-.03-.17-.05-.25,0-.03-.04-.18-.06-.23,0,0-.04-.13-.05-.18l.11-.04.44,1.37-.3.18s-.02-.28-.02-.33h0ZM32.25,13.63l.06-.03,5.66,3.42-5.96-1.93s.03-.1.04-.15h0c.11-.41.18-.84.2-1.29,0,0,0-.02,0-.02ZM35.52,13.88c-.07.04-1.05.55-1.12.59h0l-1.78-1.07,1.77-1.07c.08,0,1.15-.05,1.22-.06,1.14-.09,2.23-.17,3.32.49-1.16-.11-2.3.52-3.42,1.13h0ZM27.43,4.94l.07.31h-.92v-.3h.85ZM26.58,4.74v-.31h.72l.07.31h-.8.01ZM27.55,5.45l.07.31h-1.04v-.3h.97ZM27.67,5.96l.07.31h-1.16v-.3h1.09ZM27.79,6.47l.07.31h-1.27v-.3h1.2ZM27.91,6.98l.07.31h-1.39v-.31h1.32ZM27.26,4.23h-.68v-.3h.6l.07.3h.01ZM27.14,3.72h-.56v-.3h.49l.07.3ZM27.02,3.21h-.44v-.3h.37l.07.3ZM26.89,2.7h-.32v-.3h.25l.07.3ZM26.77,2.19h-.2v-.84l.2.84ZM26.39,7.61c-.51.01-1.03.09-1.52.24l1.5-6.5h0l.02,6.27h0ZM26.59,7.61v-.12h1.44l.07.29-.04.04c-.48-.13-.97-.2-1.47-.21Z"/>
      <path class="st13" d="M25.76,11.39v-.39s-.57-.64-1.67-.64c-.81,0-1.51.71-1.51.71l.14.17s.68-.57,1.37-.57c.96,0,1.67.73,1.67.73h0Z"/>
      <path class="st13" d="M27.35,11v.39s.71-.73,1.67-.73c.69,0,1.37.57,1.37.57l.14-.19s-.7-.69-1.51-.69c-1.1,0-1.67.64-1.67.64h0Z"/>
      <path class="st13" d="M27.6,13.98c-.05.06-.13.09-.2.09s-.13-.03-.19-.09l-.05-.05-.12.11c-.13.13-.31.2-.5.2h-.02c-.17,0-.33-.08-.43-.2-.04-.04-.08-.09-.08-.09l-.02-.02-.02.02s-.24.22-.45.02l-.02-.02-.12.12.02.02c.15.16.38.19.56.08.17.15.38.23.6.23s.44-.08.6-.23c.18.11.41.08.56-.08l.02-.02-.12-.12-.02.02h0Z"/>
      <path class="st13" d="M25.47,11.86c-.05-.08-.5-.62-1.48-.38-.76.19-.94.54-.94.54,0,0,.14.17.54.29.03,0,.04-.02,0-.03h-.02c-.12-.06-.17-.2-.02-.36.16-.16.41-.21.41-.21,0,0-.04.13,0,.31.05.19.17.3.26.35.08,0,.32-.03.41-.03.04-.02.32-.28.18-.7.17.04.31.09.4.21.1.12.08.18.07.23-.02.05-.06.12-.12.15,0,0-.15.11.02.05.17-.06.25-.1.33-.21,0,0,.02-.08-.07-.21,0,0,.03,0,.03,0Z"/>
      <path class="st13" d="M29.12,11.49c-.98-.24-1.43.31-1.48.39-.09.13-.07.21-.07.21.08.1.16.14.33.2.17.06.02-.05.02-.05-.05-.04-.1-.1-.12-.15s-.03-.11.07-.23.2-.17.37-.21c-.13.41.14.68.19.7.1,0,.34.03.41.03.09-.05.21-.16.26-.35.05-.18,0-.31,0-.31,0,0,.28.05.44.21s.1.3,0,.36h-.02s-.02.04,0,.03c.39-.12.53-.3.53-.3,0,0-.19-.35-.94-.53h.02-.01Z"/>
      <path class="st5" d="M26.49,36.13h15.5c0-11.29-6.95-20.47-15.5-20.47h0v20.47h0Z"/>
      <path class="st1" d="M38.16,21.02c-3.11-4.08-7.25-6.32-11.67-6.32s-8.56,2.24-11.67,6.32c-3.08,4.04-4.78,9.4-4.78,15.09s1.7,11.06,4.78,15.09c3.11,4.08,7.25,6.32,11.67,6.32s8.56-2.24,11.67-6.32c3.08-4.04,4.78-9.4,4.78-15.09s-1.7-11.06-4.78-15.09ZM26.48,15.65c7.23,0,13.32,6.57,15.02,15.42-.6-.14-1.26-.36-2.01-.36-1.13,0-1.77.48-2.96.48s-1.7-.48-2.87-.48-1.67.48-2.96.48c-1.44,0-1.64-.48-2.87-.48-.63,0-1.1.11-1.36.19v-15.25h0ZM26.48,34.56c.08-.03.6-.22,1.36-.22,1.11,0,1.67.48,2.87.48,1.27,0,1.85-.48,2.96-.48s1.61.48,2.87.48,1.7-.48,2.96-.48c1.07,0,1.72.34,2.45.45,0,.19.02.37.02.56-.72-.11-1.52-.45-2.48-.45-1.13,0-1.77.48-2.96.48s-1.7-.48-2.87-.48-1.67.48-2.96.48c-1.44,0-1.64-.48-2.87-.48-.63,0-1.1.11-1.36.19v-.53h0ZM39.49,33.86c-1.13,0-1.77.48-2.96.48s-1.7-.48-2.87-.48-1.67.48-2.96.48c-1.44,0-1.64-.48-2.87-.48-.63,0-1.1.11-1.36.19v-.53c.08-.03.6-.22,1.36-.22,1.11,0,1.67.48,2.87.48,1.27,0,1.85-.48,2.96-.48s1.61.48,2.87.48,1.7-.48,2.96-.48c1.03,0,1.67.32,2.38.44.02.19.03.37.04.56-.71-.12-1.49-.44-2.43-.44h0ZM39.49,32.81c-1.13,0-1.77.48-2.96.48s-1.7-.48-2.87-.48-1.67.48-2.96.48c-1.44,0-1.64-.48-2.87-.48-.63,0-1.1.11-1.36.19v-.53c.08-.03.6-.22,1.36-.22,1.11,0,1.67.48,2.87.48,1.27,0,1.85-.48,2.96-.48s1.61.48,2.87.48,1.7-.48,2.96-.48c.98,0,1.6.29,2.27.42.02.19.05.38.07.57-.68-.13-1.44-.43-2.33-.43,0,0,0,0,0,0ZM39.49,31.76c-1.13,0-1.77.48-2.96.48s-1.7-.48-2.87-.48-1.67.48-2.96.48c-1.44,0-1.64-.48-2.87-.48-.63,0-1.1.11-1.36.19v-.53c.08-.03.6-.22,1.36-.22,1.11,0,1.67.48,2.87.48,1.27,0,1.85-.48,2.96-.48s1.61.48,2.87.48,1.7-.48,2.96-.48c.9,0,1.5.24,2.1.38.03.19.07.38.09.58-.65-.14-1.37-.4-2.2-.4,0,0,0,0,.01,0ZM41.98,36.13h-15.51v20.45c-8.54,0-15.48-9.18-15.48-20.45h15.5v-.52c.08-.03.6-.22,1.36-.22,1.11,0,1.67.48,2.87.48,1.27,0,1.85-.48,2.96-.48s1.61.48,2.87.48,1.7-.48,2.96-.48c1.09,0,1.74.35,2.48.46v.27h0s0,.01,0,.01Z"/>
      <path class="st5" d="M26.47,36.13h-15.5c0,11.27,6.95,20.44,15.48,20.45v-20.45h.02Z"/>
      <path class="st0" d="M24.27,31.71l-1.68-4.8c.19-.09.33-.29.33-.52,0-.32-.26-.58-.58-.58-.21,0-.4.12-.5.29h-2.42c-.04-.08-.1-.15-.18-.2v-1.82c.44-.15.77-.56.77-1.06,0-.61-.5-1.11-1.11-1.11s-1.11.5-1.11,1.11c0,.49.32.91.77,1.06v1.82c-.07.05-.13.12-.18.2h-2.38c-.1-.17-.29-.29-.5-.29-.32,0-.58.26-.58.58,0,.23.14.43.33.52l-1.68,4.8v.12c0,1.07.87,1.93,1.93,1.93s1.93-.87,1.93-1.93v-.12l-1.68-4.8c.1-.05.19-.13.25-.23h2.38c.07.12.18.22.32.27v.99c0,.11.09.21.21.21s.21-.09.21-.21v-.99c.13-.05.25-.15.32-.27h2.42c.06.1.14.18.25.23l-1.68,4.8v.12c0,1.07.87,1.93,1.93,1.93s1.93-.87,1.93-1.93v-.12s-.02,0-.02,0ZM22.48,27.44l1.48,4.27h-1.48v-4.27ZM18.38,23.02c0-.29.24-.53.53-.53s.53.24.53.53-.24.53-.53.53-.53-.24-.53-.53ZM15.37,31.71h-1.48l1.48-4.27s0,4.27,0,4.27ZM15.65,31.71v-4.27l1.48,4.27h-1.48ZM22.2,31.71h-1.48l1.48-4.27v4.27Z"/>
      <rect class="st6" x="33.28" y="23.7" width=".18" height=".46"/>
      <rect class="st6" x="33.74" y="23.7" width=".18" height=".46"/>
      <rect class="st6" x="34.2" y="23.7" width=".18" height=".46"/>
      <path class="st6" d="M33.46,25.6c0-.2.16-.36.36-.36s.35.16.35.36v.41c.37.04.77.15,1.18.33v-1.33l.16-.17v-.63c0-.14-.11-.25-.25-.25s-.25.11-.25.25v.51h-.54v-.25h.11v-.15h-1.51v.15h.11v.25h-.56v-.51c0-.14-.11-.25-.25-.25s-.25.11-.25.25v.63l.14.14v1.29c.42-.17.82-.25,1.2-.28v-.39ZM35.17,24.3h.18v.19h-.18v-.19ZM32.46,24.49h-.18v-.19h.18v.19Z"/>
      <path class="st6" d="M33.83,22.9c-.35,0-.64.29-.64.64h1.28c0-.35-.29-.64-.64-.64Z"/>
      <path class="st9" d="M36.19,26.81c-.29-.2-.57-.36-.84-.48-.41-.18-.8-.29-1.18-.33-.15-.02-.3-.03-.44-.03h-.27c-.38.03-.78.11-1.2.28-.32.13-.65.31-1,.54-.41.28-4.42,3.48-4.44,3.5.24-.06.58-.11.99-.11.81,0,1.92.48,2.84.48.78,0,2.12-.48,2.93-.48s1.92.48,2.84.48c.78,0,2.12-.48,2.93-.48s1.32.22,1.32.22h.03c-1.36-1.13-4.22-3.4-4.54-3.62l.03.02h0Z"/>
      <path class="st0" d="M38.69,45.81v-1.63c0-.6-.16-1.68-1.2-2.07-.17-.07-.46-.09-.57-.1-.08,0-.16-.02-.24-.02h-6.6s-.02,0-.03-.02c.1-.06.19-.13.24-.21.14-.19.11-.4-.05-.57,0,.09,0,.17-.07.26-.09.13-.33.24-.55.31,0-.08-.07-.14-.15-.14h-.71c-.09,0-.14.08-.17.15-.3-.1-.51-.28-.51-.51v-.08c-.1.09-.15.21-.15.33,0,.17.12.34.3.46h-.32l.17.35h.26l-.5,1.31.58.47.41-.11c.99.14,1.8,1.97,2.15,2.39h0c.03.11.07.24.14.4.3.74.42,1.49.31,1.79-.06.18-.11.34-.13.43h.63v-2.4c.17.04.35.06.53.06h.09c.08.49.22,1.48.1,1.77-.12.29-.15.45-.15.57h.79c0-.13,0-.35-.03-.54-.03-.29-.1-.84.03-1.49.08-.39.79-.84.8-.84h0c.58-.3,1.11-.39,1.5-.4.36.22.79.6.89,1.2.07.42.13,1.04,0,1.35-.11.28-.32.65-.36.72h.55c.3-.06.28-.34.28-.34v-.21h.13s-.02-1.37.08-1.65c.1-.27.55.86.55,1.26s-.23.81-.32.93h.57s.09-.03.13-.06c.13-.1.1-.24.08-.37h.13l.07-3.83c.09-.18.15-.38.18-.59v1.64c-.06,0-.11.08-.08.3.06.43.1.59.1.59,0,0,.22-.31.25-.59.03-.26-.11-.28-.14-.28h.01Z"/>
      <path class="st6" d="M25.06,44.84c-.38.06-.56-.05-.61-.43-.03-.23,0-.48,0-.71,0-.49.05-.97.04-1.46,0-.17-.04-.4-.13-.56-.16-.28-.52-.31-.81-.17-.39.2-.77.39-1.16.6-.06.03-.11.05-.16.04-.27-.22-.62-.35-.99-.35h-.05c-.35,0-.67.12-.96.32-1.05.75-1.69.32-2.05-.87-.44-1.49-2.06-2.23-3.47-1.56-.07.04-.17.04-.26.03-.16-.02-.25-.04-.41-.07-.02.02-.03.18-.05.2.1.07.28.23.28.23v.73c0,.06.02.13.05.16.14.13.16.28.15.46v1.14h.63l.7-1.65.18.11v3.41h-1.37v.42l.35,1.7s.56.45.84.67c.03.02.06.04.11.06v-.79h-.41s-.18-.75-.24-.99c-.06-.25.09-.43.35-.4h1.24c.32.84.64,1.84.95,2.69.02.05,0,.12-.02.17-.09.19-.2.38-.29.57-.08.16-.16.31-.25.49h.77c.07,0,.15.03.18-.08.02-.1.07-.26-.05-.35-.14-.1-.12-.2.04-.28.1-.05.2-.08.31-.13-.08-.26-.48-2-.48-2v-1.08h1.76s.75.72,1.08,1.03c.13.12.18.28.04.39-.12.1-.57.45-.75.59-.22.18-.38.3-.39.58,0,.31-.07.62-.11.95.25-.15.47-.28.7-.41-.05-.16-.11-.39-.17-.55.15-.13,1.39-.94,1.66-1.17.13-.11.02-.38-.08-.52-.16-.2-.41-.49-.41-.49l.08-.06s.92.46,1.28.73c.54.41.83.95.66,1.64-.09.34-.24.67-.37,1.01-.02.05-.04.09-.07.17h.61c.25,0,.38-.12.39-.36.02-.36-.02-.09-.05-.12-.13-.12-.14-.18-.02-.31.06-.06.19-.13.19-.13,0,0-.35-1.6-.45-2.13-.02-.12-.24-.34-.24-.34l-1.04-.95s-.05-.05.02-.12c.07-.08.14-.15.2-.24.2-.26.32-.59.32-.94,0-.27-.07-.53-.19-.75,0-.03.02-.07.05-.1.2-.21.53-.24.76-.05.16.13.21.3.21.5,0,.45-.04.9-.03,1.34,0,.21.04.45.11.64.09.24.33.33.59.32.33-.02.58-.2.84-.43h-.13Z"/>
      <path class="st7" d="M45.69,28.34c-.19-.13-.42-.12-.52.02s-.02.39.16.52.42.12.53,0c0,0,.05.02.2.14s.19.2.19.2l.07-.06s-.12-.12-.25-.21l-.19-.13c.06-.14-.02-.34-.2-.46h0v-.02Z"/>
      <path class="st7" d="M46.81,42.41c-.14-.27-.42-.4-.62-.29s-.25.43-.11.7.41.39.61.31c0,0,.04.05.15.28s.11.34.11.34l.12-.03s-.07-.22-.17-.39l-.14-.26c.15-.13.17-.41.04-.66h0Z"/>
      <path class="st7" d="M46.72,32.61c-.17-.19-.43-.24-.57-.11s-.12.41.05.6.42.23.57.12c0,0,.05.03.19.2s.16.26.16.26l.09-.05s-.1-.16-.22-.29l-.17-.18c.1-.14.06-.38-.1-.55Z"/>
      <path class="st7" d="M48.12,35.59c.17-.23.45-.32.62-.19s.18.44,0,.67-.44.31-.62.2c0,0-.05.04-.18.24s-.15.31-.15.31l-.11-.04s.1-.19.21-.34l.17-.22c-.13-.14-.11-.41.05-.62h0Z"/>
      <path class="st7" d="M45.2,53.33c.28-.09.46-.35.39-.57s-.37-.33-.65-.24-.45.35-.4.57c0,0-.06.03-.29.11-.24.07-.35.05-.35.05v.13s.23-.04.41-.1l.27-.1c.09.18.36.24.62.16h0Z"/>
      <path class="st7" d="M43.15,52.69c-.06-.23-.24-.38-.41-.33s-.26.28-.21.5c.06.23.24.37.41.34,0,0,.02.05.07.24s.02.28.02.28h.1s-.02-.18-.06-.32l-.06-.22c.14-.07.2-.28.15-.49h0Z"/>
      <path class="st7" d="M46.81,49.68c.21-.14.31-.4.2-.57s-.38-.19-.59-.05-.3.39-.22.56c0,0-.04.04-.22.16s-.28.12-.28.12l.03.1s.18-.08.32-.17l.21-.14c.12.13.36.12.56,0h0Z"/>
      <path class="st7" d="M47.93,30.63c.16-.21.17-.48.02-.6s-.42-.06-.58.14-.16.47-.03.61c0,0-.12.08-.2.26-.09.2-.03.31-.03.31l.06.09s-.03-.21.04-.37c.07-.15.19-.24.19-.24.15.08.38,0,.52-.19h0Z"/>
      <path class="st7" d="M42.26,57.11c.24-.04.42-.22.39-.41s-.25-.31-.49-.28-.41.22-.4.4c0,0-.05.02-.25.05s-.29,0-.29,0v.1s.17,0,.33-.03l.23-.04c.05.15.26.25.48.21Z"/>
      <path class="st7" d="M48.64,41.23c.21-.14.3-.39.2-.55s-.37-.19-.58-.05-.29.38-.21.55c0,0-.04.04-.22.15s-.27.12-.27.12l.03.1s.17-.08.31-.17l.2-.14c.11.12.35.12.54,0h0Z"/>
      <path class="st7" d="M46.53,26.75c.1-.15.09-.33-.02-.41s-.28-.02-.38.12-.09.32,0,.41c0,0,0,.04-.1.16s-.15.15-.15.15l.05.06s.09-.1.15-.19l.09-.14c.1.05.25-.02.34-.15h.02Z"/>
      <path class="st7" d="M42.62,22.08c-.17,0-.32.11-.32.25s.15.25.32.25.31-.11.33-.24h.18c.14,0,.2.04.2.04l.02-.07s-.13-.02-.24-.02h-.17c-.02-.11-.16-.2-.32-.2h0Z"/>
      <path class="st7" d="M44.99,25.98c-.17-.1-.36-.07-.44.06s0,.32.17.42.36.07.44-.05c0,0,.04,0,.18.1s.18.15.18.15l.06-.06s-.11-.09-.22-.15l-.17-.09c.04-.12-.05-.29-.2-.37h0Z"/>
      <path class="st7" d="M44.94,22.7c.06-.22-.03-.45-.2-.49s-.36.1-.42.33.03.44.18.5c0,0,0,.05-.06.24s-.11.25-.11.25l.08.05s.07-.16.11-.31l.05-.22c.15,0,.3-.14.36-.34h0Z"/>
      <path class="st7" d="M47.01,37.99c-.17-.16-.41-.19-.53-.06s-.08.38.09.54.4.19.53.08c0,0,.04.03.18.17s.17.23.17.23l.08-.05s-.11-.14-.22-.25l-.17-.16c.08-.13.02-.34-.13-.49h0Z"/>
      <path class="st7" d="M37.31,61.13c.22,0,.41-.14.41-.31s-.18-.32-.41-.32-.4.14-.41.3c0,0-.05,0-.23,0s-.26-.05-.26-.05l-.02.09s.16.03.31.03h.22c.03.14.2.26.4.26,0,0,0,0-.01,0Z"/>
      <path class="st7" d="M39.65,57.06c.05-.3-.09-.58-.32-.62-.22-.04-.45.18-.5.48s.09.57.3.63c0,0,0,.07-.04.32s-.12.34-.12.34l.11.05s.07-.22.1-.41l.04-.29c.2,0,.38-.22.42-.5h.01Z"/>
      <path class="st6" d="M6.35,44.79c.15.14.18.32.18.33.12,0,.26.12.29.24.03.12.01.18,0,.22,0,.16-.04.27-.15.3s-.2-.05-.28-.19c-.02-.03-.05-.08-.08-.2-.03-.13.02-.33.15-.36h.03-.03s-.03-.17-.16-.3c-.12-.12-.25-.03-.26-.02l-.02-.02-.02-.02s.17-.12.33.03h.02Z"/>
      <path class="st6" d="M6.68,44.25c.11-.02.17,0,.2,0,.14,0,.24.07.26.17s-.05.18-.18.25c-.03,0-.07.05-.18.07-.12.02-.29-.04-.32-.16h0c-.08,0-.28.14-.4.24l-.03-.04s.3-.24.43-.26c0-.12.12-.23.23-.26h-.01,0Z"/>
      <path class="st6" d="M5.5,39.34c.16-.08.22-.23.23-.24.1.04.25-.04.31-.14.05-.09.05-.15.06-.18.04-.14.03-.24-.06-.3-.09-.05-.18,0-.28.09-.02.02-.07.06-.12.15-.06.1-.06.29.05.35h.02-.02s-.06.14-.21.21c-.13.07-.22-.04-.22-.04l-.02.02-.02.02s.12.15.29.06h-.01Z"/>
      <path class="st6" d="M5.66,39.89c.09.04.14.05.17.06.12.03.22,0,.26-.08s0-.17-.1-.26c-.02-.02-.05-.06-.14-.1-.1-.05-.26-.04-.31.06h0c-.07-.02-.2-.19-.29-.31l-.04.03s.2.28.31.33c-.03.1.05.23.14.28h0Z"/>
      <path class="st6" d="M6.06,32.57c.16-.07.24-.21.24-.22.1.05.25-.02.31-.12.06-.09.06-.15.07-.18.04-.14.04-.24-.04-.3s-.18-.02-.28.07c-.02.02-.07.05-.13.14-.07.1-.07.28.02.35l.02.02h-.02s-.07.12-.22.19c-.14.06-.22-.05-.22-.06h-.02l-.02.03s.11.15.28.07h.01,0Z"/>
      <path class="st6" d="M6.18,33.13c.08.05.14.06.16.07.12.03.22,0,.27-.07.05-.08,0-.17-.08-.26-.02-.02-.05-.06-.13-.11-.09-.06-.26-.05-.31.04h0c-.07-.03-.19-.2-.27-.33l-.04.03s.18.29.29.35c-.03.1.04.23.12.28,0,0-.01,0,0,0Z"/>
      <path class="st6" d="M8.17,50.05c.21.11.29.31.3.32.14-.05.33.06.4.19.07.12.06.21.07.24.04.18.03.32-.08.39-.12.07-.24,0-.37-.13-.03-.03-.09-.08-.15-.2-.08-.14-.07-.38.07-.46l.03-.02h-.03s-.08-.17-.27-.27c-.18-.1-.29.05-.3.05l-.03-.02-.03-.02s.16-.19.38-.07c0,0,.01,0,.01,0Z"/>
      <path class="st6" d="M11.76,54.78c.12.03.18.07.21.09.15.08.22.19.2.31-.03.12-.14.17-.31.18-.04,0-.1,0-.23-.02-.14-.03-.29-.19-.26-.33h0c-.09-.04-.37,0-.55.06l-.02-.06c.08-.02.43-.11.58-.06.06-.12.24-.19.37-.16h.01Z"/>
      <path class="st6" d="M10.91,56.6c-.21.16-.44.15-.46.14-.02.17-.22.31-.38.32-.15,0-.23-.04-.27-.05-.2-.05-.33-.13-.33-.28s.11-.25.31-.31c.04,0,.12-.05.27-.06.17,0,.4.12.41.3v.04-.04s.22,0,.41-.13c.18-.13.1-.32.1-.33h.03l.03-.03s.11.25-.12.42h0Z"/>
      <path class="st6" d="M11.25,57.26c-.03.14-.08.21-.1.24-.09.17-.21.25-.34.22s-.18-.17-.19-.36c0-.04-.01-.12.02-.26.04-.16.21-.33.36-.29h0c.04-.1-.01-.41-.06-.62l.07-.02c.02.09.11.49.06.67.13.06.2.28.17.42h.01Z"/>
      <path class="st6" d="M7.32,51.24c-.11.2-.08.39-.08.4-.13.03-.23.21-.23.35,0,.13.05.19.06.23.05.17.13.27.25.26.12,0,.19-.12.23-.29,0-.04.03-.1.02-.23,0-.15-.13-.34-.28-.33h-.03.03s-.03-.18.07-.36c.09-.16.25-.11.26-.11v-.03l.02-.03s-.21-.07-.33.14c0,0,.01,0,.01,0Z"/>
      <path class="st6" d="M6.78,51.08c-.1.06-.15.11-.17.13-.11.11-.15.23-.1.33.05.1.17.11.32.08.03,0,.09,0,.2-.07.12-.06.22-.24.15-.36h0c.07-.05.33-.08.51-.08v-.06c-.07,0-.41,0-.54.09-.08-.1-.26-.11-.37-.05h0Z"/>
      <path class="st6" d="M7.61,26.21c.18.02.29.14.29.14.08-.07.25-.05.33.02s.1.13.12.15c.08.12.11.22.04.3-.06.08-.17.07-.29,0-.03,0-.08-.03-.16-.1-.09-.08-.15-.25-.07-.35l.02-.02-.02.02s-.1-.11-.27-.13c-.15-.02-.2.11-.2.12h-.02l-.02-.02s.06-.18.25-.15h0v.02Z"/>
      <path class="st6" d="M7.49,27.15c.06.08.1.11.13.12.1.08.2.1.27.04s.07-.15.02-.28c-.01-.03-.02-.08-.08-.15-.07-.09-.22-.15-.31-.08h0s-.1-.26-.13-.41h-.05c.01.07.06.35.14.44-.06.08-.05.23.01.31h0Z"/>
      <path class="st6" d="M6.55,25.81c-.05-.08-.07-.13-.08-.15-.04-.12-.04-.21.04-.27.07-.05.16-.02.25.05.02.02.06.04.12.12.06.09.08.25,0,.31h0c.04.06.21.17.33.23l-.02.04s-.29-.15-.35-.25c-.09.04-.22,0-.28-.09h-.01,0Z"/>
      <path class="st6" d="M4.48,34.56c-.07.06-.1.1-.12.12-.08.1-.1.19-.04.27.05.07.14.07.26.02.02,0,.07-.02.15-.08s.14-.21.08-.3h0s.25-.1.38-.12v-.05c-.06,0-.33.05-.41.13-.07-.07-.21-.05-.29,0h-.01Z"/>
      <path class="st2" d="M33.44,23.56"/>
      <path class="st2" d="M52.21,43.55c-.06,0-1.58-.03-3.27,1.5-1.1.99-1.96,2.25-2.43,3.01.41-1.2.73-2.42.96-3.63.73-.41,2.29-1.37,3.5-2.68,1.64-1.77,1.67-3.74,1.67-3.76s0-.05-.03-.06h-.07s-.91.51-2.13,1.67c-.97.92-1.5,1.87-1.98,2.7-.13.23-.25.44-.37.64-.16.27-.32.52-.47.73.08-.54.15-1.08.19-1.61.06-.83.1-1.63.12-2.42.2-.07,1.43-.55,2.47-1.8,2.19-2.65,2.38-4.9,2.08-5.35-.05-.08-.13-.12-.21-.13-.31-.03-.76.43-1.05.73l-.07.08c-.29.3-2.07,2.77-2.61,4.57-.3,1.02-.49,1.46-.6,1.65.03-1.47-.03-2.88-.16-4.27.54-.52,1.77-1.83,2.54-3.63,1-2.34.39-4.7.38-4.73,0-.02-.03-.04-.05-.05-.02,0-.05,0-.07.02,0,0-.72.84-1.52,2.42-.64,1.26-.83,2.39-1.01,3.39-.05.27-.09.52-.14.76-.07.35-.15.68-.22.96-.17-1.36-.41-2.7-.75-4.05.33-.42,1.08-1.47,1.49-2.85.48-1.6.37-3.18.33-3.86,0-.09,0-.16,0-.22,0-.27-.05-.38-.13-.42-.09-.04-.18.03-.3.13l-.02.02c-.23.18-.93,1.6-1.28,2.79-.25.84-.17,2.15-.12,3.03.02.36.04.65.02.78,0,.08-.04.16-.06.23-.3-1.15-.66-2.3-1.08-3.48.18-.47.58-1.64.76-3.18.1-.87-.03-2.51-.77-3.24-.02-.02-.04-.02-.07-.02-.02,0-.04.03-.05.05-.41,1.73-.49,3.75-.19,4.9.11.44.16.78.17,1.04-.05-.14-.1-.28-.15-.42-.41-1.07-.96-2.07-1.59-2.95.07-.38.24-1.56.06-2.71-.21-1.39-1.05-2.08-1.09-2.11-.02-.01-.04-.02-.06,0-.02,0-.03.02-.04.04,0,.02-.09.61,0,1.58.07.78.3,1.36.5,1.88.05.14.11.27.15.4.07.2.13.39.18.55-.5-.64-1.05-1.21-1.64-1.68-.14-.23-.34-.52-.64-.8-1.3-1.18-2.37-1.35-2.61-1.23-.05.03-.08.07-.08.12-.02.15.15.35.35.57l.04.04c.15.16,1.32,1.1,2.2,1.44.47.18.68.29.78.35,1.04.97,1.83,2.01,2.49,3.26-.12-.09-.25-.19-.39-.3-.1-.08-.2-.17-.31-.26-.4-.34-.86-.74-1.54-1.03-.85-.37-1.4-.45-1.43-.46-.03,0-.06,0-.08.03-.02.02-.02.05,0,.08.02.05.54,1.2,1.73,1.8.93.47,1.86.57,2.25.59.23.49.46,1,.66,1.56.17.46.31.93.46,1.4-.33-.42-.83-.99-1.49-1.56-.56-.49-1.77-1.18-2.64-.98-.02,0-.04.02-.05.05v.07c1.01,1.13,2.38,2.14,3.33,2.48.54.19.85.39,1.02.53.36,1.22.65,2.47.87,3.73-.24-.54-.81-1.69-1.63-2.61-1.12-1.25-2.45-1.37-2.47-1.37s-.04,0-.05.03,0,.04,0,.06c0,0,.3.68,1.02,1.6.57.73,1.19,1.16,1.73,1.54.15.1.28.2.41.29.59.44,1.03.84,1.03.84,0,0,.03.02.04.02h0c.22,1.34.37,2.68.43,4.02-.12-.23-.26-.51-.4-.82-.09-.19-.17-.39-.26-.6-.33-.78-.7-1.67-1.45-2.58-.94-1.14-1.68-1.69-1.69-1.69-.02,0-.04-.02-.07,0-.02,0-.04.03-.04.05s-.18,1.74,1.07,3.47c.97,1.33,2.3,2.38,2.85,2.78.04,1.32.02,2.64-.1,3.93-.08-.21-.18-.51-.3-.92-.44-1.46-1.81-3.52-2.03-3.77l-.06-.06c-.3-.35-.6-.66-.82-.64-.07,0-.13.04-.17.11-.21.35-.03,2.16,1.65,4.38.62.82,1.3,1.25,1.66,1.45-.05.49-.1.98-.18,1.47-.22,1.45-.55,2.84-.98,4.18-.09-.32-.16-.78-.14-1.43.05-1.52-.74-3.93-1.9-5.87,0-.02-.03-.03-.06-.03-.02,0-.05,0-.06.03-.83,1.16-.46,3.2-.03,4.21.72,1.7,1.62,2.93,2.07,3.48-.5,1.49-1.12,2.9-1.85,4.23,0-.28-.02-.6-.02-.95v-.72c.03-.94.06-2-.28-3.27-.42-1.6-.92-2.49-.92-2.5,0-.02-.04-.04-.07-.04s-.05,0-.07.04c0,.02-.98,1.65-.51,3.98.34,1.7,1.13,3.29,1.52,4.03-.83,1.4-1.79,2.71-2.88,3.91.05-.25.14-.64.34-1.27.49-1.59.45-4.31.39-4.68v-.09c-.09-.48-.18-.97-.4-1.1-.07-.04-.15-.04-.23,0-.42.18-1.37,1.92-1.13,4.99.1,1.25.55,2.14.75,2.47-.75.8-1.56,1.55-2.43,2.25-.19.15-.43.34-.7.53.07-.26.15-.56.25-.88.07-.21.14-.43.22-.66.3-.87.63-1.85.7-3.14.09-1.63-.09-2.63-.09-2.64,0-.03-.03-.06-.06-.07-.03,0-.07,0-.09.02-.06.05-1.35,1.23-1.61,3.55-.19,1.65.03,3.34.17,4.19-.79.56-1.8,1.2-2.94,1.77.1-.21.27-.51.53-.94.81-1.31,1.26-3.82,1.26-4.17v-.09c0-.36.02-.9-.2-1.11-.06-.06-.14-.09-.23-.08-.48.03-1.81,1.34-2.11,4.24-.11,1.06.14,1.93.3,2.37-.15.07-.3.14-.45.21-2.37,1.02-5.03,1.78-6.99,2.21-2.52-.45-5.41-1.55-8.02-3h0l-.02-.36.47-1.04v-.02l.05-.49.02-.62-.03-.53v-.02l-.12-.43-.23-.75h0l-.29-.61v-.02l-.66-.79h0l-1.17-.94s-.05-.02-.08,0c-.03,0-.05.04-.05.06l-.12,1.11-.05.91.02.89h0l.26,1.34s0,.02.01.03l.88,1.36s0,0,.02.02l.44.36.26.33c-1.11-.64-2.16-1.33-3.09-2.06-.08-.06-.15-.12-.22-.19v-.4l.15-.27.12-.37.1-.32.08-.36.05-.48v-.34c0-.17.02-.57-.02-.66-.02-.05-.04-.36-.06-.64l-.15-.79v-.02l-.31-.72h0l-.66-1.01h-.01l-.92-.89s-.06-.03-.08-.02c-.03,0-.05.04-.05.07v.49l-.07.36-.19.78-.15,1.01v.02l.04.81v.02l.22.7.24.56.14.29.22.39.24.35.17.31s0,0,.01.02l.35.38.28.32v.17c-1.44-1.2-2.71-2.54-3.8-4.03l.04-.12.14-.47.2-.23.22-.32.18-.28.17-.33.18-.45.09-.33c.05-.16.17-.55.15-.64,0-.05.05-.36.11-.64l.07-.81v-.02l-.11-.79h0l-.37-1.17v-.02l-.47-.79s-.03-.03-.05-.04c-.02,0-.05,0-.06.02l-.5.49v.02s-.4.71-.4.71l-.42.94h0l-.18.82v.02l.02.74.08.62.06.33.11.44.14.41.09.36v.02l.24.47.19.39-.12.39c-1.03-1.44-1.9-3-2.6-4.67l.07-.16.15-.35.87-.73s.01,0,.01-.02l.27-.43.3-.58.22-.52h0l.1-.49.16-.85.04-.73v-1.36l-.03-.51-.12-.92-.1-.37s-.03-.05-.06-.05-.05,0-.07.03l-.66.83-.39.59-.33.59-.34.65-.23.55-.24.69-.17.73-.07.69v.02l.16,1.07h0l.19.59.07.5-.04.08c-.7-1.75-1.21-3.63-1.54-5.59l.14-.18.22-.29.93-.49h.02l.34-.34.4-.47.32-.43h0l.2-.43.34-.75.21-.67.12-.44v-.02l.05-.85v-.02l-.12-.67s-.02-.04-.04-.05-.04,0-.06,0l-.59.26h-.01l-.82.55s-.01,0-.02.02l-.56.71-.69,1.22v.02l-.34,1.67v.02l.03.58-.06.48-.09.12c-.21-1.42-.32-2.88-.33-4.35h0l.54-.74.28-.35.25-.12.3-.2.25-.18.26-.23.3-.33.18-.26c.1-.12.33-.41.34-.5.01-.04.16-.29.3-.52l.32-.68h0l.17-.73h0l.06-1.14h0l-.21-1.21s-.02-.05-.05-.05-.05,0-.07.02l-.28.36-.24.24-.57.47-.67.67h0l-.42.64v.02l-.22.65-.13.56-.06.3-.05.42v.4l-.05.34v.02l.06.49.03.4-.54.7-.08.06c.01-2.32.26-4.66.74-6.96l.15-.1.3-.21.22-.04.28-.09.24-.09.26-.12.31-.19.2-.16c.13-.09.36-.26.39-.32.02-.03.19-.19.36-.34l.41-.46h0l.29-.54h0l.3-.89h0l.1-1.01s-.01-.05-.03-.07h-.07l-.3.22-.24.13-.56.24-.68.37h-.01l-.47.41h-.01l-.32.47-.23.41-.11.23-.13.32-.1.31-.11.26v.02l-.07.4-.06.32-.23.14c.33-1.5.75-2.99,1.28-4.42.1-.27.21-.53.33-.8l.27-.13.23-.1.78.04h.02l.34-.09.42-.15.35-.16h.01l.27-.2.48-.36.36-.36.23-.24v-.02s.21-.42.21-.42l.24-.6v-.06s-.03-.03-.05-.03l-.48-.06h-.01l-.73.04h-.02l-.61.25-.85.53s-.01,0-.02.02l-.76.96v.02l-.17.39-.19.29-.12.05c.5-1.06,1.15-2.09,1.89-3.05l.16-.03.38-.07h.02l.24-.11.31-.11.3-.14.21-.11.39-.23.43-.32h.01l.38-.49h0l.35-.7.22-.55.12-.24.21-.31s.02-.05,0-.07c-.01-.02-.04-.04-.07-.03l-.94.11h-.02l-.83.31h-.01l-.5.3h-.01l-.44.42c-.13.16-.28.33-.3.35-.07.04-.22.26-.3.39l-.16.21-.17.31-.11.26-.08.24-.09.29-.03.18c-.86,1.08-1.52,2.15-1.95,3.04h0l-.04-.34.14-.32.24-.35h0l.32-.7v-.02l.09-.49.03-.52-.03-.51-.05-.42-.1-.5-.11-.47-.15-.48-.28-.69s-.03-.04-.06-.04-.05.01-.06.03l-.14.24-.26.59-.12.34-.18.59-.09.33-.11.51-.06.6-.02.34h0l.05.41.09.45.1.34v.02l.44.67.04.27.12.53c-.03.07-.07.14-.09.2-.5,1.23-.92,2.45-1.27,3.68l-.11-.42.08-.44.19-.5v-.02l.15-1.54v-.02l-.3-1.24v-.02l-.59-1.06h0l-.35-.4h0l-.59-.47s-.05-.02-.07,0c-.02,0-.04.03-.05.05l-.19.85-.19.96v.67l.12.74.07.42h0l.18.48.25.52.22.39v.02s.74.67.74.67l.12.3.17.75h0c-.32,1.24-.57,2.49-.73,3.77l-.41-.59.05-.38.08-.47v-.02l-.03-.32v-.4l-.02-.4-.04-.29-.1-.55-.19-.63v-.02l-.38-.63h0l-.62-.69-.52-.47-.22-.24-.26-.37s-.05-.04-.07-.03c-.03,0-.05.03-.06.06l-.25,1.15v1.11h0l.13.71v.02l.29.68c.12.21.26.46.27.5,0,.09.22.39.31.51l.17.27.28.33.24.23.23.18.28.21.23.12.25.36.34.46c-.18,1.51-.26,3.08-.25,4.73l-.2-.25-.06-.53.05-.65-.11-1.14v-.02l-.25-.69-.36-.69-.42-.63-.38-.5-.51-.56-.49-.51-.55-.5-.88-.65s-.05-.02-.07,0c-.02,0-.04.03-.04.06v.41l.11.97.1.53.22.89.14.48.24.73.38.81.22.45h0l.36.48.46.5.38.36h.02l1.08.51.57.71c.02.9.06,1.82.13,2.78.04.56.12,1.13.21,1.71l-.34-.29-.14-.5-.04-.64h0l-.28-1.1v-.02l-.37-.62-.47-.6-.53-.53-.46-.4-.61-.44-.59-.39-.64-.37-.63-.25H.03s-.03.04-.03.06l.04.71.04.55.12.56h0l.27.65.21.45.35.67.51.71.3.4h0l.44.39.55.39.45.27h.02l1.19.26.3.25.49.43c.38,2.06,1.04,4.17,1.95,6.15l-.71-.46-.12-.47-.13-.58v-.02l-.17-.36-.17-.46-.21-.45-.18-.31-.36-.58-.49-.63h-.01l-.71-.56h0l-1.02-.48-.81-.3-.36-.17-.46-.3h-.07s-.03.04-.03.07l.22,1.43h0l.49,1.26h0l.46.76h0l.63.65c.24.19.51.42.53.45.06.1.46.35.58.43l.32.22.46.24.38.15.35.1.42.11.32.04.45.29.63.39c.13.26.25.53.39.79.66,1.26,1.41,2.45,2.24,3.53l-.34-.1-.34-.4-.31-.55h0l-.72-.87h-.01l-.59-.42-.67-.35-.69-.27-.58-.19-.72-.16-.68-.13-.72-.09-1.08-.02s-.05,0-.07.04c0,.02,0,.05,0,.08l.23.34.62.72.37.37.67.6.38.32.6.46.75.44.43.24h.01l.55.17.65.14.51.07h.02l1.15-.21.37.11.56.18h.02s.01,0,.02,0c1.25,1.56,2.66,2.91,4.19,3.98.07.05.14.09.21.14l-1.01.07-.4-.34-.48-.43h-.01l-.38-.21-.45-.3-.48-.26-.36-.16-.7-.28-.84-.23h-1.01s-.01,0-.02,0l-1.22.25-.91.28-.43.09-.61.05s-.05.02-.06.05c-.01.03,0,.06.02.08l1.11,1.13h.01l1.24.79h.01l.89.35h.02l.97.15c.34,0,.72.03.76.05s.13.03.24.03c.19,0,.42-.02.55-.03h.43l.57-.11.43-.12.37-.14.44-.18.31-.18.59-.04.78-.07c1.46,1,2.76,1.8,4.05,2.46l-.23.02-.53-.08-.29-.19-.4-.19-.35-.16-.4-.14-.53-.12-.38-.04c-.19-.03-.64-.1-.74-.06-.05,0-.41,0-.73,0l-.91.07h-.02l-.85.27h-.01l-1.21.65s-.01,0-.01,0l-1.11.98s-.03.05-.02.08c0,.03.03.05.06.05l.55.08.4.11.85.32,1.12.31h.02l.92.05h.02l.81-.17.66-.21.35-.13.46-.21.42-.24.38-.17h.02l.48-.37.4-.29,1.08.15h.03l.31-.09h0c1.23.59,2.51,1.07,3.97,1.51-1.34.19-2.8.73-3.57,1.04-.53.22-1.03.45-1.41.65-.57.31-.62.42-.61.52,0,.14-.08.34-.15.49-.09.2-.15.35-.04.44.04.03.08.04.12.04.09,0,.19-.06.25-.09,1.02-.59,4.21-1.85,5.22-2.02.76-.13,1.55-.29,2.35-.48.63.16,1.29.32,2.01.48,1.36.3,4.87,1.59,5.37,1.93.13.09.23.15.32.15.03,0,.06,0,.09-.03.11-.07.09-.2.05-.37-.03-.14-.06-.34-.05-.58,0-.04,0-.08-.04-.1-.36-.34-3.55-1.43-5.73-2.02,1.74-.51,3.47-1.14,5.01-1.83.84.35,2.7,1.02,5.1,1.3.21.02.48.04.78.04.55,0,1.21-.05,1.88-.2.81-.18,1.92-.55,2.58-1.36.02-.03.03-.06.02-.09s-.04-.06-.07-.06c-2.83-.73-6.12-.83-7.99-.25-.73.23-1.29.31-1.71.33,1.63-.8,3.17-1.8,4.35-2.62,0,0,.03-.02.04-.03.39.16,1.25.44,2.39.44.17,0,.35,0,.53-.02,3.58-.28,5.45-1.7,5.59-2.22.03-.1,0-.18-.04-.26-.18-.23-.74-.25-1.31-.25h-.11c-.44,0-3.58.45-5.34,1.3-.38.19-.69.33-.93.43,1.2-.93,2.32-2.04,3.33-3.3.33.04.86.09,1.49.09.75,0,1.65-.07,2.51-.3,2.08-.57,3-2.32,3-2.34,0-.02,0-.05,0-.08,0-.02-.04-.04-.06-.04-.04,0-.95-.11-2.42.17-1.17.22-2.02.74-2.76,1.19-.2.12-.39.24-.57.34-.26.14-.5.27-.72.38.8-1.06,1.53-2.21,2.17-3.43.23.06.65.15,1.17.15.31,0,.66-.03,1.03-.11,2.68-.59,3.7-2.36,3.72-2.76,0-.08-.02-.15-.08-.2-.19-.17-.68-.11-1-.06h-.08c-.37.06-2.57,1.2-3.68,2.02-.42.31-.7.49-.89.6.44-.86.83-1.76,1.17-2.67.14-.05.72-.28,1.49-.73,1.03-.61,2.13-1.32,3.19-2.4,1.12-1.14,1.35-2.01,1.36-2.04,0-.02,0-.04,0-.06s-.03-.03-.05-.03l.06-.19h.01Z"/>
      <path class="st12" d="M22.62,57.87c-.68-.2-.89.14-1.12.35s-.68.64-1.31,1.24c.64.1,1.3.28,1.87.53v.03c.85.35,1.66.82,2.17,1.31.89.86,1.54,2.02,1.54,2.02.37-.05.68-.06.68-.06,0,0,0-1.29-.34-2.33-.73-2.25-2.81-2.89-3.5-3.09h.01Z"/>
      <path class="st12" d="M31.41,58.22c-.23-.21-.43-.55-1.12-.35-.68.2-2.76.83-3.49,3.09-.34,1.04-.34,2.33-.34,2.33,0,0,.34-.03.71.02,0,0,.63-1.12,1.52-1.98.5-.49,1.32-.96,2.17-1.31v-.03c.57-.25,1.23-.43,1.87-.53-.64-.6-1.09-1.02-1.31-1.24h-.01Z"/>
      <path class="st12" d="M25.94,64.92l-.66-.15s-1.84,2.25-2.5,2.67c.33.91.64,1.94.64,1.94.42-.24,2.37-2.49,2.71-3.93.1-.58-.19-.53-.19-.53Z"/>
      <path class="st12" d="M19.14,65.49c-.03.81-.4,3.15-.88,5.31,1.07-.97,1.46-1.14,1.46-1.14l1.04,1.22s0-.83.16-2.24c.11-1.04.29-2.39.6-3.96,0,0-1.88.53-2.37.81h-.01Z"/>
      <path class="st12" d="M27.51,64.75h-.41s-.75-.09-.53.53c.31,1.05,2.35,3.68,2.76,3.93,0,0,.3-1.05.61-1.98-.66-.42-2.44-2.48-2.44-2.48h.01Z"/>
      <path class="st12" d="M32.77,65.66c-.37-.23-1.93-.77-1.93-.77.24,1.87.4,3.31.5,4.27.1.98.13,1.49.13,1.49l1.11-1.15s.37.19,1.38,1.23c-.35-2.19-1.22-4.25-1.2-5.06h.01Z"/>
      <path class="st1" d="M32.72,59.46c-.64.1-1.3.28-1.87.53v.03c0,.27-.14.62-.75,1.49-.48.7-1.73,1.61-2.29,1.99-.03-.06-.07-.12-.11-.16-.37-.39-.89-.29-1.25-.29-.26,0-.83-.07-1.2.27-.08.07-.14.16-.2.27-.53-.4-1.76-1.37-2.25-2.08-.61-.88-.73-1.22-.75-1.49v-.03c-.57-.25-1.23-.43-1.87-.53-.23.73-.26,1.61.96,2.54,1.29.99,3.05,1.73,3.76,1.99-.1.51-.14,1.37-.14,1.37,0,0,.22.45.88.69.57.21,1.38.24,2.03-.19.19-.12.36-.08.41-.5.04-.28,0-.92-.12-1.43.71-.25,2.49-.94,3.78-1.93,1.22-.94,1.19-1.81.96-2.54,0,0,.02,0,.02,0Z"/>
    </g>
  </g>
  <rect class="st10" x="288.23" y="19.92" width=".88" height="32.79"/>
  <path class="st4" d="M1662.71,210.01c-5.3,8.33.71,19.22,10.58,19.18,6.89-.02,12.46-5.63,12.44-12.53-.04-12.47-16.32-17.18-23.02-6.66ZM1639.68,250.94c-9.54.03-17.31-7.68-17.34-17.22-.01-3.44,1-6.8,2.91-9.66l41.19-61.66c4.78-7.15,12.81-11.46,21.41-11.49,14.28-.05,25.9,11.49,25.95,25.77l.16,44.26c.02,4.25,3.47,7.68,7.72,7.66,4.25-.02,7.7,3.41,7.72,7.66l.03,7.35c.02,4.25-3.41,7.7-7.66,7.72s-7.68,3.47-7.66,7.72v3.63c.04,6.25-5.02,11.34-11.27,11.36l-5.74.02c-6.44.02-11.68-5.18-11.7-11.62s-5.26-11.64-11.7-11.62l-34,.12Z"/>
  <path class="st4" d="M1779.75,215.3c-7.39.03-13.35,6.04-13.33,13.42.03,7.39,6.04,13.35,13.42,13.33,7.39-.03,13.35-6.04,13.33-13.42-.03-7.39-6.04-13.35-13.42-13.33ZM1779.58,167.74c33.65-.12,61.03,27.06,61.15,60.71.12,33.65-27.06,61.03-60.71,61.15-33.65.12-61.03-27.06-61.14-60.71-.12-33.65,27.06-61.02,60.71-61.14Z"/>
  <path class="st4" d="M1982.21,157.29c.28-.91.44-1.83.38-2.78-.44-7.19-4.15-13.22-14.75-11.42-17.32,2.94-33.41,10.88-45.98,22.93-16.07,15.41-25.06,36.27-24.98,57.99.08,21.72,9.21,42.51,25.39,57.81,12.65,11.96,28.8,19.79,46.14,22.61,11.58,1.88,14.4-4.31,14.68-11.52.04-.95-.12-1.87-.41-2.77-2.3-7.23-13.02-42.19-13.11-66.38s10.39-59.22,12.64-66.47Z"/>
  <path class="st4" d="M1909.22,167.65c.3-.94.47-1.9.4-2.88-.47-6.01-3.78-10.97-13.02-9.46-15.31,2.5-29.53,9.28-40.63,19.54-14.21,13.13-22.15,30.9-22.09,49.4.07,18.5,8.14,36.21,22.43,49.24,11.18,10.19,25.45,16.86,40.77,19.25,10.09,1.58,12.66-3.52,12.97-9.55.05-.98-.13-1.95-.43-2.88-2.2-6.69-11.42-35.95-11.49-56.29-.07-20.33,8.94-49.67,11.09-56.37Z"/>
  <path class="st3" d="M2217.25,292.94c-2.32,0-4.33-.36-6.03-1.09-1.7-.73-3-1.63-3.9-2.7-.9-1.07-1.37-2.1-1.4-3.07,0-.76.28-1.47.83-2.13.55-.69,1.37-1.04,2.44-1.04.8,0,1.44.16,1.92.47.49.31.83.61,1.04.88.87.97,1.75,1.7,2.65,2.18.9.45,1.89.68,2.96.68,1.14,0,1.98-.23,2.5-.68.52-.45.78-1.01.78-1.66,0-.55-.21-1.02-.62-1.4-.42-.42-1.01-.78-1.77-1.09-.76-.35-1.7-.69-2.81-1.04-1.14-.38-2.27-.78-3.38-1.2-1.07-.45-2.05-.99-2.91-1.61-.83-.66-1.49-1.44-1.98-2.34-.49-.94-.73-2.06-.73-3.38,0-1.59.42-3.02,1.25-4.26.87-1.28,2.06-2.29,3.59-3.02,1.53-.73,3.28-1.09,5.25-1.09s3.62.33,5.04.99c1.46.62,2.6,1.44,3.43,2.44.83.97,1.25,2.01,1.25,3.12,0,.83-.23,1.53-.68,2.08-.45.55-1.14.83-2.08.83-.8,0-1.47-.17-2.03-.52-.52-.35-.94-.69-1.25-1.04-.24-.31-.54-.62-.88-.94-.31-.31-.71-.57-1.2-.78-.45-.24-1.06-.36-1.82-.36-1.04,0-1.8.21-2.29.62s-.73.92-.73,1.51c0,.62.23,1.13.68,1.51.49.38,1.2.75,2.13,1.09.97.31,2.18.73,3.64,1.25,1.21.42,2.29.88,3.22,1.4.97.49,1.79,1.04,2.44,1.66.69.62,1.21,1.33,1.56,2.13.38.8.57,1.73.57,2.81,0,1.66-.43,3.17-1.3,4.52-.83,1.32-2.05,2.36-3.64,3.12-1.59.76-3.52,1.14-5.77,1.14ZM2191.2,286.44c1.91,0,3.38-.66,4.42-1.98,1.07-1.35,1.61-3.33,1.61-5.93s-.54-4.42-1.61-5.77c-1.04-1.35-2.51-2.03-4.42-2.03s-3.38.68-4.42,2.03c-1.04,1.35-1.56,3.28-1.56,5.77s.52,4.58,1.56,5.93c1.04,1.32,2.51,1.98,4.42,1.98ZM2191.2,292.78c-2.6,0-4.89-.61-6.86-1.82-1.98-1.25-3.52-2.95-4.63-5.1-1.07-2.18-1.61-4.63-1.61-7.33s.54-5.06,1.61-7.18c1.11-2.11,2.65-3.8,4.63-5.04,1.98-1.25,4.26-1.87,6.86-1.87s4.94.62,6.92,1.87,3.5,2.93,4.58,5.04c1.11,2.11,1.66,4.51,1.66,7.18s-.55,5.15-1.66,7.33c-1.07,2.15-2.6,3.85-4.58,5.1-1.98,1.21-4.28,1.82-6.92,1.82ZM2156.28,260.9c-.87,0-1.58-.29-2.13-.88-.52-.62-.76-1.4-.73-2.34.03-.9.33-1.7.88-2.39.59-.73,1.35-1.32,2.29-1.77.97-.45,2.03-.68,3.17-.68.9,0,1.66.14,2.29.42.66.24,1.21.54,1.66.88.45.31.85.59,1.2.83.35.24.69.36,1.04.36s.61-.07.78-.21c.17-.14.35-.35.52-.62.24-.35.54-.62.88-.83.35-.24.81-.36,1.4-.36.83,0,1.51.31,2.03.94.55.59.81,1.35.78,2.29-.03.9-.33,1.72-.88,2.44-.55.69-1.3,1.27-2.24,1.72-.94.42-1.99.62-3.17.62-.9,0-1.68-.12-2.34-.36-.62-.24-1.16-.52-1.61-.83-.45-.35-.87-.64-1.25-.88-.35-.28-.69-.42-1.04-.42-.31.03-.57.12-.78.26-.17.14-.35.36-.52.68-.24.28-.54.54-.88.78-.35.24-.8.36-1.35.36ZM2154.2,292.52c-.97,0-1.79-.33-2.44-.99-.66-.66-.99-1.49-.99-2.5v-20.9c0-.97.33-1.79.99-2.44.66-.66,1.47-.99,2.44-.99s1.79.35,2.44,1.04c.69.66,1.04,1.46,1.04,2.39v3.17l-1.4-.62c1.11-2.11,2.41-3.67,3.9-4.68,1.49-1.04,3.26-1.56,5.3-1.56,1.87,0,3.54.42,4.99,1.25,1.49.8,2.65,1.99,3.48,3.59s1.25,3.54,1.25,5.82v13.94c0,1.01-.33,1.84-.99,2.5-.66.66-1.47.99-2.44.99s-1.84-.33-2.5-.99c-.66-.66-.99-1.49-.99-2.5v-12.74c0-1.63-.43-2.93-1.3-3.9-.87-1.01-2.1-1.51-3.69-1.51-1.18,0-2.18.26-3.02.78-.83.49-1.47,1.16-1.92,2.03s-.68,1.82-.68,2.86v12.48c0,1.01-.33,1.84-.99,2.5-.66.66-1.49.99-2.5.99ZM2132.67,286.9c1.11,0,2.11-.23,3.02-.68.9-.45,1.61-1.09,2.13-1.92.55-.83.83-1.82.83-2.96v-1.82c0-.1-.03-.16-.1-.16-.03,0-.1.03-.21.1-.42.28-.92.49-1.51.62-.59.14-1.21.26-1.87.36-.62.07-1.27.19-1.92.36-1.59.31-2.7.73-3.33,1.25-.59.52-.88,1.18-.88,1.98,0,.87.31,1.56.94,2.08.66.52,1.63.78,2.91.78ZM2131.16,292.78c-1.59,0-3.1-.31-4.52-.94-1.39-.62-2.53-1.53-3.43-2.7-.87-1.21-1.3-2.7-1.3-4.47,0-2.53.81-4.51,2.44-5.93,1.66-1.46,4.33-2.46,8.01-3.02,1.18-.17,2.24-.33,3.17-.47.94-.17,1.68-.42,2.24-.73.59-.35.88-.88.88-1.61,0-.52-.16-.99-.47-1.4-.28-.42-.69-.73-1.25-.94-.55-.24-1.25-.36-2.08-.36-1.07,0-1.96.21-2.65.62s-1.27.9-1.72,1.46c-.45.49-.95.88-1.51,1.2-.55.28-1.2.42-1.92.42-.97,0-1.75-.24-2.34-.73-.55-.52-.83-1.21-.83-2.08s.28-1.68.83-2.44c.55-.8,1.32-1.51,2.29-2.13,1.01-.62,2.17-1.11,3.48-1.46,1.32-.38,2.74-.57,4.26-.57,2.36,0,4.33.43,5.93,1.3,1.59.83,2.79,2.01,3.59,3.54.83,1.53,1.25,3.28,1.25,5.25v10.3c0,.45.05.76.16.94.1.14.31.26.62.36.55.21,1.07.55,1.56,1.04.49.49.73,1.14.73,1.98,0,.94-.35,1.73-1.04,2.39-.66.66-1.63.97-2.91.94-1.42-.03-2.53-.38-3.33-1.04-.76-.69-1.25-1.59-1.46-2.7l-.05-.36h-.16c-.94,1.42-2.05,2.51-3.33,3.28-1.28.73-3,1.09-5.15,1.09ZM2093.39,286.33c1.7,0,3.15-.49,4.37-1.46,1.25-1.01,2.18-2.44,2.81-4.32.66-1.87.99-4.11.99-6.71s-.33-4.84-.99-6.71c-.62-1.91-1.56-3.36-2.81-4.37-1.21-1.01-2.67-1.51-4.37-1.51s-3.17.5-4.42,1.51c-1.21,1.01-2.15,2.46-2.81,4.37-.66,1.87-.99,4.11-.99,6.71s.33,4.84.99,6.71,1.59,3.31,2.81,4.32c1.25.97,2.72,1.46,4.42,1.46ZM2093.39,292.78c-2.88,0-5.46-.8-7.75-2.39-2.25-1.59-4.04-3.81-5.36-6.66-1.32-2.84-1.98-6.14-1.98-9.88s.66-7.04,1.98-9.88c1.32-2.88,3.12-5.11,5.41-6.71,2.29-1.63,4.85-2.44,7.7-2.44s5.41.81,7.7,2.44c2.29,1.59,4.09,3.83,5.41,6.71,1.32,2.84,1.98,6.14,1.98,9.88s-.66,7.04-1.98,9.88c-1.32,2.84-3.12,5.06-5.41,6.66-2.25,1.59-4.82,2.39-7.7,2.39ZM2067.72,292.52c-.94,0-1.75-.33-2.44-.99-.69-.69-1.02-1.51-.99-2.44l.73-29.85,4.58.21-17.32,20.33-3.07-3.59,24.13-.26c.94-.03,1.73.26,2.39.88.69.59,1.04,1.35,1.04,2.29s-.35,1.75-1.04,2.44c-.66.66-1.47.99-2.44.99h-22.88c-1.04,0-1.96-.36-2.76-1.09-.8-.76-1.2-1.68-1.2-2.76,0-.55.1-1.13.31-1.72.24-.59.54-1.09.88-1.51l15.5-18.51c.66-.8,1.3-1.32,1.92-1.56.66-.24,1.3-.36,1.92-.36,1.56,0,2.65.38,3.28,1.14s.94,1.59.94,2.5v30.42c0,.94-.33,1.75-.99,2.44-.66.66-1.49.99-2.5.99ZM2241.84,234.9c1.11,0,2.11-.23,3.02-.68.9-.45,1.61-1.09,2.13-1.92.55-.83.83-1.82.83-2.96v-1.82c0-.1-.03-.16-.1-.16-.03,0-.1.03-.21.1-.42.28-.92.49-1.51.62-.59.14-1.21.26-1.87.36-.62.07-1.27.19-1.92.36-1.59.31-2.7.73-3.33,1.25-.59.52-.88,1.18-.88,1.98,0,.87.31,1.56.94,2.08.66.52,1.63.78,2.91.78ZM2240.34,240.78c-1.59,0-3.1-.31-4.52-.94-1.39-.62-2.53-1.53-3.43-2.7-.87-1.21-1.3-2.7-1.3-4.47,0-2.53.81-4.51,2.44-5.93,1.66-1.46,4.33-2.46,8.01-3.02,1.18-.17,2.24-.33,3.17-.47.94-.17,1.68-.42,2.24-.73.59-.35.88-.88.88-1.61,0-.52-.16-.99-.47-1.4-.28-.42-.69-.73-1.25-.94-.55-.24-1.25-.36-2.08-.36-1.07,0-1.96.21-2.65.62s-1.27.9-1.72,1.46c-.45.49-.95.88-1.51,1.2-.55.28-1.2.42-1.92.42-.97,0-1.75-.24-2.34-.73-.55-.52-.83-1.21-.83-2.08s.28-1.68.83-2.44c.55-.8,1.32-1.51,2.29-2.13,1.01-.62,2.17-1.11,3.48-1.46,1.32-.38,2.74-.57,4.26-.57,2.36,0,4.33.43,5.93,1.3,1.59.83,2.79,2.01,3.59,3.54.83,1.53,1.25,3.28,1.25,5.25v10.3c0,.45.05.76.16.94.1.14.31.26.62.36.55.21,1.07.55,1.56,1.04s.73,1.14.73,1.98c0,.94-.35,1.73-1.04,2.39-.66.66-1.63.97-2.91.94-1.42-.03-2.53-.38-3.33-1.04-.76-.69-1.25-1.59-1.46-2.7l-.05-.36h-.16c-.94,1.42-2.05,2.51-3.33,3.28-1.28.73-3,1.09-5.15,1.09ZM2218.95,240.78c-2.53,0-4.77-.62-6.71-1.87-1.91-1.25-3.41-2.95-4.52-5.1-1.07-2.15-1.61-4.56-1.61-7.23s.54-5.06,1.61-7.18c1.07-2.15,2.58-3.85,4.52-5.1,1.98-1.25,4.26-1.87,6.86-1.87,1.8,0,3.38.29,4.73.88,1.39.55,2.48,1.3,3.28,2.24.8.94,1.2,1.94,1.2,3.02.03.97-.26,1.72-.88,2.24-.62.52-1.39.78-2.29.78-.55,0-1.04-.09-1.46-.26-.38-.21-.71-.45-.99-.73-.31-.42-.75-.83-1.3-1.25-.55-.45-1.37-.68-2.44-.68-1.18,0-2.2.31-3.07.94-.87.62-1.53,1.53-1.98,2.7s-.68,2.6-.68,4.26c0,2.53.52,4.47,1.56,5.82,1.04,1.35,2.5,2.03,4.37,2.03,1.32,0,2.31-.29,2.96-.88.66-.62,1.2-1.28,1.61-1.98.35-.59.71-1.09,1.09-1.51s.94-.62,1.66-.62c.94,0,1.72.35,2.34,1.04.62.66.94,1.49.94,2.5-.03.83-.31,1.72-.83,2.65-.52.9-1.27,1.75-2.24,2.55-.94.76-2.06,1.39-3.38,1.87-1.32.49-2.77.73-4.37.73ZM2199.52,210.05c-1.07,0-1.96-.35-2.65-1.04-.69-.69-1.04-1.68-1.04-2.96s.35-2.22,1.04-2.91c.69-.73,1.58-1.09,2.65-1.09,1.14,0,2.06.36,2.76,1.09.69.69,1.04,1.66,1.04,2.91s-.35,2.27-1.04,2.96c-.69.69-1.61,1.04-2.76,1.04ZM2199.57,240.52c-.97,0-1.8-.35-2.5-1.04-.66-.69-.99-1.51-.99-2.44v-20.9c0-.94.33-1.73.99-2.39.69-.69,1.53-1.04,2.5-1.04s1.73.35,2.39,1.04c.69.66,1.04,1.46,1.04,2.39v20.9c0,.94-.35,1.75-1.04,2.44-.66.69-1.46,1.04-2.39,1.04ZM2177.57,219.25c-.87,0-1.59-.29-2.18-.88-.59-.59-.88-1.3-.88-2.13s.29-1.54.88-2.13c.59-.59,1.32-.88,2.18-.88h12.58c.87,0,1.59.29,2.18.88.59.59.88,1.3.88,2.13s-.29,1.54-.88,2.13c-.59.59-1.32.88-2.18.88h-12.58ZM2182.67,240.52c-.94,0-1.75-.33-2.44-.99-.69-.69-1.04-1.51-1.04-2.44v-27.35c0-1.49.29-2.83.88-4,.59-1.21,1.46-2.17,2.6-2.86,1.18-.73,2.6-1.09,4.26-1.09,1.04,0,2.06.16,3.07.47,1.01.31,1.84.8,2.5,1.46.69.66,1.04,1.51,1.04,2.55,0,.94-.29,1.72-.88,2.34-.59.59-1.37.88-2.34.88-.52,0-.99-.09-1.4-.26-.38-.17-.71-.33-.99-.47-.28-.17-.57-.26-.88-.26-.38,0-.64.17-.78.52-.1.35-.16.83-.16,1.46v26.62c0,.94-.35,1.75-1.04,2.44-.66.66-1.46.99-2.39.99ZM2167.15,210.26c-.66,0-1.3-.26-1.92-.78-.62-.55-.94-1.28-.94-2.18,0-.66.17-1.28.52-1.87l2.39-4.16c.45-.66.95-1.14,1.51-1.46.55-.35,1.13-.52,1.72-.52.9,0,1.68.33,2.34.99.66.62.99,1.4.99,2.34,0,.45-.09.9-.26,1.35-.14.42-.42.85-.83,1.3l-2.91,3.69c-.35.42-.75.75-1.2.99-.45.21-.92.31-1.4.31ZM2169.07,240.52c-.97,0-1.8-.35-2.5-1.04-.66-.69-.99-1.51-.99-2.44v-20.9c0-.94.33-1.73.99-2.39.69-.69,1.53-1.04,2.5-1.04s1.73.35,2.39,1.04c.69.66,1.04,1.46,1.04,2.39v20.9c0,.94-.35,1.75-1.04,2.44-.66.69-1.46,1.04-2.39,1.04ZM2146.93,219.25c-.87,0-1.59-.29-2.18-.88-.59-.59-.88-1.3-.88-2.13s.29-1.54.88-2.13c.59-.59,1.32-.88,2.18-.88h12.53c.83,0,1.54.29,2.13.88.59.59.88,1.3.88,2.13s-.29,1.54-.88,2.13c-.59.59-1.3.88-2.13.88h-12.53ZM2155.46,240.52c-1.66,0-3.07-.35-4.21-1.04-1.14-.73-2.01-1.68-2.6-2.86-.55-1.18-.83-2.44-.83-3.8v-21.89c0-.94.33-1.73.99-2.39.66-.69,1.47-1.04,2.44-1.04s1.73.35,2.39,1.04c.69.66,1.04,1.46,1.04,2.39v21.42c0,.42.07.76.21,1.04.14.24.36.36.68.36s.59-.09.83-.26c.28-.21.59-.38.94-.52.35-.17.76-.26,1.25-.26.97,0,1.79.33,2.44.99.66.66.99,1.49.99,2.5,0,.94-.33,1.73-.99,2.39-.66.66-1.49,1.14-2.5,1.46-1.01.31-2.03.47-3.07.47ZM2120.49,240.52c-.97,0-1.79-.33-2.44-.99-.66-.66-.99-1.49-.99-2.5v-20.9c0-.97.33-1.79.99-2.44.66-.66,1.47-.99,2.44-.99s1.79.35,2.44,1.04c.69.66,1.04,1.46,1.04,2.39v3.17l-1.4-.62c1.11-2.11,2.41-3.67,3.9-4.68,1.49-1.04,3.26-1.56,5.3-1.56,1.87,0,3.54.42,4.99,1.25,1.49.8,2.65,1.99,3.48,3.59.83,1.59,1.25,3.54,1.25,5.82v13.94c0,1.01-.33,1.84-.99,2.5-.66.66-1.47.99-2.44.99s-1.84-.33-2.5-.99c-.66-.66-.99-1.49-.99-2.5v-12.74c0-1.63-.43-2.93-1.3-3.9-.87-1.01-2.1-1.51-3.69-1.51-1.18,0-2.18.26-3.02.78-.83.49-1.47,1.16-1.92,2.03s-.68,1.82-.68,2.86v12.48c0,1.01-.33,1.84-.99,2.5-.66.66-1.49.99-2.5.99ZM2096.08,223.83h10.97c-.24-1.73-.85-3.03-1.82-3.9-.94-.9-2.15-1.35-3.64-1.35s-2.67.43-3.64,1.3c-.97.83-1.59,2.15-1.87,3.95ZM2101.9,240.78c-2.5,0-4.73-.57-6.71-1.72-1.94-1.18-3.48-2.81-4.63-4.89-1.11-2.11-1.66-4.59-1.66-7.44,0-2.67.5-5.08,1.51-7.23,1.04-2.18,2.5-3.9,4.37-5.15,1.91-1.28,4.16-1.92,6.76-1.92,1.94,0,3.67.36,5.2,1.09,1.56.73,2.88,1.68,3.95,2.86,1.07,1.18,1.89,2.46,2.44,3.85.55,1.39.83,2.76.83,4.11s-.33,2.36-.99,3.12c-.62.76-1.66,1.14-3.12,1.14h-13.78c.24,1.39.68,2.53,1.3,3.43.62.87,1.37,1.51,2.24,1.92.9.42,1.89.62,2.96.62,1.14,0,2.06-.23,2.76-.68.69-.45,1.32-.99,1.87-1.61.35-.35.73-.66,1.14-.94.45-.31,1.02-.47,1.72-.47.9,0,1.65.29,2.24.88.59.55.88,1.33.88,2.34,0,.83-.29,1.65-.88,2.44-.55.76-1.35,1.47-2.39,2.13-1.01.62-2.18,1.13-3.54,1.51-1.35.38-2.84.57-4.47.57ZM2082.28,210.05c-1.07,0-1.96-.35-2.65-1.04-.69-.69-1.04-1.68-1.04-2.96s.35-2.22,1.04-2.91c.69-.73,1.58-1.09,2.65-1.09,1.14,0,2.06.36,2.76,1.09.69.69,1.04,1.66,1.04,2.91s-.35,2.27-1.04,2.96c-.69.69-1.61,1.04-2.76,1.04ZM2082.33,240.52c-.97,0-1.8-.35-2.5-1.04-.66-.69-.99-1.51-.99-2.44v-20.9c0-.94.33-1.73.99-2.39.69-.69,1.53-1.04,2.5-1.04s1.73.35,2.39,1.04c.69.66,1.04,1.46,1.04,2.39v20.9c0,.94-.35,1.75-1.04,2.44-.66.69-1.46,1.04-2.39,1.04ZM2063.04,240.78c-2.46,0-4.65-.5-6.55-1.51-1.87-1.04-3.45-2.44-4.73-4.21-1.28-1.77-2.25-3.78-2.91-6.03-.66-2.29-.99-4.7-.99-7.23,0-3.71.66-6.99,1.98-9.83s3.12-5.08,5.41-6.71c2.32-1.63,4.96-2.44,7.9-2.44,1.46,0,2.88.21,4.26.62,1.42.38,2.7.94,3.85,1.66,1.18.73,2.11,1.58,2.81,2.55.69.97,1.06,2.05,1.09,3.22,0,.94-.28,1.73-.83,2.39-.52.66-1.3.99-2.34.99-.83,0-1.49-.21-1.98-.62s-.9-.87-1.25-1.35c-.38-.76-.94-1.46-1.66-2.08-.69-.66-1.8-.99-3.33-.99-1.8,0-3.35.54-4.63,1.61-1.28,1.04-2.29,2.51-3.02,4.42-.69,1.87-1.04,4.09-1.04,6.66s.35,4.78,1.04,6.66c.73,1.84,1.72,3.26,2.96,4.26,1.28,1.01,2.77,1.51,4.47,1.51,1.42,0,2.58-.36,3.48-1.09s1.56-1.8,1.98-3.22c.24-.76.66-1.37,1.25-1.82.59-.49,1.28-.73,2.08-.73.94,0,1.73.33,2.39.99.66.66.99,1.58.99,2.76-.03,1.21-.38,2.39-1.04,3.54-.62,1.14-1.51,2.17-2.65,3.07-1.14.9-2.48,1.63-4,2.18-1.53.52-3.19.78-4.99.78ZM2193.98,182.9c1.11,0,2.11-.23,3.02-.68.9-.45,1.61-1.09,2.13-1.92.55-.83.83-1.82.83-2.96v-1.82c0-.1-.03-.16-.1-.16-.03,0-.1.03-.21.1-.42.28-.92.49-1.51.62s-1.21.26-1.87.36c-.62.07-1.27.19-1.92.36-1.59.31-2.7.73-3.33,1.25-.59.52-.88,1.18-.88,1.98,0,.87.31,1.56.94,2.08.66.52,1.63.78,2.91.78ZM2192.47,188.78c-1.59,0-3.1-.31-4.52-.94-1.39-.62-2.53-1.53-3.43-2.7-.87-1.21-1.3-2.7-1.3-4.47,0-2.53.81-4.51,2.44-5.93,1.66-1.46,4.33-2.46,8.01-3.02,1.18-.17,2.24-.33,3.17-.47.94-.17,1.68-.42,2.24-.73.59-.35.88-.88.88-1.61,0-.52-.16-.99-.47-1.4-.28-.42-.69-.73-1.25-.94-.55-.24-1.25-.36-2.08-.36-1.07,0-1.96.21-2.65.62-.69.42-1.27.9-1.72,1.46-.45.49-.95.88-1.51,1.2-.55.28-1.2.42-1.92.42-.97,0-1.75-.24-2.34-.73-.55-.52-.83-1.21-.83-2.08s.28-1.68.83-2.44c.55-.8,1.32-1.51,2.29-2.13,1.01-.62,2.17-1.11,3.48-1.46,1.32-.38,2.74-.57,4.26-.57,2.36,0,4.33.43,5.93,1.3,1.59.83,2.79,2.01,3.59,3.54.83,1.53,1.25,3.28,1.25,5.25v10.3c0,.45.05.76.16.94.1.14.31.26.62.36.55.21,1.07.55,1.56,1.04.49.49.73,1.14.73,1.98,0,.94-.35,1.73-1.04,2.39-.66.66-1.63.97-2.91.94-1.42-.03-2.53-.38-3.33-1.04-.76-.69-1.25-1.59-1.46-2.7l-.05-.36h-.16c-.94,1.42-2.05,2.51-3.33,3.28-1.28.73-3,1.09-5.15,1.09ZM2171.31,188.52c-.94,0-1.75-.33-2.44-.99-.66-.69-.99-1.53-.99-2.5v-20.9c0-.94.35-1.73,1.04-2.39.69-.69,1.54-1.04,2.55-1.04s1.85.35,2.44,1.04c.59.69.88,1.51.88,2.44v2.39l-.99-.57c.38-.83.88-1.68,1.51-2.55.62-.87,1.39-1.58,2.29-2.13.9-.59,1.89-.88,2.96-.88s1.99.31,2.65.94c.69.59,1.04,1.42,1.04,2.5,0,.94-.36,1.75-1.09,2.44-.69.66-1.59.99-2.7.99-1.32,0-2.39.24-3.22.73-.83.49-1.46,1.16-1.87,2.03-.38.83-.57,1.82-.57,2.96v12.01c0,.97-.35,1.8-1.04,2.5-.66.66-1.47.99-2.44.99ZM2148.45,188.52c-2.18,0-4-.4-5.46-1.2-1.42-.83-2.5-2.01-3.22-3.54-.69-1.53-1.04-3.38-1.04-5.56v-14.35c0-.94.33-1.73.99-2.39.69-.69,1.51-1.04,2.44-1.04s1.79.35,2.44,1.04c.66.66.99,1.46.99,2.39v13.21c0,1.91.47,3.21,1.4,3.9s2.15,1.04,3.64,1.04c1.18,0,2.18-.26,3.02-.78.83-.52,1.47-1.2,1.92-2.03.45-.87.68-1.8.68-2.81v-12.53c0-.94.33-1.73.99-2.39.69-.69,1.53-1.04,2.5-1.04s1.79.35,2.44,1.04c.66.66.99,1.46.99,2.39v21.16c0,.94-.33,1.75-.99,2.44-.66.66-1.47.99-2.44.99s-1.8-.33-2.5-.99c-.66-.69-.99-1.51-.99-2.44v-3.43l1.4.68c-1.11,2.08-2.41,3.64-3.9,4.68-1.46,1.04-3.22,1.56-5.3,1.56ZM2120.34,167.25c-.87,0-1.59-.29-2.18-.88s-.88-1.3-.88-2.13.29-1.54.88-2.13,1.32-.88,2.18-.88h12.53c.83,0,1.54.29,2.13.88s.88,1.3.88,2.13-.29,1.54-.88,2.13-1.3.88-2.13.88h-12.53ZM2128.86,188.52c-1.66,0-3.07-.35-4.21-1.04-1.14-.73-2.01-1.68-2.6-2.86-.55-1.18-.83-2.44-.83-3.8v-21.89c0-.94.33-1.73.99-2.39.66-.69,1.47-1.04,2.44-1.04s1.73.35,2.39,1.04c.69.66,1.04,1.46,1.04,2.39v21.42c0,.42.07.76.21,1.04.14.24.36.36.68.36s.59-.09.83-.26c.28-.21.59-.38.94-.52.35-.17.76-.26,1.25-.26.97,0,1.79.33,2.44.99s.99,1.49.99,2.5c0,.94-.33,1.73-.99,2.39s-1.49,1.14-2.5,1.46c-1.01.31-2.03.47-3.07.47ZM2111.16,188.52c-.97,0-1.79-.33-2.44-.99-.66-.69-.99-1.54-.99-2.55v-31.51c0-.97.33-1.79.99-2.44s1.47-.99,2.44-.99,1.84.33,2.5.99.99,1.47.99,2.44v31.51c0,1.01-.33,1.85-.99,2.55-.66.66-1.49.99-2.5.99ZM2088.31,188.52c-2.18,0-4-.4-5.46-1.2-1.42-.83-2.5-2.01-3.22-3.54-.69-1.53-1.04-3.38-1.04-5.56v-14.35c0-.94.33-1.73.99-2.39.69-.69,1.51-1.04,2.44-1.04s1.79.35,2.44,1.04c.66.66.99,1.46.99,2.39v13.21c0,1.91.47,3.21,1.4,3.9s2.15,1.04,3.64,1.04c1.18,0,2.18-.26,3.02-.78.83-.52,1.47-1.2,1.92-2.03.45-.87.68-1.8.68-2.81v-12.53c0-.94.33-1.73.99-2.39.69-.69,1.53-1.04,2.5-1.04s1.79.35,2.44,1.04c.66.66.99,1.46.99,2.39v21.16c0,.94-.33,1.75-.99,2.44-.66.66-1.47.99-2.44.99s-1.8-.33-2.5-.99c-.66-.69-.99-1.51-.99-2.44v-3.43l1.4.68c-1.11,2.08-2.41,3.64-3.9,4.68-1.46,1.04-3.22,1.56-5.3,1.56ZM2063.04,188.78c-2.46,0-4.65-.5-6.55-1.51-1.87-1.04-3.45-2.44-4.73-4.21-1.28-1.77-2.25-3.78-2.91-6.03-.66-2.29-.99-4.7-.99-7.23,0-3.71.66-6.99,1.98-9.83,1.32-2.84,3.12-5.08,5.41-6.71,2.32-1.63,4.96-2.44,7.9-2.44,1.46,0,2.88.21,4.26.62,1.42.38,2.7.94,3.85,1.66,1.18.73,2.11,1.58,2.81,2.55s1.06,2.05,1.09,3.22c0,.94-.28,1.73-.83,2.39-.52.66-1.3.99-2.34.99-.83,0-1.49-.21-1.98-.62-.49-.42-.9-.87-1.25-1.35-.38-.76-.94-1.46-1.66-2.08-.69-.66-1.8-.99-3.33-.99-1.8,0-3.35.54-4.63,1.61-1.28,1.04-2.29,2.51-3.02,4.42-.69,1.87-1.04,4.09-1.04,6.66s.35,4.78,1.04,6.66c.73,1.84,1.72,3.26,2.96,4.26,1.28,1.01,2.77,1.51,4.47,1.51,1.42,0,2.58-.36,3.48-1.09.9-.73,1.56-1.8,1.98-3.22.24-.76.66-1.37,1.25-1.82.59-.49,1.28-.73,2.08-.73.94,0,1.73.33,2.39.99.66.66.99,1.58.99,2.76-.03,1.21-.38,2.39-1.04,3.54-.62,1.14-1.51,2.17-2.65,3.07-1.14.9-2.48,1.63-4,2.18-1.53.52-3.19.78-4.99.78Z"/>
  <path class="st4" d="M313.54,33.1c-1.1,1.73.15,3.98,2.19,3.98,1.43,0,2.58-1.17,2.58-2.6,0-2.58-3.38-3.56-4.77-1.38ZM308.76,41.59c-1.98,0-3.59-1.59-3.6-3.57,0-.71.21-1.41.6-2l8.54-12.78c.99-1.48,2.65-2.38,4.44-2.38,2.96-.01,5.37,2.38,5.38,5.34l.03,9.18c0,.88.72,1.59,1.6,1.59.88,0,1.6.71,1.6,1.59v1.52c0,.88-.7,1.6-1.58,1.6s-1.59.72-1.59,1.6v.75c0,1.3-1.04,2.35-2.34,2.36h-1.19c-1.33,0-2.42-1.07-2.43-2.4s-1.09-2.41-2.43-2.41l-7.05.02Z"/>
  <path class="st4" d="M337.8,34.2c-1.53,0-2.77,1.25-2.76,2.78,0,1.53,1.25,2.77,2.78,2.76,1.53,0,2.77-1.25,2.76-2.78,0-1.53-1.25-2.77-2.78-2.76ZM337.76,24.34c6.98-.02,12.65,5.61,12.68,12.59.02,6.98-5.61,12.65-12.59,12.68-6.98.02-12.65-5.61-12.68-12.59-.02-6.98,5.61-12.65,12.59-12.68Z"/>
  <path class="st4" d="M379.77,22.17c.06-.19.09-.38.08-.58-.09-1.49-.86-2.74-3.06-2.37-3.59.61-6.93,2.26-9.53,4.75-3.33,3.2-5.19,7.52-5.18,12.02.02,4.5,1.91,8.81,5.26,11.98,2.62,2.48,5.97,4.1,9.56,4.69,2.4.39,2.99-.89,3.04-2.39,0-.2-.02-.39-.08-.58-.48-1.5-2.7-8.75-2.72-13.76s2.15-12.28,2.62-13.78Z"/>
  <path class="st4" d="M364.64,24.32c.06-.19.1-.39.08-.6-.1-1.25-.78-2.27-2.7-1.96-3.17.52-6.12,1.92-8.42,4.05-2.94,2.72-4.59,6.41-4.58,10.24.01,3.83,1.69,7.51,4.65,10.21,2.32,2.11,5.27,3.49,8.45,3.99,2.09.33,2.62-.73,2.69-1.98.01-.2-.03-.4-.09-.6-.46-1.39-2.37-7.45-2.38-11.67-.01-4.22,1.85-10.3,2.3-11.68Z"/>
  <path class="st3" d="M428.49,50.29c-.48,0-.9-.08-1.25-.23-.35-.15-.62-.34-.81-.56-.19-.22-.28-.43-.29-.64,0-.16.06-.31.17-.44.11-.14.28-.22.51-.22.17,0,.3.03.4.1.1.06.17.13.22.18.18.2.36.35.55.45.19.09.39.14.61.14.24,0,.41-.05.52-.14.11-.09.16-.21.16-.34,0-.11-.04-.21-.13-.29-.09-.09-.21-.16-.37-.23-.16-.07-.35-.14-.58-.22-.24-.08-.47-.16-.7-.25-.22-.09-.42-.2-.6-.33-.17-.14-.31-.3-.41-.49-.1-.19-.15-.43-.15-.7,0-.33.09-.63.26-.88.18-.27.43-.47.74-.63.32-.15.68-.23,1.09-.23s.75.07,1.05.2c.3.13.54.3.71.51.17.2.26.42.26.65,0,.17-.05.32-.14.43-.09.11-.24.17-.43.17-.17,0-.31-.04-.42-.11-.11-.07-.19-.14-.26-.22-.05-.06-.11-.13-.18-.19-.06-.06-.15-.12-.25-.16-.09-.05-.22-.08-.38-.08-.22,0-.37.04-.47.13s-.15.19-.15.31c0,.13.05.23.14.31.1.08.25.15.44.23.2.06.45.15.75.26.25.09.47.18.67.29.2.1.37.22.51.34.14.13.25.28.32.44.08.17.12.36.12.58,0,.34-.09.66-.27.94-.17.27-.42.49-.75.65-.33.16-.73.24-1.2.24ZM423.09,48.94c.4,0,.7-.14.92-.41.22-.28.33-.69.33-1.23s-.11-.92-.33-1.2c-.22-.28-.52-.42-.92-.42s-.7.14-.92.42c-.22.28-.32.68-.32,1.2s.11.95.32,1.23c.22.27.52.41.92.41ZM423.09,50.26c-.54,0-1.01-.13-1.42-.38-.41-.26-.73-.61-.96-1.06-.22-.45-.33-.96-.33-1.52s.11-1.05.33-1.49c.23-.44.55-.79.96-1.05.41-.26.88-.39,1.42-.39s1.02.13,1.43.39.73.61.95,1.05c.23.44.34.93.34,1.49s-.11,1.07-.34,1.52c-.22.45-.54.8-.95,1.06-.41.25-.89.38-1.43.38ZM415.85,43.65c-.18,0-.33-.06-.44-.18-.11-.13-.16-.29-.15-.49,0-.19.07-.35.18-.5.12-.15.28-.27.47-.37.2-.09.42-.14.66-.14.19,0,.34.03.47.09.14.05.25.11.34.18.09.06.18.12.25.17.07.05.14.08.22.08s.13-.01.16-.04c.04-.03.07-.07.11-.13.05-.07.11-.13.18-.17.07-.05.17-.08.29-.08.17,0,.31.06.42.19.11.12.17.28.16.47,0,.19-.07.36-.18.51-.11.14-.27.26-.46.36-.19.09-.41.13-.66.13-.19,0-.35-.03-.49-.08-.13-.05-.24-.11-.33-.17-.09-.07-.18-.13-.26-.18-.07-.06-.14-.09-.22-.09-.06,0-.12.03-.16.05-.04.03-.07.08-.11.14-.05.06-.11.11-.18.16-.07.05-.17.08-.28.08ZM415.42,50.21c-.2,0-.37-.07-.51-.2-.14-.14-.2-.31-.2-.52v-4.33c0-.2.07-.37.2-.51.14-.14.31-.2.51-.2s.37.07.51.22c.14.14.22.3.22.5v.66l-.29-.13c.23-.44.5-.76.81-.97.31-.22.68-.32,1.1-.32.39,0,.73.09,1.03.26.31.17.55.41.72.74s.26.73.26,1.21v2.89c0,.21-.07.38-.2.52-.14.14-.31.2-.51.2s-.38-.07-.52-.2c-.14-.14-.2-.31-.2-.52v-2.64c0-.34-.09-.61-.27-.81-.18-.21-.43-.31-.77-.31-.24,0-.45.05-.63.16-.17.1-.31.24-.4.42s-.14.38-.14.59v2.59c0,.21-.07.38-.2.52-.14.14-.31.2-.52.2ZM410.96,49.04c.23,0,.44-.05.63-.14.19-.09.33-.23.44-.4.11-.17.17-.38.17-.61v-.38s0-.03-.02-.03c0,0-.02,0-.04.02-.09.06-.19.1-.31.13-.12.03-.25.05-.39.08-.13.01-.26.04-.4.08-.33.06-.56.15-.69.26-.12.11-.18.24-.18.41,0,.18.06.32.19.43.14.11.34.16.6.16ZM410.65,50.26c-.33,0-.64-.06-.94-.19-.29-.13-.52-.32-.71-.56-.18-.25-.27-.56-.27-.93,0-.52.17-.93.51-1.23.34-.3.9-.51,1.66-.63.24-.04.46-.07.66-.1.19-.04.35-.09.46-.15.12-.07.18-.18.18-.33,0-.11-.03-.2-.1-.29-.06-.09-.14-.15-.26-.19-.11-.05-.26-.08-.43-.08-.22,0-.41.04-.55.13s-.26.19-.36.3c-.09.1-.2.18-.31.25-.11.06-.25.09-.4.09-.2,0-.36-.05-.49-.15-.11-.11-.17-.25-.17-.43s.06-.35.17-.51c.11-.17.27-.31.47-.44.21-.13.45-.23.72-.3.27-.08.57-.12.88-.12.49,0,.9.09,1.23.27.33.17.58.42.74.73.17.32.26.68.26,1.09v2.13c0,.09.01.16.03.19.02.03.06.05.13.08.11.04.22.11.32.22.1.1.15.24.15.41,0,.19-.07.36-.22.5-.14.14-.34.2-.6.19-.29,0-.52-.08-.69-.22-.16-.14-.26-.33-.3-.56v-.08h-.04c-.19.29-.42.52-.69.68-.27.15-.62.23-1.07.23ZM402.82,48.92c.35,0,.65-.1.91-.3.26-.21.45-.51.58-.89.14-.39.2-.85.2-1.39s-.07-1-.2-1.39c-.13-.4-.32-.7-.58-.91-.25-.21-.55-.31-.91-.31s-.66.1-.92.31c-.25.21-.45.51-.58.91-.14.39-.2.85-.2,1.39s.07,1,.2,1.39.33.69.58.89c.26.2.56.3.92.3ZM402.82,50.26c-.6,0-1.13-.17-1.61-.5-.47-.33-.84-.79-1.11-1.38-.27-.59-.41-1.27-.41-2.05s.14-1.46.41-2.05c.27-.6.65-1.06,1.12-1.39.47-.34,1.01-.51,1.6-.51s1.12.17,1.6.51c.47.33.85.79,1.12,1.39.27.59.41,1.27.41,2.05s-.14,1.46-.41,2.05c-.27.59-.65,1.05-1.12,1.38-.47.33-1,.5-1.6.5ZM397.5,50.21c-.19,0-.36-.07-.51-.2-.14-.14-.21-.31-.2-.51l.15-6.19.95.04-3.59,4.21-.64-.74,5-.05c.19,0,.36.05.5.18.14.12.22.28.22.47s-.07.36-.22.51c-.14.14-.31.2-.51.2h-4.74c-.22,0-.41-.08-.57-.23-.17-.16-.25-.35-.25-.57,0-.11.02-.23.06-.36.05-.12.11-.23.18-.31l3.21-3.84c.14-.17.27-.27.4-.32.14-.05.27-.08.4-.08.32,0,.55.08.68.24s.19.33.19.52v6.31c0,.19-.07.36-.2.51-.14.14-.31.2-.52.2ZM433.59,38.26c.23,0,.44-.05.63-.14.19-.09.33-.23.44-.4.11-.17.17-.38.17-.61v-.38s0-.03-.02-.03c0,0-.02,0-.04.02-.09.06-.19.1-.31.13-.12.03-.25.05-.39.08-.13.01-.26.04-.4.08-.33.06-.56.15-.69.26-.12.11-.18.24-.18.41,0,.18.06.32.19.43.14.11.34.16.6.16ZM433.28,39.48c-.33,0-.64-.06-.94-.19-.29-.13-.52-.32-.71-.56-.18-.25-.27-.56-.27-.93,0-.52.17-.93.51-1.23.34-.3.9-.51,1.66-.63.24-.04.46-.07.66-.1.19-.04.35-.09.46-.15.12-.07.18-.18.18-.33,0-.11-.03-.2-.1-.29-.06-.09-.14-.15-.26-.19-.11-.05-.26-.08-.43-.08-.22,0-.41.04-.55.13s-.26.19-.36.3c-.09.1-.2.18-.31.25-.11.06-.25.09-.4.09-.2,0-.36-.05-.49-.15-.11-.11-.17-.25-.17-.43s.06-.35.17-.51c.11-.17.27-.31.47-.44.21-.13.45-.23.72-.3.27-.08.57-.12.88-.12.49,0,.9.09,1.23.27.33.17.58.42.74.73.17.32.26.68.26,1.09v2.13c0,.09.01.16.03.19.02.03.06.05.13.08.11.04.22.11.32.22s.15.24.15.41c0,.19-.07.36-.22.5-.14.14-.34.2-.6.19-.29,0-.52-.08-.69-.22-.16-.14-.26-.33-.3-.56v-.08h-.04c-.19.29-.42.52-.69.68-.27.15-.62.23-1.07.23ZM428.85,39.48c-.52,0-.99-.13-1.39-.39-.4-.26-.71-.61-.94-1.06-.22-.45-.33-.95-.33-1.5s.11-1.05.33-1.49c.22-.45.54-.8.94-1.06.41-.26.88-.39,1.42-.39.37,0,.7.06.98.18.29.11.51.27.68.46.17.19.25.4.25.63,0,.2-.05.36-.18.46-.13.11-.29.16-.47.16-.11,0-.22-.02-.3-.05-.08-.04-.15-.09-.2-.15-.06-.09-.15-.17-.27-.26-.11-.09-.28-.14-.51-.14-.24,0-.46.06-.64.19-.18.13-.32.32-.41.56s-.14.54-.14.88c0,.52.11.93.32,1.21.22.28.52.42.91.42.27,0,.48-.06.61-.18.14-.13.25-.27.33-.41.07-.12.15-.23.23-.31s.19-.13.34-.13c.19,0,.36.07.49.22.13.14.19.31.19.52,0,.17-.06.36-.17.55-.11.19-.26.36-.46.53-.19.16-.43.29-.7.39-.27.1-.57.15-.91.15ZM424.82,33.11c-.22,0-.41-.07-.55-.22-.14-.14-.22-.35-.22-.61s.07-.46.22-.6c.14-.15.33-.23.55-.23.24,0,.43.08.57.23.14.14.22.34.22.6s-.07.47-.22.61c-.14.14-.33.22-.57.22ZM424.83,39.43c-.2,0-.37-.07-.52-.22-.14-.14-.2-.31-.2-.51v-4.33c0-.19.07-.36.2-.5.14-.14.32-.22.52-.22s.36.07.5.22c.14.14.22.3.22.5v4.33c0,.19-.07.36-.22.51-.14.14-.3.22-.5.22ZM420.27,35.02c-.18,0-.33-.06-.45-.18-.12-.12-.18-.27-.18-.44s.06-.32.18-.44c.12-.12.27-.18.45-.18h2.61c.18,0,.33.06.45.18.12.12.18.27.18.44s-.06.32-.18.44c-.12.12-.27.18-.45.18h-2.61ZM421.32,39.43c-.19,0-.36-.07-.51-.2-.14-.14-.22-.31-.22-.51v-5.67c0-.31.06-.59.18-.83.12-.25.3-.45.54-.59.24-.15.54-.23.88-.23.22,0,.43.03.64.1.21.06.38.17.52.3.14.14.22.31.22.53,0,.19-.06.36-.18.49-.12.12-.28.18-.49.18-.11,0-.2-.02-.29-.05-.08-.04-.15-.07-.2-.1-.06-.04-.12-.05-.18-.05-.08,0-.13.04-.16.11-.02.07-.03.17-.03.3v5.52c0,.19-.07.36-.22.51-.14.14-.3.2-.5.2ZM418.11,33.15c-.14,0-.27-.05-.4-.16-.13-.11-.19-.27-.19-.45,0-.14.04-.27.11-.39l.5-.86c.09-.14.2-.24.31-.3.11-.07.23-.11.36-.11.19,0,.35.07.49.2.14.13.2.29.2.49,0,.09-.02.19-.05.28-.03.09-.09.18-.17.27l-.6.77c-.07.09-.15.15-.25.2-.09.04-.19.06-.29.06ZM418.51,39.43c-.2,0-.37-.07-.52-.22-.14-.14-.2-.31-.2-.51v-4.33c0-.19.07-.36.2-.5.14-.14.32-.22.52-.22s.36.07.5.22c.14.14.22.3.22.5v4.33c0,.19-.07.36-.22.51-.14.14-.3.22-.5.22ZM413.92,35.02c-.18,0-.33-.06-.45-.18-.12-.12-.18-.27-.18-.44s.06-.32.18-.44c.12-.12.27-.18.45-.18h2.6c.17,0,.32.06.44.18.12.12.18.27.18.44s-.06.32-.18.44c-.12.12-.27.18-.44.18h-2.6ZM415.68,39.43c-.34,0-.64-.07-.87-.22-.24-.15-.42-.35-.54-.59-.11-.24-.17-.51-.17-.79v-4.54c0-.19.07-.36.2-.5.14-.14.31-.22.51-.22s.36.07.5.22c.14.14.22.3.22.5v4.44c0,.09.01.16.04.22.03.05.08.08.14.08s.12-.02.17-.05c.06-.04.12-.08.19-.11.07-.04.16-.05.26-.05.2,0,.37.07.51.2.14.14.2.31.2.52,0,.19-.07.36-.2.5-.14.14-.31.24-.52.3-.21.06-.42.1-.64.1ZM408.44,39.43c-.2,0-.37-.07-.51-.2-.14-.14-.2-.31-.2-.52v-4.33c0-.2.07-.37.2-.51.14-.14.31-.2.51-.2s.37.07.51.22c.14.14.22.3.22.5v.66l-.29-.13c.23-.44.5-.76.81-.97.31-.22.68-.32,1.1-.32.39,0,.73.09,1.03.26.31.17.55.41.72.74.17.33.26.73.26,1.21v2.89c0,.21-.07.38-.2.52-.14.14-.31.2-.51.2s-.38-.07-.52-.2c-.14-.14-.2-.31-.2-.52v-2.64c0-.34-.09-.61-.27-.81-.18-.21-.43-.31-.77-.31-.24,0-.45.05-.63.16-.17.1-.31.24-.4.42s-.14.38-.14.59v2.59c0,.21-.07.38-.2.52-.14.14-.31.2-.52.2ZM403.37,35.97h2.27c-.05-.36-.18-.63-.38-.81-.19-.19-.45-.28-.75-.28s-.55.09-.75.27c-.2.17-.33.45-.39.82ZM404.58,39.48c-.52,0-.98-.12-1.39-.36-.4-.24-.72-.58-.96-1.01-.23-.44-.34-.95-.34-1.54,0-.55.1-1.05.31-1.5.22-.45.52-.81.91-1.07.4-.27.86-.4,1.4-.4.4,0,.76.08,1.08.23.32.15.6.35.82.59.22.24.39.51.51.8.11.29.17.57.17.85s-.07.49-.2.65c-.13.16-.34.24-.65.24h-2.86c.05.29.14.52.27.71.13.18.28.31.46.4.19.09.39.13.61.13.24,0,.43-.05.57-.14.14-.09.27-.2.39-.33.07-.07.15-.14.24-.19.09-.06.21-.1.36-.1.19,0,.34.06.46.18.12.11.18.28.18.49,0,.17-.06.34-.18.51-.11.16-.28.31-.5.44-.21.13-.45.23-.73.31-.28.08-.59.12-.93.12ZM400.51,33.11c-.22,0-.41-.07-.55-.22-.14-.14-.22-.35-.22-.61s.07-.46.22-.6c.14-.15.33-.23.55-.23.24,0,.43.08.57.23.14.14.22.34.22.6s-.07.47-.22.61c-.14.14-.33.22-.57.22ZM400.52,39.43c-.2,0-.37-.07-.52-.22-.14-.14-.2-.31-.2-.51v-4.33c0-.19.07-.36.2-.5.14-.14.32-.22.52-.22s.36.07.5.22c.14.14.22.3.22.5v4.33c0,.19-.07.36-.22.51-.14.14-.3.22-.5.22ZM396.53,39.48c-.51,0-.96-.1-1.36-.31-.39-.22-.72-.51-.98-.87-.27-.37-.47-.78-.6-1.25-.14-.47-.2-.97-.2-1.5,0-.77.14-1.45.41-2.04s.65-1.05,1.12-1.39c.48-.34,1.03-.51,1.64-.51.3,0,.6.04.88.13.29.08.56.19.8.34.24.15.44.33.58.53.14.2.22.42.23.67,0,.19-.06.36-.17.5-.11.14-.27.2-.49.2-.17,0-.31-.04-.41-.13s-.19-.18-.26-.28c-.08-.16-.19-.3-.34-.43-.14-.14-.37-.2-.69-.2-.37,0-.69.11-.96.33-.27.22-.47.52-.63.92-.14.39-.22.85-.22,1.38s.07.99.22,1.38c.15.38.36.68.61.88.27.21.57.31.93.31.29,0,.54-.08.72-.23s.32-.37.41-.67c.05-.16.14-.28.26-.38.12-.1.27-.15.43-.15.19,0,.36.07.5.2.14.14.2.33.2.57,0,.25-.08.5-.22.73-.13.24-.31.45-.55.64-.24.19-.51.34-.83.45-.32.11-.66.16-1.03.16ZM423.67,27.48c.23,0,.44-.05.63-.14.19-.09.33-.23.44-.4.11-.17.17-.38.17-.61v-.38s0-.03-.02-.03c0,0-.02,0-.04.02-.09.06-.19.1-.31.13s-.25.05-.39.08c-.13.01-.26.04-.4.08-.33.06-.56.15-.69.26-.12.11-.18.24-.18.41,0,.18.06.32.19.43.14.11.34.16.6.16ZM423.36,28.7c-.33,0-.64-.06-.94-.19-.29-.13-.52-.32-.71-.56-.18-.25-.27-.56-.27-.93,0-.52.17-.93.51-1.23.34-.3.9-.51,1.66-.63.24-.04.46-.07.66-.1.19-.04.35-.09.46-.15.12-.07.18-.18.18-.33,0-.11-.03-.2-.1-.29-.06-.09-.14-.15-.26-.19-.11-.05-.26-.08-.43-.08-.22,0-.41.04-.55.13-.14.09-.26.19-.36.3-.09.1-.2.18-.31.25-.11.06-.25.09-.4.09-.2,0-.36-.05-.49-.15-.11-.11-.17-.25-.17-.43s.06-.35.17-.51c.11-.17.27-.31.47-.44.21-.13.45-.23.72-.3.27-.08.57-.12.88-.12.49,0,.9.09,1.23.27.33.17.58.42.74.73.17.32.26.68.26,1.09v2.13c0,.09.01.16.03.19.02.03.06.05.13.08.11.04.22.11.32.22.1.1.15.24.15.41,0,.19-.07.36-.22.5-.14.14-.34.2-.6.19-.29,0-.52-.08-.69-.22-.16-.14-.26-.33-.3-.56v-.08h-.04c-.19.29-.42.52-.69.68-.27.15-.62.23-1.07.23ZM418.97,28.65c-.19,0-.36-.07-.51-.2-.14-.14-.2-.32-.2-.52v-4.33c0-.19.07-.36.22-.5.14-.14.32-.22.53-.22s.38.07.51.22c.12.14.18.31.18.51v.5l-.2-.12c.08-.17.18-.35.31-.53.13-.18.29-.33.47-.44.19-.12.39-.18.61-.18s.41.06.55.19c.14.12.22.29.22.52,0,.19-.08.36-.23.51-.14.14-.33.2-.56.2-.27,0-.5.05-.67.15-.17.1-.3.24-.39.42-.08.17-.12.38-.12.61v2.49c0,.2-.07.37-.22.52-.14.14-.31.2-.51.2ZM414.23,28.65c-.45,0-.83-.08-1.13-.25-.29-.17-.52-.42-.67-.73-.14-.32-.22-.7-.22-1.15v-2.98c0-.19.07-.36.2-.5.14-.14.31-.22.51-.22s.37.07.51.22c.14.14.2.3.2.5v2.74c0,.4.1.66.29.81s.45.22.75.22c.24,0,.45-.05.63-.16.17-.11.31-.25.4-.42.09-.18.14-.37.14-.58v-2.6c0-.19.07-.36.2-.5.14-.14.32-.22.52-.22s.37.07.51.22c.14.14.2.3.2.5v4.39c0,.19-.07.36-.2.51-.14.14-.31.2-.51.2s-.37-.07-.52-.2c-.14-.14-.2-.31-.2-.51v-.71l.29.14c-.23.43-.5.75-.81.97-.3.22-.67.32-1.1.32ZM408.4,24.24c-.18,0-.33-.06-.45-.18s-.18-.27-.18-.44.06-.32.18-.44.27-.18.45-.18h2.6c.17,0,.32.06.44.18s.18.27.18.44-.06.32-.18.44-.27.18-.44.18h-2.6ZM410.17,28.65c-.34,0-.64-.07-.87-.22-.24-.15-.42-.35-.54-.59-.11-.24-.17-.51-.17-.79v-4.54c0-.19.07-.36.2-.5.14-.14.31-.22.51-.22s.36.07.5.22c.14.14.22.3.22.5v4.44c0,.09.01.16.04.22.03.05.08.08.14.08s.12-.02.17-.05c.06-.04.12-.08.19-.11.07-.04.16-.05.26-.05.2,0,.37.07.51.2s.2.31.2.52c0,.19-.07.36-.2.5s-.31.24-.52.3c-.21.06-.42.1-.64.1ZM406.5,28.65c-.2,0-.37-.07-.51-.2-.14-.14-.2-.32-.2-.53v-6.53c0-.2.07-.37.2-.51s.31-.2.51-.2.38.07.52.2.2.31.2.51v6.53c0,.21-.07.38-.2.53-.14.14-.31.2-.52.2ZM401.76,28.65c-.45,0-.83-.08-1.13-.25-.29-.17-.52-.42-.67-.73-.14-.32-.22-.7-.22-1.15v-2.98c0-.19.07-.36.2-.5.14-.14.31-.22.51-.22s.37.07.51.22c.14.14.2.3.2.5v2.74c0,.4.1.66.29.81s.45.22.75.22c.24,0,.45-.05.63-.16.17-.11.31-.25.4-.42.09-.18.14-.37.14-.58v-2.6c0-.19.07-.36.2-.5.14-.14.32-.22.52-.22s.37.07.51.22c.14.14.2.3.2.5v4.39c0,.19-.07.36-.2.51-.14.14-.31.2-.51.2s-.37-.07-.52-.2c-.14-.14-.2-.31-.2-.51v-.71l.29.14c-.23.43-.5.75-.81.97-.3.22-.67.32-1.1.32ZM396.53,28.7c-.51,0-.96-.1-1.36-.31-.39-.22-.72-.51-.98-.87-.27-.37-.47-.78-.6-1.25-.14-.47-.2-.97-.2-1.5,0-.77.14-1.45.41-2.04.27-.59.65-1.05,1.12-1.39.48-.34,1.03-.51,1.64-.51.3,0,.6.04.88.13.29.08.56.19.8.34.24.15.44.33.58.53s.22.42.23.67c0,.19-.06.36-.17.5-.11.14-.27.2-.49.2-.17,0-.31-.04-.41-.13-.1-.09-.19-.18-.26-.28-.08-.16-.19-.3-.34-.43-.14-.14-.37-.2-.69-.2-.37,0-.69.11-.96.33-.27.22-.47.52-.63.92-.14.39-.22.85-.22,1.38s.07.99.22,1.38c.15.38.36.68.61.88.27.21.57.31.93.31.29,0,.54-.08.72-.23.19-.15.32-.37.41-.67.05-.16.14-.28.26-.38.12-.1.27-.15.43-.15.19,0,.36.07.5.2.14.14.2.33.2.57,0,.25-.08.5-.22.73-.13.24-.31.45-.55.64-.24.19-.51.34-.83.45-.32.11-.66.16-1.03.16Z"/>
</svg>