<?xml version="1.0" encoding="UTF-8"?>
<svg id="Capa_1" xmlns="http://www.w3.org/2000/svg" version="1.1" xmlns:xlink="http://www.w3.org/1999/xlink" viewBox="0 0 841.89 595.28">
  <!-- Generator: Adobe Illustrator 30.3.0, SVG Export Plug-In . SVG Version: 2.1.3 Build 182)  -->
  <defs>
    <style>
      .st0 {
        stroke: #d1d1d1;
        stroke-width: 1.09px;
      }

      .st0, .st1, .st2 {
        fill: none;
      }

      .st0, .st2 {
        stroke-miterlimit: 10;
      }

      .st3 {
        opacity: .15;
      }

      .st3, .st4 {
        mix-blend-mode: multiply;
      }

      .st5 {
        isolation: isolate;
      }

      .st6 {
        fill: #d6eceb;
      }

      .st2 {
        stroke: #d6eceb;
        stroke-width: 32px;
      }

      .st7 {
        clip-path: url(#clippath);
      }
    </style>
    <clipPath id="clippath">
      <rect class="st1" y="0" width="841.89" height="595.28"/>
    </clipPath>
  </defs>
  <g>
    <g>
      <rect class="st6" x="-1017.48" y="-945.29" width="149.44" height="49.8" transform="translate(-1889.13 -1837.08) rotate(179.78)"/>
      <rect class="st6" x="-1155.86" y="-1024.46" width="149.44" height="49.8" transform="translate(-761.69 -2436.89) rotate(-120.22)"/>
      <rect class="st6" x="-1156.48" y="-1183.87" width="149.44" height="49.8" transform="translate(461.41 -1522.37) rotate(-60.22)"/>
      <rect class="st6" x="-1018.73" y="-1264.12" width="149.44" height="49.8" transform="translate(4.85 -3.71) rotate(-.22)"/>
      <rect class="st6" x="-880.36" y="-1184.95" width="149.44" height="49.8" transform="translate(-1402.45 120.03) rotate(59.78)"/>
      <rect class="st6" x="-879.74" y="-1025.54" width="149.44" height="49.8" transform="translate(-2073.33 -798.82) rotate(119.78)"/>
    </g>
    <g>
      <rect class="st6" x="-1017.48" y="-945.29" width="149.44" height="49.8" transform="translate(-1889.13 -1837.08) rotate(179.78)"/>
      <rect class="st6" x="-1155.86" y="-1024.46" width="149.44" height="49.8" transform="translate(-761.69 -2436.89) rotate(-120.22)"/>
      <rect class="st6" x="-1156.48" y="-1183.87" width="149.44" height="49.8" transform="translate(461.41 -1522.37) rotate(-60.22)"/>
      <rect class="st6" x="-1018.73" y="-1264.12" width="149.44" height="49.8" transform="translate(4.85 -3.71) rotate(-.22)"/>
      <rect class="st6" x="-880.36" y="-1184.95" width="149.44" height="49.8" transform="translate(-1402.45 120.03) rotate(59.78)"/>
      <rect class="st6" x="-879.74" y="-1025.54" width="149.44" height="49.8" transform="translate(-2073.33 -798.82) rotate(119.78)"/>
    </g>
  </g>
  <g>
    <g id="_x3C_Repetición_radial_x3E_">
      <rect class="st6" x="-557.48" y="-971.8" width="134.08" height="41.66" transform="translate(458.6 -1445.14) rotate(-90.22)"/>
    </g>
    <g id="_x3C_Repetición_radial_x3E_1" data-name="_x3C_Repetición_radial_x3E_">
      <rect class="st6" x="-669.31" y="-1035.78" width="134.08" height="41.66" transform="translate(429.04 -441.15) rotate(-30.22)"/>
    </g>
    <g id="_x3C_Repetición_radial_x3E_2" data-name="_x3C_Repetición_radial_x3E_">
      <rect class="st6" x="-669.81" y="-1164.62" width="134.08" height="41.66" transform="translate(-647.59 148.33) rotate(29.78)"/>
    </g>
    <g id="_x3C_Repetición_radial_x3E_3" data-name="_x3C_Repetición_radial_x3E_">
      <rect class="st6" x="-558.49" y="-1229.47" width="134.08" height="41.66" transform="translate(-1698.16 -712.46) rotate(89.78)"/>
    </g>
    <g id="_x3C_Repetición_radial_x3E_4" data-name="_x3C_Repetición_radial_x3E_">
      <rect class="st6" x="-446.66" y="-1165.49" width="134.08" height="41.66" transform="translate(-1283.85 -1942.62) rotate(149.78)"/>
    </g>
    <g id="_x3C_Repetición_radial_x3E_5" data-name="_x3C_Repetición_radial_x3E_">
      <rect class="st6" x="-446.16" y="-1036.66" width="134.08" height="41.66" transform="translate(-203.73 -2085.81) rotate(-150.22)"/>
    </g>
  </g>
  <g>
    <circle class="st2" cx="-62.59" cy="-966.28" r="49.78"/>
    <circle class="st2" cx="-173.46" cy="-1082.46" r="49.78"/>
    <circle class="st2" cx="-57.28" cy="-1193.33" r="49.78"/>
    <circle class="st2" cx="53.6" cy="-1077.15" r="49.78"/>
  </g>
  <g class="st7">
    <g class="st5">
      <g id="PRINT">
        <g class="st3">
          <g class="st4">
            <polyline class="st0" points="-5.44 661.26 17 650.48 39.44 661.26 61.87 650.48 84.31 661.26 106.75 650.48 129.19 661.26 151.63 650.48 174.07 661.26 196.51 650.48 218.95 661.26 241.38 650.48 263.83 661.26 286.27 650.48 308.71 661.26 331.15 650.48 353.59 661.26 376.03 650.48 398.48 661.26 420.9 650.48 443.33 661.26 465.78 650.48 488.21 661.26 510.65 650.48 533.08 661.26 555.52 650.48 577.96 661.26 600.41 650.48 622.85 661.26 645.29 650.48 667.74 661.26 690.19 650.48 712.63 661.26 735.08 650.48 757.53 661.26 779.98 650.48 802.43 661.26 824.87 650.48 847.32 661.26"/>
          </g>
          <g class="st4">
            <polyline class="st0" points="-5.44 652.31 17 641.52 39.44 652.31 61.87 641.52 84.31 652.31 106.75 641.52 129.19 652.31 151.63 641.52 174.07 652.31 196.51 641.52 218.95 652.31 241.38 641.52 263.83 652.31 286.27 641.52 308.71 652.31 331.15 641.52 353.59 652.31 376.03 641.52 398.48 652.31 420.9 641.52 443.33 652.31 465.78 641.52 488.21 652.31 510.65 641.52 533.08 652.31 555.52 641.52 577.96 652.31 600.41 641.52 622.85 652.31 645.29 641.52 667.74 652.31 690.19 641.52 712.63 652.31 735.08 641.52 757.53 652.31 779.98 641.52 802.43 652.31 824.87 641.52 847.32 652.31"/>
          </g>
          <g class="st4">
            <polyline class="st0" points="-5.44 643.36 17 632.57 39.44 643.36 61.87 632.57 84.31 643.36 106.75 632.57 129.19 643.36 151.63 632.57 174.07 643.36 196.51 632.57 218.95 643.36 241.38 632.57 263.83 643.36 286.27 632.57 308.71 643.36 331.15 632.57 353.59 643.36 376.03 632.57 398.48 643.36 420.9 632.57 443.33 643.36 465.78 632.57 488.21 643.36 510.65 632.57 533.08 643.36 555.52 632.57 577.96 643.36 600.41 632.57 622.85 643.36 645.29 632.57 667.74 643.36 690.19 632.57 712.63 643.36 735.08 632.57 757.53 643.36 779.98 632.57 802.43 643.36 824.87 632.57 847.32 643.36"/>
          </g>
          <g class="st4">
            <polyline class="st0" points="-5.44 634.4 17 623.62 39.44 634.4 61.87 623.62 84.31 634.4 106.75 623.62 129.19 634.4 151.63 623.62 174.07 634.4 196.51 623.62 218.95 634.4 241.38 623.62 263.83 634.4 286.27 623.62 308.71 634.4 331.15 623.62 353.59 634.4 376.03 623.62 398.48 634.4 420.9 623.62 443.33 634.4 465.78 623.62 488.21 634.4 510.65 623.62 533.08 634.4 555.52 623.62 577.96 634.4 600.41 623.62 622.85 634.4 645.29 623.62 667.74 634.4 690.19 623.62 712.63 634.4 735.08 623.62 757.53 634.4 779.98 623.62 802.43 634.4 824.87 623.62 847.32 634.4"/>
          </g>
          <g class="st4">
            <polyline class="st0" points="-5.44 625.45 17 614.66 39.44 625.45 61.87 614.66 84.31 625.45 106.75 614.66 129.19 625.45 151.63 614.66 174.07 625.45 196.51 614.66 218.95 625.45 241.38 614.66 263.83 625.45 286.27 614.66 308.71 625.45 331.15 614.66 353.59 625.45 376.03 614.66 398.48 625.45 420.9 614.66 443.33 625.45 465.78 614.66 488.21 625.45 510.65 614.66 533.08 625.45 555.52 614.66 577.96 625.45 600.41 614.66 622.85 625.45 645.29 614.66 667.74 625.45 690.19 614.66 712.63 625.45 735.08 614.66 757.53 625.45 779.98 614.66 802.43 625.45 824.87 614.66 847.32 625.45"/>
          </g>
          <g class="st4">
            <polyline class="st0" points="-5.44 616.5 17 605.71 39.44 616.5 61.87 605.71 84.31 616.5 106.75 605.71 129.19 616.5 151.63 605.71 174.07 616.5 196.51 605.71 218.95 616.5 241.38 605.71 263.83 616.5 286.27 605.71 308.71 616.5 331.15 605.71 353.59 616.5 376.03 605.71 398.48 616.5 420.9 605.71 443.33 616.5 465.78 605.71 488.21 616.5 510.65 605.71 533.08 616.5 555.52 605.71 577.96 616.5 600.41 605.71 622.85 616.5 645.29 605.71 667.74 616.5 690.19 605.71 712.63 616.5 735.08 605.71 757.53 616.5 779.98 605.71 802.43 616.5 824.87 605.71 847.32 616.5"/>
          </g>
          <g class="st4">
            <polyline class="st0" points="-5.44 607.54 17 596.76 39.44 607.54 61.87 596.76 84.31 607.54 106.75 596.76 129.19 607.54 151.63 596.76 174.07 607.54 196.51 596.76 218.95 607.54 241.38 596.76 263.83 607.54 286.27 596.76 308.71 607.54 331.15 596.76 353.59 607.54 376.03 596.76 398.48 607.54 420.9 596.76 443.33 607.54 465.78 596.76 488.21 607.54 510.65 596.76 533.08 607.54 555.52 596.76 577.96 607.54 600.41 596.76 622.85 607.54 645.29 596.76 667.74 607.54 690.19 596.76 712.63 607.54 735.08 596.76 757.53 607.54 779.98 596.76 802.43 607.54 824.87 596.76 847.32 607.54"/>
          </g>
          <g class="st4">
            <polyline class="st0" points="-5.44 598.59 17 587.8 39.44 598.59 61.87 587.8 84.31 598.59 106.75 587.8 129.19 598.59 151.63 587.8 174.07 598.59 196.51 587.8 218.95 598.59 241.38 587.8 263.83 598.59 286.27 587.8 308.71 598.59 331.15 587.8 353.59 598.59 376.03 587.8 398.48 598.59 420.9 587.8 443.33 598.59 465.78 587.8 488.21 598.59 510.65 587.8 533.08 598.59 555.52 587.8 577.96 598.59 600.41 587.8 622.85 598.59 645.29 587.8 667.74 598.59 690.19 587.8 712.63 598.59 735.08 587.8 757.53 598.59 779.98 587.8 802.43 598.59 824.87 587.8 847.32 598.59"/>
          </g>
          <g class="st4">
            <polyline class="st0" points="-5.44 589.64 17 578.85 39.44 589.64 61.87 578.85 84.31 589.64 106.75 578.85 129.19 589.64 151.63 578.85 174.07 589.64 196.51 578.85 218.95 589.64 241.38 578.85 263.83 589.64 286.27 578.85 308.71 589.64 331.15 578.85 353.59 589.64 376.03 578.85 398.48 589.64 420.9 578.85 443.33 589.64 465.78 578.85 488.21 589.64 510.65 578.85 533.08 589.64 555.52 578.85 577.96 589.64 600.41 578.85 622.85 589.64 645.29 578.85 667.74 589.64 690.19 578.85 712.63 589.64 735.08 578.85 757.53 589.64 779.98 578.85 802.43 589.64 824.87 578.85 847.32 589.64"/>
          </g>
          <g class="st4">
            <polyline class="st0" points="-5.44 580.68 17 569.9 39.44 580.68 61.87 569.9 84.31 580.68 106.75 569.9 129.19 580.68 151.63 569.9 174.07 580.68 196.51 569.9 218.95 580.68 241.38 569.9 263.83 580.68 286.27 569.9 308.71 580.68 331.15 569.9 353.59 580.68 376.03 569.9 398.48 580.68 420.9 569.9 443.33 580.68 465.78 569.9 488.21 580.68 510.65 569.9 533.08 580.68 555.52 569.9 577.96 580.68 600.41 569.9 622.85 580.68 645.29 569.9 667.74 580.68 690.19 569.9 712.63 580.68 735.08 569.9 757.53 580.68 779.98 569.9 802.43 580.68 824.87 569.9 847.32 580.68"/>
          </g>
          <g class="st4">
            <polyline class="st0" points="-5.44 571.73 17 560.94 39.44 571.73 61.87 560.94 84.31 571.73 106.75 560.94 129.19 571.73 151.63 560.94 174.07 571.73 196.51 560.94 218.95 571.73 241.38 560.94 263.83 571.73 286.27 560.94 308.71 571.73 331.15 560.94 353.59 571.73 376.03 560.94 398.48 571.73 420.9 560.94 443.33 571.73 465.78 560.94 488.21 571.73 510.65 560.94 533.08 571.73 555.52 560.94 577.96 571.73 600.41 560.94 622.85 571.73 645.29 560.94 667.74 571.73 690.19 560.94 712.63 571.73 735.08 560.94 757.53 571.73 779.98 560.94 802.43 571.73 824.87 560.94 847.32 571.73"/>
          </g>
          <g class="st4">
            <polyline class="st0" points="-5.44 562.78 17 551.99 39.44 562.78 61.87 551.99 84.31 562.78 106.75 551.99 129.19 562.78 151.63 551.99 174.07 562.78 196.51 551.99 218.95 562.78 241.38 551.99 263.83 562.78 286.27 551.99 308.71 562.78 331.15 551.99 353.59 562.78 376.03 551.99 398.48 562.78 420.9 551.99 443.33 562.78 465.78 551.99 488.21 562.78 510.65 551.99 533.08 562.78 555.52 551.99 577.96 562.78 600.41 551.99 622.85 562.78 645.29 551.99 667.74 562.78 690.19 551.99 712.63 562.78 735.08 551.99 757.53 562.78 779.98 551.99 802.43 562.78 824.87 551.99 847.32 562.78"/>
          </g>
          <g class="st4">
            <polyline class="st0" points="-5.44 553.82 17 543.03 39.44 553.82 61.87 543.03 84.31 553.82 106.75 543.03 129.19 553.82 151.63 543.03 174.07 553.82 196.51 543.03 218.95 553.82 241.38 543.03 263.83 553.82 286.27 543.03 308.71 553.82 331.15 543.03 353.59 553.82 376.03 543.03 398.48 553.82 420.9 543.03 443.33 553.82 465.78 543.03 488.21 553.82 510.65 543.03 533.08 553.82 555.52 543.03 577.96 553.82 600.41 543.03 622.85 553.82 645.29 543.03 667.74 553.82 690.19 543.03 712.63 553.82 735.08 543.03 757.53 553.82 779.98 543.03 802.43 553.82 824.87 543.03 847.32 553.82"/>
          </g>
          <g class="st4">
            <polyline class="st0" points="-5.44 544.87 17 534.08 39.44 544.87 61.87 534.08 84.31 544.87 106.75 534.08 129.19 544.87 151.63 534.08 174.07 544.87 196.51 534.08 218.95 544.87 241.38 534.08 263.83 544.87 286.27 534.08 308.71 544.87 331.15 534.08 353.59 544.87 376.03 534.08 398.48 544.87 420.9 534.08 443.33 544.87 465.78 534.08 488.21 544.87 510.65 534.08 533.08 544.87 555.52 534.08 577.96 544.87 600.41 534.08 622.85 544.87 645.29 534.08 667.74 544.87 690.19 534.08 712.63 544.87 735.08 534.08 757.53 544.87 779.98 534.08 802.43 544.87 824.87 534.08 847.32 544.87"/>
          </g>
          <g class="st4">
            <polyline class="st0" points="-5.44 535.92 17 525.13 39.44 535.92 61.87 525.13 84.31 535.92 106.75 525.13 129.19 535.92 151.63 525.13 174.07 535.92 196.51 525.13 218.95 535.92 241.38 525.13 263.83 535.92 286.27 525.13 308.71 535.92 331.15 525.13 353.59 535.92 376.03 525.13 398.48 535.92 420.9 525.13 443.33 535.92 465.78 525.13 488.21 535.92 510.65 525.13 533.08 535.92 555.52 525.13 577.96 535.92 600.41 525.13 622.85 535.92 645.29 525.13 667.74 535.92 690.19 525.13 712.63 535.92 735.08 525.13 757.53 535.92 779.98 525.13 802.43 535.92 824.87 525.13 847.32 535.92"/>
          </g>
          <g class="st4">
            <polyline class="st0" points="-5.44 526.96 17 516.17 39.44 526.96 61.87 516.17 84.31 526.96 106.75 516.17 129.19 526.96 151.63 516.17 174.07 526.96 196.51 516.17 218.95 526.96 241.38 516.17 263.83 526.96 286.27 516.17 308.71 526.96 331.15 516.17 353.59 526.96 376.03 516.17 398.48 526.96 420.9 516.17 443.33 526.96 465.78 516.17 488.21 526.96 510.65 516.17 533.08 526.96 555.52 516.17 577.96 526.96 600.41 516.17 622.85 526.96 645.29 516.17 667.74 526.96 690.19 516.17 712.63 526.96 735.08 516.17 757.53 526.96 779.98 516.17 802.43 526.96 824.87 516.17 847.32 526.96"/>
          </g>
          <g class="st4">
            <polyline class="st0" points="-5.44 518.01 17 507.22 39.44 518.01 61.87 507.22 84.31 518.01 106.75 507.22 129.19 518.01 151.63 507.22 174.07 518.01 196.51 507.22 218.95 518.01 241.38 507.22 263.83 518.01 286.27 507.22 308.71 518.01 331.15 507.22 353.59 518.01 376.03 507.22 398.48 518.01 420.9 507.22 443.33 518.01 465.78 507.22 488.21 518.01 510.65 507.22 533.08 518.01 555.52 507.22 577.96 518.01 600.41 507.22 622.85 518.01 645.29 507.22 667.74 518.01 690.19 507.22 712.63 518.01 735.08 507.22 757.53 518.01 779.98 507.22 802.43 518.01 824.87 507.22 847.32 518.01"/>
          </g>
          <g class="st4">
            <polyline class="st0" points="-5.44 509.06 17 498.27 39.44 509.06 61.87 498.27 84.31 509.06 106.75 498.27 129.19 509.06 151.63 498.27 174.07 509.06 196.51 498.27 218.95 509.06 241.38 498.27 263.83 509.06 286.27 498.27 308.71 509.06 331.15 498.27 353.59 509.06 376.03 498.27 398.48 509.06 420.9 498.27 443.33 509.06 465.78 498.27 488.21 509.06 510.65 498.27 533.08 509.06 555.52 498.27 577.96 509.06 600.41 498.27 622.85 509.06 645.29 498.27 667.74 509.06 690.19 498.27 712.63 509.06 735.08 498.27 757.53 509.06 779.98 498.27 802.43 509.06 824.87 498.27 847.32 509.06"/>
          </g>
          <g class="st4">
            <polyline class="st0" points="-5.44 500.1 17 489.31 39.44 500.1 61.87 489.31 84.31 500.1 106.75 489.31 129.19 500.1 151.63 489.31 174.07 500.1 196.51 489.31 218.95 500.1 241.38 489.31 263.83 500.1 286.27 489.31 308.71 500.1 331.15 489.31 353.59 500.1 376.03 489.31 398.48 500.1 420.9 489.31 443.33 500.1 465.78 489.31 488.21 500.1 510.65 489.31 533.08 500.1 555.52 489.31 577.96 500.1 600.41 489.31 622.85 500.1 645.29 489.31 667.74 500.1 690.19 489.31 712.63 500.1 735.08 489.31 757.53 500.1 779.98 489.31 802.43 500.1 824.87 489.31 847.32 500.1"/>
          </g>
          <g class="st4">
            <polyline class="st0" points="-5.44 491.15 17 480.36 39.44 491.15 61.87 480.36 84.31 491.15 106.75 480.36 129.19 491.15 151.63 480.36 174.07 491.15 196.51 480.36 218.95 491.15 241.38 480.36 263.83 491.15 286.27 480.36 308.71 491.15 331.15 480.36 353.59 491.15 376.03 480.36 398.48 491.15 420.9 480.36 443.33 491.15 465.78 480.36 488.21 491.15 510.65 480.36 533.08 491.15 555.52 480.36 577.96 491.15 600.41 480.36 622.85 491.15 645.29 480.36 667.74 491.15 690.19 480.36 712.63 491.15 735.08 480.36 757.53 491.15 779.98 480.36 802.43 491.15 824.87 480.36 847.32 491.15"/>
          </g>
          <g class="st4">
            <polyline class="st0" points="-5.44 482.19 17 471.41 39.44 482.19 61.87 471.41 84.31 482.19 106.75 471.41 129.19 482.19 151.63 471.41 174.07 482.19 196.51 471.41 218.95 482.19 241.38 471.41 263.83 482.19 286.27 471.41 308.71 482.19 331.15 471.41 353.59 482.19 376.03 471.41 398.48 482.19 420.9 471.41 443.33 482.19 465.78 471.41 488.21 482.19 510.65 471.41 533.08 482.19 555.52 471.41 577.96 482.19 600.41 471.41 622.85 482.19 645.29 471.41 667.74 482.19 690.19 471.41 712.63 482.19 735.08 471.41 757.53 482.19 779.98 471.41 802.43 482.19 824.87 471.41 847.32 482.19"/>
          </g>
          <g class="st4">
            <polyline class="st0" points="-5.44 473.24 17 462.45 39.44 473.24 61.87 462.45 84.31 473.24 106.75 462.45 129.19 473.24 151.63 462.45 174.07 473.24 196.51 462.45 218.95 473.24 241.38 462.45 263.83 473.24 286.27 462.45 308.71 473.24 331.15 462.45 353.59 473.24 376.03 462.45 398.48 473.24 420.9 462.45 443.33 473.24 465.78 462.45 488.21 473.24 510.65 462.45 533.08 473.24 555.52 462.45 577.96 473.24 600.41 462.45 622.85 473.24 645.29 462.45 667.74 473.24 690.19 462.45 712.63 473.24 735.08 462.45 757.53 473.24 779.98 462.45 802.43 473.24 824.87 462.45 847.32 473.24"/>
          </g>
          <g class="st4">
            <polyline class="st0" points="-5.44 464.29 17 453.5 39.44 464.29 61.87 453.5 84.31 464.29 106.75 453.5 129.19 464.29 151.63 453.5 174.07 464.29 196.51 453.5 218.95 464.29 241.38 453.5 263.83 464.29 286.27 453.5 308.71 464.29 331.15 453.5 353.59 464.29 376.03 453.5 398.48 464.29 420.9 453.5 443.33 464.29 465.78 453.5 488.21 464.29 510.65 453.5 533.08 464.29 555.52 453.5 577.96 464.29 600.41 453.5 622.85 464.29 645.29 453.5 667.74 464.29 690.19 453.5 712.63 464.29 735.08 453.5 757.53 464.29 779.98 453.5 802.43 464.29 824.87 453.5 847.32 464.29"/>
          </g>
          <g class="st4">
            <polyline class="st0" points="-5.44 455.33 17 444.55 39.44 455.33 61.87 444.55 84.31 455.33 106.75 444.55 129.19 455.33 151.63 444.55 174.07 455.33 196.51 444.55 218.95 455.33 241.38 444.55 263.83 455.33 286.27 444.55 308.71 455.33 331.15 444.55 353.59 455.33 376.03 444.55 398.48 455.33 420.9 444.55 443.33 455.33 465.78 444.55 488.21 455.33 510.65 444.55 533.08 455.33 555.52 444.55 577.96 455.33 600.41 444.55 622.85 455.33 645.29 444.55 667.74 455.33 690.19 444.55 712.63 455.33 735.08 444.55 757.53 455.33 779.98 444.55 802.43 455.33 824.87 444.55 847.32 455.33"/>
          </g>
          <g class="st4">
            <polyline class="st0" points="-5.44 446.38 17 435.59 39.44 446.38 61.87 435.59 84.31 446.38 106.75 435.59 129.19 446.38 151.63 435.59 174.07 446.38 196.51 435.59 218.95 446.38 241.38 435.59 263.83 446.38 286.27 435.59 308.71 446.38 331.15 435.59 353.59 446.38 376.03 435.59 398.48 446.38 420.9 435.59 443.33 446.38 465.78 435.59 488.21 446.38 510.65 435.59 533.08 446.38 555.52 435.59 577.96 446.38 600.41 435.59 622.85 446.38 645.29 435.59 667.74 446.38 690.19 435.59 712.63 446.38 735.08 435.59 757.53 446.38 779.98 435.59 802.43 446.38 824.87 435.59 847.32 446.38"/>
          </g>
          <g class="st4">
            <polyline class="st0" points="-5.44 437.43 17 426.64 39.44 437.43 61.87 426.64 84.31 437.43 106.75 426.64 129.19 437.43 151.63 426.64 174.07 437.43 196.51 426.64 218.95 437.43 241.38 426.64 263.83 437.43 286.27 426.64 308.71 437.43 331.15 426.64 353.59 437.43 376.03 426.64 398.48 437.43 420.9 426.64 443.33 437.43 465.78 426.64 488.21 437.43 510.65 426.64 533.08 437.43 555.52 426.64 577.96 437.43 600.41 426.64 622.85 437.43 645.29 426.64 667.74 437.43 690.19 426.64 712.63 437.43 735.08 426.64 757.53 437.43 779.98 426.64 802.43 437.43 824.87 426.64 847.32 437.43"/>
          </g>
          <g class="st4">
            <polyline class="st0" points="-5.44 428.47 17 417.69 39.44 428.47 61.87 417.69 84.31 428.47 106.75 417.69 129.19 428.47 151.63 417.69 174.07 428.47 196.51 417.69 218.95 428.47 241.38 417.69 263.83 428.47 286.27 417.69 308.71 428.47 331.15 417.69 353.59 428.47 376.03 417.69 398.48 428.47 420.9 417.69 443.33 428.47 465.78 417.69 488.21 428.47 510.65 417.69 533.08 428.47 555.52 417.69 577.96 428.47 600.41 417.69 622.85 428.47 645.29 417.69 667.74 428.47 690.19 417.69 712.63 428.47 735.08 417.69 757.53 428.47 779.98 417.69 802.43 428.47 824.87 417.69 847.32 428.47"/>
          </g>
          <g class="st4">
            <polyline class="st0" points="-5.44 419.52 17 408.73 39.44 419.52 61.87 408.73 84.31 419.52 106.75 408.73 129.19 419.52 151.63 408.73 174.07 419.52 196.51 408.73 218.95 419.52 241.38 408.73 263.83 419.52 286.27 408.73 308.71 419.52 331.15 408.73 353.59 419.52 376.03 408.73 398.48 419.52 420.9 408.73 443.33 419.52 465.78 408.73 488.21 419.52 510.65 408.73 533.08 419.52 555.52 408.73 577.96 419.52 600.41 408.73 622.85 419.52 645.29 408.73 667.74 419.52 690.19 408.73 712.63 419.52 735.08 408.73 757.53 419.52 779.98 408.73 802.43 419.52 824.87 408.73 847.32 419.52"/>
          </g>
          <g class="st4">
            <polyline class="st0" points="-5.44 410.57 17 399.78 39.44 410.57 61.87 399.78 84.31 410.57 106.75 399.78 129.19 410.57 151.63 399.78 174.07 410.57 196.51 399.78 218.95 410.57 241.38 399.78 263.83 410.57 286.27 399.78 308.71 410.57 331.15 399.78 353.59 410.57 376.03 399.78 398.48 410.57 420.9 399.78 443.33 410.57 465.78 399.78 488.21 410.57 510.65 399.78 533.08 410.57 555.52 399.78 577.96 410.57 600.41 399.78 622.85 410.57 645.29 399.78 667.74 410.57 690.19 399.78 712.63 410.57 735.08 399.78 757.53 410.57 779.98 399.78 802.43 410.57 824.87 399.78 847.32 410.57"/>
          </g>
          <g class="st4">
            <polyline class="st0" points="-5.44 401.61 17 390.83 39.44 401.61 61.87 390.83 84.31 401.61 106.75 390.83 129.19 401.61 151.63 390.83 174.07 401.61 196.51 390.83 218.95 401.61 241.38 390.83 263.83 401.61 286.27 390.83 308.71 401.61 331.15 390.83 353.59 401.61 376.03 390.83 398.48 401.61 420.9 390.83 443.33 401.61 465.78 390.83 488.21 401.61 510.65 390.83 533.08 401.61 555.52 390.83 577.96 401.61 600.41 390.83 622.85 401.61 645.29 390.83 667.74 401.61 690.19 390.83 712.63 401.61 735.08 390.83 757.53 401.61 779.98 390.83 802.43 401.61 824.87 390.83 847.32 401.61"/>
          </g>
          <g class="st4">
            <polyline class="st0" points="-5.44 392.66 17 381.87 39.44 392.66 61.87 381.87 84.31 392.66 106.75 381.87 129.19 392.66 151.63 381.87 174.07 392.66 196.51 381.87 218.95 392.66 241.38 381.87 263.83 392.66 286.27 381.87 308.71 392.66 331.15 381.87 353.59 392.66 376.03 381.87 398.48 392.66 420.9 381.87 443.33 392.66 465.78 381.87 488.21 392.66 510.65 381.87 533.08 392.66 555.52 381.87 577.96 392.66 600.41 381.87 622.85 392.66 645.29 381.87 667.74 392.66 690.19 381.87 712.63 392.66 735.08 381.87 757.53 392.66 779.98 381.87 802.43 392.66 824.87 381.87 847.32 392.66"/>
          </g>
          <g class="st4">
            <polyline class="st0" points="-5.44 383.71 17 372.92 39.44 383.71 61.87 372.92 84.31 383.71 106.75 372.92 129.19 383.71 151.63 372.92 174.07 383.71 196.51 372.92 218.95 383.71 241.38 372.92 263.83 383.71 286.27 372.92 308.71 383.71 331.15 372.92 353.59 383.71 376.03 372.92 398.48 383.71 420.9 372.92 443.33 383.71 465.78 372.92 488.21 383.71 510.65 372.92 533.08 383.71 555.52 372.92 577.96 383.71 600.41 372.92 622.85 383.71 645.29 372.92 667.74 383.71 690.19 372.92 712.63 383.71 735.08 372.92 757.53 383.71 779.98 372.92 802.43 383.71 824.87 372.92 847.32 383.71"/>
          </g>
          <g class="st4">
            <polyline class="st0" points="-5.44 374.75 17 363.97 39.44 374.75 61.87 363.97 84.31 374.75 106.75 363.97 129.19 374.75 151.63 363.97 174.07 374.75 196.51 363.97 218.95 374.75 241.38 363.97 263.83 374.75 286.27 363.97 308.71 374.75 331.15 363.97 353.59 374.75 376.03 363.97 398.48 374.75 420.9 363.97 443.33 374.75 465.78 363.97 488.21 374.75 510.65 363.97 533.08 374.75 555.52 363.97 577.96 374.75 600.41 363.97 622.85 374.75 645.29 363.97 667.74 374.75 690.19 363.97 712.63 374.75 735.08 363.97 757.53 374.75 779.98 363.97 802.43 374.75 824.87 363.97 847.32 374.75"/>
          </g>
          <g class="st4">
            <polyline class="st0" points="-5.44 365.8 17 355.01 39.44 365.8 61.87 355.01 84.31 365.8 106.75 355.01 129.19 365.8 151.63 355.01 174.07 365.8 196.51 355.01 218.95 365.8 241.38 355.01 263.83 365.8 286.27 355.01 308.71 365.8 331.15 355.01 353.59 365.8 376.03 355.01 398.48 365.8 420.9 355.01 443.33 365.8 465.78 355.01 488.21 365.8 510.65 355.01 533.08 365.8 555.52 355.01 577.96 365.8 600.41 355.01 622.85 365.8 645.29 355.01 667.74 365.8 690.19 355.01 712.63 365.8 735.08 355.01 757.53 365.8 779.98 355.01 802.43 365.8 824.87 355.01 847.32 365.8"/>
          </g>
          <g class="st4">
            <polyline class="st0" points="-5.44 356.85 17 346.06 39.44 356.85 61.87 346.06 84.31 356.85 106.75 346.06 129.19 356.85 151.63 346.06 174.07 356.85 196.51 346.06 218.95 356.85 241.38 346.06 263.83 356.85 286.27 346.06 308.71 356.85 331.15 346.06 353.59 356.85 376.03 346.06 398.48 356.85 420.9 346.06 443.33 356.85 465.78 346.06 488.21 356.85 510.65 346.06 533.08 356.85 555.52 346.06 577.96 356.85 600.41 346.06 622.85 356.85 645.29 346.06 667.74 356.85 690.19 346.06 712.63 356.85 735.08 346.06 757.53 356.85 779.98 346.06 802.43 356.85 824.87 346.06 847.32 356.85"/>
          </g>
          <g class="st4">
            <polyline class="st0" points="-5.44 347.89 17 337.11 39.44 347.89 61.87 337.11 84.31 347.89 106.75 337.11 129.19 347.89 151.63 337.11 174.07 347.89 196.51 337.11 218.95 347.89 241.38 337.11 263.83 347.89 286.27 337.11 308.71 347.89 331.15 337.11 353.59 347.89 376.03 337.11 398.48 347.89 420.9 337.11 443.33 347.89 465.78 337.11 488.21 347.89 510.65 337.11 533.08 347.89 555.52 337.11 577.96 347.89 600.41 337.11 622.85 347.89 645.29 337.11 667.74 347.89 690.19 337.11 712.63 347.89 735.08 337.11 757.53 347.89 779.98 337.11 802.43 347.89 824.87 337.11 847.32 347.89"/>
          </g>
          <g class="st4">
            <polyline class="st0" points="-5.44 338.94 17 328.15 39.44 338.94 61.87 328.15 84.31 338.94 106.75 328.15 129.19 338.94 151.63 328.15 174.07 338.94 196.51 328.15 218.95 338.94 241.38 328.15 263.83 338.94 286.27 328.15 308.71 338.94 331.15 328.15 353.59 338.94 376.03 328.15 398.48 338.94 420.9 328.15 443.33 338.94 465.78 328.15 488.21 338.94 510.65 328.15 533.08 338.94 555.52 328.15 577.96 338.94 600.41 328.15 622.85 338.94 645.29 328.15 667.74 338.94 690.19 328.15 712.63 338.94 735.08 328.15 757.53 338.94 779.98 328.15 802.43 338.94 824.87 328.15 847.32 338.94"/>
          </g>
          <g class="st4">
            <polyline class="st0" points="-5.44 329.99 17 319.2 39.44 329.99 61.87 319.2 84.31 329.99 106.75 319.2 129.19 329.99 151.63 319.2 174.07 329.99 196.51 319.2 218.95 329.99 241.38 319.2 263.83 329.99 286.27 319.2 308.71 329.99 331.15 319.2 353.59 329.99 376.03 319.2 398.48 329.99 420.9 319.2 443.33 329.99 465.78 319.2 488.21 329.99 510.65 319.2 533.08 329.99 555.52 319.2 577.96 329.99 600.41 319.2 622.85 329.99 645.29 319.2 667.74 329.99 690.19 319.2 712.63 329.99 735.08 319.2 757.53 329.99 779.98 319.2 802.43 329.99 824.87 319.2 847.32 329.99"/>
          </g>
          <g class="st4">
            <polyline class="st0" points="-5.44 321.03 17 310.25 39.44 321.03 61.87 310.25 84.31 321.03 106.75 310.25 129.19 321.03 151.63 310.25 174.07 321.03 196.51 310.25 218.95 321.03 241.38 310.25 263.83 321.03 286.27 310.25 308.71 321.03 331.15 310.25 353.59 321.03 376.03 310.25 398.48 321.03 420.9 310.25 443.33 321.03 465.78 310.25 488.21 321.03 510.65 310.25 533.08 321.03 555.52 310.25 577.96 321.03 600.41 310.25 622.85 321.03 645.29 310.25 667.74 321.03 690.19 310.25 712.63 321.03 735.08 310.25 757.53 321.03 779.98 310.25 802.43 321.03 824.87 310.25 847.32 321.03"/>
          </g>
          <g class="st4">
            <polyline class="st0" points="-5.44 312.08 17 301.29 39.44 312.08 61.87 301.29 84.31 312.08 106.75 301.29 129.19 312.08 151.63 301.29 174.07 312.08 196.51 301.29 218.95 312.08 241.38 301.29 263.83 312.08 286.27 301.29 308.71 312.08 331.15 301.29 353.59 312.08 376.03 301.29 398.48 312.08 420.9 301.29 443.33 312.08 465.78 301.29 488.21 312.08 510.65 301.29 533.08 312.08 555.52 301.29 577.96 312.08 600.41 301.29 622.85 312.08 645.29 301.29 667.74 312.08 690.19 301.29 712.63 312.08 735.08 301.29 757.53 312.08 779.98 301.29 802.43 312.08 824.87 301.29 847.32 312.08"/>
          </g>
          <g class="st4">
            <polyline class="st0" points="-5.44 303.13 17 292.34 39.44 303.13 61.87 292.34 84.31 303.13 106.75 292.34 129.19 303.13 151.63 292.34 174.07 303.13 196.51 292.34 218.95 303.13 241.38 292.34 263.83 303.13 286.27 292.34 308.71 303.13 331.15 292.34 353.59 303.13 376.03 292.34 398.48 303.13 420.9 292.34 443.33 303.13 465.78 292.34 488.21 303.13 510.65 292.34 533.08 303.13 555.52 292.34 577.96 303.13 600.41 292.34 622.85 303.13 645.29 292.34 667.74 303.13 690.19 292.34 712.63 303.13 735.08 292.34 757.53 303.13 779.98 292.34 802.43 303.13 824.87 292.34 847.32 303.13"/>
          </g>
          <g class="st4">
            <polyline class="st0" points="-5.44 294.17 17 283.39 39.44 294.17 61.87 283.39 84.31 294.17 106.75 283.39 129.19 294.17 151.63 283.39 174.07 294.17 196.51 283.39 218.95 294.17 241.38 283.39 263.83 294.17 286.27 283.39 308.71 294.17 331.15 283.39 353.59 294.17 376.03 283.39 398.48 294.17 420.9 283.39 443.33 294.17 465.78 283.39 488.21 294.17 510.65 283.39 533.08 294.17 555.52 283.39 577.96 294.17 600.41 283.39 622.85 294.17 645.29 283.39 667.74 294.17 690.19 283.39 712.63 294.17 735.08 283.39 757.53 294.17 779.98 283.39 802.43 294.17 824.87 283.39 847.32 294.17"/>
          </g>
          <g class="st4">
            <polyline class="st0" points="-5.44 285.22 17 274.43 39.44 285.22 61.87 274.43 84.31 285.22 106.75 274.43 129.19 285.22 151.63 274.43 174.07 285.22 196.51 274.43 218.95 285.22 241.38 274.43 263.83 285.22 286.27 274.43 308.71 285.22 331.15 274.43 353.59 285.22 376.03 274.43 398.48 285.22 420.9 274.43 443.33 285.22 465.78 274.43 488.21 285.22 510.65 274.43 533.08 285.22 555.52 274.43 577.96 285.22 600.41 274.43 622.85 285.22 645.29 274.43 667.74 285.22 690.19 274.43 712.63 285.22 735.08 274.43 757.53 285.22 779.98 274.43 802.43 285.22 824.87 274.43 847.32 285.22"/>
          </g>
          <g class="st4">
            <polyline class="st0" points="-5.44 276.27 17 265.48 39.44 276.27 61.87 265.48 84.31 276.27 106.75 265.48 129.19 276.27 151.63 265.48 174.07 276.27 196.51 265.48 218.95 276.27 241.38 265.48 263.83 276.27 286.27 265.48 308.71 276.27 331.15 265.48 353.59 276.27 376.03 265.48 398.48 276.27 420.9 265.48 443.33 276.27 465.78 265.48 488.21 276.27 510.65 265.48 533.08 276.27 555.52 265.48 577.96 276.27 600.41 265.48 622.85 276.27 645.29 265.48 667.74 276.27 690.19 265.48 712.63 276.27 735.08 265.48 757.53 276.27 779.98 265.48 802.43 276.27 824.87 265.48 847.32 276.27"/>
          </g>
          <g class="st4">
            <polyline class="st0" points="-5.44 267.31 17 256.53 39.44 267.31 61.87 256.53 84.31 267.31 106.75 256.53 129.19 267.31 151.63 256.53 174.07 267.31 196.51 256.53 218.95 267.31 241.38 256.53 263.83 267.31 286.27 256.53 308.71 267.31 331.15 256.53 353.59 267.31 376.03 256.53 398.48 267.31 420.9 256.53 443.33 267.31 465.78 256.53 488.21 267.31 510.65 256.53 533.08 267.31 555.52 256.53 577.96 267.31 600.41 256.53 622.85 267.31 645.29 256.53 667.74 267.31 690.19 256.53 712.63 267.31 735.08 256.53 757.53 267.31 779.98 256.53 802.43 267.31 824.87 256.53 847.32 267.31"/>
          </g>
          <g class="st4">
            <polyline class="st0" points="-5.44 258.36 17 247.57 39.44 258.36 61.87 247.57 84.31 258.36 106.75 247.57 129.19 258.36 151.63 247.57 174.07 258.36 196.51 247.57 218.95 258.36 241.38 247.57 263.83 258.36 286.27 247.57 308.71 258.36 331.15 247.57 353.59 258.36 376.03 247.57 398.48 258.36 420.9 247.57 443.33 258.36 465.78 247.57 488.21 258.36 510.65 247.57 533.08 258.36 555.52 247.57 577.96 258.36 600.41 247.57 622.85 258.36 645.29 247.57 667.74 258.36 690.19 247.57 712.63 258.36 735.08 247.57 757.53 258.36 779.98 247.57 802.43 258.36 824.87 247.57 847.32 258.36"/>
          </g>
          <g class="st4">
            <polyline class="st0" points="-5.44 249.41 17 238.62 39.44 249.41 61.87 238.62 84.31 249.41 106.75 238.62 129.19 249.41 151.63 238.62 174.07 249.41 196.51 238.62 218.95 249.41 241.38 238.62 263.83 249.41 286.27 238.62 308.71 249.41 331.15 238.62 353.59 249.41 376.03 238.62 398.48 249.41 420.9 238.62 443.33 249.41 465.78 238.62 488.21 249.41 510.65 238.62 533.08 249.41 555.52 238.62 577.96 249.41 600.41 238.62 622.85 249.41 645.29 238.62 667.74 249.41 690.19 238.62 712.63 249.41 735.08 238.62 757.53 249.41 779.98 238.62 802.43 249.41 824.87 238.62 847.32 249.41"/>
          </g>
          <g class="st4">
            <polyline class="st0" points="-5.44 240.45 17 229.67 39.44 240.45 61.87 229.67 84.31 240.45 106.75 229.67 129.19 240.45 151.63 229.67 174.07 240.45 196.51 229.67 218.95 240.45 241.38 229.67 263.83 240.45 286.27 229.67 308.71 240.45 331.15 229.67 353.59 240.45 376.03 229.67 398.48 240.45 420.9 229.67 443.33 240.45 465.78 229.67 488.21 240.45 510.65 229.67 533.08 240.45 555.52 229.67 577.96 240.45 600.41 229.67 622.85 240.45 645.29 229.67 667.74 240.45 690.19 229.67 712.63 240.45 735.08 229.67 757.53 240.45 779.98 229.67 802.43 240.45 824.87 229.67 847.32 240.45"/>
          </g>
          <g class="st4">
            <polyline class="st0" points="-5.44 231.5 17 220.71 39.44 231.5 61.87 220.71 84.31 231.5 106.75 220.71 129.19 231.5 151.63 220.71 174.07 231.5 196.51 220.71 218.95 231.5 241.38 220.71 263.83 231.5 286.27 220.71 308.71 231.5 331.15 220.71 353.59 231.5 376.03 220.71 398.48 231.5 420.9 220.71 443.33 231.5 465.78 220.71 488.21 231.5 510.65 220.71 533.08 231.5 555.52 220.71 577.96 231.5 600.41 220.71 622.85 231.5 645.29 220.71 667.74 231.5 690.19 220.71 712.63 231.5 735.08 220.71 757.53 231.5 779.98 220.71 802.43 231.5 824.87 220.71 847.32 231.5"/>
          </g>
          <g class="st4">
            <polyline class="st0" points="-5.44 222.55 17 211.76 39.44 222.55 61.87 211.76 84.31 222.55 106.75 211.76 129.19 222.55 151.63 211.76 174.07 222.55 196.51 211.76 218.95 222.55 241.38 211.76 263.83 222.55 286.27 211.76 308.71 222.55 331.15 211.76 353.59 222.55 376.03 211.76 398.48 222.55 420.9 211.76 443.33 222.55 465.78 211.76 488.21 222.55 510.65 211.76 533.08 222.55 555.52 211.76 577.96 222.55 600.41 211.76 622.85 222.55 645.29 211.76 667.74 222.55 690.19 211.76 712.63 222.55 735.08 211.76 757.53 222.55 779.98 211.76 802.43 222.55 824.87 211.76 847.32 222.55"/>
          </g>
          <g class="st4">
            <polyline class="st0" points="-5.44 213.59 17 202.81 39.44 213.59 61.87 202.81 84.31 213.59 106.75 202.81 129.19 213.59 151.63 202.81 174.07 213.59 196.51 202.81 218.95 213.59 241.38 202.81 263.83 213.59 286.27 202.81 308.71 213.59 331.15 202.81 353.59 213.59 376.03 202.81 398.48 213.59 420.9 202.81 443.33 213.59 465.78 202.81 488.21 213.59 510.65 202.81 533.08 213.59 555.52 202.81 577.96 213.59 600.41 202.81 622.85 213.59 645.29 202.81 667.74 213.59 690.19 202.81 712.63 213.59 735.08 202.81 757.53 213.59 779.98 202.81 802.43 213.59 824.87 202.81 847.32 213.59"/>
          </g>
          <g class="st4">
            <polyline class="st0" points="-5.44 204.64 17 193.85 39.44 204.64 61.87 193.85 84.31 204.64 106.75 193.85 129.19 204.64 151.63 193.85 174.07 204.64 196.51 193.85 218.95 204.64 241.38 193.85 263.83 204.64 286.27 193.85 308.71 204.64 331.15 193.85 353.59 204.64 376.03 193.85 398.48 204.64 420.9 193.85 443.33 204.64 465.78 193.85 488.21 204.64 510.65 193.85 533.08 204.64 555.52 193.85 577.96 204.64 600.41 193.85 622.85 204.64 645.29 193.85 667.74 204.64 690.19 193.85 712.63 204.64 735.08 193.85 757.53 204.64 779.98 193.85 802.43 204.64 824.87 193.85 847.32 204.64"/>
          </g>
          <g class="st4">
            <polyline class="st0" points="-5.44 195.69 17 184.9 39.44 195.69 61.87 184.9 84.31 195.69 106.75 184.9 129.19 195.69 151.63 184.9 174.07 195.69 196.51 184.9 218.95 195.69 241.38 184.9 263.83 195.69 286.27 184.9 308.71 195.69 331.15 184.9 353.59 195.69 376.03 184.9 398.48 195.69 420.9 184.9 443.33 195.69 465.78 184.9 488.21 195.69 510.65 184.9 533.08 195.69 555.52 184.9 577.96 195.69 600.41 184.9 622.85 195.69 645.29 184.9 667.74 195.69 690.19 184.9 712.63 195.69 735.08 184.9 757.53 195.69 779.98 184.9 802.43 195.69 824.87 184.9 847.32 195.69"/>
          </g>
          <g class="st4">
            <polyline class="st0" points="-5.44 177.78 17 166.99 39.44 177.78 61.87 166.99 84.31 177.78 106.75 166.99 129.19 177.78 151.63 166.99 174.07 177.78 196.51 166.99 218.95 177.78 241.38 166.99 263.83 177.78 286.27 166.99 308.71 177.78 331.15 166.99 353.59 177.78 376.03 166.99 398.48 177.78 420.9 166.99 443.33 177.78 465.78 166.99 488.21 177.78 510.65 166.99 533.08 177.78 555.52 166.99 577.96 177.78 600.41 166.99 622.85 177.78 645.29 166.99 667.74 177.78 690.19 166.99 712.63 177.78 735.08 166.99 757.53 177.78 779.98 166.99 802.43 177.78 824.87 166.99 847.32 177.78"/>
          </g>
          <g class="st4">
            <polyline class="st0" points="-5.44 186.23 17 175.44 39.44 186.23 61.87 175.44 84.31 186.23 106.75 175.44 129.19 186.23 151.63 175.44 174.07 186.23 196.51 175.44 218.95 186.23 241.38 175.44 263.83 186.23 286.27 175.44 308.71 186.23 331.15 175.44 353.59 186.23 376.03 175.44 398.48 186.23 420.9 175.44 443.33 186.23 465.78 175.44 488.21 186.23 510.65 175.44 533.08 186.23 555.52 175.44 577.96 186.23 600.41 175.44 622.85 186.23 645.29 175.44 667.74 186.23 690.19 175.44 712.63 186.23 735.08 175.44 757.53 186.23 779.98 175.44 802.43 186.23 824.87 175.44 847.32 186.23"/>
          </g>
          <g class="st4">
            <polyline class="st0" points="-5.44 168.83 17 158.04 39.44 168.83 61.87 158.04 84.31 168.83 106.75 158.04 129.19 168.83 151.63 158.04 174.07 168.83 196.51 158.04 218.95 168.83 241.38 158.04 263.83 168.83 286.27 158.04 308.71 168.83 331.15 158.04 353.59 168.83 376.03 158.04 398.48 168.83 420.9 158.04 443.33 168.83 465.78 158.04 488.21 168.83 510.65 158.04 533.08 168.83 555.52 158.04 577.96 168.83 600.41 158.04 622.85 168.83 645.29 158.04 667.74 168.83 690.19 158.04 712.63 168.83 735.08 158.04 757.53 168.83 779.98 158.04 802.43 168.83 824.87 158.04 847.32 168.83"/>
          </g>
          <g class="st4">
            <polyline class="st0" points="-5.44 159.87 17 149.09 39.44 159.87 61.87 149.09 84.31 159.87 106.75 149.09 129.19 159.87 151.63 149.09 174.07 159.87 196.51 149.09 218.95 159.87 241.38 149.09 263.83 159.87 286.27 149.09 308.71 159.87 331.15 149.09 353.59 159.87 376.03 149.09 398.48 159.87 420.9 149.09 443.33 159.87 465.78 149.09 488.21 159.87 510.65 149.09 533.08 159.87 555.52 149.09 577.96 159.87 600.41 149.09 622.85 159.87 645.29 149.09 667.74 159.87 690.19 149.09 712.63 159.87 735.08 149.09 757.53 159.87 779.98 149.09 802.43 159.87 824.87 149.09 847.32 159.87"/>
          </g>
          <g class="st4">
            <polyline class="st0" points="-5.44 150.92 17 140.13 39.44 150.92 61.87 140.13 84.31 150.92 106.75 140.13 129.19 150.92 151.63 140.13 174.07 150.92 196.51 140.13 218.95 150.92 241.38 140.13 263.83 150.92 286.27 140.13 308.71 150.92 331.15 140.13 353.59 150.92 376.03 140.13 398.48 150.92 420.9 140.13 443.33 150.92 465.78 140.13 488.21 150.92 510.65 140.13 533.08 150.92 555.52 140.13 577.96 150.92 600.41 140.13 622.85 150.92 645.29 140.13 667.74 150.92 690.19 140.13 712.63 150.92 735.08 140.13 757.53 150.92 779.98 140.13 802.43 150.92 824.87 140.13 847.32 150.92"/>
          </g>
          <g class="st4">
            <polyline class="st0" points="-5.44 141.97 17 131.18 39.44 141.97 61.87 131.18 84.31 141.97 106.75 131.18 129.19 141.97 151.63 131.18 174.07 141.97 196.51 131.18 218.95 141.97 241.38 131.18 263.83 141.97 286.27 131.18 308.71 141.97 331.15 131.18 353.59 141.97 376.03 131.18 398.48 141.97 420.9 131.18 443.33 141.97 465.78 131.18 488.21 141.97 510.65 131.18 533.08 141.97 555.52 131.18 577.96 141.97 600.41 131.18 622.85 141.97 645.29 131.18 667.74 141.97 690.19 131.18 712.63 141.97 735.08 131.18 757.53 141.97 779.98 131.18 802.43 141.97 824.87 131.18 847.32 141.97"/>
          </g>
          <g class="st4">
            <polyline class="st0" points="-5.44 133.01 17 122.23 39.44 133.01 61.87 122.23 84.31 133.01 106.75 122.23 129.19 133.01 151.63 122.23 174.07 133.01 196.51 122.23 218.95 133.01 241.38 122.23 263.83 133.01 286.27 122.23 308.71 133.01 331.15 122.23 353.59 133.01 376.03 122.23 398.48 133.01 420.9 122.23 443.33 133.01 465.78 122.23 488.21 133.01 510.65 122.23 533.08 133.01 555.52 122.23 577.96 133.01 600.41 122.23 622.85 133.01 645.29 122.23 667.74 133.01 690.19 122.23 712.63 133.01 735.08 122.23 757.53 133.01 779.98 122.23 802.43 133.01 824.87 122.23 847.32 133.01"/>
          </g>
          <g class="st4">
            <polyline class="st0" points="-5.44 124.06 17 113.27 39.44 124.06 61.87 113.27 84.31 124.06 106.75 113.27 129.19 124.06 151.63 113.27 174.07 124.06 196.51 113.27 218.95 124.06 241.38 113.27 263.83 124.06 286.27 113.27 308.71 124.06 331.15 113.27 353.59 124.06 376.03 113.27 398.48 124.06 420.9 113.27 443.33 124.06 465.78 113.27 488.21 124.06 510.65 113.27 533.08 124.06 555.52 113.27 577.96 124.06 600.41 113.27 622.85 124.06 645.29 113.27 667.74 124.06 690.19 113.27 712.63 124.06 735.08 113.27 757.53 124.06 779.98 113.27 802.43 124.06 824.87 113.27 847.32 124.06"/>
          </g>
          <g class="st4">
            <polyline class="st0" points="-5.44 115.11 17 104.32 39.44 115.11 61.87 104.32 84.31 115.11 106.75 104.32 129.19 115.11 151.63 104.32 174.07 115.11 196.51 104.32 218.95 115.11 241.38 104.32 263.83 115.11 286.27 104.32 308.71 115.11 331.15 104.32 353.59 115.11 376.03 104.32 398.48 115.11 420.9 104.32 443.33 115.11 465.78 104.32 488.21 115.11 510.65 104.32 533.08 115.11 555.52 104.32 577.96 115.11 600.41 104.32 622.85 115.11 645.29 104.32 667.74 115.11 690.19 104.32 712.63 115.11 735.08 104.32 757.53 115.11 779.98 104.32 802.43 115.11 824.87 104.32 847.32 115.11"/>
          </g>
          <g class="st4">
            <polyline class="st0" points="-5.44 106.15 17 95.37 39.44 106.15 61.87 95.37 84.31 106.15 106.75 95.37 129.19 106.15 151.63 95.37 174.07 106.15 196.51 95.37 218.95 106.15 241.38 95.37 263.83 106.15 286.27 95.37 308.71 106.15 331.15 95.37 353.59 106.15 376.03 95.37 398.48 106.15 420.9 95.37 443.33 106.15 465.78 95.37 488.21 106.15 510.65 95.37 533.08 106.15 555.52 95.37 577.96 106.15 600.41 95.37 622.85 106.15 645.29 95.37 667.74 106.15 690.19 95.37 712.63 106.15 735.08 95.37 757.53 106.15 779.98 95.37 802.43 106.15 824.87 95.37 847.32 106.15"/>
          </g>
          <g class="st4">
            <polyline class="st0" points="-5.44 97.2 17 86.41 39.44 97.2 61.87 86.41 84.31 97.2 106.75 86.41 129.19 97.2 151.63 86.41 174.07 97.2 196.51 86.41 218.95 97.2 241.38 86.41 263.83 97.2 286.27 86.41 308.71 97.2 331.15 86.41 353.59 97.2 376.03 86.41 398.48 97.2 420.9 86.41 443.33 97.2 465.78 86.41 488.21 97.2 510.65 86.41 533.08 97.2 555.52 86.41 577.96 97.2 600.41 86.41 622.85 97.2 645.29 86.41 667.74 97.2 690.19 86.41 712.63 97.2 735.08 86.41 757.53 97.2 779.98 86.41 802.43 97.2 824.87 86.41 847.32 97.2"/>
          </g>
          <g class="st4">
            <polyline class="st0" points="-5.44 88.25 17 77.46 39.44 88.25 61.87 77.46 84.31 88.25 106.75 77.46 129.19 88.25 151.63 77.46 174.07 88.25 196.51 77.46 218.95 88.25 241.38 77.46 263.83 88.25 286.27 77.46 308.71 88.25 331.15 77.46 353.59 88.25 376.03 77.46 398.48 88.25 420.9 77.46 443.33 88.25 465.78 77.46 488.21 88.25 510.65 77.46 533.08 88.25 555.52 77.46 577.96 88.25 600.41 77.46 622.85 88.25 645.29 77.46 667.74 88.25 690.19 77.46 712.63 88.25 735.08 77.46 757.53 88.25 779.98 77.46 802.43 88.25 824.87 77.46 847.32 88.25"/>
          </g>
          <g class="st4">
            <polyline class="st0" points="-5.44 79.29 17 68.51 39.44 79.29 61.87 68.51 84.31 79.29 106.75 68.51 129.19 79.29 151.63 68.51 174.07 79.29 196.51 68.51 218.95 79.29 241.38 68.51 263.83 79.29 286.27 68.51 308.71 79.29 331.15 68.51 353.59 79.29 376.03 68.51 398.48 79.29 420.9 68.51 443.33 79.29 465.78 68.51 488.21 79.29 510.65 68.51 533.08 79.29 555.52 68.51 577.96 79.29 600.41 68.51 622.85 79.29 645.29 68.51 667.74 79.29 690.19 68.51 712.63 79.29 735.08 68.51 757.53 79.29 779.98 68.51 802.43 79.29 824.87 68.51 847.32 79.29"/>
          </g>
          <g class="st4">
            <polyline class="st0" points="-5.44 70.34 17 59.55 39.44 70.34 61.87 59.55 84.31 70.34 106.75 59.55 129.19 70.34 151.63 59.55 174.07 70.34 196.51 59.55 218.95 70.34 241.38 59.55 263.83 70.34 286.27 59.55 308.71 70.34 331.15 59.55 353.59 70.34 376.03 59.55 398.48 70.34 420.9 59.55 443.33 70.34 465.78 59.55 488.21 70.34 510.65 59.55 533.08 70.34 555.52 59.55 577.96 70.34 600.41 59.55 622.85 70.34 645.29 59.55 667.74 70.34 690.19 59.55 712.63 70.34 735.08 59.55 757.53 70.34 779.98 59.55 802.43 70.34 824.87 59.55 847.32 70.34"/>
          </g>
          <g class="st4">
            <polyline class="st0" points="-5.44 61.39 17 50.6 39.44 61.39 61.87 50.6 84.31 61.39 106.75 50.6 129.19 61.39 151.63 50.6 174.07 61.39 196.51 50.6 218.95 61.39 241.38 50.6 263.83 61.39 286.27 50.6 308.71 61.39 331.15 50.6 353.59 61.39 376.03 50.6 398.48 61.39 420.9 50.6 443.33 61.39 465.78 50.6 488.21 61.39 510.65 50.6 533.08 61.39 555.52 50.6 577.96 61.39 600.41 50.6 622.85 61.39 645.29 50.6 667.74 61.39 690.19 50.6 712.63 61.39 735.08 50.6 757.53 61.39 779.98 50.6 802.43 61.39 824.87 50.6 847.32 61.39"/>
          </g>
          <g class="st4">
            <polyline class="st0" points="-5.44 52.43 17 41.65 39.44 52.43 61.87 41.65 84.31 52.43 106.75 41.65 129.19 52.43 151.63 41.65 174.07 52.43 196.51 41.65 218.95 52.43 241.38 41.65 263.83 52.43 286.27 41.65 308.71 52.43 331.15 41.65 353.59 52.43 376.03 41.65 398.48 52.43 420.9 41.65 443.33 52.43 465.78 41.65 488.21 52.43 510.65 41.65 533.08 52.43 555.52 41.65 577.96 52.43 600.41 41.65 622.85 52.43 645.29 41.65 667.74 52.43 690.19 41.65 712.63 52.43 735.08 41.65 757.53 52.43 779.98 41.65 802.43 52.43 824.87 41.65 847.32 52.43"/>
          </g>
          <g class="st4">
            <polyline class="st0" points="-5.44 43.48 17 32.69 39.44 43.48 61.87 32.69 84.31 43.48 106.75 32.69 129.19 43.48 151.63 32.69 174.07 43.48 196.51 32.69 218.95 43.48 241.38 32.69 263.83 43.48 286.27 32.69 308.71 43.48 331.15 32.69 353.59 43.48 376.03 32.69 398.48 43.48 420.9 32.69 443.33 43.48 465.78 32.69 488.21 43.48 510.65 32.69 533.08 43.48 555.52 32.69 577.96 43.48 600.41 32.69 622.85 43.48 645.29 32.69 667.74 43.48 690.19 32.69 712.63 43.48 735.08 32.69 757.53 43.48 779.98 32.69 802.43 43.48 824.87 32.69 847.32 43.48"/>
          </g>
          <g class="st4">
            <polyline class="st0" points="-5.44 34.53 17 23.74 39.44 34.53 61.87 23.74 84.31 34.53 106.75 23.74 129.19 34.53 151.63 23.74 174.07 34.53 196.51 23.74 218.95 34.53 241.38 23.74 263.83 34.53 286.27 23.74 308.71 34.53 331.15 23.74 353.59 34.53 376.03 23.74 398.48 34.53 420.9 23.74 443.33 34.53 465.78 23.74 488.21 34.53 510.65 23.74 533.08 34.53 555.52 23.74 577.96 34.53 600.41 23.74 622.85 34.53 645.29 23.74 667.74 34.53 690.19 23.74 712.63 34.53 735.08 23.74 757.53 34.53 779.98 23.74 802.43 34.53 824.87 23.74 847.32 34.53"/>
          </g>
          <g class="st4">
            <polyline class="st0" points="-5.44 25.57 17 14.79 39.44 25.57 61.87 14.79 84.31 25.57 106.75 14.79 129.19 25.57 151.63 14.79 174.07 25.57 196.51 14.79 218.95 25.57 241.38 14.79 263.83 25.57 286.27 14.79 308.71 25.57 331.15 14.79 353.59 25.57 376.03 14.79 398.48 25.57 420.9 14.79 443.33 25.57 465.78 14.79 488.21 25.57 510.65 14.79 533.08 25.57 555.52 14.79 577.96 25.57 600.41 14.79 622.85 25.57 645.29 14.79 667.74 25.57 690.19 14.79 712.63 25.57 735.08 14.79 757.53 25.57 779.98 14.79 802.43 25.57 824.87 14.79 847.32 25.57"/>
          </g>
          <g class="st4">
            <polyline class="st0" points="-5.44 16.62 17 5.83 39.44 16.62 61.87 5.83 84.31 16.62 106.75 5.83 129.19 16.62 151.63 5.83 174.07 16.62 196.51 5.83 218.95 16.62 241.38 5.83 263.83 16.62 286.27 5.83 308.71 16.62 331.15 5.83 353.59 16.62 376.03 5.83 398.48 16.62 420.9 5.83 443.33 16.62 465.78 5.83 488.21 16.62 510.65 5.83 533.08 16.62 555.52 5.83 577.96 16.62 600.41 5.83 622.85 16.62 645.29 5.83 667.74 16.62 690.19 5.83 712.63 16.62 735.08 5.83 757.53 16.62 779.98 5.83 802.43 16.62 824.87 5.83 847.32 16.62"/>
          </g>
          <g class="st4">
            <polyline class="st0" points="-5.44 7.67 17 -3.12 39.44 7.67 61.87 -3.12 84.31 7.67 106.75 -3.12 129.19 7.67 151.63 -3.12 174.07 7.67 196.51 -3.12 218.95 7.67 241.38 -3.12 263.83 7.67 286.27 -3.12 308.71 7.67 331.15 -3.12 353.59 7.67 376.03 -3.12 398.48 7.67 420.9 -3.12 443.33 7.67 465.78 -3.12 488.21 7.67 510.65 -3.12 533.08 7.67 555.52 -3.12 577.96 7.67 600.41 -3.12 622.85 7.67 645.29 -3.12 667.74 7.67 690.19 -3.12 712.63 7.67 735.08 -3.12 757.53 7.67 779.98 -3.12 802.43 7.67 824.87 -3.12 847.32 7.67"/>
          </g>
          <g class="st4">
            <polyline class="st0" points="-5.44 -1.29 17 -12.07 39.44 -1.29 61.87 -12.07 84.31 -1.29 106.75 -12.07 129.19 -1.29 151.63 -12.07 174.07 -1.29 196.51 -12.07 218.95 -1.29 241.38 -12.07 263.83 -1.29 286.27 -12.07 308.71 -1.29 331.15 -12.07 353.59 -1.29 376.03 -12.07 398.48 -1.29 420.9 -12.07 443.33 -1.29 465.78 -12.07 488.21 -1.29 510.65 -12.07 533.08 -1.29 555.52 -12.07 577.96 -1.29 600.41 -12.07 622.85 -1.29 645.29 -12.07 667.74 -1.29 690.19 -12.07 712.63 -1.29 735.08 -12.07 757.53 -1.29 779.98 -12.07 802.43 -1.29 824.87 -12.07 847.32 -1.29"/>
          </g>
          <g class="st4">
            <polyline class="st0" points="-5.44 -10.24 17 -21.03 39.44 -10.24 61.87 -21.03 84.31 -10.24 106.75 -21.03 129.19 -10.24 151.63 -21.03 174.07 -10.24 196.51 -21.03 218.95 -10.24 241.38 -21.03 263.83 -10.24 286.27 -21.03 308.71 -10.24 331.15 -21.03 353.59 -10.24 376.03 -21.03 398.48 -10.24 420.9 -21.03 443.33 -10.24 465.78 -21.03 488.21 -10.24 510.65 -21.03 533.08 -10.24 555.52 -21.03 577.96 -10.24 600.41 -21.03 622.85 -10.24 645.29 -21.03 667.74 -10.24 690.19 -21.03 712.63 -10.24 735.08 -21.03 757.53 -10.24 779.98 -21.03 802.43 -10.24 824.87 -21.03 847.32 -10.24"/>
          </g>
          <g class="st4">
            <polyline class="st0" points="-5.44 -19.19 17 -29.98 39.44 -19.19 61.87 -29.98 84.31 -19.19 106.75 -29.98 129.19 -19.19 151.63 -29.98 174.07 -19.19 196.51 -29.98 218.95 -19.19 241.38 -29.98 263.83 -19.19 286.27 -29.98 308.71 -19.19 331.15 -29.98 353.59 -19.19 376.03 -29.98 398.48 -19.19 420.9 -29.98 443.33 -19.19 465.78 -29.98 488.21 -19.19 510.65 -29.98 533.08 -19.19 555.52 -29.98 577.96 -19.19 600.41 -29.98 622.85 -19.19 645.29 -29.98 667.74 -19.19 690.19 -29.98 712.63 -19.19 735.08 -29.98 757.53 -19.19 779.98 -29.98 802.43 -19.19 824.87 -29.98 847.32 -19.19"/>
          </g>
          <g class="st4">
            <polyline class="st0" points="-5.44 -28.15 17 -38.93 39.44 -28.15 61.87 -38.93 84.31 -28.15 106.75 -38.93 129.19 -28.15 151.63 -38.93 174.07 -28.15 196.51 -38.93 218.95 -28.15 241.38 -38.93 263.83 -28.15 286.27 -38.93 308.71 -28.15 331.15 -38.93 353.59 -28.15 376.03 -38.93 398.48 -28.15 420.9 -38.93 443.33 -28.15 465.78 -38.93 488.21 -28.15 510.65 -38.93 533.08 -28.15 555.52 -38.93 577.96 -28.15 600.41 -38.93 622.85 -28.15 645.29 -38.93 667.74 -28.15 690.19 -38.93 712.63 -28.15 735.08 -38.93 757.53 -28.15 779.98 -38.93 802.43 -28.15 824.87 -38.93 847.32 -28.15"/>
          </g>
          <g class="st4">
            <polyline class="st0" points="-5.44 -37.1 17 -47.89 39.44 -37.1 61.87 -47.89 84.31 -37.1 106.75 -47.89 129.19 -37.1 151.63 -47.89 174.07 -37.1 196.51 -47.89 218.95 -37.1 241.38 -47.89 263.83 -37.1 286.27 -47.89 308.71 -37.1 331.15 -47.89 353.59 -37.1 376.03 -47.89 398.48 -37.1 420.9 -47.89 443.33 -37.1 465.78 -47.89 488.21 -37.1 510.65 -47.89 533.08 -37.1 555.52 -47.89 577.96 -37.1 600.41 -47.89 622.85 -37.1 645.29 -47.89 667.74 -37.1 690.19 -47.89 712.63 -37.1 735.08 -47.89 757.53 -37.1 779.98 -47.89 802.43 -37.1 824.87 -47.89 847.32 -37.1"/>
          </g>
          <g class="st4">
            <polyline class="st0" points="-5.44 -46.05 17 -56.84 39.44 -46.05 61.87 -56.84 84.31 -46.05 106.75 -56.84 129.19 -46.05 151.63 -56.84 174.07 -46.05 196.51 -56.84 218.95 -46.05 241.38 -56.84 263.83 -46.05 286.27 -56.84 308.71 -46.05 331.15 -56.84 353.59 -46.05 376.03 -56.84 398.48 -46.05 420.9 -56.84 443.33 -46.05 465.78 -56.84 488.21 -46.05 510.65 -56.84 533.08 -46.05 555.52 -56.84 577.96 -46.05 600.41 -56.84 622.85 -46.05 645.29 -56.84 667.74 -46.05 690.19 -56.84 712.63 -46.05 735.08 -56.84 757.53 -46.05 779.98 -56.84 802.43 -46.05 824.87 -56.84 847.32 -46.05"/>
          </g>
        </g>
      </g>
    </g>
  </g>
</svg>